<?xml version="1.0" encoding="UTF-8" standalone="no"?>
<svg
   xmlns:dc="http://purl.org/dc/elements/1.1/"
   xmlns:cc="http://creativecommons.org/ns#"
   xmlns:rdf="http://www.w3.org/1999/02/22-rdf-syntax-ns#"
   xmlns:svg="http://www.w3.org/2000/svg"
   xmlns="http://www.w3.org/2000/svg"
   xmlns:xlink="http://www.w3.org/1999/xlink"
   id="svg696"
   viewBox="0 0 13.363012 25.024"
   height="43.974644mm"
   width="23.482803mm"
   version="1.2">
  <metadata
     id="metadata702">
    <rdf:RDF>
      <cc:Work
         rdf:about="">
        <dc:format>image/svg+xml</dc:format>
        <dc:type
           rdf:resource="http://purl.org/dc/dcmitype/StillImage" />
        <dc:title></dc:title>
      </cc:Work>
    </rdf:RDF>
  </metadata>
  <defs
     id="defs700" />
  <!-- Page: 1/1 -->
  <text
     y="-1"
     x="0.059999999"
     style="font-size:2.20009995px;font-family:'Century Schoolbook L';text-anchor:start;fill:currentColor"
     id="text582"
     font-size="2.2001">
    <tspan
       id="tspan580" />
  </text>
  <path
     style="fill:currentColor;stroke-width:0.004"
     id="path584"
     d="m 11.5222,19.274 c 0,-0.124 0.1,-0.224 0.224,-0.224 0.124,0 0.224,0.1 0.224,0.224 0,0.124 -0.1,0.224 -0.224,0.224 -0.124,0 -0.224,-0.1 -0.224,-0.224 z" />
  <path
     style="fill:currentColor;stroke-width:0.004"
     id="path586"
     d="m 11.5222,20.274 c 0,-0.124 0.1,-0.224 0.224,-0.224 0.124,0 0.224,0.1 0.224,0.224 0,0.124 -0.1,0.224 -0.224,0.224 -0.124,0 -0.224,-0.1 -0.224,-0.224 z" />
  <rect
     style="fill:currentColor"
     id="rect588"
     ry="0.0000"
     height="4"
     width="0.60000002"
     y="17.774"
     x="12.7622" />
  <rect
     style="fill:currentColor"
     id="rect590"
     ry="0.0000"
     height="4"
     width="0.19"
     y="17.774"
     x="12.2722" />
  <path
     style="fill:currentColor;stroke-width:0.004"
     id="path592"
     d="m 11.5222,9.224 c 0,-0.124 0.1,-0.224 0.224,-0.224 0.124,0 0.224,0.1 0.224,0.224 0,0.124 -0.1,0.224 -0.224,0.224 -0.124,0 -0.224,-0.1 -0.224,-0.224 z" />
  <path
     style="fill:currentColor;stroke-width:0.004"
     id="path594"
     d="m 11.5222,10.224 c 0,-0.124 0.1,-0.224 0.224,-0.224 0.124,0 0.224,0.1 0.224,0.224 0,0.124 -0.1,0.224 -0.224,0.224 -0.124,0 -0.224,-0.1 -0.224,-0.224 z" />
  <rect
     style="fill:currentColor"
     id="rect596"
     ry="0.0000"
     height="4"
     width="0.60000002"
     y="7.724"
     x="12.7622" />
  <rect
     style="fill:currentColor"
     id="rect598"
     ry="0.0000"
     height="4"
     width="0.19"
     y="7.724"
     x="12.2722" />
  <line
     style="stroke:currentColor;stroke-width:0.1;stroke-linecap:round;stroke-linejoin:round"
     id="line600"
     y2="21.774"
     x2="13.312301"
     y1="21.774"
     x1="0.11" />
  <line
     style="stroke:currentColor;stroke-width:0.1;stroke-linecap:round;stroke-linejoin:round"
     id="line602"
     y2="20.774"
     x2="13.312301"
     y1="20.774"
     x1="0.11" />
  <line
     style="stroke:currentColor;stroke-width:0.1;stroke-linecap:round;stroke-linejoin:round"
     id="line604"
     y2="19.774"
     x2="13.312301"
     y1="19.774"
     x1="0.11" />
  <line
     style="stroke:currentColor;stroke-width:0.1;stroke-linecap:round;stroke-linejoin:round"
     id="line606"
     y2="18.774"
     x2="13.312301"
     y1="18.774"
     x1="0.11" />
  <line
     style="stroke:currentColor;stroke-width:0.1;stroke-linecap:round;stroke-linejoin:round"
     id="line608"
     y2="17.774"
     x2="13.312301"
     y1="17.774"
     x1="0.11" />
  <rect
     style="fill:currentColor"
     id="rect610"
     ry="0.1"
     height="0.2"
     width="1.9743"
     y="16.674"
     x="5.5310001" />
  <rect
     style="fill:currentColor"
     id="rect612"
     ry="0.1"
     height="0.2"
     width="1.9743"
     y="15.674"
     x="5.5310001" />
  <rect
     style="fill:currentColor"
     id="rect614"
     ry="0.1"
     height="0.2"
     width="1.8202"
     y="14.674"
     x="5.6849999" />
  <line
     style="stroke:currentColor;stroke-width:0.1;stroke-linecap:round;stroke-linejoin:round"
     id="line616"
     y2="11.724"
     x2="13.312301"
     y1="11.724"
     x1="0.11" />
  <line
     style="stroke:currentColor;stroke-width:0.1;stroke-linecap:round;stroke-linejoin:round"
     id="line618"
     y2="10.724"
     x2="13.312301"
     y1="10.724"
     x1="0.11" />
  <line
     style="stroke:currentColor;stroke-width:0.1;stroke-linecap:round;stroke-linejoin:round"
     id="line620"
     y2="9.724"
     x2="13.312301"
     y1="9.724"
     x1="0.11" />
  <line
     style="stroke:currentColor;stroke-width:0.1;stroke-linecap:round;stroke-linejoin:round"
     id="line622"
     y2="8.724"
     x2="13.312301"
     y1="8.724"
     x1="0.11" />
  <line
     style="stroke:currentColor;stroke-width:0.1;stroke-linecap:round;stroke-linejoin:round"
     id="line624"
     y2="7.724"
     x2="13.312301"
     y1="7.724"
     x1="0.11" />
  <rect
     style="fill:currentColor"
     id="rect626"
     ry="0.1"
     height="0.2"
     width="1.8202"
     y="6.6240001"
     x="5.6849999" />
  <rect
     style="fill:currentColor"
     id="rect628"
     ry="0.1"
     height="0.2"
     width="1.9743"
     y="6.6240001"
     x="5.5310001" />
  <rect
     style="fill:currentColor"
     id="rect630"
     ry="0.1"
     height="0.2"
     width="1.9743"
     y="5.6240001"
     x="5.5310001" />
  <rect
     style="fill:currentColor"
     id="rect632"
     ry="0.1"
     height="0.2"
     width="1.9743"
     y="4.6240001"
     x="5.5310001" />
  <rect
     style="fill:currentColor"
     id="rect634"
     ry="0.1"
     height="0.2"
     width="1.8202"
     y="3.6240001"
     x="5.6849999" />
  <path
     style="fill:currentColor;stroke-width:0.004"
     id="path636"
     d="m 5.274,19.022 c 0,0.04 -0.032,0.076 -0.072,0.076 -0.04,0 -0.076,-0.036 -0.076,-0.076 v -0.58 l -0.332,0.124 v 0.632 c 0,0.04 -0.036,0.076 -0.076,0.076 -0.04,0 -0.072,-0.036 -0.072,-0.076 v -0.58 L 4.518,18.666 C 4.51,18.67 4.498,18.67 4.49,18.67 4.446,18.67 4.41,18.634 4.41,18.59 v -0.24 c 0,-0.032 0.02,-0.064 0.052,-0.076 L 4.646,18.21 v -0.64 l -0.128,0.044 c -0.008,0.004 -0.02,0.004 -0.028,0.004 -0.044,0 -0.08,-0.036 -0.08,-0.08 v -0.24 c 0,-0.032 0.02,-0.06 0.052,-0.072 l 0.184,-0.068 v -0.632 c 0,-0.04 0.032,-0.076 0.072,-0.076 0.04,0 0.076,0.036 0.076,0.076 v 0.58 L 5.126,16.982 V 16.35 c 0,-0.04 0.036,-0.076 0.076,-0.076 0.04,0 0.072,0.036 0.072,0.076 v 0.58 l 0.128,-0.048 c 0.008,-0.004 0.02,-0.004 0.028,-0.004 0.044,0 0.08,0.036 0.08,0.08 v 0.24 c 0,0.032 -0.02,0.064 -0.052,0.076 l -0.184,0.064 v 0.64 L 5.402,17.934 C 5.41,17.93 5.422,17.93 5.43,17.93 c 0.044,0 0.08,0.036 0.08,0.08 v 0.24 c 0,0.032 -0.02,0.06 -0.052,0.072 L 5.274,18.39 Z m -0.48,-1.508 v 0.64 l 0.332,-0.12 v -0.64 z" />
  <path
     style="fill:currentColor;stroke-width:0.004"
     id="path638"
     d="m 5.274,15.522 c 0,0.04 -0.032,0.076 -0.072,0.076 -0.04,0 -0.076,-0.036 -0.076,-0.076 v -0.58 l -0.332,0.124 v 0.632 c 0,0.04 -0.036,0.076 -0.076,0.076 -0.04,0 -0.072,-0.036 -0.072,-0.076 v -0.58 L 4.518,15.166 C 4.51,15.17 4.498,15.17 4.49,15.17 4.446,15.17 4.41,15.134 4.41,15.09 v -0.24 c 0,-0.032 0.02,-0.064 0.052,-0.076 L 4.646,14.71 v -0.64 l -0.128,0.044 c -0.008,0.004 -0.02,0.004 -0.028,0.004 -0.044,0 -0.08,-0.036 -0.08,-0.08 v -0.24 c 0,-0.032 0.02,-0.06 0.052,-0.072 l 0.184,-0.068 v -0.632 c 0,-0.04 0.032,-0.076 0.072,-0.076 0.04,0 0.076,0.036 0.076,0.076 v 0.58 L 5.126,13.482 V 12.85 c 0,-0.04 0.036,-0.076 0.076,-0.076 0.04,0 0.072,0.036 0.072,0.076 v 0.58 l 0.128,-0.048 c 0.008,-0.004 0.02,-0.004 0.028,-0.004 0.044,0 0.08,0.036 0.08,0.08 v 0.24 c 0,0.032 -0.02,0.064 -0.052,0.076 l -0.184,0.064 v 0.64 L 5.402,14.434 C 5.41,14.43 5.422,14.43 5.43,14.43 c 0.044,0 0.08,0.036 0.08,0.08 v 0.24 c 0,0.032 -0.02,0.06 -0.052,0.072 L 5.274,14.89 Z m -0.48,-1.508 v 0.64 l 0.332,-0.12 v -0.64 z" />
  <a
     transform="translate(-5.6306,-3.8453)"
     id="a642"
     xlink:href="textedit:///Users/jyang/Documents/GitHub/wygioatynlib/notation/piano_cres_pitches_58_ais_ps113.ly:9:31:32"
     style="color:inherit">
    <path
       style="fill:currentColor"
       id="path640"
       d="m -23,-116 c 0,28 11,42 40,42 33,0 78,-13 119,-31 L 4,53 c -7,9 -10,17 -10,25 0,34 50,66 87,99 25,22 37,52 37,83 0,24 -8,49 -25,69 l -35,42 c -3,3 -4,7 -4,10 0,9 9,15 17,15 4,0 8,-1 11,-5 L 233,211 c 7,-9 10,-17 10,-25 0,-34 -50,-66 -87,-99 -25,-22 -37,-52 -37,-83 0,-24 7,-49 24,-69 l 84,-99 c 3,-3 4,-7 4,-10 0,-9 -8,-16 -16,-16 -4,0 -9,2 -12,6 -18,21 -63,38 -97,38 -41,0 -53,-26 -53,-67 0,-35 11,-74 28,-94 5,-6 0,-13 -6,-13 -2,0 -4,0 -6,2 -45,54 -92,148 -92,202 z"
       transform="matrix(0.004,0,0,-0.004,14.5048,13.5693)" />
  </a>
  <a
     transform="translate(-5.6306,-3.8453)"
     id="a646"
     xlink:href="textedit:///Users/jyang/Documents/GitHub/wygioatynlib/notation/piano_cres_pitches_58_ais_ps113.ly:9:32:33"
     style="color:inherit">
    <path
       style="fill:currentColor"
       id="path644"
       d="m -67,48 c 0,37 30,67 67,67 37,0 67,-30 67,-67 0,-37 -30,-67 -67,-67 -37,0 -67,30 -67,67 z M 0,363 c 157,0 332,-176 332,-366 0,-9 -10,-15 -19,-15 -9,0 -17,5 -19,18 C 268,148 148,262 0,262 -148,262 -268,148 -294,0 c -2,-13 -10,-18 -19,-18 -9,0 -19,6 -19,15 0,190 175,366 332,366 z"
       transform="matrix(0.004,0,0,-0.004,14.9798,11.2433)" />
  </a>
  <a
     transform="translate(-5.6306,-3.8453)"
     id="a650"
     xlink:href="textedit:///Users/jyang/Documents/GitHub/wygioatynlib/notation/piano_cres_pitches_58_ais_ps113.ly:16:6:7"
     style="color:inherit">
    <path
       style="fill:currentColor"
       id="path648"
       d="m -23,-116 c 0,28 11,42 40,42 33,0 78,-13 119,-31 L 4,53 c -7,9 -10,17 -10,25 0,34 50,66 87,99 25,22 37,52 37,83 0,24 -8,49 -25,69 l -35,42 c -3,3 -4,7 -4,10 0,9 9,15 17,15 4,0 8,-1 11,-5 L 233,211 c 7,-9 10,-17 10,-25 0,-34 -50,-66 -87,-99 -25,-22 -37,-52 -37,-83 0,-24 7,-49 24,-69 l 84,-99 c 3,-3 4,-7 4,-10 0,-9 -8,-16 -16,-16 -4,0 -9,2 -12,6 -18,21 -63,38 -97,38 -41,0 -53,-26 -53,-67 0,-35 11,-74 28,-94 5,-6 0,-13 -6,-13 -2,0 -4,0 -6,2 -45,54 -92,148 -92,202 z"
       transform="matrix(0.004,0,0,-0.004,14.5048,23.6193)" />
  </a>
  <rect
     style="fill:currentColor"
     id="rect652"
     ry="0.050000001"
     height="14.15"
     width="0.16"
     y="7.6740003"
     x="0" />
  <a
     transform="translate(-5.6306,-3.8453)"
     id="a656"
     xlink:href="textedit:///Users/jyang/Documents/GitHub/wygioatynlib/notation/piano_cres_pitches_58_ais_ps113.ly:9:8:9"
     style="color:inherit">
    <path
       style="fill:currentColor"
       id="path654"
       d="m 220,138 c 56,0 109,-29 109,-91 0,-72 -56,-121 -103,-149 -36,-21 -76,-36 -117,-36 -56,0 -109,29 -109,91 0,72 56,121 103,149 36,21 76,36 117,36 z"
       transform="matrix(0.004,0,0,-0.004,11.4906,10.5693)" />
  </a>
  <a
     transform="translate(-5.6306,-3.8453)"
     id="a660"
     xlink:href="textedit:///Users/jyang/Documents/GitHub/wygioatynlib/notation/piano_cres_pitches_58_ais_ps113.ly:9:14:15"
     style="color:inherit">
    <path
       style="fill:currentColor"
       id="path658"
       d="m 220,138 c 56,0 109,-29 109,-91 0,-72 -56,-121 -103,-149 -36,-21 -76,-36 -117,-36 -56,0 -109,29 -109,91 0,72 56,121 103,149 36,21 76,36 117,36 z"
       transform="matrix(0.004,0,0,-0.004,11.4906,7.0693)" />
  </a>
  <a
     transform="translate(-5.6306,-3.8453)"
     id="a664"
     xlink:href="textedit:///Users/jyang/Documents/GitHub/wygioatynlib/notation/piano_cres_pitches_58_ais_ps113.ly:9:22:23"
     style="color:inherit">
    <path
       style="fill:currentColor"
       id="path662"
       d="m -67,48 c 0,37 30,67 67,67 37,0 67,-30 67,-67 0,-37 -30,-67 -67,-67 -37,0 -67,30 -67,67 z M 0,363 c 157,0 332,-176 332,-366 0,-9 -10,-15 -19,-15 -9,0 -17,5 -19,18 C 268,148 148,262 0,262 -148,262 -268,148 -294,0 c -2,-13 -10,-18 -19,-18 -9,0 -19,6 -19,15 0,190 175,366 332,366 z"
       transform="matrix(0.004,0,0,-0.004,12.1486,5.2973)" />
  </a>
  <path
     style="fill:currentColor;stroke-width:0.004"
     id="path666"
     d="m 2.364,9.676 c 0.016,0 0.036,-0.004 0.052,-0.004 0.62,0 1.024,0.512 1.024,1.044 0,0.304 -0.132,0.616 -0.428,0.84 -0.088,0.068 -0.188,0.112 -0.292,0.144 0.012,0.14 0.02,0.28 0.02,0.42 0,0.076 -0.004,0.156 -0.008,0.232 -0.028,0.48 -0.36,0.912 -0.832,0.912 -0.432,0 -0.78,-0.352 -0.78,-0.788 0,-0.232 0.212,-0.412 0.448,-0.412 0.216,0 0.38,0.188 0.38,0.412 0,0.208 -0.172,0.38 -0.38,0.38 -0.044,0 -0.084,-0.008 -0.124,-0.024 0.104,0.156 0.272,0.26 0.468,0.26 0.384,0 0.628,-0.368 0.652,-0.764 0.004,-0.072 0.008,-0.148 0.008,-0.22 0,-0.124 -0.004,-0.244 -0.016,-0.368 C 2.44,11.76 2.324,11.772 2.2,11.772 1.448,11.772 0.868,11.084 0.868,10.276 0.868,9.568 1.392,9.052 1.86,8.512 1.784,8.264 1.712,8.012 1.68,7.752 1.656,7.544 1.652,7.336 1.652,7.128 1.652,6.668 1.872,6.232 2.248,5.96 2.26,5.952 2.276,5.948 2.288,5.948 c 0.016,0 0.028,0 0.04,0.012 C 2.612,6.296 2.86,6.94 2.86,7.392 2.86,7.964 2.516,8.412 2.14,8.848 2.224,9.12 2.296,9.4 2.364,9.676 Z m 0.34,1.86 c 0.272,-0.096 0.452,-0.38 0.452,-0.656 0,-0.36 -0.264,-0.716 -0.692,-0.76 0.096,0.464 0.184,0.924 0.24,1.416 z M 1.156,10.612 c 0,0.54 0.516,0.988 1.056,0.988 0.112,0 0.22,-0.008 0.328,-0.024 -0.056,-0.508 -0.148,-0.98 -0.252,-1.456 -0.316,0.032 -0.496,0.244 -0.496,0.476 0,0.176 0.1,0.364 0.324,0.492 0.02,0.02 0.028,0.04 0.028,0.06 0,0.044 -0.04,0.088 -0.088,0.088 -0.012,0 -0.024,-0.004 -0.036,-0.008 C 1.7,11.056 1.552,10.768 1.552,10.488 1.552,10.136 1.784,9.792 2.192,9.7 2.136,9.468 2.076,9.232 2.008,9 1.58,9.484 1.156,9.972 1.156,10.612 Z M 2.492,6.544 C 2.096,6.736 1.844,7.14 1.844,7.58 1.844,7.876 1.916,8.112 1.988,8.356 2.308,7.968 2.572,7.564 2.572,7.06 2.572,6.84 2.556,6.744 2.492,6.544 Z" />
  <a
     transform="translate(-5.6306,-3.8453)"
     id="a670"
     xlink:href="textedit:///Users/jyang/Documents/GitHub/wygioatynlib/notation/piano_cres_pitches_58_ais_ps113.ly:15:7:8"
     style="color:inherit">
    <path
       style="fill:currentColor"
       id="path668"
       d="m 220,138 c 56,0 109,-29 109,-91 0,-72 -56,-121 -103,-149 -36,-21 -76,-36 -117,-36 -56,0 -109,29 -109,91 0,72 56,121 103,149 36,21 76,36 117,36 z"
       transform="matrix(0.004,0,0,-0.004,11.4906,21.6193)" />
  </a>
  <a
     transform="translate(-5.6306,-3.8453)"
     id="a674"
     xlink:href="textedit:///Users/jyang/Documents/GitHub/wygioatynlib/notation/piano_cres_pitches_58_ais_ps113.ly:15:11:12"
     style="color:inherit">
    <path
       style="fill:currentColor"
       id="path672"
       d="m 220,138 c 56,0 109,-29 109,-91 0,-72 -56,-121 -103,-149 -36,-21 -76,-36 -117,-36 -56,0 -109,29 -109,91 0,72 56,121 103,149 36,21 76,36 117,36 z"
       transform="matrix(0.004,0,0,-0.004,11.4906,18.1193)" />
  </a>
  <path
     style="fill:currentColor;stroke-width:0.004"
     id="path676"
     d="m 3.088,19.274 c 0,-0.112 0.092,-0.204 0.204,-0.204 0.112,0 0.204,0.092 0.204,0.204 0,0.112 -0.092,0.204 -0.204,0.204 -0.112,0 -0.204,-0.092 -0.204,-0.204 z m 0,-1 c 0,-0.112 0.092,-0.204 0.204,-0.204 0.112,0 0.204,0.092 0.204,0.204 0,0.112 -0.092,0.204 -0.204,0.204 -0.112,0 -0.204,-0.092 -0.204,-0.204 z m -1.3,-0.552 c 0.688,0 1.172,0.352 1.172,1.004 0,1.052 -1.052,1.656 -2.064,2.084 -0.012,0.012 -0.024,0.016 -0.036,0.016 -0.028,0 -0.052,-0.024 -0.052,-0.052 0,-0.012 0.004,-0.024 0.016,-0.036 0.808,-0.472 1.648,-1.06 1.648,-1.972 0,-0.48 -0.252,-0.94 -0.684,-0.94 -0.296,0 -0.516,0.216 -0.616,0.504 0.044,-0.02 0.088,-0.032 0.136,-0.032 0.22,0 0.4,0.18 0.4,0.4 0,0.232 -0.176,0.424 -0.4,0.424 -0.24,0 -0.448,-0.188 -0.448,-0.424 0,-0.532 0.408,-0.976 0.928,-0.976 z" />
  <a
     transform="translate(-5.6306,-3.8453)"
     id="a682"
     xlink:href="textedit:///Users/jyang/Documents/GitHub/wygioatynlib/notation/piano_cres_pitches_58_ais_ps113.ly:15:17:18"
     style="color:inherit">
    <path
       style="fill:currentColor"
       id="path678"
       d="M 0,35 C 0,54 16,70 35,70 54,70 70,54 70,35 70,16 54,0 35,0 16,0 0,16 0,35 Z"
       transform="matrix(0.004,0,0,-0.004,12.9465,28.8693)" />
    <path
       style="fill:currentColor"
       id="path680"
       d="m 43,339 c 0,-19 13,-48 39,-48 22,0 43,28 43,59 0,8 18,8 18,0 0,-63 -41,-125 -83,-125 -41,0 -61,44 -61,78 0,82 90,197 251,197 108,0 166,-82 166,-144 0,-30 -17,-67 -52,-67 -35,0 -68,49 -87,90 -3,7 13,14 16,7 8,-18 28,-32 46,-32 21,0 32,18 32,36 0,39 -44,92 -121,92 h -7 c -10,-20 -39,-91 -39,-108 0,-46 100,-114 100,-164 0,-24 -28,-52 -58,-90 29,-3 83,-28 102,-44 13,-11 48,24 57,31 -4,19 -6,29 -6,48 0,60 32,132 96,132 25,0 49,-17 49,-45 0,-37 -43,-80 -79,-110 l -11,-9 c 13,-24 33,-57 47,-69 4,-4 13,-3 18,0 9,5 47,33 63,47 -4,14 -6,28 -6,42 0,55 45,112 97,137 -51,71 -129,126 -208,140 -8,1 -5,19 3,18 142,-25 305,-134 329,-272 1,-8 3,-16 3,-24 C 800,72 750,0 687,0 644,0 606,37 588,82 564,60 515,18 503,10 495,4 484,1 473,1 434,1 422,47 411,86 384,66 321,13 305,4 299,1 293,0 288,4 269,20 260,93 231,102 206,72 184,45 175,36 163,24 128,0 111,0 104,0 97,5 97,12 c 0,13 21,38 30,47 18,19 67,57 95,61 18,21 30,29 30,49 0,47 -88,111 -88,150 0,24 43,134 60,162 C 111,471 43,393 43,339 Z m 432,-85 c -30,0 -43,-27 -43,-55 0,-20 6,-42 14,-60 26,22 63,54 63,83 0,19 -16,32 -34,32 z m 208,11 c -37,-21 -55,-77 -55,-122 0,-48 18,-108 59,-108 32,0 45,39 45,81 0,61 -20,105 -49,149 z"
       transform="matrix(0.004,0,0,-0.004,9.7545,28.8693)" />
  </a>
  <path
     style="fill:currentColor;stroke-width:0.004"
     id="path684"
     d="m 5.274,4.472 c 0,0.04 -0.032,0.076 -0.072,0.076 -0.04,0 -0.076,-0.036 -0.076,-0.076 V 3.892 L 4.794,4.016 v 0.632 c 0,0.04 -0.036,0.076 -0.076,0.076 -0.04,0 -0.072,-0.036 -0.072,-0.076 V 4.068 L 4.518,4.116 C 4.51,4.12 4.498,4.12 4.49,4.12 4.446,4.12 4.41,4.084 4.41,4.04 V 3.8 C 4.41,3.768 4.43,3.736 4.462,3.724 L 4.646,3.66 V 3.02 L 4.518,3.064 C 4.51,3.068 4.498,3.068 4.49,3.068 4.446,3.068 4.41,3.032 4.41,2.988 v -0.24 c 0,-0.032 0.02,-0.06 0.052,-0.072 L 4.646,2.608 V 1.976 c 0,-0.04 0.032,-0.076 0.072,-0.076 0.04,0 0.076,0.036 0.076,0.076 v 0.58 L 5.126,2.432 V 1.8 c 0,-0.04 0.036,-0.076 0.076,-0.076 0.04,0 0.072,0.036 0.072,0.076 V 2.38 L 5.402,2.332 C 5.41,2.328 5.422,2.328 5.43,2.328 c 0.044,0 0.08,0.036 0.08,0.08 v 0.24 C 5.51,2.68 5.49,2.712 5.458,2.724 L 5.274,2.788 v 0.64 L 5.402,3.384 C 5.41,3.38 5.422,3.38 5.43,3.38 c 0.044,0 0.08,0.036 0.08,0.08 V 3.7 c 0,0.032 -0.02,0.06 -0.052,0.072 L 5.274,3.84 Z M 4.794,2.964 v 0.64 l 0.332,-0.12 v -0.64 z" />
  <path
     style="fill:currentColor;stroke-width:0.004"
     id="path686"
     d="m 5.274,7.972 c 0,0.04 -0.032,0.076 -0.072,0.076 -0.04,0 -0.076,-0.036 -0.076,-0.076 V 7.392 L 4.794,7.516 v 0.632 c 0,0.04 -0.036,0.076 -0.076,0.076 -0.04,0 -0.072,-0.036 -0.072,-0.076 V 7.568 L 4.518,7.616 C 4.51,7.62 4.498,7.62 4.49,7.62 4.446,7.62 4.41,7.584 4.41,7.54 V 7.3 C 4.41,7.268 4.43,7.236 4.462,7.224 L 4.646,7.16 V 6.52 L 4.518,6.564 C 4.51,6.568 4.498,6.568 4.49,6.568 4.446,6.568 4.41,6.532 4.41,6.488 v -0.24 c 0,-0.032 0.02,-0.06 0.052,-0.072 L 4.646,6.108 V 5.476 c 0,-0.04 0.032,-0.076 0.072,-0.076 0.04,0 0.076,0.036 0.076,0.076 v 0.58 L 5.126,5.932 V 5.3 c 0,-0.04 0.036,-0.076 0.076,-0.076 0.04,0 0.072,0.036 0.072,0.076 V 5.88 L 5.402,5.832 C 5.41,5.828 5.422,5.828 5.43,5.828 c 0.044,0 0.08,0.036 0.08,0.08 v 0.24 C 5.51,6.18 5.49,6.212 5.458,6.224 L 5.274,6.288 v 0.64 L 5.402,6.884 C 5.41,6.88 5.422,6.88 5.43,6.88 c 0.044,0 0.08,0.036 0.08,0.08 V 7.2 c 0,0.032 -0.02,0.06 -0.052,0.072 L 5.274,7.34 Z M 4.794,6.464 v 0.64 l 0.332,-0.12 v -0.64 z" />
</svg>
