<?xml version="1.0" encoding="UTF-8" standalone="no"?>
<svg
   xmlns:dc="http://purl.org/dc/elements/1.1/"
   xmlns:cc="http://creativecommons.org/ns#"
   xmlns:rdf="http://www.w3.org/1999/02/22-rdf-syntax-ns#"
   xmlns:svg="http://www.w3.org/2000/svg"
   xmlns="http://www.w3.org/2000/svg"
   xmlns:xlink="http://www.w3.org/1999/xlink"
   id="svg104"
   viewBox="0 0 13.363013 22.027999"
   height="38.709774mm"
   width="23.482805mm"
   version="1.2">
  <metadata
     id="metadata110">
    <rdf:RDF>
      <cc:Work
         rdf:about="">
        <dc:format>image/svg+xml</dc:format>
        <dc:type
           rdf:resource="http://purl.org/dc/dcmitype/StillImage" />
        <dc:title></dc:title>
      </cc:Work>
    </rdf:RDF>
  </metadata>
  <defs
     id="defs108" />
  <!-- Page: 1/1 -->
  <text
     y="-1"
     x="0.059999999"
     style="font-size:2.20009995px;font-family:'Century Schoolbook L';text-anchor:start;fill:currentColor"
     id="text4"
     font-size="2.2001">
    <tspan
       id="tspan2" />
  </text>
  <rect
     style="fill:currentColor"
     id="rect6"
     ry="0.1"
     height="0.2"
     width="1.9743"
     y="4.678"
     x="5.5310001" />
  <rect
     style="fill:currentColor"
     id="rect8"
     ry="0.1"
     height="0.2"
     width="1.9743"
     y="3.678"
     x="5.5310001" />
  <rect
     style="fill:currentColor"
     id="rect10"
     ry="0.1"
     height="0.2"
     width="1.9743"
     y="2.678"
     x="5.5310001" />
  <line
     style="stroke:currentColor;stroke-width:0.1;stroke-linecap:round;stroke-linejoin:round"
     id="line12"
     y2="9.7779999"
     x2="13.312301"
     y1="9.7779999"
     x1="0.11" />
  <line
     style="stroke:currentColor;stroke-width:0.1;stroke-linecap:round;stroke-linejoin:round"
     id="line14"
     y2="8.7779999"
     x2="13.312301"
     y1="8.7779999"
     x1="0.11" />
  <line
     style="stroke:currentColor;stroke-width:0.1;stroke-linecap:round;stroke-linejoin:round"
     id="line16"
     y2="7.7779999"
     x2="13.312301"
     y1="7.7779999"
     x1="0.11" />
  <line
     style="stroke:currentColor;stroke-width:0.1;stroke-linecap:round;stroke-linejoin:round"
     id="line18"
     y2="6.7779999"
     x2="13.312301"
     y1="6.7779999"
     x1="0.11" />
  <line
     style="stroke:currentColor;stroke-width:0.1;stroke-linecap:round;stroke-linejoin:round"
     id="line20"
     y2="5.7779999"
     x2="13.312301"
     y1="5.7779999"
     x1="0.11" />
  <rect
     style="fill:currentColor"
     id="rect22"
     ry="0.1"
     height="0.2"
     width="1.9743"
     y="13.678"
     x="5.5310001" />
  <rect
     style="fill:currentColor"
     id="rect24"
     ry="0.1"
     height="0.2"
     width="1.9743"
     y="12.678"
     x="5.5310001" />
  <line
     style="stroke:currentColor;stroke-width:0.1;stroke-linecap:round;stroke-linejoin:round"
     id="line26"
     y2="18.778"
     x2="13.312301"
     y1="18.778"
     x1="0.11" />
  <line
     style="stroke:currentColor;stroke-width:0.1;stroke-linecap:round;stroke-linejoin:round"
     id="line28"
     y2="17.778"
     x2="13.312301"
     y1="17.778"
     x1="0.11" />
  <line
     style="stroke:currentColor;stroke-width:0.1;stroke-linecap:round;stroke-linejoin:round"
     id="line30"
     y2="16.778"
     x2="13.312301"
     y1="16.778"
     x1="0.11" />
  <line
     style="stroke:currentColor;stroke-width:0.1;stroke-linecap:round;stroke-linejoin:round"
     id="line32"
     y2="15.778"
     x2="13.312301"
     y1="15.778"
     x1="0.11" />
  <line
     style="stroke:currentColor;stroke-width:0.1;stroke-linecap:round;stroke-linejoin:round"
     id="line34"
     y2="14.778"
     x2="13.312301"
     y1="14.778"
     x1="0.11" />
  <path
     style="fill:currentColor;stroke-width:0.004"
     id="path36"
     d="m 11.5222,16.278 c 0,-0.124 0.1,-0.224 0.224,-0.224 0.124,0 0.224,0.1 0.224,0.224 0,0.124 -0.1,0.224 -0.224,0.224 -0.124,0 -0.224,-0.1 -0.224,-0.224 z" />
  <path
     style="fill:currentColor;stroke-width:0.004"
     id="path38"
     d="m 11.5222,17.278 c 0,-0.124 0.1,-0.224 0.224,-0.224 0.124,0 0.224,0.1 0.224,0.224 0,0.124 -0.1,0.224 -0.224,0.224 -0.124,0 -0.224,-0.1 -0.224,-0.224 z" />
  <rect
     style="fill:currentColor"
     id="rect40"
     ry="0.0000"
     height="4"
     width="0.60000002"
     y="14.778"
     x="12.7622" />
  <rect
     style="fill:currentColor"
     id="rect42"
     ry="0.0000"
     height="4"
     width="0.19"
     y="14.778"
     x="12.2722" />
  <path
     style="fill:currentColor;stroke-width:0.004"
     id="path44"
     d="m 11.5222,7.278 c 0,-0.124 0.1,-0.224 0.224,-0.224 0.124,0 0.224,0.1 0.224,0.224 0,0.124 -0.1,0.224 -0.224,0.224 -0.124,0 -0.224,-0.1 -0.224,-0.224 z" />
  <path
     style="fill:currentColor;stroke-width:0.004"
     id="path46"
     d="m 11.5222,8.278 c 0,-0.124 0.1,-0.224 0.224,-0.224 0.124,0 0.224,0.1 0.224,0.224 0,0.124 -0.1,0.224 -0.224,0.224 -0.124,0 -0.224,-0.1 -0.224,-0.224 z" />
  <rect
     style="fill:currentColor"
     id="rect48"
     ry="0.0000"
     height="4"
     width="0.60000002"
     y="5.7779999"
     x="12.7622" />
  <rect
     style="fill:currentColor"
     id="rect50"
     ry="0.0000"
     height="4"
     width="0.19"
     y="5.7779999"
     x="12.2722" />
  <a
     transform="translate(-5.6306,-3.8453)"
     id="a54"
     xlink:href="textedit:///Users/jyang/Documents/GitHub/wygioatynlib/notation/piano_cres_pitches_55_a_ps27.ly:9:27:28"
     style="color:inherit">
    <path
       style="fill:currentColor"
       id="path52"
       d="m -23,-116 c 0,28 11,42 40,42 33,0 78,-13 119,-31 L 4,53 c -7,9 -10,17 -10,25 0,34 50,66 87,99 25,22 37,52 37,83 0,24 -8,49 -25,69 l -35,42 c -3,3 -4,7 -4,10 0,9 9,15 17,15 4,0 8,-1 11,-5 L 233,211 c 7,-9 10,-17 10,-25 0,-34 -50,-66 -87,-99 -25,-22 -37,-52 -37,-83 0,-24 7,-49 24,-69 l 84,-99 c 3,-3 4,-7 4,-10 0,-9 -8,-16 -16,-16 -4,0 -9,2 -12,6 -18,21 -63,38 -97,38 -41,0 -53,-26 -53,-67 0,-35 11,-74 28,-94 5,-6 0,-13 -6,-13 -2,0 -4,0 -6,2 -45,54 -92,148 -92,202 z"
       transform="matrix(0.004,0,0,-0.004,14.5048,11.6233)" />
  </a>
  <a
     transform="translate(-5.6306,-3.8453)"
     id="a58"
     xlink:href="textedit:///Users/jyang/Documents/GitHub/wygioatynlib/notation/piano_cres_pitches_55_a_ps27.ly:9:28:29"
     style="color:inherit">
    <path
       style="fill:currentColor"
       id="path56"
       d="m -67,48 c 0,37 30,67 67,67 37,0 67,-30 67,-67 0,-37 -30,-67 -67,-67 -37,0 -67,30 -67,67 z M 0,363 c 157,0 332,-176 332,-366 0,-9 -10,-15 -19,-15 -9,0 -17,5 -19,18 C 268,148 148,262 0,262 -148,262 -268,148 -294,0 c -2,-13 -10,-18 -19,-18 -9,0 -19,6 -19,15 0,190 175,366 332,366 z"
       transform="matrix(0.004,0,0,-0.004,14.9798,9.2973)" />
  </a>
  <a
     transform="translate(-5.6306,-3.8453)"
     id="a62"
     xlink:href="textedit:///Users/jyang/Documents/GitHub/wygioatynlib/notation/piano_cres_pitches_55_a_ps27.ly:16:6:7"
     style="color:inherit">
    <path
       style="fill:currentColor"
       id="path60"
       d="m -23,-116 c 0,28 11,42 40,42 33,0 78,-13 119,-31 L 4,53 c -7,9 -10,17 -10,25 0,34 50,66 87,99 25,22 37,52 37,83 0,24 -8,49 -25,69 l -35,42 c -3,3 -4,7 -4,10 0,9 9,15 17,15 4,0 8,-1 11,-5 L 233,211 c 7,-9 10,-17 10,-25 0,-34 -50,-66 -87,-99 -25,-22 -37,-52 -37,-83 0,-24 7,-49 24,-69 l 84,-99 c 3,-3 4,-7 4,-10 0,-9 -8,-16 -16,-16 -4,0 -9,2 -12,6 -18,21 -63,38 -97,38 -41,0 -53,-26 -53,-67 0,-35 11,-74 28,-94 5,-6 0,-13 -6,-13 -2,0 -4,0 -6,2 -45,54 -92,148 -92,202 z"
       transform="matrix(0.004,0,0,-0.004,14.5048,20.6233)" />
  </a>
  <rect
     style="fill:currentColor"
     id="rect64"
     ry="0.050000001"
     height="13.1"
     width="0.16"
     y="5.7279997"
     x="0" />
  <a
     transform="translate(-5.6306,-3.8453)"
     id="a68"
     xlink:href="textedit:///Users/jyang/Documents/GitHub/wygioatynlib/notation/piano_cres_pitches_55_a_ps27.ly:9:8:9"
     style="color:inherit">
    <path
       style="fill:currentColor"
       id="path66"
       d="m 220,138 c 56,0 109,-29 109,-91 0,-72 -56,-121 -103,-149 -36,-21 -76,-36 -117,-36 -56,0 -109,29 -109,91 0,72 56,121 103,149 36,21 76,36 117,36 z"
       transform="matrix(0.004,0,0,-0.004,11.4906,9.6233)" />
  </a>
  <a
     transform="translate(-5.6306,-3.8453)"
     id="a72"
     xlink:href="textedit:///Users/jyang/Documents/GitHub/wygioatynlib/notation/piano_cres_pitches_55_a_ps27.ly:9:12:13"
     style="color:inherit">
    <path
       style="fill:currentColor"
       id="path70"
       d="m 220,138 c 56,0 109,-29 109,-91 0,-72 -56,-121 -103,-149 -36,-21 -76,-36 -117,-36 -56,0 -109,29 -109,91 0,72 56,121 103,149 36,21 76,36 117,36 z"
       transform="matrix(0.004,0,0,-0.004,11.4906,6.1233)" />
  </a>
  <a
     transform="translate(-5.6306,-3.8453)"
     id="a76"
     xlink:href="textedit:///Users/jyang/Documents/GitHub/wygioatynlib/notation/piano_cres_pitches_55_a_ps27.ly:9:18:19"
     style="color:inherit">
    <path
       style="fill:currentColor"
       id="path74"
       d="m -67,48 c 0,37 30,67 67,67 37,0 67,-30 67,-67 0,-37 -30,-67 -67,-67 -37,0 -67,30 -67,67 z M 0,363 c 157,0 332,-176 332,-366 0,-9 -10,-15 -19,-15 -9,0 -17,5 -19,18 C 268,148 148,262 0,262 -148,262 -268,148 -294,0 c -2,-13 -10,-18 -19,-18 -9,0 -19,6 -19,15 0,190 175,366 332,366 z"
       transform="matrix(0.004,0,0,-0.004,12.1486,5.2973)" />
  </a>
  <path
     style="fill:currentColor;stroke-width:0.004"
     id="path78"
     d="M 2.364,7.73 C 2.38,7.73 2.4,7.726 2.416,7.726 3.036,7.726 3.44,8.238 3.44,8.77 3.44,9.074 3.308,9.386 3.012,9.61 2.924,9.678 2.824,9.722 2.72,9.754 c 0.012,0.14 0.02,0.28 0.02,0.42 0,0.076 -0.004,0.156 -0.008,0.232 -0.028,0.48 -0.36,0.912 -0.832,0.912 -0.432,0 -0.78,-0.352 -0.78,-0.788 0,-0.232 0.212,-0.412 0.448,-0.412 0.216,0 0.38,0.188 0.38,0.412 0,0.208 -0.172,0.38 -0.38,0.38 -0.044,0 -0.084,-0.008 -0.124,-0.024 0.104,0.156 0.272,0.26 0.468,0.26 0.384,0 0.628,-0.368 0.652,-0.764 C 2.568,10.31 2.572,10.234 2.572,10.162 2.572,10.038 2.568,9.918 2.556,9.794 2.44,9.814 2.324,9.826 2.2,9.826 1.448,9.826 0.868,9.138 0.868,8.33 0.868,7.622 1.392,7.106 1.86,6.566 1.784,6.318 1.712,6.066 1.68,5.806 1.656,5.598 1.652,5.39 1.652,5.182 c 0,-0.46 0.22,-0.896 0.596,-1.168 0.012,-0.008 0.028,-0.012 0.04,-0.012 0.016,0 0.028,0 0.04,0.012 0.284,0.336 0.532,0.98 0.532,1.432 0,0.572 -0.344,1.02 -0.72,1.456 0.084,0.272 0.156,0.552 0.224,0.828 z m 0.34,1.86 C 2.976,9.494 3.156,9.21 3.156,8.934 3.156,8.574 2.892,8.218 2.464,8.174 2.56,8.638 2.648,9.098 2.704,9.59 Z M 1.156,8.666 c 0,0.54 0.516,0.988 1.056,0.988 0.112,0 0.22,-0.008 0.328,-0.024 C 2.484,9.122 2.392,8.65 2.288,8.174 1.972,8.206 1.792,8.418 1.792,8.65 c 0,0.176 0.1,0.364 0.324,0.492 0.02,0.02 0.028,0.04 0.028,0.06 0,0.044 -0.04,0.088 -0.088,0.088 C 2.044,9.29 2.032,9.286 2.02,9.282 1.7,9.11 1.552,8.822 1.552,8.542 1.552,8.19 1.784,7.846 2.192,7.754 2.136,7.522 2.076,7.286 2.008,7.054 1.58,7.538 1.156,8.026 1.156,8.666 Z M 2.492,4.598 C 2.096,4.79 1.844,5.194 1.844,5.634 1.844,5.93 1.916,6.166 1.988,6.41 2.308,6.022 2.572,5.618 2.572,5.114 2.572,4.894 2.556,4.798 2.492,4.598 Z" />
  <a
     transform="translate(-5.6306,-3.8453)"
     id="a82"
     xlink:href="textedit:///Users/jyang/Documents/GitHub/wygioatynlib/notation/piano_cres_pitches_55_a_ps27.ly:15:7:8"
     style="color:inherit">
    <path
       style="fill:currentColor"
       id="path80"
       d="m 220,138 c 56,0 109,-29 109,-91 0,-72 -56,-121 -103,-149 -36,-21 -76,-36 -117,-36 -56,0 -109,29 -109,91 0,72 56,121 103,149 36,21 76,36 117,36 z"
       transform="matrix(0.004,0,0,-0.004,11.4906,19.6233)" />
  </a>
  <a
     transform="translate(-5.6306,-3.8453)"
     id="a86"
     xlink:href="textedit:///Users/jyang/Documents/GitHub/wygioatynlib/notation/piano_cres_pitches_55_a_ps27.ly:15:9:10"
     style="color:inherit">
    <path
       style="fill:currentColor"
       id="path84"
       d="m 220,138 c 56,0 109,-29 109,-91 0,-72 -56,-121 -103,-149 -36,-21 -76,-36 -117,-36 -56,0 -109,29 -109,91 0,72 56,121 103,149 36,21 76,36 117,36 z"
       transform="matrix(0.004,0,0,-0.004,11.4906,16.1233)" />
  </a>
  <path
     style="fill:currentColor;stroke-width:0.004"
     id="path88"
     d="m 3.088,16.278 c 0,-0.112 0.092,-0.204 0.204,-0.204 0.112,0 0.204,0.092 0.204,0.204 0,0.112 -0.092,0.204 -0.204,0.204 -0.112,0 -0.204,-0.092 -0.204,-0.204 z m 0,-1 c 0,-0.112 0.092,-0.204 0.204,-0.204 0.112,0 0.204,0.092 0.204,0.204 0,0.112 -0.092,0.204 -0.204,0.204 -0.112,0 -0.204,-0.092 -0.204,-0.204 z m -1.3,-0.552 c 0.688,0 1.172,0.352 1.172,1.004 0,1.052 -1.052,1.656 -2.064,2.084 -0.012,0.012 -0.024,0.016 -0.036,0.016 -0.028,0 -0.052,-0.024 -0.052,-0.052 0,-0.012 0.004,-0.024 0.016,-0.036 0.808,-0.472 1.648,-1.06 1.648,-1.972 0,-0.48 -0.252,-0.94 -0.684,-0.94 -0.296,0 -0.516,0.216 -0.616,0.504 0.044,-0.02 0.088,-0.032 0.136,-0.032 0.22,0 0.4,0.18 0.4,0.4 0,0.232 -0.176,0.424 -0.4,0.424 -0.24,0 -0.448,-0.188 -0.448,-0.424 0,-0.532 0.408,-0.976 0.928,-0.976 z" />
  <a
     transform="translate(-5.6306,-3.8453)"
     id="a94"
     xlink:href="textedit:///Users/jyang/Documents/GitHub/wygioatynlib/notation/piano_cres_pitches_55_a_ps27.ly:15:13:14"
     style="color:inherit">
    <path
       style="fill:currentColor"
       id="path90"
       d="M 0,35 C 0,54 16,70 35,70 54,70 70,54 70,35 70,16 54,0 35,0 16,0 0,16 0,35 Z"
       transform="matrix(0.004,0,0,-0.004,12.9465,25.8733)" />
    <path
       style="fill:currentColor"
       id="path92"
       d="m 43,339 c 0,-19 13,-48 39,-48 22,0 43,28 43,59 0,8 18,8 18,0 0,-63 -41,-125 -83,-125 -41,0 -61,44 -61,78 0,82 90,197 251,197 108,0 166,-82 166,-144 0,-30 -17,-67 -52,-67 -35,0 -68,49 -87,90 -3,7 13,14 16,7 8,-18 28,-32 46,-32 21,0 32,18 32,36 0,39 -44,92 -121,92 h -7 c -10,-20 -39,-91 -39,-108 0,-46 100,-114 100,-164 0,-24 -28,-52 -58,-90 29,-3 83,-28 102,-44 13,-11 48,24 57,31 -4,19 -6,29 -6,48 0,60 32,132 96,132 25,0 49,-17 49,-45 0,-37 -43,-80 -79,-110 l -11,-9 c 13,-24 33,-57 47,-69 4,-4 13,-3 18,0 9,5 47,33 63,47 -4,14 -6,28 -6,42 0,55 45,112 97,137 -51,71 -129,126 -208,140 -8,1 -5,19 3,18 142,-25 305,-134 329,-272 1,-8 3,-16 3,-24 C 800,72 750,0 687,0 644,0 606,37 588,82 564,60 515,18 503,10 495,4 484,1 473,1 434,1 422,47 411,86 384,66 321,13 305,4 299,1 293,0 288,4 269,20 260,93 231,102 206,72 184,45 175,36 163,24 128,0 111,0 104,0 97,5 97,12 c 0,13 21,38 30,47 18,19 67,57 95,61 18,21 30,29 30,49 0,47 -88,111 -88,150 0,24 43,134 60,162 C 111,471 43,393 43,339 Z m 432,-85 c -30,0 -43,-27 -43,-55 0,-20 6,-42 14,-60 26,22 63,54 63,83 0,19 -16,32 -34,32 z m 208,11 c -37,-21 -55,-77 -55,-122 0,-48 18,-108 59,-108 32,0 45,39 45,81 0,61 -20,105 -49,149 z"
       transform="matrix(0.004,0,0,-0.004,9.7545,25.8733)" />
  </a>
</svg>
