<svg xmlns="http://www.w3.org/2000/svg" xmlns:xlink="http://www.w3.org/1999/xlink" version="1.2" width="500.00mm" height="297.00mm" viewBox="0 0 284.5276 169.0094">
<!-- Page: 1/1 -->
<text transform="translate(5.6906, 2.8453)" font-family="Century Schoolbook L" font-size="2.2001" text-anchor="start" fill="currentColor">
<tspan>
 </tspan>
</text>
<rect transform="translate(59.0004, 41.3429)" x="0.0000" y="-2.0000" width="0.1900" height="4.0000" ry="0.0000" fill="currentColor"/>
<rect transform="translate(59.0004, 30.1104)" x="0.0000" y="-2.0000" width="0.1900" height="4.0000" ry="0.0000" fill="currentColor"/>
<rect transform="translate(59.0004, 20.8513)" x="0.0000" y="-2.0000" width="0.1900" height="4.0000" ry="0.0000" fill="currentColor"/>
<rect transform="translate(59.0004, 9.8953)" x="0.0000" y="-2.0000" width="0.1900" height="4.0000" ry="0.0000" fill="currentColor"/>
<rect transform="translate(56.0504, 41.3429)" x="0.0000" y="-2.0000" width="0.1900" height="4.0000" ry="0.0000" fill="currentColor"/>
<rect transform="translate(56.0504, 30.1104)" x="0.0000" y="-2.0000" width="0.1900" height="4.0000" ry="0.0000" fill="currentColor"/>
<rect transform="translate(56.0504, 20.8513)" x="0.0000" y="-2.0000" width="0.1900" height="4.0000" ry="0.0000" fill="currentColor"/>
<rect transform="translate(56.0504, 9.8953)" x="0.0000" y="-2.0000" width="0.1900" height="4.0000" ry="0.0000" fill="currentColor"/>
<line transform="translate(5.6906, 43.3429)" stroke-linejoin="round" stroke-linecap="round" stroke-width="0.1000" stroke="currentColor" x1="0.0500" y1="-0.0000" x2="53.4498" y2="-0.0000"/>
<line transform="translate(5.6906, 42.3429)" stroke-linejoin="round" stroke-linecap="round" stroke-width="0.1000" stroke="currentColor" x1="0.0500" y1="-0.0000" x2="53.4498" y2="-0.0000"/>
<line transform="translate(5.6906, 41.3429)" stroke-linejoin="round" stroke-linecap="round" stroke-width="0.1000" stroke="currentColor" x1="0.0500" y1="-0.0000" x2="53.4498" y2="-0.0000"/>
<line transform="translate(5.6906, 40.3429)" stroke-linejoin="round" stroke-linecap="round" stroke-width="0.1000" stroke="currentColor" x1="0.0500" y1="-0.0000" x2="53.4498" y2="-0.0000"/>
<line transform="translate(5.6906, 39.3429)" stroke-linejoin="round" stroke-linecap="round" stroke-width="0.1000" stroke="currentColor" x1="0.0500" y1="-0.0000" x2="53.4498" y2="-0.0000"/>
<line transform="translate(5.6906, 11.8953)" stroke-linejoin="round" stroke-linecap="round" stroke-width="0.1000" stroke="currentColor" x1="0.0500" y1="-0.0000" x2="53.4498" y2="-0.0000"/>
<line transform="translate(5.6906, 10.8953)" stroke-linejoin="round" stroke-linecap="round" stroke-width="0.1000" stroke="currentColor" x1="0.0500" y1="-0.0000" x2="53.4498" y2="-0.0000"/>
<line transform="translate(5.6906, 9.8953)" stroke-linejoin="round" stroke-linecap="round" stroke-width="0.1000" stroke="currentColor" x1="0.0500" y1="-0.0000" x2="53.4498" y2="-0.0000"/>
<line transform="translate(5.6906, 8.8953)" stroke-linejoin="round" stroke-linecap="round" stroke-width="0.1000" stroke="currentColor" x1="0.0500" y1="-0.0000" x2="53.4498" y2="-0.0000"/>
<line transform="translate(5.6906, 7.8953)" stroke-linejoin="round" stroke-linecap="round" stroke-width="0.1000" stroke="currentColor" x1="0.0500" y1="-0.0000" x2="53.4498" y2="-0.0000"/>
<rect transform="translate(5.6906, 12.8953)" x="27.0863" y="-0.1000" width="1.3926" height="0.2000" ry="0.1000" fill="currentColor"/>
<rect transform="translate(5.6906, 13.8953)" x="27.1610" y="-0.1000" width="1.3178" height="0.2000" ry="0.1000" fill="currentColor"/>
<rect transform="translate(5.6906, 12.8953)" x="35.6074" y="-0.1000" width="1.3926" height="0.2000" ry="0.1000" fill="currentColor"/>
<rect transform="translate(5.6906, 12.8953)" x="40.2356" y="-0.1000" width="1.3355" height="0.2000" ry="0.1000" fill="currentColor"/>
<rect transform="translate(5.6906, 17.8513)" x="35.6645" y="-0.1000" width="1.3355" height="0.2000" ry="0.1000" fill="currentColor"/>
<line transform="translate(5.6906, 22.8513)" stroke-linejoin="round" stroke-linecap="round" stroke-width="0.1000" stroke="currentColor" x1="0.0500" y1="-0.0000" x2="53.4498" y2="-0.0000"/>
<line transform="translate(5.6906, 21.8513)" stroke-linejoin="round" stroke-linecap="round" stroke-width="0.1000" stroke="currentColor" x1="0.0500" y1="-0.0000" x2="53.4498" y2="-0.0000"/>
<line transform="translate(5.6906, 20.8513)" stroke-linejoin="round" stroke-linecap="round" stroke-width="0.1000" stroke="currentColor" x1="0.0500" y1="-0.0000" x2="53.4498" y2="-0.0000"/>
<line transform="translate(5.6906, 19.8513)" stroke-linejoin="round" stroke-linecap="round" stroke-width="0.1000" stroke="currentColor" x1="0.0500" y1="-0.0000" x2="53.4498" y2="-0.0000"/>
<line transform="translate(5.6906, 18.8513)" stroke-linejoin="round" stroke-linecap="round" stroke-width="0.1000" stroke="currentColor" x1="0.0500" y1="-0.0000" x2="53.4498" y2="-0.0000"/>
<rect transform="translate(5.6906, 33.1104)" x="40.1785" y="-0.1000" width="1.3926" height="0.2000" ry="0.1000" fill="currentColor"/>
<rect transform="translate(5.6906, 33.1104)" x="44.7497" y="-0.1000" width="1.3926" height="0.2000" ry="0.1000" fill="currentColor"/>
<line transform="translate(5.6906, 32.1104)" stroke-linejoin="round" stroke-linecap="round" stroke-width="0.1000" stroke="currentColor" x1="0.0500" y1="-0.0000" x2="53.4498" y2="-0.0000"/>
<line transform="translate(5.6906, 31.1104)" stroke-linejoin="round" stroke-linecap="round" stroke-width="0.1000" stroke="currentColor" x1="0.0500" y1="-0.0000" x2="53.4498" y2="-0.0000"/>
<line transform="translate(5.6906, 30.1104)" stroke-linejoin="round" stroke-linecap="round" stroke-width="0.1000" stroke="currentColor" x1="0.0500" y1="-0.0000" x2="53.4498" y2="-0.0000"/>
<line transform="translate(5.6906, 29.1104)" stroke-linejoin="round" stroke-linecap="round" stroke-width="0.1000" stroke="currentColor" x1="0.0500" y1="-0.0000" x2="53.4498" y2="-0.0000"/>
<line transform="translate(5.6906, 28.1104)" stroke-linejoin="round" stroke-linecap="round" stroke-width="0.1000" stroke="currentColor" x1="0.0500" y1="-0.0000" x2="53.4498" y2="-0.0000"/>
<rect transform="translate(5.6906, 38.3429)" x="4.4079" y="-0.1000" width="1.3605" height="0.2000" ry="0.1000" fill="currentColor"/>
<rect transform="translate(5.6906, 38.3429)" x="5.8684" y="-0.1000" width="1.3284" height="0.2000" ry="0.1000" fill="currentColor"/>
<rect transform="translate(5.6906, 38.3429)" x="7.2967" y="-0.1000" width="1.3284" height="0.2000" ry="0.1000" fill="currentColor"/>
<rect transform="translate(5.6906, 38.3429)" x="8.7251" y="-0.1000" width="1.3284" height="0.2000" ry="0.1000" fill="currentColor"/>
<rect transform="translate(5.6906, 38.3429)" x="10.1535" y="-0.1000" width="1.3284" height="0.2000" ry="0.1000" fill="currentColor"/>
<rect transform="translate(5.6906, 38.3429)" x="11.5818" y="-0.1000" width="1.3284" height="0.2000" ry="0.1000" fill="currentColor"/>
<rect transform="translate(5.6906, 38.3429)" x="13.0102" y="-0.1000" width="1.3284" height="0.2000" ry="0.1000" fill="currentColor"/>
<rect transform="translate(5.6906, 38.3429)" x="14.4386" y="-0.1000" width="1.3284" height="0.2000" ry="0.1000" fill="currentColor"/>
<rect transform="translate(5.6906, 38.3429)" x="15.8669" y="-0.1000" width="1.3284" height="0.2000" ry="0.1000" fill="currentColor"/>
<rect transform="translate(5.6906, 38.3429)" x="17.2953" y="-0.1000" width="1.3284" height="0.2000" ry="0.1000" fill="currentColor"/>
<rect transform="translate(5.6906, 38.3429)" x="18.7237" y="-0.1000" width="1.3284" height="0.2000" ry="0.1000" fill="currentColor"/>
<rect transform="translate(5.6906, 38.3429)" x="20.1521" y="-0.1000" width="1.3284" height="0.2000" ry="0.1000" fill="currentColor"/>
<rect transform="translate(5.6906, 38.3429)" x="21.5804" y="-0.1000" width="1.3605" height="0.2000" ry="0.1000" fill="currentColor"/>
<rect transform="translate(5.6906, 38.3429)" x="25.6579" y="-0.1000" width="1.3605" height="0.2000" ry="0.1000" fill="currentColor"/>
<rect transform="translate(5.6906, 38.3429)" x="27.1184" y="-0.1000" width="1.3605" height="0.2000" ry="0.1000" fill="currentColor"/>
<rect transform="translate(5.6906, 38.3429)" x="30.2372" y="-0.1000" width="1.3926" height="0.2000" ry="0.1000" fill="currentColor"/>
<rect transform="translate(5.6906, 38.3429)" x="33.3880" y="-0.1000" width="1.3926" height="0.2000" ry="0.1000" fill="currentColor"/>
<rect transform="translate(5.6906, 38.3429)" x="35.6074" y="-0.1000" width="1.3926" height="0.2000" ry="0.1000" fill="currentColor"/>
<rect transform="translate(5.6906, 38.3429)" x="37.9592" y="-0.1000" width="1.3926" height="0.2000" ry="0.1000" fill="currentColor"/>
<rect transform="translate(5.6906, 38.3429)" x="40.1785" y="-0.1000" width="1.3926" height="0.2000" ry="0.1000" fill="currentColor"/>
<rect transform="translate(5.6906, 38.3429)" x="42.5304" y="-0.1000" width="1.3926" height="0.2000" ry="0.1000" fill="currentColor"/>
<rect transform="translate(5.6906, 38.3429)" x="44.7497" y="-0.1000" width="1.3926" height="0.2000" ry="0.1000" fill="currentColor"/>
<a style="color:inherit;" xlink:href="textedit:///Users/jyang/Documents/GitHub/wygioatynlib/notation/graceNoteFigures_bassClarinet.ly:42:50:51">
<path transform="translate(26.0426, 37.8429) scale(0.0028, -0.0028)" d="M211 141c61 0 117 -33 117 -100c0 -71 -52 -121 -99 -149c-34 -20 -73 -33 -112 -33c-61 0 -117 33 -117 100c0 71 52 121 99 149c34 20 73 33 112 33z" fill="currentColor"/>
</a>
<rect transform="translate(25.4776, 41.3429)" x="-0.0650" y="-6.1420" width="0.1300" height="2.5263" ry="0.0400" fill="currentColor"/>
<a style="color:inherit;" xlink:href="textedit:///Users/jyang/Documents/GitHub/wygioatynlib/notation/graceNoteFigures_bassClarinet.ly:42:47:48">
<path transform="translate(24.6142, 37.8429) scale(0.0028, -0.0028)" d="M211 141c61 0 117 -33 117 -100c0 -71 -52 -121 -99 -149c-34 -20 -73 -33 -112 -33c-61 0 -117 33 -117 100c0 71 52 121 99 149c34 20 73 33 112 33z" fill="currentColor"/>
</a>
<rect transform="translate(24.0492, 41.3429)" x="-0.0650" y="-6.1420" width="0.1300" height="2.5263" ry="0.0400" fill="currentColor"/>
<a style="color:inherit;" xlink:href="textedit:///Users/jyang/Documents/GitHub/wygioatynlib/notation/graceNoteFigures_bassClarinet.ly:42:44:45">
<path transform="translate(23.1859, 37.8429) scale(0.0028, -0.0028)" d="M211 141c61 0 117 -33 117 -100c0 -71 -52 -121 -99 -149c-34 -20 -73 -33 -112 -33c-61 0 -117 33 -117 100c0 71 52 121 99 149c34 20 73 33 112 33z" fill="currentColor"/>
</a>
<rect transform="translate(22.6209, 41.3429)" x="-0.0650" y="-6.1420" width="0.1300" height="2.5263" ry="0.0400" fill="currentColor"/>
<a style="color:inherit;" xlink:href="textedit:///Users/jyang/Documents/GitHub/wygioatynlib/notation/graceNoteFigures_bassClarinet.ly:42:41:42">
<path transform="translate(21.7575, 37.8429) scale(0.0028, -0.0028)" d="M211 141c61 0 117 -33 117 -100c0 -71 -52 -121 -99 -149c-34 -20 -73 -33 -112 -33c-61 0 -117 33 -117 100c0 71 52 121 99 149c34 20 73 33 112 33z" fill="currentColor"/>
</a>
<rect transform="translate(21.1925, 41.3429)" x="-0.0650" y="-6.1420" width="0.1300" height="2.5263" ry="0.0400" fill="currentColor"/>
<a style="color:inherit;" xlink:href="textedit:///Users/jyang/Documents/GitHub/wygioatynlib/notation/graceNoteFigures_bassClarinet.ly:42:38:39">
<path transform="translate(20.3291, 37.8429) scale(0.0028, -0.0028)" d="M211 141c61 0 117 -33 117 -100c0 -71 -52 -121 -99 -149c-34 -20 -73 -33 -112 -33c-61 0 -117 33 -117 100c0 71 52 121 99 149c34 20 73 33 112 33z" fill="currentColor"/>
</a>
<path transform="translate(30.7266, 9.8953) scale(0.0025, -0.0025)" d="M34 33l-1 -58v-10c0 -21 2 -43 5 -64c41 38 85 80 85 136c0 31 -13 63 -40 63c-31 0 -48 -33 -49 -67zM-18 -142l-14 583c10 6 21 9 32 9s22 -3 32 -9l-8 -333c25 27 60 42 97 42c49 0 79 -52 79 -106c0 -76 -78 -117 -133 -169c-19 -18 -27 -52 -55 -52
c-17 0 -30 17 -30 35z" fill="currentColor"/>
<rect transform="translate(32.4439, 9.8953)" x="-0.0650" y="-5.8580" width="0.1300" height="5.7423" ry="0.0400" fill="currentColor"/>
<a style="color:inherit;" xlink:href="textedit:///Users/jyang/Documents/GitHub/wygioatynlib/notation/graceNoteFigures_bassClarinet.ly:42:56:57">
<path transform="translate(31.5806, 37.8429) scale(0.0028, -0.0028)" d="M211 141c61 0 117 -33 117 -100c0 -71 -52 -121 -99 -149c-34 -20 -73 -33 -112 -33c-61 0 -117 33 -117 100c0 71 52 121 99 149c34 20 73 33 112 33z" fill="currentColor"/>
</a>
<path transform="translate(28.1752, 8.8953) scale(0.0040, -0.0040)" d="M446 -100c0 23 18 41 41 41s41 -18 41 -41s-18 -41 -41 -41s-41 18 -41 41zM446 100c0 23 18 41 41 41s41 -18 41 -41s-18 -41 -41 -41s-41 18 -41 41zM179 213c140 0 241 -69 241 -201c0 -211 -210 -333 -411 -421c-3 -3 -6 -4 -9 -4c-7 0 -13 6 -13 13c0 3 1 6 4 9
c150 98 307 217 307 393c0 92 -38 185 -119 185c-52 0 -87 -38 -104 -90c5 1 10 2 15 2c44 0 80 -36 80 -80c0 -46 -35 -85 -80 -85c-48 0 -90 38 -90 85c0 104 77 194 179 194z" fill="currentColor"/>
<a style="color:inherit;" xlink:href="textedit:///Users/jyang/Documents/GitHub/wygioatynlib/notation/graceNoteFigures_bassClarinet.ly:15:19:20">
<path transform="translate(31.5806, 9.8953) scale(0.0028, -0.0028)" d="M211 141c61 0 117 -33 117 -100c0 -71 -52 -121 -99 -149c-34 -20 -73 -33 -112 -33c-61 0 -117 33 -117 100c0 71 52 121 99 149c34 20 73 33 112 33z" fill="currentColor"/>
</a>
<rect transform="translate(28.3343, 41.3429)" x="-0.0650" y="-6.1420" width="0.1300" height="2.5263" ry="0.0400" fill="currentColor"/>
<a style="color:inherit;" xlink:href="textedit:///Users/jyang/Documents/GitHub/wygioatynlib/notation/graceNoteFigures_bassClarinet.ly:42:53:54">
<path transform="translate(27.4710, 37.8429) scale(0.0028, -0.0028)" d="M211 141c61 0 117 -33 117 -100c0 -71 -52 -121 -99 -149c-34 -20 -73 -33 -112 -33c-61 0 -117 33 -117 100c0 71 52 121 99 149c34 20 73 33 112 33z" fill="currentColor"/>
</a>
<rect transform="translate(26.9060, 41.3429)" x="-0.0650" y="-6.1420" width="0.1300" height="2.5263" ry="0.0400" fill="currentColor"/>
<a style="color:inherit;" xlink:href="textedit:///Users/jyang/Documents/GitHub/wygioatynlib/notation/graceNoteFigures_bassClarinet.ly:24:22:23">
<polygon transform="translate(40.1090, 14.9933)" stroke-linejoin="round" stroke-linecap="round" stroke-width="0.0800" fill="currentColor" stroke="currentColor" points="11.4517 -0.1520 11.4517 0.1520 0.0400 0.1520 0.0400 -0.1520"/>
<polygon transform="translate(40.1090, 15.6797)" stroke-linejoin="round" stroke-linecap="round" stroke-width="0.0800" fill="currentColor" stroke="currentColor" points="11.4517 -0.1520 11.4517 0.1520 0.0400 0.1520 0.0400 -0.1520"/>
<polygon transform="translate(40.1090, 16.3661)" stroke-linejoin="round" stroke-linecap="round" stroke-width="0.0800" fill="currentColor" stroke="currentColor" points="11.4517 -0.1520 11.4517 0.1520 0.0400 0.1520 0.0400 -0.1520"/>
</a>
<a style="color:inherit;" xlink:href="textedit:///Users/jyang/Documents/GitHub/wygioatynlib/notation/graceNoteFigures_bassClarinet.ly:33:22:23">
<polygon transform="translate(36.9582, 24.9684)" stroke-linejoin="round" stroke-linecap="round" stroke-width="0.0800" fill="currentColor" stroke="currentColor" points="14.6025 -0.1520 14.6025 0.1520 0.0400 0.1520 0.0400 -0.1520"/>
<polygon transform="translate(36.9582, 25.6548)" stroke-linejoin="round" stroke-linecap="round" stroke-width="0.0800" fill="currentColor" stroke="currentColor" points="14.6025 -0.1520 14.6025 0.1520 0.0400 0.1520 0.0400 -0.1520"/>
<polygon transform="translate(36.9582, 26.3412)" stroke-linejoin="round" stroke-linecap="round" stroke-width="0.0800" fill="currentColor" stroke="currentColor" points="14.6025 -0.1520 14.6025 0.1520 0.0400 0.1520 0.0400 -0.1520"/>
</a>
<rect transform="translate(14.0507, 41.3429)" x="-0.0650" y="-6.1420" width="0.1300" height="2.5263" ry="0.0400" fill="currentColor"/>
<a style="color:inherit;" xlink:href="textedit:///Users/jyang/Documents/GitHub/wygioatynlib/notation/graceNoteFigures_bassClarinet.ly:42:23:24">
<path transform="translate(13.1873, 37.8429) scale(0.0028, -0.0028)" d="M211 141c61 0 117 -33 117 -100c0 -71 -52 -121 -99 -149c-34 -20 -73 -33 -112 -33c-61 0 -117 33 -117 100c0 71 52 121 99 149c34 20 73 33 112 33z" fill="currentColor"/>
</a>
<a style="color:inherit;" xlink:href="textedit:///Users/jyang/Documents/GitHub/wygioatynlib/notation/graceNoteFigures_bassClarinet.ly:15:25:26">
<polygon transform="translate(32.3789, 4.0373)" stroke-linejoin="round" stroke-linecap="round" stroke-width="0.0800" fill="currentColor" stroke="currentColor" points="19.1818 -0.1520 19.1818 0.1520 0.0400 0.1520 0.0400 -0.1520"/>
<polygon transform="translate(32.3789, 4.7237)" stroke-linejoin="round" stroke-linecap="round" stroke-width="0.0800" fill="currentColor" stroke="currentColor" points="19.1818 -0.1520 19.1818 0.1520 0.0400 0.1520 0.0400 -0.1520"/>
<polygon transform="translate(32.3789, 5.4101)" stroke-linejoin="round" stroke-linecap="round" stroke-width="0.0800" fill="currentColor" stroke="currentColor" points="19.1818 -0.1520 19.1818 0.1520 0.0400 0.1520 0.0400 -0.1520"/>
</a>
<rect transform="translate(12.6223, 41.3429)" x="-0.0650" y="-6.1420" width="0.1300" height="2.5263" ry="0.0400" fill="currentColor"/>
<a style="color:inherit;" xlink:href="textedit:///Users/jyang/Documents/GitHub/wygioatynlib/notation/graceNoteFigures_bassClarinet.ly:42:20:21">
<path transform="translate(11.7589, 37.8429) scale(0.0028, -0.0028)" d="M211 141c61 0 117 -33 117 -100c0 -71 -52 -121 -99 -149c-34 -20 -73 -33 -112 -33c-61 0 -117 33 -117 100c0 71 52 121 99 149c34 20 73 33 112 33z" fill="currentColor"/>
</a>
<a style="color:inherit;" xlink:href="textedit:///Users/jyang/Documents/GitHub/wygioatynlib/notation/graceNoteFigures_bassClarinet.ly:42:19:20">
<polygon transform="translate(11.1289, 35.2009)" stroke-linejoin="round" stroke-linecap="round" stroke-width="0.0800" fill="currentColor" stroke="currentColor" points="40.4318 -0.1520 40.4318 0.1520 0.0400 0.1520 0.0400 -0.1520"/>
<polygon transform="translate(11.1289, 35.8873)" stroke-linejoin="round" stroke-linecap="round" stroke-width="0.0800" fill="currentColor" stroke="currentColor" points="40.4318 -0.1520 40.4318 0.1520 0.0400 0.1520 0.0400 -0.1520"/>
<polygon transform="translate(11.1289, 36.5737)" stroke-linejoin="round" stroke-linecap="round" stroke-width="0.0800" fill="currentColor" stroke="currentColor" points="40.4318 -0.1520 40.4318 0.1520 0.0400 0.1520 0.0400 -0.1520"/>
</a>
<rect transform="translate(19.7641, 41.3429)" x="-0.0650" y="-6.1420" width="0.1300" height="2.5263" ry="0.0400" fill="currentColor"/>
<a style="color:inherit;" xlink:href="textedit:///Users/jyang/Documents/GitHub/wygioatynlib/notation/graceNoteFigures_bassClarinet.ly:42:35:36">
<path transform="translate(18.9008, 37.8429) scale(0.0028, -0.0028)" d="M211 141c61 0 117 -33 117 -100c0 -71 -52 -121 -99 -149c-34 -20 -73 -33 -112 -33c-61 0 -117 33 -117 100c0 71 52 121 99 149c34 20 73 33 112 33z" fill="currentColor"/>
</a>
<rect transform="translate(18.3358, 41.3429)" x="-0.0650" y="-6.1420" width="0.1300" height="2.5263" ry="0.0400" fill="currentColor"/>
<a style="color:inherit;" xlink:href="textedit:///Users/jyang/Documents/GitHub/wygioatynlib/notation/graceNoteFigures_bassClarinet.ly:42:32:33">
<path transform="translate(17.4724, 37.8429) scale(0.0028, -0.0028)" d="M211 141c61 0 117 -33 117 -100c0 -71 -52 -121 -99 -149c-34 -20 -73 -33 -112 -33c-61 0 -117 33 -117 100c0 71 52 121 99 149c34 20 73 33 112 33z" fill="currentColor"/>
</a>
<rect transform="translate(16.9074, 41.3429)" x="-0.0650" y="-6.1420" width="0.1300" height="2.5263" ry="0.0400" fill="currentColor"/>
<a style="color:inherit;" xlink:href="textedit:///Users/jyang/Documents/GitHub/wygioatynlib/notation/graceNoteFigures_bassClarinet.ly:42:29:30">
<path transform="translate(16.0440, 37.8429) scale(0.0028, -0.0028)" d="M211 141c61 0 117 -33 117 -100c0 -71 -52 -121 -99 -149c-34 -20 -73 -33 -112 -33c-61 0 -117 33 -117 100c0 71 52 121 99 149c34 20 73 33 112 33z" fill="currentColor"/>
</a>
<rect transform="translate(15.4790, 41.3429)" x="-0.0650" y="-6.1420" width="0.1300" height="2.5263" ry="0.0400" fill="currentColor"/>
<a style="color:inherit;" xlink:href="textedit:///Users/jyang/Documents/GitHub/wygioatynlib/notation/graceNoteFigures_bassClarinet.ly:42:26:27">
<path transform="translate(14.6157, 37.8429) scale(0.0028, -0.0028)" d="M211 141c61 0 117 -33 117 -100c0 -71 -52 -121 -99 -149c-34 -20 -73 -33 -112 -33c-61 0 -117 33 -117 100c0 71 52 121 99 149c34 20 73 33 112 33z" fill="currentColor"/>
</a>
<rect transform="translate(40.1740, 9.8953)" x="-0.0650" y="-5.8580" width="0.1300" height="3.7423" ry="0.0400" fill="currentColor"/>
<a style="color:inherit;" xlink:href="textedit:///Users/jyang/Documents/GitHub/wygioatynlib/notation/graceNoteFigures_bassClarinet.ly:42:65:66">
<path transform="translate(39.3107, 37.8429) scale(0.0028, -0.0028)" d="M211 141c61 0 117 -33 117 -100c0 -71 -52 -121 -99 -149c-34 -20 -73 -33 -112 -33c-61 0 -117 33 -117 100c0 71 52 121 99 149c34 20 73 33 112 33z" fill="currentColor"/>
</a>
<a style="color:inherit;" xlink:href="textedit:///Users/jyang/Documents/GitHub/wygioatynlib/notation/graceNoteFigures_bassClarinet.ly:33:24:25">
<path transform="translate(39.3107, 28.1104) scale(0.0028, -0.0028)" d="M211 141c61 0 117 -33 117 -100c0 -71 -52 -121 -99 -149c-34 -20 -73 -33 -112 -33c-61 0 -117 33 -117 100c0 71 52 121 99 149c34 20 73 33 112 33z" fill="currentColor"/>
</a>
<path transform="translate(36.8640, 19.8513) scale(0.0040, -0.0040)" d="M446 -100c0 23 18 41 41 41s41 -18 41 -41s-18 -41 -41 -41s-41 18 -41 41zM446 100c0 23 18 41 41 41s41 -18 41 -41s-18 -41 -41 -41s-41 18 -41 41zM179 213c140 0 241 -69 241 -201c0 -211 -210 -333 -411 -421c-3 -3 -6 -4 -9 -4c-7 0 -13 6 -13 13c0 3 1 6 4 9
c150 98 307 217 307 393c0 92 -38 185 -119 185c-52 0 -87 -38 -104 -90c5 1 10 2 15 2c44 0 80 -36 80 -80c0 -46 -35 -85 -80 -85c-48 0 -90 38 -90 85c0 104 77 194 179 194z" fill="currentColor"/>
<a style="color:inherit;" xlink:href="textedit:///Users/jyang/Documents/GitHub/wygioatynlib/notation/graceNoteFigures_bassClarinet.ly:24:18:19">
<path transform="translate(39.3107, 19.3513) scale(0.0028, -0.0028)" d="M211 141c61 0 117 -33 117 -100c0 -71 -52 -121 -99 -149c-34 -20 -73 -33 -112 -33c-61 0 -117 33 -117 100c0 71 52 121 99 149c34 20 73 33 112 33z" fill="currentColor"/>
</a>
<a style="color:inherit;" xlink:href="textedit:///Users/jyang/Documents/GitHub/wygioatynlib/notation/graceNoteFigures_bassClarinet.ly:15:38:39">
<path transform="translate(39.3107, 7.8953) scale(0.0028, -0.0028)" d="M211 141c61 0 117 -33 117 -100c0 -71 -52 -121 -99 -149c-34 -20 -73 -33 -112 -33c-61 0 -117 33 -117 100c0 71 52 121 99 149c34 20 73 33 112 33z" fill="currentColor"/>
</a>
<rect transform="translate(37.0232, 41.3429)" x="-0.0650" y="-6.1420" width="0.1300" height="2.5263" ry="0.0400" fill="currentColor"/>
<rect transform="translate(40.1740, 41.3429)" x="-0.0650" y="-6.1420" width="0.1300" height="2.5263" ry="0.0400" fill="currentColor"/>
<path transform="translate(38.4920, 28.1104) scale(0.0025, -0.0025)" d="M124 33c-1 34 -18 67 -49 67c-27 0 -39 -32 -39 -63c0 -56 44 -98 85 -136c3 21 5 43 5 64c0 3 -1 7 -1 10zM176 -142c0 -18 -12 -35 -29 -35c-28 0 -36 34 -55 52c-55 52 -134 93 -134 169c0 54 30 106 79 106c37 0 72 -15 97 -42l-8 333c10 6 21 9 32 9s23 -3 33 -9z
" fill="currentColor"/>
<rect transform="translate(40.1740, 30.1104)" x="-0.0650" y="-5.1420" width="0.1300" height="3.0263" ry="0.0400" fill="currentColor"/>
<rect transform="translate(40.1740, 20.8513)" x="-0.0650" y="-5.8580" width="0.1300" height="4.2423" ry="0.0400" fill="currentColor"/>
<rect transform="translate(33.8723, 41.3429)" x="-0.0650" y="-6.1420" width="0.1300" height="2.5263" ry="0.0400" fill="currentColor"/>
<path transform="translate(32.1902, 13.8953) scale(0.0025, -0.0025)" d="M124 33c-1 34 -18 67 -49 67c-27 0 -39 -32 -39 -63c0 -56 44 -98 85 -136c3 21 5 43 5 64c0 3 -1 7 -1 10zM176 -142c0 -18 -12 -35 -29 -35c-28 0 -36 34 -55 52c-55 52 -134 93 -134 169c0 54 30 106 79 106c37 0 72 -15 97 -42l-8 333c10 6 21 9 32 9s23 -3 33 -9z
" fill="currentColor"/>
<rect transform="translate(33.8723, 9.8953)" x="-0.0650" y="-5.8580" width="0.1300" height="9.7423" ry="0.0400" fill="currentColor"/>
<a style="color:inherit;" xlink:href="textedit:///Users/jyang/Documents/GitHub/wygioatynlib/notation/graceNoteFigures_bassClarinet.ly:42:59:60">
<path transform="translate(33.0089, 37.8429) scale(0.0028, -0.0028)" d="M211 141c61 0 117 -33 117 -100c0 -71 -52 -121 -99 -149c-34 -20 -73 -33 -112 -33c-61 0 -117 33 -117 100c0 71 52 121 99 149c34 20 73 33 112 33z" fill="currentColor"/>
</a>
<a style="color:inherit;" xlink:href="textedit:///Users/jyang/Documents/GitHub/wygioatynlib/notation/graceNoteFigures_bassClarinet.ly:15:27:28">
<path transform="translate(33.0089, 13.8953) scale(0.0028, -0.0028)" d="M211 141c61 0 117 -33 117 -100c0 -71 -52 -121 -99 -149c-34 -20 -73 -33 -112 -33c-61 0 -117 33 -117 100c0 71 52 121 99 149c34 20 73 33 112 33z" fill="currentColor"/>
</a>
<rect transform="translate(32.4439, 41.3429)" x="-0.0650" y="-6.1420" width="0.1300" height="2.5263" ry="0.0400" fill="currentColor"/>
<rect transform="translate(37.0232, 30.1104)" x="-0.0650" y="-5.1420" width="0.1300" height="3.5263" ry="0.0400" fill="currentColor"/>
<path transform="translate(35.1168, 8.8953) scale(0.0025, -0.0025)" d="M198 -327c-13 0 -24 11 -24 24v129l-73 -29v-148c0 -13 -11 -24 -24 -24s-23 11 -23 24v129l-10 -4c-4 -2 -8 -2 -12 -2c-17 0 -32 14 -32 32v46c0 13 8 24 20 29l34 14v148l-10 -4c-4 -2 -8 -3 -12 -3c-17 0 -32 14 -32 32v46c0 13 8 25 20 30l34 13v148
c0 13 10 24 23 24s24 -11 24 -24v-129l73 29v148c0 13 11 24 24 24s23 -11 23 -24v-129l10 4c4 2 8 2 12 2c17 0 32 -14 32 -32v-46c0 -13 -8 -24 -20 -29l-34 -14v-148l10 4c4 2 8 3 12 3c17 0 32 -14 32 -32v-46c0 -13 -8 -25 -20 -30l-34 -13v-148c0 -13 -10 -24 -23 -24
zM101 59v-148l73 30v148z" fill="currentColor"/>
<rect transform="translate(37.0232, 9.8953)" x="-0.0650" y="-5.8580" width="0.1300" height="4.7423" ry="0.0400" fill="currentColor"/>
<a style="color:inherit;" xlink:href="textedit:///Users/jyang/Documents/GitHub/wygioatynlib/notation/graceNoteFigures_bassClarinet.ly:42:62:63">
<path transform="translate(36.1598, 37.8429) scale(0.0028, -0.0028)" d="M211 141c61 0 117 -33 117 -100c0 -71 -52 -121 -99 -149c-34 -20 -73 -33 -112 -33c-61 0 -117 33 -117 100c0 71 52 121 99 149c34 20 73 33 112 33z" fill="currentColor"/>
</a>
<path transform="translate(33.7131, 29.1104) scale(0.0040, -0.0040)" d="M446 -100c0 23 18 41 41 41s41 -18 41 -41s-18 -41 -41 -41s-41 18 -41 41zM446 100c0 23 18 41 41 41s41 -18 41 -41s-18 -41 -41 -41s-41 18 -41 41zM179 213c140 0 241 -69 241 -201c0 -211 -210 -333 -411 -421c-3 -3 -6 -4 -9 -4c-7 0 -13 6 -13 13c0 3 1 6 4 9
c150 98 307 217 307 393c0 92 -38 185 -119 185c-52 0 -87 -38 -104 -90c5 1 10 2 15 2c44 0 80 -36 80 -80c0 -46 -35 -85 -80 -85c-48 0 -90 38 -90 85c0 104 77 194 179 194z" fill="currentColor"/>
<a style="color:inherit;" xlink:href="textedit:///Users/jyang/Documents/GitHub/wygioatynlib/notation/graceNoteFigures_bassClarinet.ly:33:18:19">
<path transform="translate(36.1598, 28.6104) scale(0.0028, -0.0028)" d="M211 141c61 0 117 -33 117 -100c0 -71 -52 -121 -99 -149c-34 -20 -73 -33 -112 -33c-61 0 -117 33 -117 100c0 71 52 121 99 149c34 20 73 33 112 33z" fill="currentColor"/>
</a>
<a style="color:inherit;" xlink:href="textedit:///Users/jyang/Documents/GitHub/wygioatynlib/notation/graceNoteFigures_bassClarinet.ly:15:33:34">
<path transform="translate(36.1598, 8.8953) scale(0.0028, -0.0028)" d="M211 141c61 0 117 -33 117 -100c0 -71 -52 -121 -99 -149c-34 -20 -73 -33 -112 -33c-61 0 -117 33 -117 100c0 71 52 121 99 149c34 20 73 33 112 33z" fill="currentColor"/>
</a>
<rect transform="translate(44.7452, 30.1104)" x="-0.0650" y="-5.1420" width="0.1300" height="3.0263" ry="0.0400" fill="currentColor"/>
<path transform="translate(43.0909, 21.3513) scale(0.0025, -0.0025)" d="M88 -337c-13 0 -24 11 -24 24v106l-15 -9c-5 -3 -11 -5 -17 -5c-17 0 -32 13 -32 32v46c0 11 6 21 15 27l49 31v141l-15 -10c-5 -3 -11 -5 -17 -5c-17 0 -32 13 -32 32v46c0 11 6 21 15 27l49 31v136c0 13 11 24 24 24s23 -11 23 -24v-106l15 9c5 3 11 5 17 5
c17 0 32 -13 32 -32v-46c0 -11 -6 -21 -15 -27l-49 -31v-141l15 10c5 3 11 5 17 5c17 0 32 -13 32 -32v-46c0 -11 -6 -21 -15 -27l-49 -31v-136c0 -13 -10 -24 -23 -24z" fill="currentColor"/>
<rect transform="translate(44.7452, 20.8513)" x="-0.0650" y="-5.8580" width="0.1300" height="6.2423" ry="0.0400" fill="currentColor"/>
<path transform="translate(43.0631, 7.3953) scale(0.0025, -0.0025)" d="M124 33c-1 34 -18 67 -49 67c-27 0 -39 -32 -39 -63c0 -56 44 -98 85 -136c3 21 5 43 5 64c0 3 -1 7 -1 10zM176 -142c0 -18 -12 -35 -29 -35c-28 0 -36 34 -55 52c-55 52 -134 93 -134 169c0 54 30 106 79 106c37 0 72 -15 97 -42l-8 333c10 6 21 9 32 9s23 -3 33 -9z
" fill="currentColor"/>
<rect transform="translate(44.7452, 9.8953)" x="-0.0650" y="-5.8580" width="0.1300" height="3.2423" ry="0.0400" fill="currentColor"/>
<a style="color:inherit;" xlink:href="textedit:///Users/jyang/Documents/GitHub/wygioatynlib/notation/graceNoteFigures_bassClarinet.ly:42:71:72">
<path transform="translate(43.8818, 37.8429) scale(0.0028, -0.0028)" d="M211 141c61 0 117 -33 117 -100c0 -71 -52 -121 -99 -149c-34 -20 -73 -33 -112 -33c-61 0 -117 33 -117 100c0 71 52 121 99 149c34 20 73 33 112 33z" fill="currentColor"/>
</a>
<a style="color:inherit;" xlink:href="textedit:///Users/jyang/Documents/GitHub/wygioatynlib/notation/graceNoteFigures_bassClarinet.ly:33:35:36">
<path transform="translate(43.8818, 28.1104) scale(0.0028, -0.0028)" d="M211 141c61 0 117 -33 117 -100c0 -71 -52 -121 -99 -149c-34 -20 -73 -33 -112 -33c-61 0 -117 33 -117 100c0 71 52 121 99 149c34 20 73 33 112 33z" fill="currentColor"/>
</a>
<a style="color:inherit;" xlink:href="textedit:///Users/jyang/Documents/GitHub/wygioatynlib/notation/graceNoteFigures_bassClarinet.ly:24:30:31">
<path transform="translate(43.8818, 21.3513) scale(0.0028, -0.0028)" d="M211 141c61 0 117 -33 117 -100c0 -71 -52 -121 -99 -149c-34 -20 -73 -33 -112 -33c-61 0 -117 33 -117 100c0 71 52 121 99 149c34 20 73 33 112 33z" fill="currentColor"/>
</a>
<a style="color:inherit;" xlink:href="textedit:///Users/jyang/Documents/GitHub/wygioatynlib/notation/graceNoteFigures_bassClarinet.ly:15:45:46">
<path transform="translate(43.8818, 7.3953) scale(0.0028, -0.0028)" d="M211 141c61 0 117 -33 117 -100c0 -71 -52 -121 -99 -149c-34 -20 -73 -33 -112 -33c-61 0 -117 33 -117 100c0 71 52 121 99 149c34 20 73 33 112 33z" fill="currentColor"/>
</a>
<rect transform="translate(46.9645, 30.1104)" x="-0.0650" y="-5.1420" width="0.1300" height="8.5263" ry="0.0400" fill="currentColor"/>
<path transform="translate(45.3102, 22.8513) scale(0.0025, -0.0025)" d="M88 -337c-13 0 -24 11 -24 24v106l-15 -9c-5 -3 -11 -5 -17 -5c-17 0 -32 13 -32 32v46c0 11 6 21 15 27l49 31v141l-15 -10c-5 -3 -11 -5 -17 -5c-17 0 -32 13 -32 32v46c0 11 6 21 15 27l49 31v136c0 13 11 24 24 24s23 -11 23 -24v-106l15 9c5 3 11 5 17 5
c17 0 32 -13 32 -32v-46c0 -11 -6 -21 -15 -27l-49 -31v-141l15 10c5 3 11 5 17 5c17 0 32 -13 32 -32v-46c0 -11 -6 -21 -15 -27l-49 -31v-136c0 -13 -10 -24 -23 -24z" fill="currentColor"/>
<rect transform="translate(46.9645, 20.8513)" x="-0.0650" y="-5.8580" width="0.1300" height="7.7423" ry="0.0400" fill="currentColor"/>
<path transform="translate(45.2472, 13.3953) scale(0.0025, -0.0025)" d="M34 33l-1 -58v-10c0 -21 2 -43 5 -64c41 38 85 80 85 136c0 31 -13 63 -40 63c-31 0 -48 -33 -49 -67zM-18 -142l-14 583c10 6 21 9 32 9s22 -3 32 -9l-8 -333c25 27 60 42 97 42c49 0 79 -52 79 -106c0 -76 -78 -117 -133 -169c-19 -18 -27 -52 -55 -52
c-17 0 -30 17 -30 35z" fill="currentColor"/>
<rect transform="translate(46.9645, 9.8953)" x="-0.0650" y="-5.8580" width="0.1300" height="9.2423" ry="0.0400" fill="currentColor"/>
<a style="color:inherit;" xlink:href="textedit:///Users/jyang/Documents/GitHub/wygioatynlib/notation/graceNoteFigures_bassClarinet.ly:42:74:75">
<path transform="translate(46.1012, 37.8429) scale(0.0028, -0.0028)" d="M211 141c61 0 117 -33 117 -100c0 -71 -52 -121 -99 -149c-34 -20 -73 -33 -112 -33c-61 0 -117 33 -117 100c0 71 52 121 99 149c34 20 73 33 112 33z" fill="currentColor"/>
</a>
<a style="color:inherit;" xlink:href="textedit:///Users/jyang/Documents/GitHub/wygioatynlib/notation/graceNoteFigures_bassClarinet.ly:33:38:39">
<path transform="translate(46.1012, 33.6104) scale(0.0028, -0.0028)" d="M211 141c61 0 117 -33 117 -100c0 -71 -52 -121 -99 -149c-34 -20 -73 -33 -112 -33c-61 0 -117 33 -117 100c0 71 52 121 99 149c34 20 73 33 112 33z" fill="currentColor"/>
</a>
<a style="color:inherit;" xlink:href="textedit:///Users/jyang/Documents/GitHub/wygioatynlib/notation/graceNoteFigures_bassClarinet.ly:24:35:36">
<path transform="translate(46.1012, 22.8513) scale(0.0028, -0.0028)" d="M211 141c61 0 117 -33 117 -100c0 -71 -52 -121 -99 -149c-34 -20 -73 -33 -112 -33c-61 0 -117 33 -117 100c0 71 52 121 99 149c34 20 73 33 112 33z" fill="currentColor"/>
</a>
<a style="color:inherit;" xlink:href="textedit:///Users/jyang/Documents/GitHub/wygioatynlib/notation/graceNoteFigures_bassClarinet.ly:15:50:51">
<path transform="translate(46.1012, 13.3953) scale(0.0028, -0.0028)" d="M211 141c61 0 117 -33 117 -100c0 -71 -52 -121 -99 -149c-34 -20 -73 -33 -112 -33c-61 0 -117 33 -117 100c0 71 52 121 99 149c34 20 73 33 112 33z" fill="currentColor"/>
</a>
<rect transform="translate(44.7452, 41.3429)" x="-0.0650" y="-6.1420" width="0.1300" height="2.5263" ry="0.0400" fill="currentColor"/>
<path transform="translate(43.0858, 28.1104) scale(0.0025, -0.0025)" d="M-10 375c9 5 20 8 30 8s21 -3 30 -8l-4 -204l96 26c2 0 3 1 5 1c11 0 20 -9 20 -20l10 -553c-9 -5 -20 -8 -30 -8s-21 3 -30 8l4 204l-96 -26c-2 0 -3 -1 -5 -1c-11 0 -20 9 -20 20zM126 108l-81 -22l-4 -194l81 22z" fill="currentColor"/>
<rect transform="translate(11.1939, 41.3429)" x="-0.0650" y="-6.1420" width="0.1300" height="2.5263" ry="0.0400" fill="currentColor"/>
<path transform="translate(6.4906, 40.3429) scale(0.0040, -0.0040)" d="M557 -125c0 28 23 51 51 51s51 -23 51 -51s-23 -51 -51 -51s-51 23 -51 51zM557 125c0 28 23 51 51 51s51 -23 51 -51s-23 -51 -51 -51s-51 23 -51 51zM232 263c172 0 293 -88 293 -251c0 -263 -263 -414 -516 -521c-3 -3 -6 -4 -9 -4c-7 0 -13 6 -13 13c0 3 1 6 4 9
c202 118 412 265 412 493c0 120 -63 235 -171 235c-74 0 -129 -54 -154 -126c11 5 22 8 34 8c55 0 100 -45 100 -100c0 -58 -44 -106 -100 -106c-60 0 -112 47 -112 106c0 133 102 244 232 244z" fill="currentColor"/>
<a style="color:inherit;" xlink:href="textedit:///Users/jyang/Documents/GitHub/wygioatynlib/notation/graceNoteFigures_bassClarinet.ly:42:14:15">
<path transform="translate(10.3306, 37.8429) scale(0.0028, -0.0028)" d="M211 141c61 0 117 -33 117 -100c0 -71 -52 -121 -99 -149c-34 -20 -73 -33 -112 -33c-61 0 -117 33 -117 100c0 71 52 121 99 149c34 20 73 33 112 33z" fill="currentColor"/>
</a>
<path transform="translate(6.4906, 31.1104) scale(0.0040, -0.0040)" d="M376 262c4 0 9 1 13 1c155 0 256 -128 256 -261c0 -76 -33 -154 -107 -210c-22 -17 -47 -28 -73 -36c3 -35 5 -70 5 -105c0 -19 -1 -39 -2 -58c-7 -120 -90 -228 -208 -228c-108 0 -195 88 -195 197c0 58 53 103 112 103c54 0 95 -47 95 -103c0 -52 -43 -95 -95 -95
c-11 0 -21 2 -31 6c26 -39 68 -65 117 -65c96 0 157 92 163 191c1 18 2 37 2 55c0 31 -1 61 -4 92c-29 -5 -58 -8 -89 -8c-188 0 -333 172 -333 374c0 177 131 306 248 441c-19 62 -37 125 -45 190c-6 52 -7 104 -7 156c0 115 55 224 149 292c3 2 7 3 10 3c4 0 7 0 10 -3
c71 -84 133 -245 133 -358c0 -143 -86 -255 -180 -364c21 -68 39 -138 56 -207zM461 -203c68 24 113 95 113 164c0 90 -66 179 -173 190c24 -116 46 -231 60 -354zM74 28c0 -135 129 -247 264 -247c28 0 55 2 82 6c-14 127 -37 245 -63 364c-79 -8 -124 -61 -124 -119
c0 -44 25 -91 81 -123c5 -5 7 -10 7 -15c0 -11 -10 -22 -22 -22c-3 0 -6 1 -9 2c-80 43 -117 115 -117 185c0 88 58 174 160 197c-14 58 -29 117 -46 175c-107 -121 -213 -243 -213 -403zM408 1045c-99 -48 -162 -149 -162 -259c0 -74 18 -133 36 -194
c80 97 146 198 146 324c0 55 -4 79 -20 129z" fill="currentColor"/>
<path transform="translate(6.4906, 21.8513) scale(0.0040, -0.0040)" d="M376 262c4 0 9 1 13 1c155 0 256 -128 256 -261c0 -76 -33 -154 -107 -210c-22 -17 -47 -28 -73 -36c3 -35 5 -70 5 -105c0 -19 -1 -39 -2 -58c-7 -120 -90 -228 -208 -228c-108 0 -195 88 -195 197c0 58 53 103 112 103c54 0 95 -47 95 -103c0 -52 -43 -95 -95 -95
c-11 0 -21 2 -31 6c26 -39 68 -65 117 -65c96 0 157 92 163 191c1 18 2 37 2 55c0 31 -1 61 -4 92c-29 -5 -58 -8 -89 -8c-188 0 -333 172 -333 374c0 177 131 306 248 441c-19 62 -37 125 -45 190c-6 52 -7 104 -7 156c0 115 55 224 149 292c3 2 7 3 10 3c4 0 7 0 10 -3
c71 -84 133 -245 133 -358c0 -143 -86 -255 -180 -364c21 -68 39 -138 56 -207zM461 -203c68 24 113 95 113 164c0 90 -66 179 -173 190c24 -116 46 -231 60 -354zM74 28c0 -135 129 -247 264 -247c28 0 55 2 82 6c-14 127 -37 245 -63 364c-79 -8 -124 -61 -124 -119
c0 -44 25 -91 81 -123c5 -5 7 -10 7 -15c0 -11 -10 -22 -22 -22c-3 0 -6 1 -9 2c-80 43 -117 115 -117 185c0 88 58 174 160 197c-14 58 -29 117 -46 175c-107 -121 -213 -243 -213 -403zM408 1045c-99 -48 -162 -149 -162 -259c0 -74 18 -133 36 -194
c80 97 146 198 146 324c0 55 -4 79 -20 129z" fill="currentColor"/>
<path transform="translate(6.4906, 10.8953) scale(0.0040, -0.0040)" d="M376 262c4 0 9 1 13 1c155 0 256 -128 256 -261c0 -76 -33 -154 -107 -210c-22 -17 -47 -28 -73 -36c3 -35 5 -70 5 -105c0 -19 -1 -39 -2 -58c-7 -120 -90 -228 -208 -228c-108 0 -195 88 -195 197c0 58 53 103 112 103c54 0 95 -47 95 -103c0 -52 -43 -95 -95 -95
c-11 0 -21 2 -31 6c26 -39 68 -65 117 -65c96 0 157 92 163 191c1 18 2 37 2 55c0 31 -1 61 -4 92c-29 -5 -58 -8 -89 -8c-188 0 -333 172 -333 374c0 177 131 306 248 441c-19 62 -37 125 -45 190c-6 52 -7 104 -7 156c0 115 55 224 149 292c3 2 7 3 10 3c4 0 7 0 10 -3
c71 -84 133 -245 133 -358c0 -143 -86 -255 -180 -364c21 -68 39 -138 56 -207zM461 -203c68 24 113 95 113 164c0 90 -66 179 -173 190c24 -116 46 -231 60 -354zM74 28c0 -135 129 -247 264 -247c28 0 55 2 82 6c-14 127 -37 245 -63 364c-79 -8 -124 -61 -124 -119
c0 -44 25 -91 81 -123c5 -5 7 -10 7 -15c0 -11 -10 -22 -22 -22c-3 0 -6 1 -9 2c-80 43 -117 115 -117 185c0 88 58 174 160 197c-14 58 -29 117 -46 175c-107 -121 -213 -243 -213 -403zM408 1045c-99 -48 -162 -149 -162 -259c0 -74 18 -133 36 -194
c80 97 146 198 146 324c0 55 -4 79 -20 129z" fill="currentColor"/>
<rect transform="translate(5.6306, 25.6191)" x="0.0000" y="-17.7738" width="0.1600" height="35.5476" ry="0.0500" fill="currentColor"/>
<rect transform="translate(42.3934, 41.3429)" x="-0.0650" y="-6.1420" width="0.1300" height="2.5263" ry="0.0400" fill="currentColor"/>
<path transform="translate(40.7113, 32.1104) scale(0.0025, -0.0025)" d="M124 33c-1 34 -18 67 -49 67c-27 0 -39 -32 -39 -63c0 -56 44 -98 85 -136c3 21 5 43 5 64c0 3 -1 7 -1 10zM176 -142c0 -18 -12 -35 -29 -35c-28 0 -36 34 -55 52c-55 52 -134 93 -134 169c0 54 30 106 79 106c37 0 72 -15 97 -42l-8 333c10 6 21 9 32 9s23 -3 33 -9z
" fill="currentColor"/>
<rect transform="translate(42.3934, 30.1104)" x="-0.0650" y="-5.1420" width="0.1300" height="7.0263" ry="0.0400" fill="currentColor"/>
<path transform="translate(40.7390, 17.8513) scale(0.0025, -0.0025)" d="M88 -337c-13 0 -24 11 -24 24v106l-15 -9c-5 -3 -11 -5 -17 -5c-17 0 -32 13 -32 32v46c0 11 6 21 15 27l49 31v141l-15 -10c-5 -3 -11 -5 -17 -5c-17 0 -32 13 -32 32v46c0 11 6 21 15 27l49 31v136c0 13 11 24 24 24s23 -11 23 -24v-106l15 9c5 3 11 5 17 5
c17 0 32 -13 32 -32v-46c0 -11 -6 -21 -15 -27l-49 -31v-141l15 10c5 3 11 5 17 5c17 0 32 -13 32 -32v-46c0 -11 -6 -21 -15 -27l-49 -31v-136c0 -13 -10 -24 -23 -24z" fill="currentColor"/>
<rect transform="translate(42.3934, 20.8513)" x="-0.0650" y="-5.8580" width="0.1300" height="2.7423" ry="0.0400" fill="currentColor"/>
<rect transform="translate(42.3934, 9.8953)" x="-0.0650" y="-5.8580" width="0.1300" height="9.2423" ry="0.0400" fill="currentColor"/>
<a style="color:inherit;" xlink:href="textedit:///Users/jyang/Documents/GitHub/wygioatynlib/notation/graceNoteFigures_bassClarinet.ly:42:68:69">
<path transform="translate(41.5300, 37.8429) scale(0.0028, -0.0028)" d="M211 141c61 0 117 -33 117 -100c0 -71 -52 -121 -99 -149c-34 -20 -73 -33 -112 -33c-61 0 -117 33 -117 100c0 71 52 121 99 149c34 20 73 33 112 33z" fill="currentColor"/>
</a>
<a style="color:inherit;" xlink:href="textedit:///Users/jyang/Documents/GitHub/wygioatynlib/notation/graceNoteFigures_bassClarinet.ly:33:29:30">
<path transform="translate(41.5300, 32.1104) scale(0.0028, -0.0028)" d="M211 141c61 0 117 -33 117 -100c0 -71 -52 -121 -99 -149c-34 -20 -73 -33 -112 -33c-61 0 -117 33 -117 100c0 71 52 121 99 149c34 20 73 33 112 33z" fill="currentColor"/>
</a>
<a style="color:inherit;" xlink:href="textedit:///Users/jyang/Documents/GitHub/wygioatynlib/notation/graceNoteFigures_bassClarinet.ly:24:24:25">
<path transform="translate(41.5300, 17.8513) scale(0.0028, -0.0028)" d="M211 141c61 0 117 -33 117 -100c0 -71 -52 -121 -99 -149c-34 -20 -73 -33 -112 -33c-61 0 -117 33 -117 100c0 71 52 121 99 149c34 20 73 33 112 33z" fill="currentColor"/>
</a>
<a style="color:inherit;" xlink:href="textedit:///Users/jyang/Documents/GitHub/wygioatynlib/notation/graceNoteFigures_bassClarinet.ly:15:41:42">
<path transform="translate(41.5300, 13.3953) scale(0.0028, -0.0028)" d="M211 141c61 0 117 -33 117 -100c0 -71 -52 -121 -99 -149c-34 -20 -73 -33 -112 -33c-61 0 -117 33 -117 100c0 71 52 121 99 149c34 20 73 33 112 33z" fill="currentColor"/>
</a>
<rect transform="translate(51.5357, 41.3429)" x="-0.0650" y="-6.1420" width="0.1300" height="2.5263" ry="0.0400" fill="currentColor"/>
<rect transform="translate(51.5357, 30.1104)" x="-0.0650" y="-5.1420" width="0.1300" height="8.0263" ry="0.0400" fill="currentColor"/>
<path transform="translate(49.8814, 19.3513) scale(0.0025, -0.0025)" d="M88 -337c-13 0 -24 11 -24 24v106l-15 -9c-5 -3 -11 -5 -17 -5c-17 0 -32 13 -32 32v46c0 11 6 21 15 27l49 31v141l-15 -10c-5 -3 -11 -5 -17 -5c-17 0 -32 13 -32 32v46c0 11 6 21 15 27l49 31v136c0 13 11 24 24 24s23 -11 23 -24v-106l15 9c5 3 11 5 17 5
c17 0 32 -13 32 -32v-46c0 -11 -6 -21 -15 -27l-49 -31v-141l15 10c5 3 11 5 17 5c17 0 32 -13 32 -32v-46c0 -11 -6 -21 -15 -27l-49 -31v-136c0 -13 -10 -24 -23 -24z" fill="currentColor"/>
<rect transform="translate(51.5357, 20.8513)" x="-0.0650" y="-5.8580" width="0.1300" height="4.2423" ry="0.0400" fill="currentColor"/>
<path transform="translate(49.8536, 10.8953) scale(0.0025, -0.0025)" d="M124 33c-1 34 -18 67 -49 67c-27 0 -39 -32 -39 -63c0 -56 44 -98 85 -136c3 21 5 43 5 64c0 3 -1 7 -1 10zM176 -142c0 -18 -12 -35 -29 -35c-28 0 -36 34 -55 52c-55 52 -134 93 -134 169c0 54 30 106 79 106c37 0 72 -15 97 -42l-8 333c10 6 21 9 32 9s23 -3 33 -9z
" fill="currentColor"/>
<rect transform="translate(51.5357, 9.8953)" x="-0.0650" y="-5.8580" width="0.1300" height="6.7423" ry="0.0400" fill="currentColor"/>
<a style="color:inherit;" xlink:href="textedit:///Users/jyang/Documents/GitHub/wygioatynlib/notation/graceNoteFigures_bassClarinet.ly:42:80:81">
<path transform="translate(50.6723, 37.8429) scale(0.0028, -0.0028)" d="M211 141c61 0 117 -33 117 -100c0 -71 -52 -121 -99 -149c-34 -20 -73 -33 -112 -33c-61 0 -117 33 -117 100c0 71 52 121 99 149c34 20 73 33 112 33z" fill="currentColor"/>
</a>
<a style="color:inherit;" xlink:href="textedit:///Users/jyang/Documents/GitHub/wygioatynlib/notation/graceNoteFigures_bassClarinet.ly:33:47:48">
<path transform="translate(50.6723, 33.1104) scale(0.0028, -0.0028)" d="M211 141c61 0 117 -33 117 -100c0 -71 -52 -121 -99 -149c-34 -20 -73 -33 -112 -33c-61 0 -117 33 -117 100c0 71 52 121 99 149c34 20 73 33 112 33z" fill="currentColor"/>
</a>
<a style="color:inherit;" xlink:href="textedit:///Users/jyang/Documents/GitHub/wygioatynlib/notation/graceNoteFigures_bassClarinet.ly:24:45:46">
<path transform="translate(50.6723, 19.3513) scale(0.0028, -0.0028)" d="M211 141c61 0 117 -33 117 -100c0 -71 -52 -121 -99 -149c-34 -20 -73 -33 -112 -33c-61 0 -117 33 -117 100c0 71 52 121 99 149c34 20 73 33 112 33z" fill="currentColor"/>
</a>
<a style="color:inherit;" xlink:href="textedit:///Users/jyang/Documents/GitHub/wygioatynlib/notation/graceNoteFigures_bassClarinet.ly:15:59:60">
<path transform="translate(50.6723, 10.8953) scale(0.0028, -0.0028)" d="M211 141c61 0 117 -33 117 -100c0 -71 -52 -121 -99 -149c-34 -20 -73 -33 -112 -33c-61 0 -117 33 -117 100c0 71 52 121 99 149c34 20 73 33 112 33z" fill="currentColor"/>
</a>
<path transform="translate(47.6570, 22.8513) scale(0.0025, -0.0025)" d="M-10 375c9 5 20 8 30 8s21 -3 30 -8l-4 -204l96 26c2 0 3 1 5 1c11 0 20 -9 20 -20l10 -553c-9 -5 -20 -8 -30 -8s-21 3 -30 8l4 204l-96 -26c-2 0 -3 -1 -5 -1c-11 0 -20 9 -20 20zM126 108l-81 -22l-4 -194l81 22z" fill="currentColor"/>
<rect transform="translate(49.3164, 20.8513)" x="-0.0650" y="-5.8580" width="0.1300" height="7.7423" ry="0.0400" fill="currentColor"/>
<rect transform="translate(49.3164, 9.8953)" x="-0.0650" y="-5.8580" width="0.1300" height="4.2423" ry="0.0400" fill="currentColor"/>
<a style="color:inherit;" xlink:href="textedit:///Users/jyang/Documents/GitHub/wygioatynlib/notation/graceNoteFigures_bassClarinet.ly:42:77:78">
<path transform="translate(48.4530, 37.8429) scale(0.0028, -0.0028)" d="M211 141c61 0 117 -33 117 -100c0 -71 -52 -121 -99 -149c-34 -20 -73 -33 -112 -33c-61 0 -117 33 -117 100c0 71 52 121 99 149c34 20 73 33 112 33z" fill="currentColor"/>
</a>
<a style="color:inherit;" xlink:href="textedit:///Users/jyang/Documents/GitHub/wygioatynlib/notation/graceNoteFigures_bassClarinet.ly:33:42:43">
<path transform="translate(48.4530, 28.1104) scale(0.0028, -0.0028)" d="M211 141c61 0 117 -33 117 -100c0 -71 -52 -121 -99 -149c-34 -20 -73 -33 -112 -33c-61 0 -117 33 -117 100c0 71 52 121 99 149c34 20 73 33 112 33z" fill="currentColor"/>
</a>
<a style="color:inherit;" xlink:href="textedit:///Users/jyang/Documents/GitHub/wygioatynlib/notation/graceNoteFigures_bassClarinet.ly:24:41:42">
<path transform="translate(48.4530, 22.8513) scale(0.0028, -0.0028)" d="M211 141c61 0 117 -33 117 -100c0 -71 -52 -121 -99 -149c-34 -20 -73 -33 -112 -33c-61 0 -117 33 -117 100c0 71 52 121 99 149c34 20 73 33 112 33z" fill="currentColor"/>
</a>
<a style="color:inherit;" xlink:href="textedit:///Users/jyang/Documents/GitHub/wygioatynlib/notation/graceNoteFigures_bassClarinet.ly:15:56:57">
<path transform="translate(48.4530, 8.3953) scale(0.0028, -0.0028)" d="M211 141c61 0 117 -33 117 -100c0 -71 -52 -121 -99 -149c-34 -20 -73 -33 -112 -33c-61 0 -117 33 -117 100c0 71 52 121 99 149c34 20 73 33 112 33z" fill="currentColor"/>
</a>
<rect transform="translate(46.9645, 41.3429)" x="-0.0650" y="-6.1420" width="0.1300" height="2.5263" ry="0.0400" fill="currentColor"/>
<path transform="translate(47.6343, 28.1104) scale(0.0025, -0.0025)" d="M124 33c-1 34 -18 67 -49 67c-27 0 -39 -32 -39 -63c0 -56 44 -98 85 -136c3 21 5 43 5 64c0 3 -1 7 -1 10zM176 -142c0 -18 -12 -35 -29 -35c-28 0 -36 34 -55 52c-55 52 -134 93 -134 169c0 54 30 106 79 106c37 0 72 -15 97 -42l-8 333c10 6 21 9 32 9s23 -3 33 -9z
" fill="currentColor"/>
<rect transform="translate(49.3164, 30.1104)" x="-0.0650" y="-5.1420" width="0.1300" height="3.0263" ry="0.0400" fill="currentColor"/>
<rect transform="translate(49.3164, 41.3429)" x="-0.0650" y="-6.1420" width="0.1300" height="2.5263" ry="0.0400" fill="currentColor"/>
<a transform="translate(113.9760, 165.1512)" xlink:href="http://lilypond.org/">
<rect x="0.0000" y="-0.4439" width="56.5755" height="2.0827" fill="none" stroke="none" stroke-width="0.0"/>
</a>
<text transform="translate(113.9760, 165.1512)" font-family="Century Schoolbook L" font-size="2.2001" text-anchor="start" fill="currentColor">
<tspan>
Music engraving by LilyPond 2.18.2—www.lilypond.org</tspan>
</text>
</svg>
