<svg xmlns="http://www.w3.org/2000/svg" xmlns:xlink="http://www.w3.org/1999/xlink" version="1.2" width="500.00mm" height="297.00mm" viewBox="0 0 284.5276 169.0094">
<!-- Page: 1/1 -->
<text transform="translate(5.6906, 2.8453)" font-family="Century Schoolbook L" font-size="2.2001" text-anchor="start" fill="currentColor">
<tspan>
 </tspan>
</text>
<rect transform="translate(58.3693, 40.7595)" x="0.0000" y="-2.0000" width="0.1900" height="4.0000" ry="0.0000" fill="currentColor"/>
<rect transform="translate(58.3693, 30.8110)" x="0.0000" y="-2.0000" width="0.1900" height="4.0000" ry="0.0000" fill="currentColor"/>
<rect transform="translate(58.3693, 20.7698)" x="0.0000" y="-2.0000" width="0.1900" height="4.0000" ry="0.0000" fill="currentColor"/>
<rect transform="translate(58.3693, 8.0373)" x="0.0000" y="-2.0000" width="0.1900" height="4.0000" ry="0.0000" fill="currentColor"/>
<rect transform="translate(61.3193, 8.0373)" x="0.0000" y="-2.0000" width="0.1900" height="4.0000" ry="0.0000" fill="currentColor"/>
<rect transform="translate(61.3193, 20.7698)" x="0.0000" y="-2.0000" width="0.1900" height="4.0000" ry="0.0000" fill="currentColor"/>
<rect transform="translate(61.3193, 30.8110)" x="0.0000" y="-2.0000" width="0.1900" height="4.0000" ry="0.0000" fill="currentColor"/>
<rect transform="translate(61.3193, 40.7595)" x="0.0000" y="-2.0000" width="0.1900" height="4.0000" ry="0.0000" fill="currentColor"/>
<line transform="translate(5.6906, 42.7595)" stroke-linejoin="round" stroke-linecap="round" stroke-width="0.1000" stroke="currentColor" x1="0.0500" y1="-0.0000" x2="55.7687" y2="-0.0000"/>
<line transform="translate(5.6906, 41.7595)" stroke-linejoin="round" stroke-linecap="round" stroke-width="0.1000" stroke="currentColor" x1="0.0500" y1="-0.0000" x2="55.7687" y2="-0.0000"/>
<line transform="translate(5.6906, 40.7595)" stroke-linejoin="round" stroke-linecap="round" stroke-width="0.1000" stroke="currentColor" x1="0.0500" y1="-0.0000" x2="55.7687" y2="-0.0000"/>
<line transform="translate(5.6906, 39.7595)" stroke-linejoin="round" stroke-linecap="round" stroke-width="0.1000" stroke="currentColor" x1="0.0500" y1="-0.0000" x2="55.7687" y2="-0.0000"/>
<line transform="translate(5.6906, 38.7595)" stroke-linejoin="round" stroke-linecap="round" stroke-width="0.1000" stroke="currentColor" x1="0.0500" y1="-0.0000" x2="55.7687" y2="-0.0000"/>
<rect transform="translate(5.6906, 11.0373)" x="28.1988" y="-0.1000" width="1.3926" height="0.2000" ry="0.1000" fill="currentColor"/>
<rect transform="translate(5.6906, 12.0373)" x="28.1988" y="-0.1000" width="1.3926" height="0.2000" ry="0.1000" fill="currentColor"/>
<rect transform="translate(5.6906, 13.0373)" x="28.1988" y="-0.1000" width="1.3926" height="0.2000" ry="0.1000" fill="currentColor"/>
<rect transform="translate(5.6906, 14.0373)" x="28.2559" y="-0.1000" width="1.3355" height="0.2000" ry="0.1000" fill="currentColor"/>
<rect transform="translate(5.6906, 11.0373)" x="36.0781" y="-0.1000" width="1.3926" height="0.2000" ry="0.1000" fill="currentColor"/>
<rect transform="translate(5.6906, 12.0373)" x="36.0781" y="-0.1000" width="1.3926" height="0.2000" ry="0.1000" fill="currentColor"/>
<rect transform="translate(5.6906, 11.0373)" x="38.4300" y="-0.1000" width="1.3926" height="0.2000" ry="0.1000" fill="currentColor"/>
<rect transform="translate(5.6906, 12.0373)" x="38.4300" y="-0.1000" width="1.3926" height="0.2000" ry="0.1000" fill="currentColor"/>
<line transform="translate(5.6906, 10.0373)" stroke-linejoin="round" stroke-linecap="round" stroke-width="0.1000" stroke="currentColor" x1="0.0500" y1="-0.0000" x2="55.7687" y2="-0.0000"/>
<line transform="translate(5.6906, 9.0373)" stroke-linejoin="round" stroke-linecap="round" stroke-width="0.1000" stroke="currentColor" x1="0.0500" y1="-0.0000" x2="55.7687" y2="-0.0000"/>
<line transform="translate(5.6906, 8.0373)" stroke-linejoin="round" stroke-linecap="round" stroke-width="0.1000" stroke="currentColor" x1="0.0500" y1="-0.0000" x2="55.7687" y2="-0.0000"/>
<line transform="translate(5.6906, 7.0373)" stroke-linejoin="round" stroke-linecap="round" stroke-width="0.1000" stroke="currentColor" x1="0.0500" y1="-0.0000" x2="55.7687" y2="-0.0000"/>
<line transform="translate(5.6906, 6.0373)" stroke-linejoin="round" stroke-linecap="round" stroke-width="0.1000" stroke="currentColor" x1="0.0500" y1="-0.0000" x2="55.7687" y2="-0.0000"/>
<rect transform="translate(5.6906, 23.7698)" x="28.1988" y="-0.1000" width="1.3926" height="0.2000" ry="0.1000" fill="currentColor"/>
<rect transform="translate(5.6906, 24.7698)" x="28.2735" y="-0.1000" width="1.3178" height="0.2000" ry="0.1000" fill="currentColor"/>
<rect transform="translate(5.6906, 23.7698)" x="36.0781" y="-0.1000" width="1.3926" height="0.2000" ry="0.1000" fill="currentColor"/>
<rect transform="translate(5.6906, 24.7698)" x="36.1352" y="-0.1000" width="1.3355" height="0.2000" ry="0.1000" fill="currentColor"/>
<rect transform="translate(5.6906, 23.7698)" x="40.7818" y="-0.1000" width="1.3926" height="0.2000" ry="0.1000" fill="currentColor"/>
<rect transform="translate(5.6906, 24.7698)" x="40.8389" y="-0.1000" width="1.3355" height="0.2000" ry="0.1000" fill="currentColor"/>
<rect transform="translate(5.6906, 23.7698)" x="44.5973" y="-0.1000" width="1.3926" height="0.2000" ry="0.1000" fill="currentColor"/>
<rect transform="translate(5.6906, 24.7698)" x="44.6720" y="-0.1000" width="1.3178" height="0.2000" ry="0.1000" fill="currentColor"/>
<rect transform="translate(5.6906, 23.7698)" x="47.0686" y="-0.1000" width="1.3926" height="0.2000" ry="0.1000" fill="currentColor"/>
<rect transform="translate(5.6906, 24.7698)" x="47.1257" y="-0.1000" width="1.3355" height="0.2000" ry="0.1000" fill="currentColor"/>
<line transform="translate(5.6906, 22.7698)" stroke-linejoin="round" stroke-linecap="round" stroke-width="0.1000" stroke="currentColor" x1="0.0500" y1="-0.0000" x2="55.7687" y2="-0.0000"/>
<line transform="translate(5.6906, 21.7698)" stroke-linejoin="round" stroke-linecap="round" stroke-width="0.1000" stroke="currentColor" x1="0.0500" y1="-0.0000" x2="55.7687" y2="-0.0000"/>
<line transform="translate(5.6906, 20.7698)" stroke-linejoin="round" stroke-linecap="round" stroke-width="0.1000" stroke="currentColor" x1="0.0500" y1="-0.0000" x2="55.7687" y2="-0.0000"/>
<line transform="translate(5.6906, 19.7698)" stroke-linejoin="round" stroke-linecap="round" stroke-width="0.1000" stroke="currentColor" x1="0.0500" y1="-0.0000" x2="55.7687" y2="-0.0000"/>
<line transform="translate(5.6906, 18.7698)" stroke-linejoin="round" stroke-linecap="round" stroke-width="0.1000" stroke="currentColor" x1="0.0500" y1="-0.0000" x2="55.7687" y2="-0.0000"/>
<rect transform="translate(5.6906, 33.8110)" x="38.4300" y="-0.1000" width="1.3926" height="0.2000" ry="0.1000" fill="currentColor"/>
<rect transform="translate(5.6906, 34.8110)" x="38.4300" y="-0.1000" width="1.3926" height="0.2000" ry="0.1000" fill="currentColor"/>
<rect transform="translate(5.6906, 35.8110)" x="38.4300" y="-0.1000" width="1.3926" height="0.2000" ry="0.1000" fill="currentColor"/>
<rect transform="translate(5.6906, 36.8110)" x="38.4300" y="-0.1000" width="1.3926" height="0.2000" ry="0.1000" fill="currentColor"/>
<rect transform="translate(5.6906, 33.8110)" x="44.5973" y="-0.1000" width="1.3926" height="0.2000" ry="0.1000" fill="currentColor"/>
<rect transform="translate(5.6906, 34.8110)" x="44.5973" y="-0.1000" width="1.3926" height="0.2000" ry="0.1000" fill="currentColor"/>
<rect transform="translate(5.6906, 35.8110)" x="44.5973" y="-0.1000" width="1.3926" height="0.2000" ry="0.1000" fill="currentColor"/>
<rect transform="translate(5.6906, 36.8110)" x="44.5973" y="-0.1000" width="1.3926" height="0.2000" ry="0.1000" fill="currentColor"/>
<line transform="translate(5.6906, 32.8110)" stroke-linejoin="round" stroke-linecap="round" stroke-width="0.1000" stroke="currentColor" x1="0.0500" y1="-0.0000" x2="55.7687" y2="-0.0000"/>
<line transform="translate(5.6906, 31.8110)" stroke-linejoin="round" stroke-linecap="round" stroke-width="0.1000" stroke="currentColor" x1="0.0500" y1="-0.0000" x2="55.7687" y2="-0.0000"/>
<line transform="translate(5.6906, 30.8110)" stroke-linejoin="round" stroke-linecap="round" stroke-width="0.1000" stroke="currentColor" x1="0.0500" y1="-0.0000" x2="55.7687" y2="-0.0000"/>
<line transform="translate(5.6906, 29.8110)" stroke-linejoin="round" stroke-linecap="round" stroke-width="0.1000" stroke="currentColor" x1="0.0500" y1="-0.0000" x2="55.7687" y2="-0.0000"/>
<line transform="translate(5.6906, 28.8110)" stroke-linejoin="round" stroke-linecap="round" stroke-width="0.1000" stroke="currentColor" x1="0.0500" y1="-0.0000" x2="55.7687" y2="-0.0000"/>
<rect transform="translate(29.5768, 40.7595)" x="-0.0650" y="-0.8580" width="0.1300" height="3.2423" ry="0.0400" fill="currentColor"/>
<rect transform="translate(25.4776, 40.7595)" x="-0.0650" y="-0.8580" width="0.1300" height="3.2423" ry="0.0400" fill="currentColor"/>
<path transform="translate(27.6704, 9.5373) scale(0.0025, -0.0025)" d="M198 -327c-13 0 -24 11 -24 24v129l-73 -29v-148c0 -13 -11 -24 -24 -24s-23 11 -23 24v129l-10 -4c-4 -2 -8 -2 -12 -2c-17 0 -32 14 -32 32v46c0 13 8 24 20 29l34 14v148l-10 -4c-4 -2 -8 -3 -12 -3c-17 0 -32 14 -32 32v46c0 13 8 25 20 30l34 13v148
c0 13 10 24 23 24s24 -11 24 -24v-129l73 29v148c0 13 11 24 24 24s23 -11 23 -24v-129l10 4c4 2 8 2 12 2c17 0 32 -14 32 -32v-46c0 -13 -8 -24 -20 -29l-34 -14v-148l10 4c4 2 8 3 12 3c17 0 32 -14 32 -32v-46c0 -13 -8 -25 -20 -30l-34 -13v-148c0 -13 -10 -24 -23 -24
zM101 59v-148l73 30v148z" fill="currentColor"/>
<a style="color:inherit;" xlink:href="textedit:///Users/jyang/Documents/GitHub/wygioatynlib/notation/graceNoteFigures_piano.ly:14:19:20">
<path transform="translate(28.7134, 9.5373) scale(0.0028, -0.0028)" d="M211 141c61 0 117 -33 117 -100c0 -71 -52 -121 -99 -149c-34 -20 -73 -33 -112 -33c-61 0 -117 33 -117 100c0 71 52 121 99 149c34 20 73 33 112 33z" fill="currentColor"/>
</a>
<rect transform="translate(29.5768, 8.0373)" x="-0.0650" y="-4.0000" width="0.1300" height="5.3843" ry="0.0400" fill="currentColor"/>
<path transform="translate(25.3184, 9.0373) scale(0.0040, -0.0040)" d="M518 1c0 -82 -56 -168 -141 -197c2 -27 3 -54 3 -81c0 -16 0 -33 -1 -49c-6 -99 -75 -186 -173 -186c-87 0 -159 72 -159 160c0 46 42 83 90 83c43 0 76 -38 76 -83c0 -42 -34 -76 -76 -76c-4 0 -6 0 -10 1c19 -26 47 -42 81 -42c75 0 124 72 129 149c1 15 1 30 1 45
c0 23 -1 46 -3 69c-22 -4 -44 -6 -67 -6c-151 0 -266 139 -266 302c0 144 101 254 191 367c-16 53 -31 105 -37 160c-5 42 -5 85 -5 128c0 93 42 181 115 239c3 2 6 3 9 3c4 0 8 -1 11 -4c57 -69 107 -202 107 -295c0 -115 -63 -207 -135 -297c17 -59 33 -119 47 -179h1
c2 0 4 1 6 1c126 0 206 -105 206 -212zM373 -155c50 20 81 75 81 125c0 68 -48 136 -127 147c19 -89 35 -178 46 -272zM63 19c0 -104 102 -188 208 -188c21 0 40 1 60 4c-11 98 -28 191 -48 283c-59 -7 -93 -48 -93 -92c0 -34 21 -70 64 -95c5 -5 6 -10 6 -15
c0 -11 -9 -22 -21 -22c-3 0 -6 1 -9 2c-65 35 -95 93 -95 150c0 71 46 141 128 161c-11 48 -24 95 -38 143c-82 -101 -162 -202 -162 -331zM319 860c-76 -44 -123 -124 -123 -211c0 -56 15 -104 29 -151c59 79 107 162 107 261c0 43 -2 61 -13 101z" fill="currentColor"/>
<a style="color:inherit;" xlink:href="textedit:///Users/jyang/Documents/GitHub/wygioatynlib/notation/graceNoteFigures_piano.ly:41:50:51">
<path transform="translate(28.7134, 43.2595) scale(0.0028, -0.0028)" d="M211 141c61 0 117 -33 117 -100c0 -71 -52 -121 -99 -149c-34 -20 -73 -33 -112 -33c-61 0 -117 33 -117 100c0 71 52 121 99 149c34 20 73 33 112 33z" fill="currentColor"/>
</a>
<a style="color:inherit;" xlink:href="textedit:///Users/jyang/Documents/GitHub/wygioatynlib/notation/graceNoteFigures_piano.ly:41:56:57">
<path transform="translate(34.1214, 43.2595) scale(0.0028, -0.0028)" d="M211 141c61 0 117 -33 117 -100c0 -71 -52 -121 -99 -149c-34 -20 -73 -33 -112 -33c-61 0 -117 33 -117 100c0 71 52 121 99 149c34 20 73 33 112 33z" fill="currentColor"/>
</a>
<path transform="translate(30.8460, 21.7698) scale(0.0040, -0.0040)" d="M518 1c0 -82 -56 -168 -141 -197c2 -27 3 -54 3 -81c0 -16 0 -33 -1 -49c-6 -99 -75 -186 -173 -186c-87 0 -159 72 -159 160c0 46 42 83 90 83c43 0 76 -38 76 -83c0 -42 -34 -76 -76 -76c-4 0 -6 0 -10 1c19 -26 47 -42 81 -42c75 0 124 72 129 149c1 15 1 30 1 45
c0 23 -1 46 -3 69c-22 -4 -44 -6 -67 -6c-151 0 -266 139 -266 302c0 144 101 254 191 367c-16 53 -31 105 -37 160c-5 42 -5 85 -5 128c0 93 42 181 115 239c3 2 6 3 9 3c4 0 8 -1 11 -4c57 -69 107 -202 107 -295c0 -115 -63 -207 -135 -297c17 -59 33 -119 47 -179h1
c2 0 4 1 6 1c126 0 206 -105 206 -212zM373 -155c50 20 81 75 81 125c0 68 -48 136 -127 147c19 -89 35 -178 46 -272zM63 19c0 -104 102 -188 208 -188c21 0 40 1 60 4c-11 98 -28 191 -48 283c-59 -7 -93 -48 -93 -92c0 -34 21 -70 64 -95c5 -5 6 -10 6 -15
c0 -11 -9 -22 -21 -22c-3 0 -6 1 -9 2c-65 35 -95 93 -95 150c0 71 46 141 128 161c-11 48 -24 95 -38 143c-82 -101 -162 -202 -162 -331zM319 860c-76 -44 -123 -124 -123 -211c0 -56 15 -104 29 -151c59 79 107 162 107 261c0 43 -2 61 -13 101z" fill="currentColor"/>
<a style="color:inherit;" xlink:href="textedit:///Users/jyang/Documents/GitHub/wygioatynlib/notation/graceNoteFigures_piano.ly:23:19:20">
<path transform="translate(34.1214, 24.7698) scale(0.0028, -0.0028)" d="M211 141c61 0 117 -33 117 -100c0 -71 -52 -121 -99 -149c-34 -20 -73 -33 -112 -33c-61 0 -117 33 -117 100c0 71 52 121 99 149c34 20 73 33 112 33z" fill="currentColor"/>
</a>
<a style="color:inherit;" xlink:href="textedit:///Users/jyang/Documents/GitHub/wygioatynlib/notation/graceNoteFigures_piano.ly:14:30:31">
<path transform="translate(34.1214, 14.0373) scale(0.0028, -0.0028)" d="M211 141c61 0 117 -33 117 -100c0 -71 -52 -121 -99 -149c-34 -20 -73 -33 -112 -33c-61 0 -117 33 -117 100c0 71 52 121 99 149c34 20 73 33 112 33z" fill="currentColor"/>
</a>
<rect transform="translate(31.0051, 40.7595)" x="-0.0650" y="-0.8580" width="0.1300" height="3.2423" ry="0.0400" fill="currentColor"/>
<rect transform="translate(31.0051, 8.0373)" x="-0.0650" y="-4.0000" width="0.1300" height="6.3843" ry="0.0400" fill="currentColor"/>
<a style="color:inherit;" xlink:href="textedit:///Users/jyang/Documents/GitHub/wygioatynlib/notation/graceNoteFigures_piano.ly:41:53:54">
<path transform="translate(30.1418, 43.2595) scale(0.0028, -0.0028)" d="M211 141c61 0 117 -33 117 -100c0 -71 -52 -121 -99 -149c-34 -20 -73 -33 -112 -33c-61 0 -117 33 -117 100c0 71 52 121 99 149c34 20 73 33 112 33z" fill="currentColor"/>
</a>
<a style="color:inherit;" xlink:href="textedit:///Users/jyang/Documents/GitHub/wygioatynlib/notation/graceNoteFigures_piano.ly:14:27:28">
<path transform="translate(30.1418, 10.5373) scale(0.0028, -0.0028)" d="M211 141c61 0 117 -33 117 -100c0 -71 -52 -121 -99 -149c-34 -20 -73 -33 -112 -33c-61 0 -117 33 -117 100c0 71 52 121 99 149c34 20 73 33 112 33z" fill="currentColor"/>
</a>
<rect transform="translate(18.3358, 40.7595)" x="-0.0650" y="-0.8580" width="0.1300" height="3.2423" ry="0.0400" fill="currentColor"/>
<a style="color:inherit;" xlink:href="textedit:///Users/jyang/Documents/GitHub/wygioatynlib/notation/graceNoteFigures_piano.ly:41:32:33">
<path transform="translate(17.4724, 43.2595) scale(0.0028, -0.0028)" d="M211 141c61 0 117 -33 117 -100c0 -71 -52 -121 -99 -149c-34 -20 -73 -33 -112 -33c-61 0 -117 33 -117 100c0 71 52 121 99 149c34 20 73 33 112 33z" fill="currentColor"/>
</a>
<rect transform="translate(16.9074, 40.7595)" x="-0.0650" y="-0.8580" width="0.1300" height="3.2423" ry="0.0400" fill="currentColor"/>
<a style="color:inherit;" xlink:href="textedit:///Users/jyang/Documents/GitHub/wygioatynlib/notation/graceNoteFigures_piano.ly:41:29:30">
<path transform="translate(16.0440, 43.2595) scale(0.0028, -0.0028)" d="M211 141c61 0 117 -33 117 -100c0 -71 -52 -121 -99 -149c-34 -20 -73 -33 -112 -33c-61 0 -117 33 -117 100c0 71 52 121 99 149c34 20 73 33 112 33z" fill="currentColor"/>
</a>
<rect transform="translate(15.4790, 40.7595)" x="-0.0650" y="-0.8580" width="0.1300" height="3.2423" ry="0.0400" fill="currentColor"/>
<a style="color:inherit;" xlink:href="textedit:///Users/jyang/Documents/GitHub/wygioatynlib/notation/graceNoteFigures_piano.ly:41:26:27">
<path transform="translate(14.6157, 43.2595) scale(0.0028, -0.0028)" d="M211 141c61 0 117 -33 117 -100c0 -71 -52 -121 -99 -149c-34 -20 -73 -33 -112 -33c-61 0 -117 33 -117 100c0 71 52 121 99 149c34 20 73 33 112 33z" fill="currentColor"/>
</a>
<rect transform="translate(14.0507, 40.7595)" x="-0.0650" y="-0.8580" width="0.1300" height="3.2423" ry="0.0400" fill="currentColor"/>
<a style="color:inherit;" xlink:href="textedit:///Users/jyang/Documents/GitHub/wygioatynlib/notation/graceNoteFigures_piano.ly:41:23:24">
<path transform="translate(13.1873, 43.2595) scale(0.0028, -0.0028)" d="M211 141c61 0 117 -33 117 -100c0 -71 -52 -121 -99 -149c-34 -20 -73 -33 -112 -33c-61 0 -117 33 -117 100c0 71 52 121 99 149c34 20 73 33 112 33z" fill="currentColor"/>
</a>
<a style="color:inherit;" xlink:href="textedit:///Users/jyang/Documents/GitHub/wygioatynlib/notation/graceNoteFigures_piano.ly:41:47:48">
<path transform="translate(24.6142, 43.2595) scale(0.0028, -0.0028)" d="M211 141c61 0 117 -33 117 -100c0 -71 -52 -121 -99 -149c-34 -20 -73 -33 -112 -33c-61 0 -117 33 -117 100c0 71 52 121 99 149c34 20 73 33 112 33z" fill="currentColor"/>
</a>
<rect transform="translate(24.0492, 40.7595)" x="-0.0650" y="-0.8580" width="0.1300" height="3.2423" ry="0.0400" fill="currentColor"/>
<a style="color:inherit;" xlink:href="textedit:///Users/jyang/Documents/GitHub/wygioatynlib/notation/graceNoteFigures_piano.ly:41:44:45">
<path transform="translate(23.1859, 43.2595) scale(0.0028, -0.0028)" d="M211 141c61 0 117 -33 117 -100c0 -71 -52 -121 -99 -149c-34 -20 -73 -33 -112 -33c-61 0 -117 33 -117 100c0 71 52 121 99 149c34 20 73 33 112 33z" fill="currentColor"/>
</a>
<rect transform="translate(22.6209, 40.7595)" x="-0.0650" y="-0.8580" width="0.1300" height="3.2423" ry="0.0400" fill="currentColor"/>
<a style="color:inherit;" xlink:href="textedit:///Users/jyang/Documents/GitHub/wygioatynlib/notation/graceNoteFigures_piano.ly:41:41:42">
<path transform="translate(21.7575, 43.2595) scale(0.0028, -0.0028)" d="M211 141c61 0 117 -33 117 -100c0 -71 -52 -121 -99 -149c-34 -20 -73 -33 -112 -33c-61 0 -117 33 -117 100c0 71 52 121 99 149c34 20 73 33 112 33z" fill="currentColor"/>
</a>
<rect transform="translate(21.1925, 40.7595)" x="-0.0650" y="-0.8580" width="0.1300" height="3.2423" ry="0.0400" fill="currentColor"/>
<a style="color:inherit;" xlink:href="textedit:///Users/jyang/Documents/GitHub/wygioatynlib/notation/graceNoteFigures_piano.ly:41:38:39">
<path transform="translate(20.3291, 43.2595) scale(0.0028, -0.0028)" d="M211 141c61 0 117 -33 117 -100c0 -71 -52 -121 -99 -149c-34 -20 -73 -33 -112 -33c-61 0 -117 33 -117 100c0 71 52 121 99 149c34 20 73 33 112 33z" fill="currentColor"/>
</a>
<rect transform="translate(19.7641, 40.7595)" x="-0.0650" y="-0.8580" width="0.1300" height="3.2423" ry="0.0400" fill="currentColor"/>
<a style="color:inherit;" xlink:href="textedit:///Users/jyang/Documents/GitHub/wygioatynlib/notation/graceNoteFigures_piano.ly:41:35:36">
<path transform="translate(18.9008, 43.2595) scale(0.0028, -0.0028)" d="M211 141c61 0 117 -33 117 -100c0 -71 -52 -121 -99 -149c-34 -20 -73 -33 -112 -33c-61 0 -117 33 -117 100c0 71 52 121 99 149c34 20 73 33 112 33z" fill="currentColor"/>
</a>
<rect transform="translate(41.4358, 40.7595)" x="-0.0650" y="-0.8580" width="0.1300" height="3.2423" ry="0.0400" fill="currentColor"/>
<path transform="translate(39.5295, 33.3110) scale(0.0025, -0.0025)" d="M198 -327c-13 0 -24 11 -24 24v129l-73 -29v-148c0 -13 -11 -24 -24 -24s-23 11 -23 24v129l-10 -4c-4 -2 -8 -2 -12 -2c-17 0 -32 14 -32 32v46c0 13 8 24 20 29l34 14v148l-10 -4c-4 -2 -8 -3 -12 -3c-17 0 -32 14 -32 32v46c0 13 8 25 20 30l34 13v148
c0 13 10 24 23 24s24 -11 24 -24v-129l73 29v148c0 13 11 24 24 24s23 -11 23 -24v-129l10 4c4 2 8 2 12 2c17 0 32 -14 32 -32v-46c0 -13 -8 -24 -20 -29l-34 -14v-148l10 4c4 2 8 3 12 3c17 0 32 -14 32 -32v-46c0 -13 -8 -25 -20 -30l-34 -13v-148c0 -13 -10 -24 -23 -24
zM101 59v-148l73 30v148z" fill="currentColor"/>
<rect transform="translate(41.4358, 30.8110)" x="-0.0650" y="-3.5000" width="0.1300" height="5.8843" ry="0.0400" fill="currentColor"/>
<rect transform="translate(41.4358, 20.7698)" x="-0.0650" y="-5.1420" width="0.1300" height="2.5263" ry="0.0400" fill="currentColor"/>
<rect transform="translate(41.4358, 8.0373)" x="-0.0650" y="-4.0000" width="0.1300" height="4.3843" ry="0.0400" fill="currentColor"/>
<a style="color:inherit;" xlink:href="textedit:///Users/jyang/Documents/GitHub/wygioatynlib/notation/graceNoteFigures_piano.ly:41:19:20">
<polygon transform="translate(11.1289, 39.9015)" stroke-linejoin="round" stroke-linecap="round" stroke-width="0.0800" fill="currentColor" stroke="currentColor" points="42.7507 -0.1520 42.7507 0.1520 0.0400 0.1520 0.0400 -0.1520"/>
<polygon transform="translate(11.1289, 40.5879)" stroke-linejoin="round" stroke-linecap="round" stroke-width="0.0800" fill="currentColor" stroke="currentColor" points="42.7507 -0.1520 42.7507 0.1520 0.0400 0.1520 0.0400 -0.1520"/>
<polygon transform="translate(11.1289, 41.2743)" stroke-linejoin="round" stroke-linecap="round" stroke-width="0.0800" fill="currentColor" stroke="currentColor" points="42.7507 -0.1520 42.7507 0.1520 0.0400 0.1520 0.0400 -0.1520"/>
</a>
<a style="color:inherit;" xlink:href="textedit:///Users/jyang/Documents/GitHub/wygioatynlib/notation/graceNoteFigures_piano.ly:14:26:27">
<polygon transform="translate(29.5118, 4.0373)" stroke-linejoin="round" stroke-linecap="round" stroke-width="0.0800" fill="currentColor" stroke="currentColor" points="24.3678 -0.1520 24.3678 0.1520 0.0400 0.1520 0.0400 -0.1520"/>
<polygon transform="translate(29.5118, 4.7237)" stroke-linejoin="round" stroke-linecap="round" stroke-width="0.0800" fill="currentColor" stroke="currentColor" points="24.3678 -0.1520 24.3678 0.1520 0.0400 0.1520 0.0400 -0.1520"/>
<polygon transform="translate(29.5118, 5.4101)" stroke-linejoin="round" stroke-linecap="round" stroke-width="0.0800" fill="currentColor" stroke="currentColor" points="24.3678 -0.1520 24.3678 0.1520 0.0400 0.1520 0.0400 -0.1520"/>
</a>
<a style="color:inherit;" xlink:href="textedit:///Users/jyang/Documents/GitHub/wygioatynlib/notation/graceNoteFigures_piano.ly:23:25:26">
<polygon transform="translate(34.9198, 15.6278)" stroke-linejoin="round" stroke-linecap="round" stroke-width="0.0800" fill="currentColor" stroke="currentColor" points="18.9598 -0.1520 18.9598 0.1520 0.0400 0.1520 0.0400 -0.1520"/>
<polygon transform="translate(34.9198, 16.3142)" stroke-linejoin="round" stroke-linecap="round" stroke-width="0.0800" fill="currentColor" stroke="currentColor" points="18.9598 -0.1520 18.9598 0.1520 0.0400 0.1520 0.0400 -0.1520"/>
<polygon transform="translate(34.9198, 17.0006)" stroke-linejoin="round" stroke-linecap="round" stroke-width="0.0800" fill="currentColor" stroke="currentColor" points="18.9598 -0.1520 18.9598 0.1520 0.0400 0.1520 0.0400 -0.1520"/>
</a>
<a style="color:inherit;" xlink:href="textedit:///Users/jyang/Documents/GitHub/wygioatynlib/notation/graceNoteFigures_piano.ly:32:26:27">
<polygon transform="translate(41.3708, 27.3110)" stroke-linejoin="round" stroke-linecap="round" stroke-width="0.0800" fill="currentColor" stroke="currentColor" points="12.5088 -0.1520 12.5088 0.1520 0.0400 0.1520 0.0400 -0.1520"/>
<polygon transform="translate(41.3708, 27.9974)" stroke-linejoin="round" stroke-linecap="round" stroke-width="0.0800" fill="currentColor" stroke="currentColor" points="12.5088 -0.1520 12.5088 0.1520 0.0400 0.1520 0.0400 -0.1520"/>
<polygon transform="translate(41.3708, 28.6838)" stroke-linejoin="round" stroke-linecap="round" stroke-width="0.0800" fill="currentColor" stroke="currentColor" points="12.5088 -0.1520 12.5088 0.1520 0.0400 0.1520 0.0400 -0.1520"/>
</a>
<rect transform="translate(42.8642, 30.8110)" x="-0.0650" y="-3.5000" width="0.1300" height="4.3843" ry="0.0400" fill="currentColor"/>
<path transform="translate(41.2098, 25.2698) scale(0.0025, -0.0025)" d="M88 -337c-13 0 -24 11 -24 24v106l-15 -9c-5 -3 -11 -5 -17 -5c-17 0 -32 13 -32 32v46c0 11 6 21 15 27l49 31v141l-15 -10c-5 -3 -11 -5 -17 -5c-17 0 -32 13 -32 32v46c0 11 6 21 15 27l49 31v136c0 13 11 24 24 24s23 -11 23 -24v-106l15 9c5 3 11 5 17 5
c17 0 32 -13 32 -32v-46c0 -11 -6 -21 -15 -27l-49 -31v-141l15 10c5 3 11 5 17 5c17 0 32 -13 32 -32v-46c0 -11 -6 -21 -15 -27l-49 -31v-136c0 -13 -10 -24 -23 -24z" fill="currentColor"/>
<rect transform="translate(42.8642, 20.7698)" x="-0.0650" y="-5.1420" width="0.1300" height="9.5263" ry="0.0400" fill="currentColor"/>
<rect transform="translate(42.8642, 8.0373)" x="-0.0650" y="-4.0000" width="0.1300" height="7.8843" ry="0.0400" fill="currentColor"/>
<a style="color:inherit;" xlink:href="textedit:///Users/jyang/Documents/GitHub/wygioatynlib/notation/graceNoteFigures_piano.ly:41:65:66">
<path transform="translate(42.0008, 43.2595) scale(0.0028, -0.0028)" d="M211 141c61 0 117 -33 117 -100c0 -71 -52 -121 -99 -149c-34 -20 -73 -33 -112 -33c-61 0 -117 33 -117 100c0 71 52 121 99 149c34 20 73 33 112 33z" fill="currentColor"/>
</a>
<a style="color:inherit;" xlink:href="textedit:///Users/jyang/Documents/GitHub/wygioatynlib/notation/graceNoteFigures_piano.ly:32:28:29">
<path transform="translate(42.0008, 31.8110) scale(0.0028, -0.0028)" d="M211 141c61 0 117 -33 117 -100c0 -71 -52 -121 -99 -149c-34 -20 -73 -33 -112 -33c-61 0 -117 33 -117 100c0 71 52 121 99 149c34 20 73 33 112 33z" fill="currentColor"/>
</a>
<a style="color:inherit;" xlink:href="textedit:///Users/jyang/Documents/GitHub/wygioatynlib/notation/graceNoteFigures_piano.ly:23:34:35">
<path transform="translate(42.0008, 25.2698) scale(0.0028, -0.0028)" d="M211 141c61 0 117 -33 117 -100c0 -71 -52 -121 -99 -149c-34 -20 -73 -33 -112 -33c-61 0 -117 33 -117 100c0 71 52 121 99 149c34 20 73 33 112 33z" fill="currentColor"/>
</a>
<a style="color:inherit;" xlink:href="textedit:///Users/jyang/Documents/GitHub/wygioatynlib/notation/graceNoteFigures_piano.ly:14:43:44">
<path transform="translate(42.0008, 12.0373) scale(0.0028, -0.0028)" d="M211 141c61 0 117 -33 117 -100c0 -71 -52 -121 -99 -149c-34 -20 -73 -33 -112 -33c-61 0 -117 33 -117 100c0 71 52 121 99 149c34 20 73 33 112 33z" fill="currentColor"/>
</a>
<path transform="translate(33.3027, 24.7698) scale(0.0025, -0.0025)" d="M124 33c-1 34 -18 67 -49 67c-27 0 -39 -32 -39 -63c0 -56 44 -98 85 -136c3 21 5 43 5 64c0 3 -1 7 -1 10zM176 -142c0 -18 -12 -35 -29 -35c-28 0 -36 34 -55 52c-55 52 -134 93 -134 169c0 54 30 106 79 106c37 0 72 -15 97 -42l-8 333c10 6 21 9 32 9s23 -3 33 -9z
" fill="currentColor"/>
<rect transform="translate(34.9848, 20.7698)" x="-0.0650" y="-5.1420" width="0.1300" height="9.0263" ry="0.0400" fill="currentColor"/>
<path transform="translate(33.2675, 14.0373) scale(0.0025, -0.0025)" d="M34 33l-1 -58v-10c0 -21 2 -43 5 -64c41 38 85 80 85 136c0 31 -13 63 -40 63c-31 0 -48 -33 -49 -67zM-18 -142l-14 583c10 6 21 9 32 9s22 -3 32 -9l-8 -333c25 27 60 42 97 42c49 0 79 -52 79 -106c0 -76 -78 -117 -133 -169c-19 -18 -27 -52 -55 -52
c-17 0 -30 17 -30 35z" fill="currentColor"/>
<rect transform="translate(34.9848, 8.0373)" x="-0.0650" y="-4.0000" width="0.1300" height="9.8843" ry="0.0400" fill="currentColor"/>
<a style="color:inherit;" xlink:href="textedit:///Users/jyang/Documents/GitHub/wygioatynlib/notation/graceNoteFigures_piano.ly:41:62:63">
<path transform="translate(40.5724, 43.2595) scale(0.0028, -0.0028)" d="M211 141c61 0 117 -33 117 -100c0 -71 -52 -121 -99 -149c-34 -20 -73 -33 -112 -33c-61 0 -117 33 -117 100c0 71 52 121 99 149c34 20 73 33 112 33z" fill="currentColor"/>
</a>
<path transform="translate(37.1774, 31.8110) scale(0.0040, -0.0040)" d="M518 1c0 -82 -56 -168 -141 -197c2 -27 3 -54 3 -81c0 -16 0 -33 -1 -49c-6 -99 -75 -186 -173 -186c-87 0 -159 72 -159 160c0 46 42 83 90 83c43 0 76 -38 76 -83c0 -42 -34 -76 -76 -76c-4 0 -6 0 -10 1c19 -26 47 -42 81 -42c75 0 124 72 129 149c1 15 1 30 1 45
c0 23 -1 46 -3 69c-22 -4 -44 -6 -67 -6c-151 0 -266 139 -266 302c0 144 101 254 191 367c-16 53 -31 105 -37 160c-5 42 -5 85 -5 128c0 93 42 181 115 239c3 2 6 3 9 3c4 0 8 -1 11 -4c57 -69 107 -202 107 -295c0 -115 -63 -207 -135 -297c17 -59 33 -119 47 -179h1
c2 0 4 1 6 1c126 0 206 -105 206 -212zM373 -155c50 20 81 75 81 125c0 68 -48 136 -127 147c19 -89 35 -178 46 -272zM63 19c0 -104 102 -188 208 -188c21 0 40 1 60 4c-11 98 -28 191 -48 283c-59 -7 -93 -48 -93 -92c0 -34 21 -70 64 -95c5 -5 6 -10 6 -15
c0 -11 -9 -22 -21 -22c-3 0 -6 1 -9 2c-65 35 -95 93 -95 150c0 71 46 141 128 161c-11 48 -24 95 -38 143c-82 -101 -162 -202 -162 -331zM319 860c-76 -44 -123 -124 -123 -211c0 -56 15 -104 29 -151c59 79 107 162 107 261c0 43 -2 61 -13 101z" fill="currentColor"/>
<a style="color:inherit;" xlink:href="textedit:///Users/jyang/Documents/GitHub/wygioatynlib/notation/graceNoteFigures_piano.ly:32:19:20">
<path transform="translate(40.5724, 33.3110) scale(0.0028, -0.0028)" d="M211 141c61 0 117 -33 117 -100c0 -71 -52 -121 -99 -149c-34 -20 -73 -33 -112 -33c-61 0 -117 33 -117 100c0 71 52 121 99 149c34 20 73 33 112 33z" fill="currentColor"/>
</a>
<a style="color:inherit;" xlink:href="textedit:///Users/jyang/Documents/GitHub/wygioatynlib/notation/graceNoteFigures_piano.ly:23:30:31">
<path transform="translate(40.5724, 18.2698) scale(0.0028, -0.0028)" d="M211 141c61 0 117 -33 117 -100c0 -71 -52 -121 -99 -149c-34 -20 -73 -33 -112 -33c-61 0 -117 33 -117 100c0 71 52 121 99 149c34 20 73 33 112 33z" fill="currentColor"/>
</a>
<a style="color:inherit;" xlink:href="textedit:///Users/jyang/Documents/GitHub/wygioatynlib/notation/graceNoteFigures_piano.ly:14:40:41">
<path transform="translate(40.5724, 8.5373) scale(0.0028, -0.0028)" d="M211 141c61 0 117 -33 117 -100c0 -71 -52 -121 -99 -149c-34 -20 -73 -33 -112 -33c-61 0 -117 33 -117 100c0 71 52 121 99 149c34 20 73 33 112 33z" fill="currentColor"/>
</a>
<rect transform="translate(37.3366, 40.7595)" x="-0.0650" y="-0.8580" width="0.1300" height="3.2423" ry="0.0400" fill="currentColor"/>
<rect transform="translate(37.3366, 20.7698)" x="-0.0650" y="-5.1420" width="0.1300" height="6.5263" ry="0.0400" fill="currentColor"/>
<path transform="translate(35.6546, 7.5373) scale(0.0025, -0.0025)" d="M124 33c-1 34 -18 67 -49 67c-27 0 -39 -32 -39 -63c0 -56 44 -98 85 -136c3 21 5 43 5 64c0 3 -1 7 -1 10zM176 -142c0 -18 -12 -35 -29 -35c-28 0 -36 34 -55 52c-55 52 -134 93 -134 169c0 54 30 106 79 106c37 0 72 -15 97 -42l-8 333c10 6 21 9 32 9s23 -3 33 -9z
" fill="currentColor"/>
<rect transform="translate(37.3366, 8.0373)" x="-0.0650" y="-4.0000" width="0.1300" height="3.3843" ry="0.0400" fill="currentColor"/>
<a style="color:inherit;" xlink:href="textedit:///Users/jyang/Documents/GitHub/wygioatynlib/notation/graceNoteFigures_piano.ly:41:59:60">
<path transform="translate(36.4733, 43.2595) scale(0.0028, -0.0028)" d="M211 141c61 0 117 -33 117 -100c0 -71 -52 -121 -99 -149c-34 -20 -73 -33 -112 -33c-61 0 -117 33 -117 100c0 71 52 121 99 149c34 20 73 33 112 33z" fill="currentColor"/>
</a>
<a style="color:inherit;" xlink:href="textedit:///Users/jyang/Documents/GitHub/wygioatynlib/notation/graceNoteFigures_piano.ly:23:27:28">
<path transform="translate(36.4733, 22.2698) scale(0.0028, -0.0028)" d="M211 141c61 0 117 -33 117 -100c0 -71 -52 -121 -99 -149c-34 -20 -73 -33 -112 -33c-61 0 -117 33 -117 100c0 71 52 121 99 149c34 20 73 33 112 33z" fill="currentColor"/>
</a>
<a style="color:inherit;" xlink:href="textedit:///Users/jyang/Documents/GitHub/wygioatynlib/notation/graceNoteFigures_piano.ly:14:34:35">
<path transform="translate(36.4733, 7.5373) scale(0.0028, -0.0028)" d="M211 141c61 0 117 -33 117 -100c0 -71 -52 -121 -99 -149c-34 -20 -73 -33 -112 -33c-61 0 -117 33 -117 100c0 71 52 121 99 149c34 20 73 33 112 33z" fill="currentColor"/>
</a>
<rect transform="translate(47.5678, 30.8110)" x="-0.0650" y="-3.5000" width="0.1300" height="3.8843" ry="0.0400" fill="currentColor"/>
<path transform="translate(45.6615, 24.7698) scale(0.0025, -0.0025)" d="M198 -327c-13 0 -24 11 -24 24v129l-73 -29v-148c0 -13 -11 -24 -24 -24s-23 11 -23 24v129l-10 -4c-4 -2 -8 -2 -12 -2c-17 0 -32 14 -32 32v46c0 13 8 24 20 29l34 14v148l-10 -4c-4 -2 -8 -3 -12 -3c-17 0 -32 14 -32 32v46c0 13 8 25 20 30l34 13v148
c0 13 10 24 23 24s24 -11 24 -24v-129l73 29v148c0 13 11 24 24 24s23 -11 23 -24v-129l10 4c4 2 8 2 12 2c17 0 32 -14 32 -32v-46c0 -13 -8 -24 -20 -29l-34 -14v-148l10 4c4 2 8 3 12 3c17 0 32 -14 32 -32v-46c0 -13 -8 -25 -20 -30l-34 -13v-148c0 -13 -10 -24 -23 -24
zM101 59v-148l73 30v148z" fill="currentColor"/>
<rect transform="translate(47.5678, 20.7698)" x="-0.0650" y="-5.1420" width="0.1300" height="9.0263" ry="0.0400" fill="currentColor"/>
<path transform="translate(45.8857, 8.0373) scale(0.0025, -0.0025)" d="M124 33c-1 34 -18 67 -49 67c-27 0 -39 -32 -39 -63c0 -56 44 -98 85 -136c3 21 5 43 5 64c0 3 -1 7 -1 10zM176 -142c0 -18 -12 -35 -29 -35c-28 0 -36 34 -55 52c-55 52 -134 93 -134 169c0 54 30 106 79 106c37 0 72 -15 97 -42l-8 333c10 6 21 9 32 9s23 -3 33 -9z
" fill="currentColor"/>
<rect transform="translate(47.5678, 8.0373)" x="-0.0650" y="-4.0000" width="0.1300" height="3.8843" ry="0.0400" fill="currentColor"/>
<a style="color:inherit;" xlink:href="textedit:///Users/jyang/Documents/GitHub/wygioatynlib/notation/graceNoteFigures_piano.ly:41:71:72">
<path transform="translate(46.7044, 43.2595) scale(0.0028, -0.0028)" d="M211 141c61 0 117 -33 117 -100c0 -71 -52 -121 -99 -149c-34 -20 -73 -33 -112 -33c-61 0 -117 33 -117 100c0 71 52 121 99 149c34 20 73 33 112 33z" fill="currentColor"/>
</a>
<a style="color:inherit;" xlink:href="textedit:///Users/jyang/Documents/GitHub/wygioatynlib/notation/graceNoteFigures_piano.ly:32:33:34">
<path transform="translate(46.7044, 31.3110) scale(0.0028, -0.0028)" d="M211 141c61 0 117 -33 117 -100c0 -71 -52 -121 -99 -149c-34 -20 -73 -33 -112 -33c-61 0 -117 33 -117 100c0 71 52 121 99 149c34 20 73 33 112 33z" fill="currentColor"/>
</a>
<a style="color:inherit;" xlink:href="textedit:///Users/jyang/Documents/GitHub/wygioatynlib/notation/graceNoteFigures_piano.ly:23:43:44">
<path transform="translate(46.7044, 24.7698) scale(0.0028, -0.0028)" d="M211 141c61 0 117 -33 117 -100c0 -71 -52 -121 -99 -149c-34 -20 -73 -33 -112 -33c-61 0 -117 33 -117 100c0 71 52 121 99 149c34 20 73 33 112 33z" fill="currentColor"/>
</a>
<a style="color:inherit;" xlink:href="textedit:///Users/jyang/Documents/GitHub/wygioatynlib/notation/graceNoteFigures_piano.ly:14:47:48">
<path transform="translate(46.7044, 8.0373) scale(0.0028, -0.0028)" d="M211 141c61 0 117 -33 117 -100c0 -71 -52 -121 -99 -149c-34 -20 -73 -33 -112 -33c-61 0 -117 33 -117 100c0 71 52 121 99 149c34 20 73 33 112 33z" fill="currentColor"/>
</a>
<rect transform="translate(45.2160, 40.7595)" x="-0.0650" y="-0.8580" width="0.1300" height="3.2423" ry="0.0400" fill="currentColor"/>
<rect transform="translate(49.9549, 30.8110)" x="-0.0650" y="-3.5000" width="0.1300" height="3.3843" ry="0.0400" fill="currentColor"/>
<path transform="translate(48.3006, 18.7698) scale(0.0025, -0.0025)" d="M88 -337c-13 0 -24 11 -24 24v106l-15 -9c-5 -3 -11 -5 -17 -5c-17 0 -32 13 -32 32v46c0 11 6 21 15 27l49 31v141l-15 -10c-5 -3 -11 -5 -17 -5c-17 0 -32 13 -32 32v46c0 11 6 21 15 27l49 31v136c0 13 11 24 24 24s23 -11 23 -24v-106l15 9c5 3 11 5 17 5
c17 0 32 -13 32 -32v-46c0 -11 -6 -21 -15 -27l-49 -31v-141l15 10c5 3 11 5 17 5c17 0 32 -13 32 -32v-46c0 -11 -6 -21 -15 -27l-49 -31v-136c0 -13 -10 -24 -23 -24z" fill="currentColor"/>
<rect transform="translate(49.9549, 20.7698)" x="-0.0650" y="-5.1420" width="0.1300" height="3.0263" ry="0.0400" fill="currentColor"/>
<rect transform="translate(49.9549, 8.0373)" x="-0.0650" y="-4.0000" width="0.1300" height="5.3843" ry="0.0400" fill="currentColor"/>
<a style="color:inherit;" xlink:href="textedit:///Users/jyang/Documents/GitHub/wygioatynlib/notation/graceNoteFigures_piano.ly:41:74:75">
<path transform="translate(49.0915, 43.2595) scale(0.0028, -0.0028)" d="M211 141c61 0 117 -33 117 -100c0 -71 -52 -121 -99 -149c-34 -20 -73 -33 -112 -33c-61 0 -117 33 -117 100c0 71 52 121 99 149c34 20 73 33 112 33z" fill="currentColor"/>
</a>
<a style="color:inherit;" xlink:href="textedit:///Users/jyang/Documents/GitHub/wygioatynlib/notation/graceNoteFigures_piano.ly:32:36:37">
<path transform="translate(49.0915, 30.8110) scale(0.0028, -0.0028)" d="M211 141c61 0 117 -33 117 -100c0 -71 -52 -121 -99 -149c-34 -20 -73 -33 -112 -33c-61 0 -117 33 -117 100c0 71 52 121 99 149c34 20 73 33 112 33z" fill="currentColor"/>
</a>
<a style="color:inherit;" xlink:href="textedit:///Users/jyang/Documents/GitHub/wygioatynlib/notation/graceNoteFigures_piano.ly:23:47:48">
<path transform="translate(49.0915, 18.7698) scale(0.0028, -0.0028)" d="M211 141c61 0 117 -33 117 -100c0 -71 -52 -121 -99 -149c-34 -20 -73 -33 -112 -33c-61 0 -117 33 -117 100c0 71 52 121 99 149c34 20 73 33 112 33z" fill="currentColor"/>
</a>
<a style="color:inherit;" xlink:href="textedit:///Users/jyang/Documents/GitHub/wygioatynlib/notation/graceNoteFigures_piano.ly:14:52:53">
<path transform="translate(49.0915, 9.5373) scale(0.0028, -0.0028)" d="M211 141c61 0 117 -33 117 -100c0 -71 -52 -121 -99 -149c-34 -20 -73 -33 -112 -33c-61 0 -117 33 -117 100c0 71 52 121 99 149c34 20 73 33 112 33z" fill="currentColor"/>
</a>
<rect transform="translate(47.5678, 40.7595)" x="-0.0650" y="-0.8580" width="0.1300" height="3.2423" ry="0.0400" fill="currentColor"/>
<rect transform="translate(11.1939, 40.7595)" x="-0.0650" y="-0.8580" width="0.1300" height="3.2423" ry="0.0400" fill="currentColor"/>
<path transform="translate(6.4906, 41.7595) scale(0.0040, -0.0040)" d="M376 262c4 0 9 1 13 1c155 0 256 -128 256 -261c0 -76 -33 -154 -107 -210c-22 -17 -47 -28 -73 -36c3 -35 5 -70 5 -105c0 -19 -1 -39 -2 -58c-7 -120 -90 -228 -208 -228c-108 0 -195 88 -195 197c0 58 53 103 112 103c54 0 95 -47 95 -103c0 -52 -43 -95 -95 -95
c-11 0 -21 2 -31 6c26 -39 68 -65 117 -65c96 0 157 92 163 191c1 18 2 37 2 55c0 31 -1 61 -4 92c-29 -5 -58 -8 -89 -8c-188 0 -333 172 -333 374c0 177 131 306 248 441c-19 62 -37 125 -45 190c-6 52 -7 104 -7 156c0 115 55 224 149 292c3 2 7 3 10 3c4 0 7 0 10 -3
c71 -84 133 -245 133 -358c0 -143 -86 -255 -180 -364c21 -68 39 -138 56 -207zM461 -203c68 24 113 95 113 164c0 90 -66 179 -173 190c24 -116 46 -231 60 -354zM74 28c0 -135 129 -247 264 -247c28 0 55 2 82 6c-14 127 -37 245 -63 364c-79 -8 -124 -61 -124 -119
c0 -44 25 -91 81 -123c5 -5 7 -10 7 -15c0 -11 -10 -22 -22 -22c-3 0 -6 1 -9 2c-80 43 -117 115 -117 185c0 88 58 174 160 197c-14 58 -29 117 -46 175c-107 -121 -213 -243 -213 -403zM408 1045c-99 -48 -162 -149 -162 -259c0 -74 18 -133 36 -194
c80 97 146 198 146 324c0 55 -4 79 -20 129z" fill="currentColor"/>
<a style="color:inherit;" xlink:href="textedit:///Users/jyang/Documents/GitHub/wygioatynlib/notation/graceNoteFigures_piano.ly:41:14:15">
<path transform="translate(10.3306, 43.2595) scale(0.0028, -0.0028)" d="M211 141c61 0 117 -33 117 -100c0 -71 -52 -121 -99 -149c-34 -20 -73 -33 -112 -33c-61 0 -117 33 -117 100c0 71 52 121 99 149c34 20 73 33 112 33z" fill="currentColor"/>
</a>
<path transform="translate(6.4906, 31.8110) scale(0.0040, -0.0040)" d="M376 262c4 0 9 1 13 1c155 0 256 -128 256 -261c0 -76 -33 -154 -107 -210c-22 -17 -47 -28 -73 -36c3 -35 5 -70 5 -105c0 -19 -1 -39 -2 -58c-7 -120 -90 -228 -208 -228c-108 0 -195 88 -195 197c0 58 53 103 112 103c54 0 95 -47 95 -103c0 -52 -43 -95 -95 -95
c-11 0 -21 2 -31 6c26 -39 68 -65 117 -65c96 0 157 92 163 191c1 18 2 37 2 55c0 31 -1 61 -4 92c-29 -5 -58 -8 -89 -8c-188 0 -333 172 -333 374c0 177 131 306 248 441c-19 62 -37 125 -45 190c-6 52 -7 104 -7 156c0 115 55 224 149 292c3 2 7 3 10 3c4 0 7 0 10 -3
c71 -84 133 -245 133 -358c0 -143 -86 -255 -180 -364c21 -68 39 -138 56 -207zM461 -203c68 24 113 95 113 164c0 90 -66 179 -173 190c24 -116 46 -231 60 -354zM74 28c0 -135 129 -247 264 -247c28 0 55 2 82 6c-14 127 -37 245 -63 364c-79 -8 -124 -61 -124 -119
c0 -44 25 -91 81 -123c5 -5 7 -10 7 -15c0 -11 -10 -22 -22 -22c-3 0 -6 1 -9 2c-80 43 -117 115 -117 185c0 88 58 174 160 197c-14 58 -29 117 -46 175c-107 -121 -213 -243 -213 -403zM408 1045c-99 -48 -162 -149 -162 -259c0 -74 18 -133 36 -194
c80 97 146 198 146 324c0 55 -4 79 -20 129z" fill="currentColor"/>
<path transform="translate(6.4906, 21.7698) scale(0.0040, -0.0040)" d="M376 262c4 0 9 1 13 1c155 0 256 -128 256 -261c0 -76 -33 -154 -107 -210c-22 -17 -47 -28 -73 -36c3 -35 5 -70 5 -105c0 -19 -1 -39 -2 -58c-7 -120 -90 -228 -208 -228c-108 0 -195 88 -195 197c0 58 53 103 112 103c54 0 95 -47 95 -103c0 -52 -43 -95 -95 -95
c-11 0 -21 2 -31 6c26 -39 68 -65 117 -65c96 0 157 92 163 191c1 18 2 37 2 55c0 31 -1 61 -4 92c-29 -5 -58 -8 -89 -8c-188 0 -333 172 -333 374c0 177 131 306 248 441c-19 62 -37 125 -45 190c-6 52 -7 104 -7 156c0 115 55 224 149 292c3 2 7 3 10 3c4 0 7 0 10 -3
c71 -84 133 -245 133 -358c0 -143 -86 -255 -180 -364c21 -68 39 -138 56 -207zM461 -203c68 24 113 95 113 164c0 90 -66 179 -173 190c24 -116 46 -231 60 -354zM74 28c0 -135 129 -247 264 -247c28 0 55 2 82 6c-14 127 -37 245 -63 364c-79 -8 -124 -61 -124 -119
c0 -44 25 -91 81 -123c5 -5 7 -10 7 -15c0 -11 -10 -22 -22 -22c-3 0 -6 1 -9 2c-80 43 -117 115 -117 185c0 88 58 174 160 197c-14 58 -29 117 -46 175c-107 -121 -213 -243 -213 -403zM408 1045c-99 -48 -162 -149 -162 -259c0 -74 18 -133 36 -194
c80 97 146 198 146 324c0 55 -4 79 -20 129z" fill="currentColor"/>
<path transform="translate(6.4906, 9.0373) scale(0.0040, -0.0040)" d="M376 262c4 0 9 1 13 1c155 0 256 -128 256 -261c0 -76 -33 -154 -107 -210c-22 -17 -47 -28 -73 -36c3 -35 5 -70 5 -105c0 -19 -1 -39 -2 -58c-7 -120 -90 -228 -208 -228c-108 0 -195 88 -195 197c0 58 53 103 112 103c54 0 95 -47 95 -103c0 -52 -43 -95 -95 -95
c-11 0 -21 2 -31 6c26 -39 68 -65 117 -65c96 0 157 92 163 191c1 18 2 37 2 55c0 31 -1 61 -4 92c-29 -5 -58 -8 -89 -8c-188 0 -333 172 -333 374c0 177 131 306 248 441c-19 62 -37 125 -45 190c-6 52 -7 104 -7 156c0 115 55 224 149 292c3 2 7 3 10 3c4 0 7 0 10 -3
c71 -84 133 -245 133 -358c0 -143 -86 -255 -180 -364c21 -68 39 -138 56 -207zM461 -203c68 24 113 95 113 164c0 90 -66 179 -173 190c24 -116 46 -231 60 -354zM74 28c0 -135 129 -247 264 -247c28 0 55 2 82 6c-14 127 -37 245 -63 364c-79 -8 -124 -61 -124 -119
c0 -44 25 -91 81 -123c5 -5 7 -10 7 -15c0 -11 -10 -22 -22 -22c-3 0 -6 1 -9 2c-80 43 -117 115 -117 185c0 88 58 174 160 197c-14 58 -29 117 -46 175c-107 -121 -213 -243 -213 -403zM408 1045c-99 -48 -162 -149 -162 -259c0 -74 18 -133 36 -194
c80 97 146 198 146 324c0 55 -4 79 -20 129z" fill="currentColor"/>
<rect transform="translate(34.9848, 40.7595)" x="-0.0650" y="-0.8580" width="0.1300" height="3.2423" ry="0.0400" fill="currentColor"/>
<rect transform="translate(5.6306, 24.3984)" x="0.0000" y="-18.4111" width="0.1600" height="36.8223" ry="0.0500" fill="currentColor"/>
<rect transform="translate(45.2160, 30.8110)" x="-0.0650" y="-3.5000" width="0.1300" height="9.8843" ry="0.0400" fill="currentColor"/>
<path transform="translate(43.5339, 22.7698) scale(0.0025, -0.0025)" d="M124 33c-1 34 -18 67 -49 67c-27 0 -39 -32 -39 -63c0 -56 44 -98 85 -136c3 21 5 43 5 64c0 3 -1 7 -1 10zM176 -142c0 -18 -12 -35 -29 -35c-28 0 -36 34 -55 52c-55 52 -134 93 -134 169c0 54 30 106 79 106c37 0 72 -15 97 -42l-8 333c10 6 21 9 32 9s23 -3 33 -9z
" fill="currentColor"/>
<rect transform="translate(45.2160, 20.7698)" x="-0.0650" y="-5.1420" width="0.1300" height="7.0263" ry="0.0400" fill="currentColor"/>
<rect transform="translate(45.2160, 8.0373)" x="-0.0650" y="-4.0000" width="0.1300" height="8.3843" ry="0.0400" fill="currentColor"/>
<a style="color:inherit;" xlink:href="textedit:///Users/jyang/Documents/GitHub/wygioatynlib/notation/graceNoteFigures_piano.ly:41:68:69">
<path transform="translate(44.3526, 43.2595) scale(0.0028, -0.0028)" d="M211 141c61 0 117 -33 117 -100c0 -71 -52 -121 -99 -149c-34 -20 -73 -33 -112 -33c-61 0 -117 33 -117 100c0 71 52 121 99 149c34 20 73 33 112 33z" fill="currentColor"/>
</a>
<a style="color:inherit;" xlink:href="textedit:///Users/jyang/Documents/GitHub/wygioatynlib/notation/graceNoteFigures_piano.ly:32:31:32">
<path transform="translate(44.3526, 37.3110) scale(0.0028, -0.0028)" d="M211 141c61 0 117 -33 117 -100c0 -71 -52 -121 -99 -149c-34 -20 -73 -33 -112 -33c-61 0 -117 33 -117 100c0 71 52 121 99 149c34 20 73 33 112 33z" fill="currentColor"/>
</a>
<a style="color:inherit;" xlink:href="textedit:///Users/jyang/Documents/GitHub/wygioatynlib/notation/graceNoteFigures_piano.ly:23:38:39">
<path transform="translate(44.3526, 22.7698) scale(0.0028, -0.0028)" d="M211 141c61 0 117 -33 117 -100c0 -71 -52 -121 -99 -149c-34 -20 -73 -33 -112 -33c-61 0 -117 33 -117 100c0 71 52 121 99 149c34 20 73 33 112 33z" fill="currentColor"/>
</a>
<a style="color:inherit;" xlink:href="textedit:///Users/jyang/Documents/GitHub/wygioatynlib/notation/graceNoteFigures_piano.ly:14:45:46">
<path transform="translate(44.3526, 12.5373) scale(0.0028, -0.0028)" d="M211 141c61 0 117 -33 117 -100c0 -71 -52 -121 -99 -149c-34 -20 -73 -33 -112 -33c-61 0 -117 33 -117 100c0 71 52 121 99 149c34 20 73 33 112 33z" fill="currentColor"/>
</a>
<rect transform="translate(42.8642, 40.7595)" x="-0.0650" y="-0.8580" width="0.1300" height="3.2423" ry="0.0400" fill="currentColor"/>
<rect transform="translate(53.8546, 40.7595)" x="-0.0650" y="-0.8580" width="0.1300" height="3.2423" ry="0.0400" fill="currentColor"/>
<path transform="translate(52.1952, 33.3110) scale(0.0025, -0.0025)" d="M-10 375c9 5 20 8 30 8s21 -3 30 -8l-4 -204l96 26c2 0 3 1 5 1c11 0 20 -9 20 -20l10 -553c-9 -5 -20 -8 -30 -8s-21 3 -30 8l4 204l-96 -26c-2 0 -3 -1 -5 -1c-11 0 -20 9 -20 20zM126 108l-81 -22l-4 -194l81 22z" fill="currentColor"/>
<rect transform="translate(53.8546, 30.8110)" x="-0.0650" y="-3.5000" width="0.1300" height="5.8843" ry="0.0400" fill="currentColor"/>
<path transform="translate(51.9483, 24.7698) scale(0.0025, -0.0025)" d="M198 -327c-13 0 -24 11 -24 24v129l-73 -29v-148c0 -13 -11 -24 -24 -24s-23 11 -23 24v129l-10 -4c-4 -2 -8 -2 -12 -2c-17 0 -32 14 -32 32v46c0 13 8 24 20 29l34 14v148l-10 -4c-4 -2 -8 -3 -12 -3c-17 0 -32 14 -32 32v46c0 13 8 25 20 30l34 13v148
c0 13 10 24 23 24s24 -11 24 -24v-129l73 29v148c0 13 11 24 24 24s23 -11 23 -24v-129l10 4c4 2 8 2 12 2c17 0 32 -14 32 -32v-46c0 -13 -8 -24 -20 -29l-34 -14v-148l10 4c4 2 8 3 12 3c17 0 32 -14 32 -32v-46c0 -13 -8 -25 -20 -30l-34 -13v-148c0 -13 -10 -24 -23 -24
zM101 59v-148l73 30v148z" fill="currentColor"/>
<rect transform="translate(53.8546, 20.7698)" x="-0.0650" y="-5.1420" width="0.1300" height="9.0263" ry="0.0400" fill="currentColor"/>
<rect transform="translate(12.6223, 40.7595)" x="-0.0650" y="-0.8580" width="0.1300" height="3.2423" ry="0.0400" fill="currentColor"/>
<a style="color:inherit;" xlink:href="textedit:///Users/jyang/Documents/GitHub/wygioatynlib/notation/graceNoteFigures_piano.ly:41:20:21">
<path transform="translate(11.7589, 43.2595) scale(0.0028, -0.0028)" d="M211 141c61 0 117 -33 117 -100c0 -71 -52 -121 -99 -149c-34 -20 -73 -33 -112 -33c-61 0 -117 33 -117 100c0 71 52 121 99 149c34 20 73 33 112 33z" fill="currentColor"/>
</a>
<rect transform="translate(51.3833, 30.8110)" x="-0.0650" y="-3.5000" width="0.1300" height="9.3843" ry="0.0400" fill="currentColor"/>
<path transform="translate(49.7012, 24.7698) scale(0.0025, -0.0025)" d="M124 33c-1 34 -18 67 -49 67c-27 0 -39 -32 -39 -63c0 -56 44 -98 85 -136c3 21 5 43 5 64c0 3 -1 7 -1 10zM176 -142c0 -18 -12 -35 -29 -35c-28 0 -36 34 -55 52c-55 52 -134 93 -134 169c0 54 30 106 79 106c37 0 72 -15 97 -42l-8 333c10 6 21 9 32 9s23 -3 33 -9z
" fill="currentColor"/>
<rect transform="translate(51.3833, 20.7698)" x="-0.0650" y="-5.1420" width="0.1300" height="9.0263" ry="0.0400" fill="currentColor"/>
<rect transform="translate(51.3833, 8.0373)" x="-0.0650" y="-4.0000" width="0.1300" height="3.8843" ry="0.0400" fill="currentColor"/>
<a style="color:inherit;" xlink:href="textedit:///Users/jyang/Documents/GitHub/wygioatynlib/notation/graceNoteFigures_piano.ly:41:77:78">
<path transform="translate(50.5199, 43.2595) scale(0.0028, -0.0028)" d="M211 141c61 0 117 -33 117 -100c0 -71 -52 -121 -99 -149c-34 -20 -73 -33 -112 -33c-61 0 -117 33 -117 100c0 71 52 121 99 149c34 20 73 33 112 33z" fill="currentColor"/>
</a>
<a style="color:inherit;" xlink:href="textedit:///Users/jyang/Documents/GitHub/wygioatynlib/notation/graceNoteFigures_piano.ly:32:41:42">
<path transform="translate(50.5199, 36.8110) scale(0.0028, -0.0028)" d="M211 141c61 0 117 -33 117 -100c0 -71 -52 -121 -99 -149c-34 -20 -73 -33 -112 -33c-61 0 -117 33 -117 100c0 71 52 121 99 149c34 20 73 33 112 33z" fill="currentColor"/>
</a>
<a style="color:inherit;" xlink:href="textedit:///Users/jyang/Documents/GitHub/wygioatynlib/notation/graceNoteFigures_piano.ly:23:53:54">
<path transform="translate(50.5199, 24.7698) scale(0.0028, -0.0028)" d="M211 141c61 0 117 -33 117 -100c0 -71 -52 -121 -99 -149c-34 -20 -73 -33 -112 -33c-61 0 -117 33 -117 100c0 71 52 121 99 149c34 20 73 33 112 33z" fill="currentColor"/>
</a>
<a style="color:inherit;" xlink:href="textedit:///Users/jyang/Documents/GitHub/wygioatynlib/notation/graceNoteFigures_piano.ly:14:57:58">
<path transform="translate(50.5199, 8.0373) scale(0.0028, -0.0028)" d="M211 141c61 0 117 -33 117 -100c0 -71 -52 -121 -99 -149c-34 -20 -73 -33 -112 -33c-61 0 -117 33 -117 100c0 71 52 121 99 149c34 20 73 33 112 33z" fill="currentColor"/>
</a>
<rect transform="translate(49.9549, 40.7595)" x="-0.0650" y="-0.8580" width="0.1300" height="3.2423" ry="0.0400" fill="currentColor"/>
<path transform="translate(48.2376, 30.8110) scale(0.0025, -0.0025)" d="M34 33l-1 -58v-10c0 -21 2 -43 5 -64c41 38 85 80 85 136c0 31 -13 63 -40 63c-31 0 -48 -33 -49 -67zM-18 -142l-14 583c10 6 21 9 32 9s22 -3 32 -9l-8 -333c25 27 60 42 97 42c49 0 79 -52 79 -106c0 -76 -78 -117 -133 -169c-19 -18 -27 -52 -55 -52
c-17 0 -30 17 -30 35z" fill="currentColor"/>
<rect transform="translate(53.8546, 8.0373)" x="-0.0650" y="-4.0000" width="0.1300" height="3.3843" ry="0.0400" fill="currentColor"/>
<a style="color:inherit;" xlink:href="textedit:///Users/jyang/Documents/GitHub/wygioatynlib/notation/graceNoteFigures_piano.ly:41:80:81">
<path transform="translate(52.9912, 43.2595) scale(0.0028, -0.0028)" d="M211 141c61 0 117 -33 117 -100c0 -71 -52 -121 -99 -149c-34 -20 -73 -33 -112 -33c-61 0 -117 33 -117 100c0 71 52 121 99 149c34 20 73 33 112 33z" fill="currentColor"/>
</a>
<a style="color:inherit;" xlink:href="textedit:///Users/jyang/Documents/GitHub/wygioatynlib/notation/graceNoteFigures_piano.ly:32:43:44">
<path transform="translate(52.9912, 33.3110) scale(0.0028, -0.0028)" d="M211 141c61 0 117 -33 117 -100c0 -71 -52 -121 -99 -149c-34 -20 -73 -33 -112 -33c-61 0 -117 33 -117 100c0 71 52 121 99 149c34 20 73 33 112 33z" fill="currentColor"/>
</a>
<a style="color:inherit;" xlink:href="textedit:///Users/jyang/Documents/GitHub/wygioatynlib/notation/graceNoteFigures_piano.ly:23:57:58">
<path transform="translate(52.9912, 24.7698) scale(0.0028, -0.0028)" d="M211 141c61 0 117 -33 117 -100c0 -71 -52 -121 -99 -149c-34 -20 -73 -33 -112 -33c-61 0 -117 33 -117 100c0 71 52 121 99 149c34 20 73 33 112 33z" fill="currentColor"/>
</a>
<a style="color:inherit;" xlink:href="textedit:///Users/jyang/Documents/GitHub/wygioatynlib/notation/graceNoteFigures_piano.ly:14:62:63">
<path transform="translate(52.9912, 7.5373) scale(0.0028, -0.0028)" d="M211 141c61 0 117 -33 117 -100c0 -71 -52 -121 -99 -149c-34 -20 -73 -33 -112 -33c-61 0 -117 33 -117 100c0 71 52 121 99 149c34 20 73 33 112 33z" fill="currentColor"/>
</a>
<rect transform="translate(51.3833, 40.7595)" x="-0.0650" y="-0.8580" width="0.1300" height="3.2423" ry="0.0400" fill="currentColor"/>
<a transform="translate(113.9760, 165.1512)" xlink:href="http://lilypond.org/">
<rect x="0.0000" y="-0.4439" width="56.5755" height="2.0827" fill="none" stroke="none" stroke-width="0.0"/>
</a>
<text transform="translate(113.9760, 165.1512)" font-family="Century Schoolbook L" font-size="2.2001" text-anchor="start" fill="currentColor">
<tspan>
Music engraving by LilyPond 2.18.2www.lilypond.org</tspan>
</text>
</svg>
