<svg xmlns="http://www.w3.org/2000/svg" xmlns:xlink="http://www.w3.org/1999/xlink" version="1.2" width="500.00mm" height="297.00mm" viewBox="0 0 284.5276 169.0094">
<!-- Page: 1/1 -->
<text transform="translate(5.6906, 2.8453)" font-family="Century Schoolbook L" font-size="2.2001" text-anchor="start" fill="currentColor">
<tspan>
 </tspan>
</text>
<rect transform="translate(54.8243, 7.6213)" x="0.0000" y="-2.0000" width="0.1900" height="4.0000" ry="0.0000" fill="currentColor"/>
<rect transform="translate(54.8243, 17.8602)" x="0.0000" y="-2.0000" width="0.1900" height="4.0000" ry="0.0000" fill="currentColor"/>
<rect transform="translate(54.8243, 29.0992)" x="0.0000" y="-2.0000" width="0.1900" height="4.0000" ry="0.0000" fill="currentColor"/>
<rect transform="translate(54.8243, 38.0992)" x="0.0000" y="-2.0000" width="0.1900" height="4.0000" ry="0.0000" fill="currentColor"/>
<rect transform="translate(57.7743, 7.6213)" x="0.0000" y="-2.0000" width="0.1900" height="4.0000" ry="0.0000" fill="currentColor"/>
<rect transform="translate(57.7743, 17.8602)" x="0.0000" y="-2.0000" width="0.1900" height="4.0000" ry="0.0000" fill="currentColor"/>
<rect transform="translate(57.7743, 29.0992)" x="0.0000" y="-2.0000" width="0.1900" height="4.0000" ry="0.0000" fill="currentColor"/>
<rect transform="translate(57.7743, 38.0992)" x="0.0000" y="-2.0000" width="0.1900" height="4.0000" ry="0.0000" fill="currentColor"/>
<line transform="translate(5.6906, 40.0992)" stroke-linejoin="round" stroke-linecap="round" stroke-width="0.1000" stroke="currentColor" x1="0.0500" y1="-0.0000" x2="52.2237" y2="-0.0000"/>
<line transform="translate(5.6906, 39.0992)" stroke-linejoin="round" stroke-linecap="round" stroke-width="0.1000" stroke="currentColor" x1="0.0500" y1="-0.0000" x2="52.2237" y2="-0.0000"/>
<line transform="translate(5.6906, 38.0992)" stroke-linejoin="round" stroke-linecap="round" stroke-width="0.1000" stroke="currentColor" x1="0.0500" y1="-0.0000" x2="52.2237" y2="-0.0000"/>
<line transform="translate(5.6906, 37.0992)" stroke-linejoin="round" stroke-linecap="round" stroke-width="0.1000" stroke="currentColor" x1="0.0500" y1="-0.0000" x2="52.2237" y2="-0.0000"/>
<line transform="translate(5.6906, 36.0992)" stroke-linejoin="round" stroke-linecap="round" stroke-width="0.1000" stroke="currentColor" x1="0.0500" y1="-0.0000" x2="52.2237" y2="-0.0000"/>
<rect transform="translate(5.6906, 20.8602)" x="36.3616" y="-0.1000" width="1.3926" height="0.2000" ry="0.1000" fill="currentColor"/>
<rect transform="translate(5.6906, 20.8602)" x="38.8329" y="-0.1000" width="1.3926" height="0.2000" ry="0.1000" fill="currentColor"/>
<rect transform="translate(5.6906, 21.8602)" x="38.8900" y="-0.1000" width="1.3355" height="0.2000" ry="0.1000" fill="currentColor"/>
<rect transform="translate(5.6906, 20.8602)" x="43.5236" y="-0.1000" width="1.3926" height="0.2000" ry="0.1000" fill="currentColor"/>
<line transform="translate(5.6906, 19.8602)" stroke-linejoin="round" stroke-linecap="round" stroke-width="0.1000" stroke="currentColor" x1="0.0500" y1="-0.0000" x2="52.2237" y2="-0.0000"/>
<line transform="translate(5.6906, 18.8602)" stroke-linejoin="round" stroke-linecap="round" stroke-width="0.1000" stroke="currentColor" x1="0.0500" y1="-0.0000" x2="52.2237" y2="-0.0000"/>
<line transform="translate(5.6906, 17.8602)" stroke-linejoin="round" stroke-linecap="round" stroke-width="0.1000" stroke="currentColor" x1="0.0500" y1="-0.0000" x2="52.2237" y2="-0.0000"/>
<line transform="translate(5.6906, 16.8602)" stroke-linejoin="round" stroke-linecap="round" stroke-width="0.1000" stroke="currentColor" x1="0.0500" y1="-0.0000" x2="52.2237" y2="-0.0000"/>
<line transform="translate(5.6906, 15.8602)" stroke-linejoin="round" stroke-linecap="round" stroke-width="0.1000" stroke="currentColor" x1="0.0500" y1="-0.0000" x2="52.2237" y2="-0.0000"/>
<line transform="translate(5.6906, 9.6213)" stroke-linejoin="round" stroke-linecap="round" stroke-width="0.1000" stroke="currentColor" x1="0.0500" y1="-0.0000" x2="52.2237" y2="-0.0000"/>
<line transform="translate(5.6906, 8.6213)" stroke-linejoin="round" stroke-linecap="round" stroke-width="0.1000" stroke="currentColor" x1="0.0500" y1="-0.0000" x2="52.2237" y2="-0.0000"/>
<line transform="translate(5.6906, 7.6213)" stroke-linejoin="round" stroke-linecap="round" stroke-width="0.1000" stroke="currentColor" x1="0.0500" y1="-0.0000" x2="52.2237" y2="-0.0000"/>
<line transform="translate(5.6906, 6.6213)" stroke-linejoin="round" stroke-linecap="round" stroke-width="0.1000" stroke="currentColor" x1="0.0500" y1="-0.0000" x2="52.2237" y2="-0.0000"/>
<line transform="translate(5.6906, 5.6213)" stroke-linejoin="round" stroke-linecap="round" stroke-width="0.1000" stroke="currentColor" x1="0.0500" y1="-0.0000" x2="52.2237" y2="-0.0000"/>
<rect transform="translate(5.6906, 10.6213)" x="34.9903" y="-0.1000" width="1.3355" height="0.2000" ry="0.1000" fill="currentColor"/>
<line transform="translate(5.6906, 31.0992)" stroke-linejoin="round" stroke-linecap="round" stroke-width="0.1000" stroke="currentColor" x1="0.0500" y1="-0.0000" x2="52.2237" y2="-0.0000"/>
<line transform="translate(5.6906, 30.0992)" stroke-linejoin="round" stroke-linecap="round" stroke-width="0.1000" stroke="currentColor" x1="0.0500" y1="-0.0000" x2="52.2237" y2="-0.0000"/>
<line transform="translate(5.6906, 29.0992)" stroke-linejoin="round" stroke-linecap="round" stroke-width="0.1000" stroke="currentColor" x1="0.0500" y1="-0.0000" x2="52.2237" y2="-0.0000"/>
<line transform="translate(5.6906, 28.0992)" stroke-linejoin="round" stroke-linecap="round" stroke-width="0.1000" stroke="currentColor" x1="0.0500" y1="-0.0000" x2="52.2237" y2="-0.0000"/>
<line transform="translate(5.6906, 27.0992)" stroke-linejoin="round" stroke-linecap="round" stroke-width="0.1000" stroke="currentColor" x1="0.0500" y1="-0.0000" x2="52.2237" y2="-0.0000"/>
<rect transform="translate(5.6906, 32.0992)" x="36.4363" y="-0.1000" width="1.3178" height="0.2000" ry="0.1000" fill="currentColor"/>
<rect transform="translate(28.5643, 38.0992)" x="-0.0650" y="-3.5000" width="0.1300" height="3.3843" ry="0.0400" fill="currentColor"/>
<a style="color:inherit;" xlink:href="textedit:///Users/jyang/Documents/GitHub/wygioatynlib/notation/graceNoteFigures_oboe.ly:42:56:57">
<path transform="translate(27.7010, 38.0992) scale(0.0028, -0.0028)" d="M211 141c61 0 117 -33 117 -100c0 -71 -52 -121 -99 -149c-34 -20 -73 -33 -112 -33c-61 0 -117 33 -117 100c0 71 52 121 99 149c34 20 73 33 112 33z" fill="currentColor"/>
</a>
<rect transform="translate(27.1360, 38.0992)" x="-0.0650" y="-3.5000" width="0.1300" height="3.3843" ry="0.0400" fill="currentColor"/>
<a style="color:inherit;" xlink:href="textedit:///Users/jyang/Documents/GitHub/wygioatynlib/notation/graceNoteFigures_oboe.ly:42:53:54">
<path transform="translate(26.2726, 38.0992) scale(0.0028, -0.0028)" d="M211 141c61 0 117 -33 117 -100c0 -71 -52 -121 -99 -149c-34 -20 -73 -33 -112 -33c-61 0 -117 33 -117 100c0 71 52 121 99 149c34 20 73 33 112 33z" fill="currentColor"/>
</a>
<rect transform="translate(25.7076, 38.0992)" x="-0.0650" y="-3.5000" width="0.1300" height="3.3843" ry="0.0400" fill="currentColor"/>
<a style="color:inherit;" xlink:href="textedit:///Users/jyang/Documents/GitHub/wygioatynlib/notation/graceNoteFigures_oboe.ly:42:50:51">
<path transform="translate(24.8442, 38.0992) scale(0.0028, -0.0028)" d="M211 141c61 0 117 -33 117 -100c0 -71 -52 -121 -99 -149c-34 -20 -73 -33 -112 -33c-61 0 -117 33 -117 100c0 71 52 121 99 149c34 20 73 33 112 33z" fill="currentColor"/>
</a>
<rect transform="translate(32.5440, 38.0992)" x="-0.0650" y="-3.5000" width="0.1300" height="3.3843" ry="0.0400" fill="currentColor"/>
<path transform="translate(30.8619, 19.8602) scale(0.0025, -0.0025)" d="M124 33c-1 34 -18 67 -49 67c-27 0 -39 -32 -39 -63c0 -56 44 -98 85 -136c3 21 5 43 5 64c0 3 -1 7 -1 10zM176 -142c0 -18 -12 -35 -29 -35c-28 0 -36 34 -55 52c-55 52 -134 93 -134 169c0 54 30 106 79 106c37 0 72 -15 97 -42l-8 333c10 6 21 9 32 9s23 -3 33 -9z
" fill="currentColor"/>
<rect transform="translate(32.5440, 17.8602)" x="-0.0650" y="-5.1420" width="0.1300" height="7.0263" ry="0.0400" fill="currentColor"/>
<a style="color:inherit;" xlink:href="textedit:///Users/jyang/Documents/GitHub/wygioatynlib/notation/graceNoteFigures_oboe.ly:42:59:60">
<path transform="translate(31.6806, 38.0992) scale(0.0028, -0.0028)" d="M211 141c61 0 117 -33 117 -100c0 -71 -52 -121 -99 -149c-34 -20 -73 -33 -112 -33c-61 0 -117 33 -117 100c0 71 52 121 99 149c34 20 73 33 112 33z" fill="currentColor"/>
</a>
<path transform="translate(28.4052, 18.8602) scale(0.0040, -0.0040)" d="M518 1c0 -82 -56 -168 -141 -197c2 -27 3 -54 3 -81c0 -16 0 -33 -1 -49c-6 -99 -75 -186 -173 -186c-87 0 -159 72 -159 160c0 46 42 83 90 83c43 0 76 -38 76 -83c0 -42 -34 -76 -76 -76c-4 0 -6 0 -10 1c19 -26 47 -42 81 -42c75 0 124 72 129 149c1 15 1 30 1 45
c0 23 -1 46 -3 69c-22 -4 -44 -6 -67 -6c-151 0 -266 139 -266 302c0 144 101 254 191 367c-16 53 -31 105 -37 160c-5 42 -5 85 -5 128c0 93 42 181 115 239c3 2 6 3 9 3c4 0 8 -1 11 -4c57 -69 107 -202 107 -295c0 -115 -63 -207 -135 -297c17 -59 33 -119 47 -179h1
c2 0 4 1 6 1c126 0 206 -105 206 -212zM373 -155c50 20 81 75 81 125c0 68 -48 136 -127 147c19 -89 35 -178 46 -272zM63 19c0 -104 102 -188 208 -188c21 0 40 1 60 4c-11 98 -28 191 -48 283c-59 -7 -93 -48 -93 -92c0 -34 21 -70 64 -95c5 -5 6 -10 6 -15
c0 -11 -9 -22 -21 -22c-3 0 -6 1 -9 2c-65 35 -95 93 -95 150c0 71 46 141 128 161c-11 48 -24 95 -38 143c-82 -101 -162 -202 -162 -331zM319 860c-76 -44 -123 -124 -123 -211c0 -56 15 -104 29 -151c59 79 107 162 107 261c0 43 -2 61 -13 101z" fill="currentColor"/>
<a style="color:inherit;" xlink:href="textedit:///Users/jyang/Documents/GitHub/wygioatynlib/notation/graceNoteFigures_oboe.ly:24:15:16">
<path transform="translate(31.6806, 19.8602) scale(0.0028, -0.0028)" d="M211 141c61 0 117 -33 117 -100c0 -71 -52 -121 -99 -149c-34 -20 -73 -33 -112 -33c-61 0 -117 33 -117 100c0 71 52 121 99 149c34 20 73 33 112 33z" fill="currentColor"/>
</a>
<rect transform="translate(18.5658, 38.0992)" x="-0.0650" y="-3.5000" width="0.1300" height="3.3843" ry="0.0400" fill="currentColor"/>
<a style="color:inherit;" xlink:href="textedit:///Users/jyang/Documents/GitHub/wygioatynlib/notation/graceNoteFigures_oboe.ly:42:35:36">
<path transform="translate(17.7024, 38.0992) scale(0.0028, -0.0028)" d="M211 141c61 0 117 -33 117 -100c0 -71 -52 -121 -99 -149c-34 -20 -73 -33 -112 -33c-61 0 -117 33 -117 100c0 71 52 121 99 149c34 20 73 33 112 33z" fill="currentColor"/>
</a>
<rect transform="translate(17.1374, 38.0992)" x="-0.0650" y="-3.5000" width="0.1300" height="3.3843" ry="0.0400" fill="currentColor"/>
<a style="color:inherit;" xlink:href="textedit:///Users/jyang/Documents/GitHub/wygioatynlib/notation/graceNoteFigures_oboe.ly:42:32:33">
<path transform="translate(16.2740, 38.0992) scale(0.0028, -0.0028)" d="M211 141c61 0 117 -33 117 -100c0 -71 -52 -121 -99 -149c-34 -20 -73 -33 -112 -33c-61 0 -117 33 -117 100c0 71 52 121 99 149c34 20 73 33 112 33z" fill="currentColor"/>
</a>
<rect transform="translate(15.7090, 38.0992)" x="-0.0650" y="-3.5000" width="0.1300" height="3.3843" ry="0.0400" fill="currentColor"/>
<a style="color:inherit;" xlink:href="textedit:///Users/jyang/Documents/GitHub/wygioatynlib/notation/graceNoteFigures_oboe.ly:42:29:30">
<path transform="translate(14.8457, 38.0992) scale(0.0028, -0.0028)" d="M211 141c61 0 117 -33 117 -100c0 -71 -52 -121 -99 -149c-34 -20 -73 -33 -112 -33c-61 0 -117 33 -117 100c0 71 52 121 99 149c34 20 73 33 112 33z" fill="currentColor"/>
</a>
<rect transform="translate(14.2807, 38.0992)" x="-0.0650" y="-3.5000" width="0.1300" height="3.3843" ry="0.0400" fill="currentColor"/>
<a style="color:inherit;" xlink:href="textedit:///Users/jyang/Documents/GitHub/wygioatynlib/notation/graceNoteFigures_oboe.ly:42:26:27">
<path transform="translate(13.4173, 38.0992) scale(0.0028, -0.0028)" d="M211 141c61 0 117 -33 117 -100c0 -71 -52 -121 -99 -149c-34 -20 -73 -33 -112 -33c-61 0 -117 33 -117 100c0 71 52 121 99 149c34 20 73 33 112 33z" fill="currentColor"/>
</a>
<rect transform="translate(24.2792, 38.0992)" x="-0.0650" y="-3.5000" width="0.1300" height="3.3843" ry="0.0400" fill="currentColor"/>
<a style="color:inherit;" xlink:href="textedit:///Users/jyang/Documents/GitHub/wygioatynlib/notation/graceNoteFigures_oboe.ly:42:47:48">
<path transform="translate(23.4159, 38.0992) scale(0.0028, -0.0028)" d="M211 141c61 0 117 -33 117 -100c0 -71 -52 -121 -99 -149c-34 -20 -73 -33 -112 -33c-61 0 -117 33 -117 100c0 71 52 121 99 149c34 20 73 33 112 33z" fill="currentColor"/>
</a>
<rect transform="translate(22.8509, 38.0992)" x="-0.0650" y="-3.5000" width="0.1300" height="3.3843" ry="0.0400" fill="currentColor"/>
<a style="color:inherit;" xlink:href="textedit:///Users/jyang/Documents/GitHub/wygioatynlib/notation/graceNoteFigures_oboe.ly:42:44:45">
<path transform="translate(21.9875, 38.0992) scale(0.0028, -0.0028)" d="M211 141c61 0 117 -33 117 -100c0 -71 -52 -121 -99 -149c-34 -20 -73 -33 -112 -33c-61 0 -117 33 -117 100c0 71 52 121 99 149c34 20 73 33 112 33z" fill="currentColor"/>
</a>
<rect transform="translate(21.4225, 38.0992)" x="-0.0650" y="-3.5000" width="0.1300" height="3.3843" ry="0.0400" fill="currentColor"/>
<a style="color:inherit;" xlink:href="textedit:///Users/jyang/Documents/GitHub/wygioatynlib/notation/graceNoteFigures_oboe.ly:42:41:42">
<path transform="translate(20.5591, 38.0992) scale(0.0028, -0.0028)" d="M211 141c61 0 117 -33 117 -100c0 -71 -52 -121 -99 -149c-34 -20 -73 -33 -112 -33c-61 0 -117 33 -117 100c0 71 52 121 99 149c34 20 73 33 112 33z" fill="currentColor"/>
</a>
<rect transform="translate(19.9941, 38.0992)" x="-0.0650" y="-3.5000" width="0.1300" height="3.3843" ry="0.0400" fill="currentColor"/>
<a style="color:inherit;" xlink:href="textedit:///Users/jyang/Documents/GitHub/wygioatynlib/notation/graceNoteFigures_oboe.ly:42:38:39">
<path transform="translate(19.1308, 38.0992) scale(0.0028, -0.0028)" d="M211 141c61 0 117 -33 117 -100c0 -71 -52 -121 -99 -149c-34 -20 -73 -33 -112 -33c-61 0 -117 33 -117 100c0 71 52 121 99 149c34 20 73 33 112 33z" fill="currentColor"/>
</a>
<path transform="translate(37.5936, 30.5992) scale(0.0025, -0.0025)" d="M88 -337c-13 0 -24 11 -24 24v106l-15 -9c-5 -3 -11 -5 -17 -5c-17 0 -32 13 -32 32v46c0 11 6 21 15 27l49 31v141l-15 -10c-5 -3 -11 -5 -17 -5c-17 0 -32 13 -32 32v46c0 11 6 21 15 27l49 31v136c0 13 11 24 24 24s23 -11 23 -24v-106l15 9c5 3 11 5 17 5
c17 0 32 -13 32 -32v-46c0 -11 -6 -21 -15 -27l-49 -31v-141l15 10c5 3 11 5 17 5c17 0 32 -13 32 -32v-46c0 -11 -6 -21 -15 -27l-49 -31v-136c0 -13 -10 -24 -23 -24z" fill="currentColor"/>
<rect transform="translate(39.2479, 29.0992)" x="-0.0650" y="-5.1420" width="0.1300" height="6.5263" ry="0.0400" fill="currentColor"/>
<path transform="translate(37.5659, 18.3602) scale(0.0025, -0.0025)" d="M124 33c-1 34 -18 67 -49 67c-27 0 -39 -32 -39 -63c0 -56 44 -98 85 -136c3 21 5 43 5 64c0 3 -1 7 -1 10zM176 -142c0 -18 -12 -35 -29 -35c-28 0 -36 34 -55 52c-55 52 -134 93 -134 169c0 54 30 106 79 106c37 0 72 -15 97 -42l-8 333c10 6 21 9 32 9s23 -3 33 -9z
" fill="currentColor"/>
<rect transform="translate(39.2479, 17.8602)" x="-0.0650" y="-5.1420" width="0.1300" height="5.5263" ry="0.0400" fill="currentColor"/>
<rect transform="translate(39.2479, 7.6213)" x="-0.0650" y="-2.6183" width="0.1300" height="5.0026" ry="0.0400" fill="currentColor"/>
<a style="color:inherit;" xlink:href="textedit:///Users/jyang/Documents/GitHub/wygioatynlib/notation/graceNoteFigures_oboe.ly:42:68:69">
<path transform="translate(38.3846, 38.0992) scale(0.0028, -0.0028)" d="M211 141c61 0 117 -33 117 -100c0 -71 -52 -121 -99 -149c-34 -20 -73 -33 -112 -33c-61 0 -117 33 -117 100c0 71 52 121 99 149c34 20 73 33 112 33z" fill="currentColor"/>
</a>
<a style="color:inherit;" xlink:href="textedit:///Users/jyang/Documents/GitHub/wygioatynlib/notation/graceNoteFigures_oboe.ly:33:23:24">
<path transform="translate(38.3846, 30.5992) scale(0.0028, -0.0028)" d="M211 141c61 0 117 -33 117 -100c0 -71 -52 -121 -99 -149c-34 -20 -73 -33 -112 -33c-61 0 -117 33 -117 100c0 71 52 121 99 149c34 20 73 33 112 33z" fill="currentColor"/>
</a>
<a style="color:inherit;" xlink:href="textedit:///Users/jyang/Documents/GitHub/wygioatynlib/notation/graceNoteFigures_oboe.ly:24:32:33">
<path transform="translate(38.3846, 18.3602) scale(0.0028, -0.0028)" d="M211 141c61 0 117 -33 117 -100c0 -71 -52 -121 -99 -149c-34 -20 -73 -33 -112 -33c-61 0 -117 33 -117 100c0 71 52 121 99 149c34 20 73 33 112 33z" fill="currentColor"/>
</a>
<a style="color:inherit;" xlink:href="textedit:///Users/jyang/Documents/GitHub/wygioatynlib/notation/graceNoteFigures_oboe.ly:15:21:22">
<path transform="translate(38.3846, 10.1213) scale(0.0028, -0.0028)" d="M211 141c61 0 117 -33 117 -100c0 -71 -52 -121 -99 -149c-34 -20 -73 -33 -112 -33c-61 0 -117 33 -117 100c0 71 52 121 99 149c34 20 73 33 112 33z" fill="currentColor"/>
</a>
<a style="color:inherit;" xlink:href="textedit:///Users/jyang/Documents/GitHub/wygioatynlib/notation/graceNoteFigures_oboe.ly:42:22:23">
<polygon transform="translate(11.1289, 34.5992)" stroke-linejoin="round" stroke-linecap="round" stroke-width="0.0800" fill="currentColor" stroke="currentColor" points="39.2057 -0.1520 39.2057 0.1520 0.0400 0.1520 0.0400 -0.1520"/>
<polygon transform="translate(11.1289, 35.2856)" stroke-linejoin="round" stroke-linecap="round" stroke-width="0.0800" fill="currentColor" stroke="currentColor" points="39.2057 -0.1520 39.2057 0.1520 0.0400 0.1520 0.0400 -0.1520"/>
<polygon transform="translate(11.1289, 35.9720)" stroke-linejoin="round" stroke-linecap="round" stroke-width="0.0800" fill="currentColor" stroke="currentColor" points="39.2057 -0.1520 39.2057 0.1520 0.0400 0.1520 0.0400 -0.1520"/>
</a>
<a style="color:inherit;" xlink:href="textedit:///Users/jyang/Documents/GitHub/wygioatynlib/notation/graceNoteFigures_oboe.ly:24:22:23">
<polygon transform="translate(32.4790, 12.7182)" stroke-linejoin="round" stroke-linecap="round" stroke-width="0.0800" fill="currentColor" stroke="currentColor" points="17.8556 -0.1520 17.8556 0.1520 0.0400 0.1520 0.0400 -0.1520"/>
<polygon transform="translate(32.4790, 13.4046)" stroke-linejoin="round" stroke-linecap="round" stroke-width="0.0800" fill="currentColor" stroke="currentColor" points="17.8556 -0.1520 17.8556 0.1520 0.0400 0.1520 0.0400 -0.1520"/>
<polygon transform="translate(32.4790, 14.0910)" stroke-linejoin="round" stroke-linecap="round" stroke-width="0.0800" fill="currentColor" stroke="currentColor" points="17.8556 -0.1520 17.8556 0.1520 0.0400 0.1520 0.0400 -0.1520"/>
</a>
<a style="color:inherit;" xlink:href="textedit:///Users/jyang/Documents/GitHub/wygioatynlib/notation/graceNoteFigures_oboe.ly:15:20:21">
<polygon transform="translate(37.7546, 5.1213)" stroke-linejoin="round" stroke-linecap="round" stroke-width="0.0800" fill="currentColor" stroke="currentColor" points="12.5801 -1.1520 12.5801 -0.8480 0.0400 0.1520 0.0400 -0.1520"/>
<polygon transform="translate(37.7546, 5.8077)" stroke-linejoin="round" stroke-linecap="round" stroke-width="0.0800" fill="currentColor" stroke="currentColor" points="12.5801 -1.1520 12.5801 -0.8480 0.0400 0.1520 0.0400 -0.1520"/>
<polygon transform="translate(37.7546, 6.4941)" stroke-linejoin="round" stroke-linecap="round" stroke-width="0.0800" fill="currentColor" stroke="currentColor" points="12.5801 -1.1520 12.5801 -0.8480 0.0400 0.1520 0.0400 -0.1520"/>
</a>
<a style="color:inherit;" xlink:href="textedit:///Users/jyang/Documents/GitHub/wygioatynlib/notation/graceNoteFigures_oboe.ly:33:21:22">
<polygon transform="translate(37.7546, 23.9572)" stroke-linejoin="round" stroke-linecap="round" stroke-width="0.0800" fill="currentColor" stroke="currentColor" points="12.5801 -0.1520 12.5801 0.1520 0.0400 0.1520 0.0400 -0.1520"/>
<polygon transform="translate(37.7546, 24.6436)" stroke-linejoin="round" stroke-linecap="round" stroke-width="0.0800" fill="currentColor" stroke="currentColor" points="12.5801 -0.1520 12.5801 0.1520 0.0400 0.1520 0.0400 -0.1520"/>
<polygon transform="translate(37.7546, 25.3300)" stroke-linejoin="round" stroke-linecap="round" stroke-width="0.0800" fill="currentColor" stroke="currentColor" points="12.5801 -0.1520 12.5801 0.1520 0.0400 0.1520 0.0400 -0.1520"/>
</a>
<rect transform="translate(41.7192, 17.8602)" x="-0.0650" y="-5.1420" width="0.1300" height="6.5263" ry="0.0400" fill="currentColor"/>
<path transform="translate(39.8129, 10.6213) scale(0.0025, -0.0025)" d="M198 -327c-13 0 -24 11 -24 24v129l-73 -29v-148c0 -13 -11 -24 -24 -24s-23 11 -23 24v129l-10 -4c-4 -2 -8 -2 -12 -2c-17 0 -32 14 -32 32v46c0 13 8 24 20 29l34 14v148l-10 -4c-4 -2 -8 -3 -12 -3c-17 0 -32 14 -32 32v46c0 13 8 25 20 30l34 13v148
c0 13 10 24 23 24s24 -11 24 -24v-129l73 29v148c0 13 11 24 24 24s23 -11 23 -24v-129l10 4c4 2 8 2 12 2c17 0 32 -14 32 -32v-46c0 -13 -8 -24 -20 -29l-34 -14v-148l10 4c4 2 8 3 12 3c17 0 32 -14 32 -32v-46c0 -13 -8 -25 -20 -30l-34 -13v-148c0 -13 -10 -24 -23 -24
zM101 59v-148l73 30v148z" fill="currentColor"/>
<rect transform="translate(41.7192, 7.6213)" x="-0.0650" y="-2.8142" width="0.1300" height="5.6984" ry="0.0400" fill="currentColor"/>
<a style="color:inherit;" xlink:href="textedit:///Users/jyang/Documents/GitHub/wygioatynlib/notation/graceNoteFigures_oboe.ly:42:71:72">
<path transform="translate(40.8559, 38.0992) scale(0.0028, -0.0028)" d="M211 141c61 0 117 -33 117 -100c0 -71 -52 -121 -99 -149c-34 -20 -73 -33 -112 -33c-61 0 -117 33 -117 100c0 71 52 121 99 149c34 20 73 33 112 33z" fill="currentColor"/>
</a>
<a style="color:inherit;" xlink:href="textedit:///Users/jyang/Documents/GitHub/wygioatynlib/notation/graceNoteFigures_oboe.ly:33:28:29">
<path transform="translate(40.8559, 30.0992) scale(0.0028, -0.0028)" d="M211 141c61 0 117 -33 117 -100c0 -71 -52 -121 -99 -149c-34 -20 -73 -33 -112 -33c-61 0 -117 33 -117 100c0 71 52 121 99 149c34 20 73 33 112 33z" fill="currentColor"/>
</a>
<a style="color:inherit;" xlink:href="textedit:///Users/jyang/Documents/GitHub/wygioatynlib/notation/graceNoteFigures_oboe.ly:24:37:38">
<path transform="translate(40.8559, 19.3602) scale(0.0028, -0.0028)" d="M211 141c61 0 117 -33 117 -100c0 -71 -52 -121 -99 -149c-34 -20 -73 -33 -112 -33c-61 0 -117 33 -117 100c0 71 52 121 99 149c34 20 73 33 112 33z" fill="currentColor"/>
</a>
<a style="color:inherit;" xlink:href="textedit:///Users/jyang/Documents/GitHub/wygioatynlib/notation/graceNoteFigures_oboe.ly:15:24:25">
<path transform="translate(40.8559, 10.6213) scale(0.0028, -0.0028)" d="M211 141c61 0 117 -33 117 -100c0 -71 -52 -121 -99 -149c-34 -20 -73 -33 -112 -33c-61 0 -117 33 -117 100c0 71 52 121 99 149c34 20 73 33 112 33z" fill="currentColor"/>
</a>
<rect transform="translate(39.2479, 38.0992)" x="-0.0650" y="-3.5000" width="0.1300" height="3.3843" ry="0.0400" fill="currentColor"/>
<a style="color:inherit;" xlink:href="textedit:///Users/jyang/Documents/GitHub/wygioatynlib/notation/graceNoteFigures_oboe.ly:42:65:66">
<path transform="translate(36.9562, 38.0992) scale(0.0028, -0.0028)" d="M211 141c61 0 117 -33 117 -100c0 -71 -52 -121 -99 -149c-34 -20 -73 -33 -112 -33c-61 0 -117 33 -117 100c0 71 52 121 99 149c34 20 73 33 112 33z" fill="currentColor"/>
</a>
<path transform="translate(34.6042, 30.0992) scale(0.0040, -0.0040)" d="M518 1c0 -82 -56 -168 -141 -197c2 -27 3 -54 3 -81c0 -16 0 -33 -1 -49c-6 -99 -75 -186 -173 -186c-87 0 -159 72 -159 160c0 46 42 83 90 83c43 0 76 -38 76 -83c0 -42 -34 -76 -76 -76c-4 0 -6 0 -10 1c19 -26 47 -42 81 -42c75 0 124 72 129 149c1 15 1 30 1 45
c0 23 -1 46 -3 69c-22 -4 -44 -6 -67 -6c-151 0 -266 139 -266 302c0 144 101 254 191 367c-16 53 -31 105 -37 160c-5 42 -5 85 -5 128c0 93 42 181 115 239c3 2 6 3 9 3c4 0 8 -1 11 -4c57 -69 107 -202 107 -295c0 -115 -63 -207 -135 -297c17 -59 33 -119 47 -179h1
c2 0 4 1 6 1c126 0 206 -105 206 -212zM373 -155c50 20 81 75 81 125c0 68 -48 136 -127 147c19 -89 35 -178 46 -272zM63 19c0 -104 102 -188 208 -188c21 0 40 1 60 4c-11 98 -28 191 -48 283c-59 -7 -93 -48 -93 -92c0 -34 21 -70 64 -95c5 -5 6 -10 6 -15
c0 -11 -9 -22 -21 -22c-3 0 -6 1 -9 2c-65 35 -95 93 -95 150c0 71 46 141 128 161c-11 48 -24 95 -38 143c-82 -101 -162 -202 -162 -331zM319 860c-76 -44 -123 -124 -123 -211c0 -56 15 -104 29 -151c59 79 107 162 107 261c0 43 -2 61 -13 101z" fill="currentColor"/>
<a style="color:inherit;" xlink:href="textedit:///Users/jyang/Documents/GitHub/wygioatynlib/notation/graceNoteFigures_oboe.ly:33:14:15">
<path transform="translate(36.9562, 27.0992) scale(0.0028, -0.0028)" d="M211 141c61 0 117 -33 117 -100c0 -71 -52 -121 -99 -149c-34 -20 -73 -33 -112 -33c-61 0 -117 33 -117 100c0 71 52 121 99 149c34 20 73 33 112 33z" fill="currentColor"/>
</a>
<a style="color:inherit;" xlink:href="textedit:///Users/jyang/Documents/GitHub/wygioatynlib/notation/graceNoteFigures_oboe.ly:24:28:29">
<path transform="translate(36.9562, 15.3602) scale(0.0028, -0.0028)" d="M211 141c61 0 117 -33 117 -100c0 -71 -52 -121 -99 -149c-34 -20 -73 -33 -112 -33c-61 0 -117 33 -117 100c0 71 52 121 99 149c34 20 73 33 112 33z" fill="currentColor"/>
</a>
<path transform="translate(34.6042, 8.6213) scale(0.0040, -0.0040)" d="M518 1c0 -82 -56 -168 -141 -197c2 -27 3 -54 3 -81c0 -16 0 -33 -1 -49c-6 -99 -75 -186 -173 -186c-87 0 -159 72 -159 160c0 46 42 83 90 83c43 0 76 -38 76 -83c0 -42 -34 -76 -76 -76c-4 0 -6 0 -10 1c19 -26 47 -42 81 -42c75 0 124 72 129 149c1 15 1 30 1 45
c0 23 -1 46 -3 69c-22 -4 -44 -6 -67 -6c-151 0 -266 139 -266 302c0 144 101 254 191 367c-16 53 -31 105 -37 160c-5 42 -5 85 -5 128c0 93 42 181 115 239c3 2 6 3 9 3c4 0 8 -1 11 -4c57 -69 107 -202 107 -295c0 -115 -63 -207 -135 -297c17 -59 33 -119 47 -179h1
c2 0 4 1 6 1c126 0 206 -105 206 -212zM373 -155c50 20 81 75 81 125c0 68 -48 136 -127 147c19 -89 35 -178 46 -272zM63 19c0 -104 102 -188 208 -188c21 0 40 1 60 4c-11 98 -28 191 -48 283c-59 -7 -93 -48 -93 -92c0 -34 21 -70 64 -95c5 -5 6 -10 6 -15
c0 -11 -9 -22 -21 -22c-3 0 -6 1 -9 2c-65 35 -95 93 -95 150c0 71 46 141 128 161c-11 48 -24 95 -38 143c-82 -101 -162 -202 -162 -331zM319 860c-76 -44 -123 -124 -123 -211c0 -56 15 -104 29 -151c59 79 107 162 107 261c0 43 -2 61 -13 101z" fill="currentColor"/>
<a style="color:inherit;" xlink:href="textedit:///Users/jyang/Documents/GitHub/wygioatynlib/notation/graceNoteFigures_oboe.ly:15:15:16">
<path transform="translate(36.9562, 9.1213) scale(0.0028, -0.0028)" d="M211 141c61 0 117 -33 117 -100c0 -71 -52 -121 -99 -149c-34 -20 -73 -33 -112 -33c-61 0 -117 33 -117 100c0 71 52 121 99 149c34 20 73 33 112 33z" fill="currentColor"/>
</a>
<rect transform="translate(34.7633, 38.0992)" x="-0.0650" y="-3.5000" width="0.1300" height="3.3843" ry="0.0400" fill="currentColor"/>
<path transform="translate(33.1090, 18.8602) scale(0.0025, -0.0025)" d="M88 -337c-13 0 -24 11 -24 24v106l-15 -9c-5 -3 -11 -5 -17 -5c-17 0 -32 13 -32 32v46c0 11 6 21 15 27l49 31v141l-15 -10c-5 -3 -11 -5 -17 -5c-17 0 -32 13 -32 32v46c0 11 6 21 15 27l49 31v136c0 13 11 24 24 24s23 -11 23 -24v-106l15 9c5 3 11 5 17 5
c17 0 32 -13 32 -32v-46c0 -11 -6 -21 -15 -27l-49 -31v-141l15 10c5 3 11 5 17 5c17 0 32 -13 32 -32v-46c0 -11 -6 -21 -15 -27l-49 -31v-136c0 -13 -10 -24 -23 -24z" fill="currentColor"/>
<rect transform="translate(34.7633, 17.8602)" x="-0.0650" y="-5.1420" width="0.1300" height="6.0263" ry="0.0400" fill="currentColor"/>
<a style="color:inherit;" xlink:href="textedit:///Users/jyang/Documents/GitHub/wygioatynlib/notation/graceNoteFigures_oboe.ly:42:62:63">
<path transform="translate(33.9000, 38.0992) scale(0.0028, -0.0028)" d="M211 141c61 0 117 -33 117 -100c0 -71 -52 -121 -99 -149c-34 -20 -73 -33 -112 -33c-61 0 -117 33 -117 100c0 71 52 121 99 149c34 20 73 33 112 33z" fill="currentColor"/>
</a>
<a style="color:inherit;" xlink:href="textedit:///Users/jyang/Documents/GitHub/wygioatynlib/notation/graceNoteFigures_oboe.ly:24:23:24">
<path transform="translate(33.9000, 18.8602) scale(0.0028, -0.0028)" d="M211 141c61 0 117 -33 117 -100c0 -71 -52 -121 -99 -149c-34 -20 -73 -33 -112 -33c-61 0 -117 33 -117 100c0 71 52 121 99 149c34 20 73 33 112 33z" fill="currentColor"/>
</a>
<rect transform="translate(37.8196, 38.0992)" x="-0.0650" y="-3.5000" width="0.1300" height="3.3843" ry="0.0400" fill="currentColor"/>
<rect transform="translate(37.8196, 29.0992)" x="-0.0650" y="-5.1420" width="0.1300" height="3.0263" ry="0.0400" fill="currentColor"/>
<rect transform="translate(37.8196, 17.8602)" x="-0.0650" y="-5.1420" width="0.1300" height="2.5263" ry="0.0400" fill="currentColor"/>
<rect transform="translate(37.8196, 7.6213)" x="-0.0650" y="-2.5052" width="0.1300" height="3.8894" ry="0.0400" fill="currentColor"/>
<a style="color:inherit;" xlink:href="textedit:///Users/jyang/Documents/GitHub/wygioatynlib/notation/graceNoteFigures_oboe.ly:42:77:78">
<path transform="translate(44.7556, 38.0992) scale(0.0028, -0.0028)" d="M211 141c61 0 117 -33 117 -100c0 -71 -52 -121 -99 -149c-34 -20 -73 -33 -112 -33c-61 0 -117 33 -117 100c0 71 52 121 99 149c34 20 73 33 112 33z" fill="currentColor"/>
</a>
<a style="color:inherit;" xlink:href="textedit:///Users/jyang/Documents/GitHub/wygioatynlib/notation/graceNoteFigures_oboe.ly:33:37:38">
<path transform="translate(44.7556, 29.5992) scale(0.0028, -0.0028)" d="M211 141c61 0 117 -33 117 -100c0 -71 -52 -121 -99 -149c-34 -20 -73 -33 -112 -33c-61 0 -117 33 -117 100c0 71 52 121 99 149c34 20 73 33 112 33z" fill="currentColor"/>
</a>
<a style="color:inherit;" xlink:href="textedit:///Users/jyang/Documents/GitHub/wygioatynlib/notation/graceNoteFigures_oboe.ly:24:43:44">
<path transform="translate(44.7556, 21.8602) scale(0.0028, -0.0028)" d="M211 141c61 0 117 -33 117 -100c0 -71 -52 -121 -99 -149c-34 -20 -73 -33 -112 -33c-61 0 -117 33 -117 100c0 71 52 121 99 149c34 20 73 33 112 33z" fill="currentColor"/>
</a>
<a style="color:inherit;" xlink:href="textedit:///Users/jyang/Documents/GitHub/wygioatynlib/notation/graceNoteFigures_oboe.ly:15:32:33">
<path transform="translate(44.7556, 8.6213) scale(0.0028, -0.0028)" d="M211 141c61 0 117 -33 117 -100c0 -71 -52 -121 -99 -149c-34 -20 -73 -33 -112 -33c-61 0 -117 33 -117 100c0 71 52 121 99 149c34 20 73 33 112 33z" fill="currentColor"/>
</a>
<rect transform="translate(43.1476, 38.0992)" x="-0.0650" y="-3.5000" width="0.1300" height="3.3843" ry="0.0400" fill="currentColor"/>
<path transform="translate(41.4656, 32.5992) scale(0.0025, -0.0025)" d="M124 33c-1 34 -18 67 -49 67c-27 0 -39 -32 -39 -63c0 -56 44 -98 85 -136c3 21 5 43 5 64c0 3 -1 7 -1 10zM176 -142c0 -18 -12 -35 -29 -35c-28 0 -36 34 -55 52c-55 52 -134 93 -134 169c0 54 30 106 79 106c37 0 72 -15 97 -42l-8 333c10 6 21 9 32 9s23 -3 33 -9z
" fill="currentColor"/>
<rect transform="translate(43.1476, 29.0992)" x="-0.0650" y="-5.1420" width="0.1300" height="8.5263" ry="0.0400" fill="currentColor"/>
<rect transform="translate(43.1476, 17.8602)" x="-0.0650" y="-5.1420" width="0.1300" height="8.0263" ry="0.0400" fill="currentColor"/>
<a style="color:inherit;" xlink:href="textedit:///Users/jyang/Documents/GitHub/wygioatynlib/notation/graceNoteFigures_oboe.ly:24:47:48">
<path transform="translate(46.9749, 15.8602) scale(0.0028, -0.0028)" d="M211 141c61 0 117 -33 117 -100c0 -71 -52 -121 -99 -149c-34 -20 -73 -33 -112 -33c-61 0 -117 33 -117 100c0 71 52 121 99 149c34 20 73 33 112 33z" fill="currentColor"/>
</a>
<a style="color:inherit;" xlink:href="textedit:///Users/jyang/Documents/GitHub/wygioatynlib/notation/graceNoteFigures_oboe.ly:15:35:36">
<path transform="translate(46.9749, 10.1213) scale(0.0028, -0.0028)" d="M211 141c61 0 117 -33 117 -100c0 -71 -52 -121 -99 -149c-34 -20 -73 -33 -112 -33c-61 0 -117 33 -117 100c0 71 52 121 99 149c34 20 73 33 112 33z" fill="currentColor"/>
</a>
<rect transform="translate(45.6189, 38.0992)" x="-0.0650" y="-3.5000" width="0.1300" height="3.3843" ry="0.0400" fill="currentColor"/>
<path transform="translate(43.9369, 29.5992) scale(0.0025, -0.0025)" d="M124 33c-1 34 -18 67 -49 67c-27 0 -39 -32 -39 -63c0 -56 44 -98 85 -136c3 21 5 43 5 64c0 3 -1 7 -1 10zM176 -142c0 -18 -12 -35 -29 -35c-28 0 -36 34 -55 52c-55 52 -134 93 -134 169c0 54 30 106 79 106c37 0 72 -15 97 -42l-8 333c10 6 21 9 32 9s23 -3 33 -9z
" fill="currentColor"/>
<rect transform="translate(45.6189, 29.0992)" x="-0.0650" y="-5.1420" width="0.1300" height="5.5263" ry="0.0400" fill="currentColor"/>
<path transform="translate(43.7126, 21.8602) scale(0.0025, -0.0025)" d="M198 -327c-13 0 -24 11 -24 24v129l-73 -29v-148c0 -13 -11 -24 -24 -24s-23 11 -23 24v129l-10 -4c-4 -2 -8 -2 -12 -2c-17 0 -32 14 -32 32v46c0 13 8 24 20 29l34 14v148l-10 -4c-4 -2 -8 -3 -12 -3c-17 0 -32 14 -32 32v46c0 13 8 25 20 30l34 13v148
c0 13 10 24 23 24s24 -11 24 -24v-129l73 29v148c0 13 11 24 24 24s23 -11 23 -24v-129l10 4c4 2 8 2 12 2c17 0 32 -14 32 -32v-46c0 -13 -8 -24 -20 -29l-34 -14v-148l10 4c4 2 8 3 12 3c17 0 32 -14 32 -32v-46c0 -13 -8 -25 -20 -30l-34 -13v-148c0 -13 -10 -24 -23 -24
zM101 59v-148l73 30v148z" fill="currentColor"/>
<rect transform="translate(45.6189, 17.8602)" x="-0.0650" y="-5.1420" width="0.1300" height="9.0263" ry="0.0400" fill="currentColor"/>
<rect transform="translate(45.6189, 7.6213)" x="-0.0650" y="-3.1232" width="0.1300" height="4.0074" ry="0.0400" fill="currentColor"/>
<rect transform="translate(11.1939, 38.0992)" x="-0.0650" y="-3.5000" width="0.1300" height="5.3843" ry="0.0400" fill="currentColor"/>
<path transform="translate(6.4906, 39.0992) scale(0.0040, -0.0040)" d="M376 262c4 0 9 1 13 1c155 0 256 -128 256 -261c0 -76 -33 -154 -107 -210c-22 -17 -47 -28 -73 -36c3 -35 5 -70 5 -105c0 -19 -1 -39 -2 -58c-7 -120 -90 -228 -208 -228c-108 0 -195 88 -195 197c0 58 53 103 112 103c54 0 95 -47 95 -103c0 -52 -43 -95 -95 -95
c-11 0 -21 2 -31 6c26 -39 68 -65 117 -65c96 0 157 92 163 191c1 18 2 37 2 55c0 31 -1 61 -4 92c-29 -5 -58 -8 -89 -8c-188 0 -333 172 -333 374c0 177 131 306 248 441c-19 62 -37 125 -45 190c-6 52 -7 104 -7 156c0 115 55 224 149 292c3 2 7 3 10 3c4 0 7 0 10 -3
c71 -84 133 -245 133 -358c0 -143 -86 -255 -180 -364c21 -68 39 -138 56 -207zM461 -203c68 24 113 95 113 164c0 90 -66 179 -173 190c24 -116 46 -231 60 -354zM74 28c0 -135 129 -247 264 -247c28 0 55 2 82 6c-14 127 -37 245 -63 364c-79 -8 -124 -61 -124 -119
c0 -44 25 -91 81 -123c5 -5 7 -10 7 -15c0 -11 -10 -22 -22 -22c-3 0 -6 1 -9 2c-80 43 -117 115 -117 185c0 88 58 174 160 197c-14 58 -29 117 -46 175c-107 -121 -213 -243 -213 -403zM408 1045c-99 -48 -162 -149 -162 -259c0 -74 18 -133 36 -194
c80 97 146 198 146 324c0 55 -4 79 -20 129z" fill="currentColor"/>
<a style="color:inherit;" xlink:href="textedit:///Users/jyang/Documents/GitHub/wygioatynlib/notation/graceNoteFigures_oboe.ly:42:15:16">
<path transform="translate(10.3306, 40.0992) scale(0.0028, -0.0028)" d="M211 141c61 0 117 -33 117 -100c0 -71 -52 -121 -99 -149c-34 -20 -73 -33 -112 -33c-61 0 -117 33 -117 100c0 71 52 121 99 149c34 20 73 33 112 33z" fill="currentColor"/>
</a>
<path transform="translate(6.4906, 30.0992) scale(0.0040, -0.0040)" d="M376 262c4 0 9 1 13 1c155 0 256 -128 256 -261c0 -76 -33 -154 -107 -210c-22 -17 -47 -28 -73 -36c3 -35 5 -70 5 -105c0 -19 -1 -39 -2 -58c-7 -120 -90 -228 -208 -228c-108 0 -195 88 -195 197c0 58 53 103 112 103c54 0 95 -47 95 -103c0 -52 -43 -95 -95 -95
c-11 0 -21 2 -31 6c26 -39 68 -65 117 -65c96 0 157 92 163 191c1 18 2 37 2 55c0 31 -1 61 -4 92c-29 -5 -58 -8 -89 -8c-188 0 -333 172 -333 374c0 177 131 306 248 441c-19 62 -37 125 -45 190c-6 52 -7 104 -7 156c0 115 55 224 149 292c3 2 7 3 10 3c4 0 7 0 10 -3
c71 -84 133 -245 133 -358c0 -143 -86 -255 -180 -364c21 -68 39 -138 56 -207zM461 -203c68 24 113 95 113 164c0 90 -66 179 -173 190c24 -116 46 -231 60 -354zM74 28c0 -135 129 -247 264 -247c28 0 55 2 82 6c-14 127 -37 245 -63 364c-79 -8 -124 -61 -124 -119
c0 -44 25 -91 81 -123c5 -5 7 -10 7 -15c0 -11 -10 -22 -22 -22c-3 0 -6 1 -9 2c-80 43 -117 115 -117 185c0 88 58 174 160 197c-14 58 -29 117 -46 175c-107 -121 -213 -243 -213 -403zM408 1045c-99 -48 -162 -149 -162 -259c0 -74 18 -133 36 -194
c80 97 146 198 146 324c0 55 -4 79 -20 129z" fill="currentColor"/>
<path transform="translate(6.4906, 18.8602) scale(0.0040, -0.0040)" d="M376 262c4 0 9 1 13 1c155 0 256 -128 256 -261c0 -76 -33 -154 -107 -210c-22 -17 -47 -28 -73 -36c3 -35 5 -70 5 -105c0 -19 -1 -39 -2 -58c-7 -120 -90 -228 -208 -228c-108 0 -195 88 -195 197c0 58 53 103 112 103c54 0 95 -47 95 -103c0 -52 -43 -95 -95 -95
c-11 0 -21 2 -31 6c26 -39 68 -65 117 -65c96 0 157 92 163 191c1 18 2 37 2 55c0 31 -1 61 -4 92c-29 -5 -58 -8 -89 -8c-188 0 -333 172 -333 374c0 177 131 306 248 441c-19 62 -37 125 -45 190c-6 52 -7 104 -7 156c0 115 55 224 149 292c3 2 7 3 10 3c4 0 7 0 10 -3
c71 -84 133 -245 133 -358c0 -143 -86 -255 -180 -364c21 -68 39 -138 56 -207zM461 -203c68 24 113 95 113 164c0 90 -66 179 -173 190c24 -116 46 -231 60 -354zM74 28c0 -135 129 -247 264 -247c28 0 55 2 82 6c-14 127 -37 245 -63 364c-79 -8 -124 -61 -124 -119
c0 -44 25 -91 81 -123c5 -5 7 -10 7 -15c0 -11 -10 -22 -22 -22c-3 0 -6 1 -9 2c-80 43 -117 115 -117 185c0 88 58 174 160 197c-14 58 -29 117 -46 175c-107 -121 -213 -243 -213 -403zM408 1045c-99 -48 -162 -149 -162 -259c0 -74 18 -133 36 -194
c80 97 146 198 146 324c0 55 -4 79 -20 129z" fill="currentColor"/>
<path transform="translate(6.4906, 8.6213) scale(0.0040, -0.0040)" d="M376 262c4 0 9 1 13 1c155 0 256 -128 256 -261c0 -76 -33 -154 -107 -210c-22 -17 -47 -28 -73 -36c3 -35 5 -70 5 -105c0 -19 -1 -39 -2 -58c-7 -120 -90 -228 -208 -228c-108 0 -195 88 -195 197c0 58 53 103 112 103c54 0 95 -47 95 -103c0 -52 -43 -95 -95 -95
c-11 0 -21 2 -31 6c26 -39 68 -65 117 -65c96 0 157 92 163 191c1 18 2 37 2 55c0 31 -1 61 -4 92c-29 -5 -58 -8 -89 -8c-188 0 -333 172 -333 374c0 177 131 306 248 441c-19 62 -37 125 -45 190c-6 52 -7 104 -7 156c0 115 55 224 149 292c3 2 7 3 10 3c4 0 7 0 10 -3
c71 -84 133 -245 133 -358c0 -143 -86 -255 -180 -364c21 -68 39 -138 56 -207zM461 -203c68 24 113 95 113 164c0 90 -66 179 -173 190c24 -116 46 -231 60 -354zM74 28c0 -135 129 -247 264 -247c28 0 55 2 82 6c-14 127 -37 245 -63 364c-79 -8 -124 -61 -124 -119
c0 -44 25 -91 81 -123c5 -5 7 -10 7 -15c0 -11 -10 -22 -22 -22c-3 0 -6 1 -9 2c-80 43 -117 115 -117 185c0 88 58 174 160 197c-14 58 -29 117 -46 175c-107 -121 -213 -243 -213 -403zM408 1045c-99 -48 -162 -149 -162 -259c0 -74 18 -133 36 -194
c80 97 146 198 146 324c0 55 -4 79 -20 129z" fill="currentColor"/>
<rect transform="translate(5.6306, 22.8602)" x="0.0000" y="-17.2889" width="0.1600" height="34.5779" ry="0.0500" fill="currentColor"/>
<rect transform="translate(43.1476, 7.6213)" x="-0.0650" y="-2.9273" width="0.1300" height="3.3116" ry="0.0400" fill="currentColor"/>
<a style="color:inherit;" xlink:href="textedit:///Users/jyang/Documents/GitHub/wygioatynlib/notation/graceNoteFigures_oboe.ly:42:74:75">
<path transform="translate(42.2842, 38.0992) scale(0.0028, -0.0028)" d="M211 141c61 0 117 -33 117 -100c0 -71 -52 -121 -99 -149c-34 -20 -73 -33 -112 -33c-61 0 -117 33 -117 100c0 71 52 121 99 149c34 20 73 33 112 33z" fill="currentColor"/>
</a>
<a style="color:inherit;" xlink:href="textedit:///Users/jyang/Documents/GitHub/wygioatynlib/notation/graceNoteFigures_oboe.ly:33:33:34">
<path transform="translate(42.2842, 32.5992) scale(0.0028, -0.0028)" d="M211 141c61 0 117 -33 117 -100c0 -71 -52 -121 -99 -149c-34 -20 -73 -33 -112 -33c-61 0 -117 33 -117 100c0 71 52 121 99 149c34 20 73 33 112 33z" fill="currentColor"/>
</a>
<a style="color:inherit;" xlink:href="textedit:///Users/jyang/Documents/GitHub/wygioatynlib/notation/graceNoteFigures_oboe.ly:24:40:41">
<path transform="translate(42.2842, 20.8602) scale(0.0028, -0.0028)" d="M211 141c61 0 117 -33 117 -100c0 -71 -52 -121 -99 -149c-34 -20 -73 -33 -112 -33c-61 0 -117 33 -117 100c0 71 52 121 99 149c34 20 73 33 112 33z" fill="currentColor"/>
</a>
<a style="color:inherit;" xlink:href="textedit:///Users/jyang/Documents/GitHub/wygioatynlib/notation/graceNoteFigures_oboe.ly:15:29:30">
<path transform="translate(42.2842, 8.1213) scale(0.0028, -0.0028)" d="M211 141c61 0 117 -33 117 -100c0 -71 -52 -121 -99 -149c-34 -20 -73 -33 -112 -33c-61 0 -117 33 -117 100c0 71 52 121 99 149c34 20 73 33 112 33z" fill="currentColor"/>
</a>
<rect transform="translate(41.7192, 38.0992)" x="-0.0650" y="-3.5000" width="0.1300" height="3.3843" ry="0.0400" fill="currentColor"/>
<path transform="translate(40.0372, 30.0992) scale(0.0025, -0.0025)" d="M124 33c-1 34 -18 67 -49 67c-27 0 -39 -32 -39 -63c0 -56 44 -98 85 -136c3 21 5 43 5 64c0 3 -1 7 -1 10zM176 -142c0 -18 -12 -35 -29 -35c-28 0 -36 34 -55 52c-55 52 -134 93 -134 169c0 54 30 106 79 106c37 0 72 -15 97 -42l-8 333c10 6 21 9 32 9s23 -3 33 -9z
" fill="currentColor"/>
<rect transform="translate(41.7192, 29.0992)" x="-0.0650" y="-5.1420" width="0.1300" height="6.0263" ry="0.0400" fill="currentColor"/>
<path transform="translate(9.5119, 40.0992) scale(0.0025, -0.0025)" d="M124 33c-1 34 -18 67 -49 67c-27 0 -39 -32 -39 -63c0 -56 44 -98 85 -136c3 21 5 43 5 64c0 3 -1 7 -1 10zM176 -142c0 -18 -12 -35 -29 -35c-28 0 -36 34 -55 52c-55 52 -134 93 -134 169c0 54 30 106 79 106c37 0 72 -15 97 -42l-8 333c10 6 21 9 32 9s23 -3 33 -9z
" fill="currentColor"/>
<rect transform="translate(50.3096, 38.0992)" x="-0.0650" y="-3.5000" width="0.1300" height="3.3843" ry="0.0400" fill="currentColor"/>
<rect transform="translate(50.3096, 29.0992)" x="-0.0650" y="-5.1420" width="0.1300" height="4.0263" ry="0.0400" fill="currentColor"/>
<rect transform="translate(12.8523, 38.0992)" x="-0.0650" y="-3.5000" width="0.1300" height="3.3843" ry="0.0400" fill="currentColor"/>
<a style="color:inherit;" xlink:href="textedit:///Users/jyang/Documents/GitHub/wygioatynlib/notation/graceNoteFigures_oboe.ly:42:23:24">
<path transform="translate(11.9889, 38.0992) scale(0.0028, -0.0028)" d="M211 141c61 0 117 -33 117 -100c0 -71 -52 -121 -99 -149c-34 -20 -73 -33 -112 -33c-61 0 -117 33 -117 100c0 71 52 121 99 149c34 20 73 33 112 33z" fill="currentColor"/>
</a>
<rect transform="translate(47.8383, 38.0992)" x="-0.0650" y="-3.5000" width="0.1300" height="3.3843" ry="0.0400" fill="currentColor"/>
<rect transform="translate(47.8383, 29.0992)" x="-0.0650" y="-5.1420" width="0.1300" height="2.5263" ry="0.0400" fill="currentColor"/>
<path transform="translate(46.1839, 15.8602) scale(0.0025, -0.0025)" d="M88 -337c-13 0 -24 11 -24 24v106l-15 -9c-5 -3 -11 -5 -17 -5c-17 0 -32 13 -32 32v46c0 11 6 21 15 27l49 31v141l-15 -10c-5 -3 -11 -5 -17 -5c-17 0 -32 13 -32 32v46c0 11 6 21 15 27l49 31v136c0 13 11 24 24 24s23 -11 23 -24v-106l15 9c5 3 11 5 17 5
c17 0 32 -13 32 -32v-46c0 -11 -6 -21 -15 -27l-49 -31v-141l15 10c5 3 11 5 17 5c17 0 32 -13 32 -32v-46c0 -11 -6 -21 -15 -27l-49 -31v-136c0 -13 -10 -24 -23 -24z" fill="currentColor"/>
<rect transform="translate(47.8383, 17.8602)" x="-0.0650" y="-5.1420" width="0.1300" height="3.0263" ry="0.0400" fill="currentColor"/>
<rect transform="translate(47.8383, 7.6213)" x="-0.0650" y="-3.2990" width="0.1300" height="5.6833" ry="0.0400" fill="currentColor"/>
<a style="color:inherit;" xlink:href="textedit:///Users/jyang/Documents/GitHub/wygioatynlib/notation/graceNoteFigures_oboe.ly:42:80:81">
<path transform="translate(46.9749, 38.0992) scale(0.0028, -0.0028)" d="M211 141c61 0 117 -33 117 -100c0 -71 -52 -121 -99 -149c-34 -20 -73 -33 -112 -33c-61 0 -117 33 -117 100c0 71 52 121 99 149c34 20 73 33 112 33z" fill="currentColor"/>
</a>
<a style="color:inherit;" xlink:href="textedit:///Users/jyang/Documents/GitHub/wygioatynlib/notation/graceNoteFigures_oboe.ly:33:42:43">
<path transform="translate(46.9749, 26.5992) scale(0.0028, -0.0028)" d="M211 141c61 0 117 -33 117 -100c0 -71 -52 -121 -99 -149c-34 -20 -73 -33 -112 -33c-61 0 -117 33 -117 100c0 71 52 121 99 149c34 20 73 33 112 33z" fill="currentColor"/>
</a>
<rect transform="translate(50.3096, 7.6213)" x="-0.0650" y="-3.4948" width="0.1300" height="2.8791" ry="0.0400" fill="currentColor"/>
<a style="color:inherit;" xlink:href="textedit:///Users/jyang/Documents/GitHub/wygioatynlib/notation/graceNoteFigures_oboe.ly:42:83:84">
<path transform="translate(49.4462, 38.0992) scale(0.0028, -0.0028)" d="M211 141c61 0 117 -33 117 -100c0 -71 -52 -121 -99 -149c-34 -20 -73 -33 -112 -33c-61 0 -117 33 -117 100c0 71 52 121 99 149c34 20 73 33 112 33z" fill="currentColor"/>
</a>
<path transform="translate(48.4033, 7.1213) scale(0.0025, -0.0025)" d="M198 -327c-13 0 -24 11 -24 24v129l-73 -29v-148c0 -13 -11 -24 -24 -24s-23 11 -23 24v129l-10 -4c-4 -2 -8 -2 -12 -2c-17 0 -32 14 -32 32v46c0 13 8 24 20 29l34 14v148l-10 -4c-4 -2 -8 -3 -12 -3c-17 0 -32 14 -32 32v46c0 13 8 25 20 30l34 13v148
c0 13 10 24 23 24s24 -11 24 -24v-129l73 29v148c0 13 11 24 24 24s23 -11 23 -24v-129l10 4c4 2 8 2 12 2c17 0 32 -14 32 -32v-46c0 -13 -8 -24 -20 -29l-34 -14v-148l10 4c4 2 8 3 12 3c17 0 32 -14 32 -32v-46c0 -13 -8 -25 -20 -30l-34 -13v-148c0 -13 -10 -24 -23 -24
zM101 59v-148l73 30v148z" fill="currentColor"/>
<a style="color:inherit;" xlink:href="textedit:///Users/jyang/Documents/GitHub/wygioatynlib/notation/graceNoteFigures_oboe.ly:33:46:47">
<path transform="translate(49.4462, 28.0992) scale(0.0028, -0.0028)" d="M211 141c61 0 117 -33 117 -100c0 -71 -52 -121 -99 -149c-34 -20 -73 -33 -112 -33c-61 0 -117 33 -117 100c0 71 52 121 99 149c34 20 73 33 112 33z" fill="currentColor"/>
</a>
<a style="color:inherit;" xlink:href="textedit:///Users/jyang/Documents/GitHub/wygioatynlib/notation/graceNoteFigures_oboe.ly:24:53:54">
<path transform="translate(49.4462, 20.8602) scale(0.0028, -0.0028)" d="M211 141c61 0 117 -33 117 -100c0 -71 -52 -121 -99 -149c-34 -20 -73 -33 -112 -33c-61 0 -117 33 -117 100c0 71 52 121 99 149c34 20 73 33 112 33z" fill="currentColor"/>
</a>
<rect transform="translate(50.3096, 17.8602)" x="-0.0650" y="-5.1420" width="0.1300" height="8.0263" ry="0.0400" fill="currentColor"/>
<a style="color:inherit;" xlink:href="textedit:///Users/jyang/Documents/GitHub/wygioatynlib/notation/graceNoteFigures_oboe.ly:15:38:39">
<path transform="translate(49.4462, 7.1213) scale(0.0028, -0.0028)" d="M211 141c61 0 117 -33 117 -100c0 -71 -52 -121 -99 -149c-34 -20 -73 -33 -112 -33c-61 0 -117 33 -117 100c0 71 52 121 99 149c34 20 73 33 112 33z" fill="currentColor"/>
</a>
<a transform="translate(113.9760, 165.1512)" xlink:href="http://lilypond.org/">
<rect x="0.0000" y="-0.4439" width="56.5755" height="2.0827" fill="none" stroke="none" stroke-width="0.0"/>
</a>
<text transform="translate(113.9760, 165.1512)" font-family="Century Schoolbook L" font-size="2.2001" text-anchor="start" fill="currentColor">
<tspan>
Music engraving by LilyPond 2.18.2—www.lilypond.org</tspan>
</text>
</svg>
