<svg xmlns="http://www.w3.org/2000/svg" xmlns:xlink="http://www.w3.org/1999/xlink" version="1.2" width="500.00mm" height="297.00mm" viewBox="0 0 284.5276 169.0094">
<!-- Page: 1/1 -->
<text transform="translate(5.6906, 2.8453)" font-family="Century Schoolbook L" font-size="2.2001" text-anchor="start" fill="currentColor">
<tspan>
 </tspan>
</text>
<rect transform="translate(57.4328, 46.4604)" x="0.0000" y="-2.0000" width="0.1900" height="4.0000" ry="0.0000" fill="currentColor"/>
<rect transform="translate(54.4828, 11.8953)" x="0.0000" y="-2.0000" width="0.1900" height="4.0000" ry="0.0000" fill="currentColor"/>
<rect transform="translate(57.4328, 36.7278)" x="0.0000" y="-2.0000" width="0.1900" height="4.0000" ry="0.0000" fill="currentColor"/>
<rect transform="translate(54.4828, 25.3438)" x="0.0000" y="-2.0000" width="0.1900" height="4.0000" ry="0.0000" fill="currentColor"/>
<rect transform="translate(54.4828, 36.7278)" x="0.0000" y="-2.0000" width="0.1900" height="4.0000" ry="0.0000" fill="currentColor"/>
<rect transform="translate(57.4328, 25.3438)" x="0.0000" y="-2.0000" width="0.1900" height="4.0000" ry="0.0000" fill="currentColor"/>
<rect transform="translate(54.4828, 46.4604)" x="0.0000" y="-2.0000" width="0.1900" height="4.0000" ry="0.0000" fill="currentColor"/>
<rect transform="translate(57.4328, 11.8953)" x="0.0000" y="-2.0000" width="0.1900" height="4.0000" ry="0.0000" fill="currentColor"/>
<line transform="translate(5.6906, 48.4604)" stroke-linejoin="round" stroke-linecap="round" stroke-width="0.1000" stroke="currentColor" x1="0.0500" y1="-0.0000" x2="51.8823" y2="-0.0000"/>
<line transform="translate(5.6906, 47.4604)" stroke-linejoin="round" stroke-linecap="round" stroke-width="0.1000" stroke="currentColor" x1="0.0500" y1="-0.0000" x2="51.8823" y2="-0.0000"/>
<line transform="translate(5.6906, 46.4604)" stroke-linejoin="round" stroke-linecap="round" stroke-width="0.1000" stroke="currentColor" x1="0.0500" y1="-0.0000" x2="51.8823" y2="-0.0000"/>
<line transform="translate(5.6906, 45.4604)" stroke-linejoin="round" stroke-linecap="round" stroke-width="0.1000" stroke="currentColor" x1="0.0500" y1="-0.0000" x2="51.8823" y2="-0.0000"/>
<line transform="translate(5.6906, 44.4604)" stroke-linejoin="round" stroke-linecap="round" stroke-width="0.1000" stroke="currentColor" x1="0.0500" y1="-0.0000" x2="51.8823" y2="-0.0000"/>
<rect transform="translate(5.6906, 43.4604)" x="4.4079" y="-0.1000" width="1.3605" height="0.2000" ry="0.1000" fill="currentColor"/>
<rect transform="translate(5.6906, 43.4604)" x="5.8684" y="-0.1000" width="1.3284" height="0.2000" ry="0.1000" fill="currentColor"/>
<rect transform="translate(5.6906, 43.4604)" x="7.2967" y="-0.1000" width="1.3284" height="0.2000" ry="0.1000" fill="currentColor"/>
<rect transform="translate(5.6906, 43.4604)" x="8.7251" y="-0.1000" width="1.3284" height="0.2000" ry="0.1000" fill="currentColor"/>
<rect transform="translate(5.6906, 43.4604)" x="10.1535" y="-0.1000" width="1.3284" height="0.2000" ry="0.1000" fill="currentColor"/>
<rect transform="translate(5.6906, 43.4604)" x="11.5818" y="-0.1000" width="1.3284" height="0.2000" ry="0.1000" fill="currentColor"/>
<rect transform="translate(5.6906, 43.4604)" x="13.0102" y="-0.1000" width="1.3284" height="0.2000" ry="0.1000" fill="currentColor"/>
<rect transform="translate(5.6906, 43.4604)" x="14.4386" y="-0.1000" width="1.3284" height="0.2000" ry="0.1000" fill="currentColor"/>
<rect transform="translate(5.6906, 43.4604)" x="15.8669" y="-0.1000" width="1.3284" height="0.2000" ry="0.1000" fill="currentColor"/>
<rect transform="translate(5.6906, 43.4604)" x="17.2953" y="-0.1000" width="1.3284" height="0.2000" ry="0.1000" fill="currentColor"/>
<rect transform="translate(5.6906, 43.4604)" x="18.7237" y="-0.1000" width="1.3284" height="0.2000" ry="0.1000" fill="currentColor"/>
<rect transform="translate(5.6906, 43.4604)" x="20.1521" y="-0.1000" width="1.3284" height="0.2000" ry="0.1000" fill="currentColor"/>
<rect transform="translate(5.6906, 43.4604)" x="21.5804" y="-0.1000" width="1.3605" height="0.2000" ry="0.1000" fill="currentColor"/>
<rect transform="translate(5.6906, 43.4604)" x="25.6226" y="-0.1000" width="1.3605" height="0.2000" ry="0.1000" fill="currentColor"/>
<rect transform="translate(5.6906, 43.4604)" x="27.0831" y="-0.1000" width="1.3605" height="0.2000" ry="0.1000" fill="currentColor"/>
<rect transform="translate(5.6906, 43.4604)" x="29.4035" y="-0.1000" width="1.3926" height="0.2000" ry="0.1000" fill="currentColor"/>
<rect transform="translate(5.6906, 43.4604)" x="31.7553" y="-0.1000" width="1.3926" height="0.2000" ry="0.1000" fill="currentColor"/>
<rect transform="translate(5.6906, 43.4604)" x="34.1078" y="-0.1000" width="1.3926" height="0.2000" ry="0.1000" fill="currentColor"/>
<rect transform="translate(5.6906, 43.4604)" x="36.3866" y="-0.1000" width="1.3926" height="0.2000" ry="0.1000" fill="currentColor"/>
<rect transform="translate(5.6906, 43.4604)" x="38.6059" y="-0.1000" width="1.3926" height="0.2000" ry="0.1000" fill="currentColor"/>
<rect transform="translate(5.6906, 43.4604)" x="40.9577" y="-0.1000" width="1.3926" height="0.2000" ry="0.1000" fill="currentColor"/>
<rect transform="translate(5.6906, 43.4604)" x="43.1821" y="-0.1000" width="1.3926" height="0.2000" ry="0.1000" fill="currentColor"/>
<line transform="translate(5.6906, 38.7278)" stroke-linejoin="round" stroke-linecap="round" stroke-width="0.1000" stroke="currentColor" x1="0.0500" y1="-0.0000" x2="51.8823" y2="-0.0000"/>
<line transform="translate(5.6906, 37.7278)" stroke-linejoin="round" stroke-linecap="round" stroke-width="0.1000" stroke="currentColor" x1="0.0500" y1="-0.0000" x2="51.8823" y2="-0.0000"/>
<line transform="translate(5.6906, 36.7278)" stroke-linejoin="round" stroke-linecap="round" stroke-width="0.1000" stroke="currentColor" x1="0.0500" y1="-0.0000" x2="51.8823" y2="-0.0000"/>
<line transform="translate(5.6906, 35.7278)" stroke-linejoin="round" stroke-linecap="round" stroke-width="0.1000" stroke="currentColor" x1="0.0500" y1="-0.0000" x2="51.8823" y2="-0.0000"/>
<line transform="translate(5.6906, 34.7278)" stroke-linejoin="round" stroke-linecap="round" stroke-width="0.1000" stroke="currentColor" x1="0.0500" y1="-0.0000" x2="51.8823" y2="-0.0000"/>
<rect transform="translate(5.6906, 33.7278)" x="36.3866" y="-0.1000" width="1.3926" height="0.2000" ry="0.1000" fill="currentColor"/>
<rect transform="translate(5.6906, 32.7278)" x="36.3866" y="-0.1000" width="1.3926" height="0.2000" ry="0.1000" fill="currentColor"/>
<rect transform="translate(5.6906, 31.7278)" x="36.3866" y="-0.1000" width="1.3926" height="0.2000" ry="0.1000" fill="currentColor"/>
<rect transform="translate(5.6906, 33.7278)" x="43.1821" y="-0.1000" width="1.3926" height="0.2000" ry="0.1000" fill="currentColor"/>
<rect transform="translate(5.6906, 32.7278)" x="43.1821" y="-0.1000" width="1.3926" height="0.2000" ry="0.1000" fill="currentColor"/>
<rect transform="translate(5.6906, 31.7278)" x="43.1821" y="-0.1000" width="1.3926" height="0.2000" ry="0.1000" fill="currentColor"/>
<rect transform="translate(5.6906, 14.8953)" x="29.4035" y="-0.1000" width="1.3926" height="0.2000" ry="0.1000" fill="currentColor"/>
<rect transform="translate(5.6906, 15.8953)" x="29.4035" y="-0.1000" width="1.3926" height="0.2000" ry="0.1000" fill="currentColor"/>
<rect transform="translate(5.6906, 8.8953)" x="31.7553" y="-0.1000" width="1.3926" height="0.2000" ry="0.1000" fill="currentColor"/>
<rect transform="translate(5.6906, 7.8953)" x="31.7553" y="-0.1000" width="1.3926" height="0.2000" ry="0.1000" fill="currentColor"/>
<rect transform="translate(5.6906, 6.8953)" x="31.7553" y="-0.1000" width="1.3926" height="0.2000" ry="0.1000" fill="currentColor"/>
<rect transform="translate(5.6906, 8.8953)" x="36.3866" y="-0.1000" width="1.3926" height="0.2000" ry="0.1000" fill="currentColor"/>
<rect transform="translate(5.6906, 7.8953)" x="36.4437" y="-0.1000" width="1.3355" height="0.2000" ry="0.1000" fill="currentColor"/>
<rect transform="translate(5.6906, 8.8953)" x="40.9577" y="-0.1000" width="1.3926" height="0.2000" ry="0.1000" fill="currentColor"/>
<rect transform="translate(5.6906, 7.8953)" x="41.0325" y="-0.1000" width="1.3178" height="0.2000" ry="0.1000" fill="currentColor"/>
<line transform="translate(5.6906, 27.3438)" stroke-linejoin="round" stroke-linecap="round" stroke-width="0.1000" stroke="currentColor" x1="0.0500" y1="-0.0000" x2="51.8823" y2="-0.0000"/>
<line transform="translate(5.6906, 26.3438)" stroke-linejoin="round" stroke-linecap="round" stroke-width="0.1000" stroke="currentColor" x1="0.0500" y1="-0.0000" x2="51.8823" y2="-0.0000"/>
<line transform="translate(5.6906, 25.3438)" stroke-linejoin="round" stroke-linecap="round" stroke-width="0.1000" stroke="currentColor" x1="0.0500" y1="-0.0000" x2="51.8823" y2="-0.0000"/>
<line transform="translate(5.6906, 24.3438)" stroke-linejoin="round" stroke-linecap="round" stroke-width="0.1000" stroke="currentColor" x1="0.0500" y1="-0.0000" x2="51.8823" y2="-0.0000"/>
<line transform="translate(5.6906, 23.3438)" stroke-linejoin="round" stroke-linecap="round" stroke-width="0.1000" stroke="currentColor" x1="0.0500" y1="-0.0000" x2="51.8823" y2="-0.0000"/>
<line transform="translate(5.6906, 13.8953)" stroke-linejoin="round" stroke-linecap="round" stroke-width="0.1000" stroke="currentColor" x1="0.0500" y1="-0.0000" x2="51.8823" y2="-0.0000"/>
<line transform="translate(5.6906, 12.8953)" stroke-linejoin="round" stroke-linecap="round" stroke-width="0.1000" stroke="currentColor" x1="0.0500" y1="-0.0000" x2="51.8823" y2="-0.0000"/>
<line transform="translate(5.6906, 11.8953)" stroke-linejoin="round" stroke-linecap="round" stroke-width="0.1000" stroke="currentColor" x1="0.0500" y1="-0.0000" x2="51.8823" y2="-0.0000"/>
<line transform="translate(5.6906, 10.8953)" stroke-linejoin="round" stroke-linecap="round" stroke-width="0.1000" stroke="currentColor" x1="0.0500" y1="-0.0000" x2="51.8823" y2="-0.0000"/>
<line transform="translate(5.6906, 9.8953)" stroke-linejoin="round" stroke-linecap="round" stroke-width="0.1000" stroke="currentColor" x1="0.0500" y1="-0.0000" x2="51.8823" y2="-0.0000"/>
<rect transform="translate(5.6906, 28.3438)" x="29.4035" y="-0.1000" width="1.3926" height="0.2000" ry="0.1000" fill="currentColor"/>
<rect transform="translate(5.6906, 22.3438)" x="34.1078" y="-0.1000" width="1.3926" height="0.2000" ry="0.1000" fill="currentColor"/>
<rect transform="translate(5.6906, 21.3438)" x="34.1078" y="-0.1000" width="1.3926" height="0.2000" ry="0.1000" fill="currentColor"/>
<rect transform="translate(5.6906, 20.3438)" x="34.1078" y="-0.1000" width="1.3926" height="0.2000" ry="0.1000" fill="currentColor"/>
<rect transform="translate(5.6906, 22.3438)" x="38.6059" y="-0.1000" width="1.3926" height="0.2000" ry="0.1000" fill="currentColor"/>
<rect transform="translate(5.6906, 21.3438)" x="38.6630" y="-0.1000" width="1.3355" height="0.2000" ry="0.1000" fill="currentColor"/>
<rect transform="translate(5.6906, 22.3438)" x="43.1821" y="-0.1000" width="1.3926" height="0.2000" ry="0.1000" fill="currentColor"/>
<rect transform="translate(5.6906, 21.3438)" x="43.2262" y="-0.1000" width="1.3485" height="0.2000" ry="0.1000" fill="currentColor"/>
<a style="color:inherit;" xlink:href="textedit:///Users/jyang/Documents/GitHub/wygioatynlib/notation/graceNoteFigures_cello.ly:41:41:42">
<path transform="translate(21.7575, 42.9604) scale(0.0028, -0.0028)" d="M211 141c61 0 117 -33 117 -100c0 -71 -52 -121 -99 -149c-34 -20 -73 -33 -112 -33c-61 0 -117 33 -117 100c0 71 52 121 99 149c34 20 73 33 112 33z" fill="currentColor"/>
</a>
<rect transform="translate(22.6209, 46.4604)" x="-0.0650" y="-6.1420" width="0.1300" height="2.5263" ry="0.0400" fill="currentColor"/>
<a style="color:inherit;" xlink:href="textedit:///Users/jyang/Documents/GitHub/wygioatynlib/notation/graceNoteFigures_cello.ly:41:44:45">
<path transform="translate(23.1859, 42.9604) scale(0.0028, -0.0028)" d="M211 141c61 0 117 -33 117 -100c0 -71 -52 -121 -99 -149c-34 -20 -73 -33 -112 -33c-61 0 -117 33 -117 100c0 71 52 121 99 149c34 20 73 33 112 33z" fill="currentColor"/>
</a>
<rect transform="translate(24.0492, 46.4604)" x="-0.0650" y="-6.1420" width="0.1300" height="2.5263" ry="0.0400" fill="currentColor"/>
<rect transform="translate(21.1925, 46.4604)" x="-0.0650" y="-6.1420" width="0.1300" height="2.5263" ry="0.0400" fill="currentColor"/>
<a style="color:inherit;" xlink:href="textedit:///Users/jyang/Documents/GitHub/wygioatynlib/notation/graceNoteFigures_cello.ly:41:35:36">
<path transform="translate(18.9008, 42.9604) scale(0.0028, -0.0028)" d="M211 141c61 0 117 -33 117 -100c0 -71 -52 -121 -99 -149c-34 -20 -73 -33 -112 -33c-61 0 -117 33 -117 100c0 71 52 121 99 149c34 20 73 33 112 33z" fill="currentColor"/>
</a>
<a style="color:inherit;" xlink:href="textedit:///Users/jyang/Documents/GitHub/wygioatynlib/notation/graceNoteFigures_cello.ly:41:38:39">
<path transform="translate(20.3291, 42.9604) scale(0.0028, -0.0028)" d="M211 141c61 0 117 -33 117 -100c0 -71 -52 -121 -99 -149c-34 -20 -73 -33 -112 -33c-61 0 -117 33 -117 100c0 71 52 121 99 149c34 20 73 33 112 33z" fill="currentColor"/>
</a>
<rect transform="translate(19.7641, 46.4604)" x="-0.0650" y="-6.1420" width="0.1300" height="2.5263" ry="0.0400" fill="currentColor"/>
<path transform="translate(28.1752, 24.3438) scale(0.0040, -0.0040)" d="M446 -100c0 23 18 41 41 41s41 -18 41 -41s-18 -41 -41 -41s-41 18 -41 41zM446 100c0 23 18 41 41 41s41 -18 41 -41s-18 -41 -41 -41s-41 18 -41 41zM179 213c140 0 241 -69 241 -201c0 -211 -210 -333 -411 -421c-3 -3 -6 -4 -9 -4c-7 0 -13 6 -13 13c0 3 1 6 4 9
c150 98 307 217 307 393c0 92 -38 185 -119 185c-52 0 -87 -38 -104 -90c5 1 10 2 15 2c44 0 80 -36 80 -80c0 -46 -35 -85 -80 -85c-48 0 -90 38 -90 85c0 104 77 194 179 194z" fill="currentColor"/>
<a style="color:inherit;" xlink:href="textedit:///Users/jyang/Documents/GitHub/wygioatynlib/notation/graceNoteFigures_cello.ly:23:18:19">
<path transform="translate(31.5453, 23.3438) scale(0.0028, -0.0028)" d="M211 141c61 0 117 -33 117 -100c0 -71 -52 -121 -99 -149c-34 -20 -73 -33 -112 -33c-61 0 -117 33 -117 100c0 71 52 121 99 149c34 20 73 33 112 33z" fill="currentColor"/>
</a>
<rect transform="translate(28.3343, 46.4604)" x="-0.0650" y="-6.1420" width="0.1300" height="2.5263" ry="0.0400" fill="currentColor"/>
<a style="color:inherit;" xlink:href="textedit:///Users/jyang/Documents/GitHub/wygioatynlib/notation/graceNoteFigures_cello.ly:41:53:54">
<path transform="translate(27.4710, 42.9604) scale(0.0028, -0.0028)" d="M211 141c61 0 117 -33 117 -100c0 -71 -52 -121 -99 -149c-34 -20 -73 -33 -112 -33c-61 0 -117 33 -117 100c0 71 52 121 99 149c34 20 73 33 112 33z" fill="currentColor"/>
</a>
<rect transform="translate(26.9060, 46.4604)" x="-0.0650" y="-6.1420" width="0.1300" height="2.5263" ry="0.0400" fill="currentColor"/>
<a style="color:inherit;" xlink:href="textedit:///Users/jyang/Documents/GitHub/wygioatynlib/notation/graceNoteFigures_cello.ly:41:50:51">
<path transform="translate(26.0426, 42.9604) scale(0.0028, -0.0028)" d="M211 141c61 0 117 -33 117 -100c0 -71 -52 -121 -99 -149c-34 -20 -73 -33 -112 -33c-61 0 -117 33 -117 100c0 71 52 121 99 149c34 20 73 33 112 33z" fill="currentColor"/>
</a>
<rect transform="translate(25.4776, 46.4604)" x="-0.0650" y="-6.1420" width="0.1300" height="2.5263" ry="0.0400" fill="currentColor"/>
<a style="color:inherit;" xlink:href="textedit:///Users/jyang/Documents/GitHub/wygioatynlib/notation/graceNoteFigures_cello.ly:41:47:48">
<path transform="translate(24.6142, 42.9604) scale(0.0028, -0.0028)" d="M211 141c61 0 117 -33 117 -100c0 -71 -52 -121 -99 -149c-34 -20 -73 -33 -112 -33c-61 0 -117 33 -117 100c0 71 52 121 99 149c34 20 73 33 112 33z" fill="currentColor"/>
</a>
<a style="color:inherit;" xlink:href="textedit:///Users/jyang/Documents/GitHub/wygioatynlib/notation/graceNoteFigures_cello.ly:41:23:24">
<path transform="translate(13.1873, 42.9604) scale(0.0028, -0.0028)" d="M211 141c61 0 117 -33 117 -100c0 -71 -52 -121 -99 -149c-34 -20 -73 -33 -112 -33c-61 0 -117 33 -117 100c0 71 52 121 99 149c34 20 73 33 112 33z" fill="currentColor"/>
</a>
<rect transform="translate(12.6223, 46.4604)" x="-0.0650" y="-6.1420" width="0.1300" height="2.5263" ry="0.0400" fill="currentColor"/>
<a style="color:inherit;" xlink:href="textedit:///Users/jyang/Documents/GitHub/wygioatynlib/notation/graceNoteFigures_cello.ly:41:20:21">
<path transform="translate(11.7589, 42.9604) scale(0.0028, -0.0028)" d="M211 141c61 0 117 -33 117 -100c0 -71 -52 -121 -99 -149c-34 -20 -73 -33 -112 -33c-61 0 -117 33 -117 100c0 71 52 121 99 149c34 20 73 33 112 33z" fill="currentColor"/>
</a>
<rect transform="translate(18.3358, 46.4604)" x="-0.0650" y="-6.1420" width="0.1300" height="2.5263" ry="0.0400" fill="currentColor"/>
<a style="color:inherit;" xlink:href="textedit:///Users/jyang/Documents/GitHub/wygioatynlib/notation/graceNoteFigures_cello.ly:41:32:33">
<path transform="translate(17.4724, 42.9604) scale(0.0028, -0.0028)" d="M211 141c61 0 117 -33 117 -100c0 -71 -52 -121 -99 -149c-34 -20 -73 -33 -112 -33c-61 0 -117 33 -117 100c0 71 52 121 99 149c34 20 73 33 112 33z" fill="currentColor"/>
</a>
<rect transform="translate(16.9074, 46.4604)" x="-0.0650" y="-6.1420" width="0.1300" height="2.5263" ry="0.0400" fill="currentColor"/>
<a style="color:inherit;" xlink:href="textedit:///Users/jyang/Documents/GitHub/wygioatynlib/notation/graceNoteFigures_cello.ly:41:29:30">
<path transform="translate(16.0440, 42.9604) scale(0.0028, -0.0028)" d="M211 141c61 0 117 -33 117 -100c0 -71 -52 -121 -99 -149c-34 -20 -73 -33 -112 -33c-61 0 -117 33 -117 100c0 71 52 121 99 149c34 20 73 33 112 33z" fill="currentColor"/>
</a>
<rect transform="translate(15.4790, 46.4604)" x="-0.0650" y="-6.1420" width="0.1300" height="2.5263" ry="0.0400" fill="currentColor"/>
<a style="color:inherit;" xlink:href="textedit:///Users/jyang/Documents/GitHub/wygioatynlib/notation/graceNoteFigures_cello.ly:41:26:27">
<path transform="translate(14.6157, 42.9604) scale(0.0028, -0.0028)" d="M211 141c61 0 117 -33 117 -100c0 -71 -52 -121 -99 -149c-34 -20 -73 -33 -112 -33c-61 0 -117 33 -117 100c0 71 52 121 99 149c34 20 73 33 112 33z" fill="currentColor"/>
</a>
<rect transform="translate(14.0507, 46.4604)" x="-0.0650" y="-6.1420" width="0.1300" height="2.5263" ry="0.0400" fill="currentColor"/>
<rect transform="translate(38.5413, 11.8953)" x="-0.0650" y="-7.8580" width="0.1300" height="2.7423" ry="0.0400" fill="currentColor"/>
<a style="color:inherit;" xlink:href="textedit:///Users/jyang/Documents/GitHub/wygioatynlib/notation/graceNoteFigures_cello.ly:41:65:66">
<path transform="translate(37.6780, 42.9604) scale(0.0028, -0.0028)" d="M211 141c61 0 117 -33 117 -100c0 -71 -52 -121 -99 -149c-34 -20 -73 -33 -112 -33c-61 0 -117 33 -117 100c0 71 52 121 99 149c34 20 73 33 112 33z" fill="currentColor"/>
</a>
<a style="color:inherit;" xlink:href="textedit:///Users/jyang/Documents/GitHub/wygioatynlib/notation/graceNoteFigures_cello.ly:23:32:33">
<path transform="translate(37.6780, 26.8438) scale(0.0028, -0.0028)" d="M211 141c61 0 117 -33 117 -100c0 -71 -52 -121 -99 -149c-34 -20 -73 -33 -112 -33c-61 0 -117 33 -117 100c0 71 52 121 99 149c34 20 73 33 112 33z" fill="currentColor"/>
</a>
<a style="color:inherit;" xlink:href="textedit:///Users/jyang/Documents/GitHub/wygioatynlib/notation/graceNoteFigures_cello.ly:14:25:26">
<path transform="translate(37.6780, 6.8953) scale(0.0028, -0.0028)" d="M211 141c61 0 117 -33 117 -100c0 -71 -52 -121 -99 -149c-34 -20 -73 -33 -112 -33c-61 0 -117 33 -117 100c0 71 52 121 99 149c34 20 73 33 112 33z" fill="currentColor"/>
</a>
<rect transform="translate(36.1895, 46.4604)" x="-0.0650" y="-6.1420" width="0.1300" height="2.5263" ry="0.0400" fill="currentColor"/>
<rect transform="translate(36.1895, 25.3438)" x="-0.0650" y="-7.8580" width="0.1300" height="11.2423" ry="0.0400" fill="currentColor"/>
<a style="color:inherit;" xlink:href="textedit:///Users/jyang/Documents/GitHub/wygioatynlib/notation/graceNoteFigures_cello.ly:41:19:20">
<polygon transform="translate(11.1289, 40.3184)" stroke-linejoin="round" stroke-linecap="round" stroke-width="0.0800" fill="currentColor" stroke="currentColor" points="38.8642 -0.1520 38.8642 0.1520 0.0400 0.1520 0.0400 -0.1520"/>
<polygon transform="translate(11.1289, 41.0048)" stroke-linejoin="round" stroke-linecap="round" stroke-width="0.0800" fill="currentColor" stroke="currentColor" points="38.8642 -0.1520 38.8642 0.1520 0.0400 0.1520 0.0400 -0.1520"/>
<polygon transform="translate(11.1289, 41.6912)" stroke-linejoin="round" stroke-linecap="round" stroke-width="0.0800" fill="currentColor" stroke="currentColor" points="38.8642 -0.1520 38.8642 0.1520 0.0400 0.1520 0.0400 -0.1520"/>
</a>
<a style="color:inherit;" xlink:href="textedit:///Users/jyang/Documents/GitHub/wygioatynlib/notation/graceNoteFigures_cello.ly:23:24:25">
<polygon transform="translate(32.3437, 17.4858)" stroke-linejoin="round" stroke-linecap="round" stroke-width="0.0800" fill="currentColor" stroke="currentColor" points="17.6495 -0.1520 17.6495 0.1520 0.0400 0.1520 0.0400 -0.1520"/>
<polygon transform="translate(32.3437, 18.1722)" stroke-linejoin="round" stroke-linecap="round" stroke-width="0.0800" fill="currentColor" stroke="currentColor" points="17.6495 -0.1520 17.6495 0.1520 0.0400 0.1520 0.0400 -0.1520"/>
<polygon transform="translate(32.3437, 18.8586)" stroke-linejoin="round" stroke-linecap="round" stroke-width="0.0800" fill="currentColor" stroke="currentColor" points="17.6495 -0.1520 17.6495 0.1520 0.0400 0.1520 0.0400 -0.1520"/>
</a>
<a style="color:inherit;" xlink:href="textedit:///Users/jyang/Documents/GitHub/wygioatynlib/notation/graceNoteFigures_cello.ly:14:24:25">
<polygon transform="translate(36.1245, 4.0373)" stroke-linejoin="round" stroke-linecap="round" stroke-width="0.0800" fill="currentColor" stroke="currentColor" points="13.8686 -0.1520 13.8686 0.1520 0.0400 0.1520 0.0400 -0.1520"/>
<polygon transform="translate(36.1245, 4.7237)" stroke-linejoin="round" stroke-linecap="round" stroke-width="0.0800" fill="currentColor" stroke="currentColor" points="13.8686 -0.1520 13.8686 0.1520 0.0400 0.1520 0.0400 -0.1520"/>
<polygon transform="translate(36.1245, 5.4101)" stroke-linejoin="round" stroke-linecap="round" stroke-width="0.0800" fill="currentColor" stroke="currentColor" points="13.8686 -0.1520 13.8686 0.1520 0.0400 0.1520 0.0400 -0.1520"/>
</a>
<a style="color:inherit;" xlink:href="textedit:///Users/jyang/Documents/GitHub/wygioatynlib/notation/graceNoteFigures_cello.ly:32:23:24">
<polygon transform="translate(40.8288, 28.5858)" stroke-linejoin="round" stroke-linecap="round" stroke-width="0.0800" fill="currentColor" stroke="currentColor" points="9.1643 -0.1520 9.1643 0.1520 0.0400 0.1520 0.0400 -0.1520"/>
<polygon transform="translate(40.8288, 29.2722)" stroke-linejoin="round" stroke-linecap="round" stroke-width="0.0800" fill="currentColor" stroke="currentColor" points="9.1643 -0.1520 9.1643 0.1520 0.0400 0.1520 0.0400 -0.1520"/>
<polygon transform="translate(40.8288, 29.9586)" stroke-linejoin="round" stroke-linecap="round" stroke-width="0.0800" fill="currentColor" stroke="currentColor" points="9.1643 -0.1520 9.1643 0.1520 0.0400 0.1520 0.0400 -0.1520"/>
</a>
<path transform="translate(38.3822, 35.7278) scale(0.0040, -0.0040)" d="M446 -100c0 23 18 41 41 41s41 -18 41 -41s-18 -41 -41 -41s-41 18 -41 41zM446 100c0 23 18 41 41 41s41 -18 41 -41s-18 -41 -41 -41s-41 18 -41 41zM179 213c140 0 241 -69 241 -201c0 -211 -210 -333 -411 -421c-3 -3 -6 -4 -9 -4c-7 0 -13 6 -13 13c0 3 1 6 4 9
c150 98 307 217 307 393c0 92 -38 185 -119 185c-52 0 -87 -38 -104 -90c5 1 10 2 15 2c44 0 80 -36 80 -80c0 -46 -35 -85 -80 -85c-48 0 -90 38 -90 85c0 104 77 194 179 194z" fill="currentColor"/>
<a style="color:inherit;" xlink:href="textedit:///Users/jyang/Documents/GitHub/wygioatynlib/notation/graceNoteFigures_cello.ly:32:18:19">
<path transform="translate(40.0305, 38.7278) scale(0.0028, -0.0028)" d="M211 141c61 0 117 -33 117 -100c0 -71 -52 -121 -99 -149c-34 -20 -73 -33 -112 -33c-61 0 -117 33 -117 100c0 71 52 121 99 149c34 20 73 33 112 33z" fill="currentColor"/>
</a>
<a style="color:inherit;" xlink:href="textedit:///Users/jyang/Documents/GitHub/wygioatynlib/notation/graceNoteFigures_cello.ly:23:37:38">
<path transform="translate(40.0305, 20.3438) scale(0.0028, -0.0028)" d="M211 141c61 0 117 -33 117 -100c0 -71 -52 -121 -99 -149c-34 -20 -73 -33 -112 -33c-61 0 -117 33 -117 100c0 71 52 121 99 149c34 20 73 33 112 33z" fill="currentColor"/>
</a>
<a style="color:inherit;" xlink:href="textedit:///Users/jyang/Documents/GitHub/wygioatynlib/notation/graceNoteFigures_cello.ly:14:28:29">
<path transform="translate(40.0305, 10.3953) scale(0.0028, -0.0028)" d="M211 141c61 0 117 -33 117 -100c0 -71 -52 -121 -99 -149c-34 -20 -73 -33 -112 -33c-61 0 -117 33 -117 100c0 71 52 121 99 149c34 20 73 33 112 33z" fill="currentColor"/>
</a>
<rect transform="translate(38.5413, 46.4604)" x="-0.0650" y="-6.1420" width="0.1300" height="2.5263" ry="0.0400" fill="currentColor"/>
<path transform="translate(36.8593, 26.8438) scale(0.0025, -0.0025)" d="M124 33c-1 34 -18 67 -49 67c-27 0 -39 -32 -39 -63c0 -56 44 -98 85 -136c3 21 5 43 5 64c0 3 -1 7 -1 10zM176 -142c0 -18 -12 -35 -29 -35c-28 0 -36 34 -55 52c-55 52 -134 93 -134 169c0 54 30 106 79 106c37 0 72 -15 97 -42l-8 333c10 6 21 9 32 9s23 -3 33 -9z
" fill="currentColor"/>
<rect transform="translate(38.5413, 25.3438)" x="-0.0650" y="-7.8580" width="0.1300" height="9.2423" ry="0.0400" fill="currentColor"/>
<rect transform="translate(32.4087, 46.4604)" x="-0.0650" y="-6.1420" width="0.1300" height="2.5263" ry="0.0400" fill="currentColor"/>
<path transform="translate(30.7266, 23.3438) scale(0.0025, -0.0025)" d="M124 33c-1 34 -18 67 -49 67c-27 0 -39 -32 -39 -63c0 -56 44 -98 85 -136c3 21 5 43 5 64c0 3 -1 7 -1 10zM176 -142c0 -18 -12 -35 -29 -35c-28 0 -36 34 -55 52c-55 52 -134 93 -134 169c0 54 30 106 79 106c37 0 72 -15 97 -42l-8 333c10 6 21 9 32 9s23 -3 33 -9z
" fill="currentColor"/>
<rect transform="translate(32.4087, 25.3438)" x="-0.0650" y="-7.8580" width="0.1300" height="5.7423" ry="0.0400" fill="currentColor"/>
<a style="color:inherit;" xlink:href="textedit:///Users/jyang/Documents/GitHub/wygioatynlib/notation/graceNoteFigures_cello.ly:41:56:57">
<path transform="translate(31.5453, 42.9604) scale(0.0028, -0.0028)" d="M211 141c61 0 117 -33 117 -100c0 -71 -52 -121 -99 -149c-34 -20 -73 -33 -112 -33c-61 0 -117 33 -117 100c0 71 52 121 99 149c34 20 73 33 112 33z" fill="currentColor"/>
</a>
<rect transform="translate(36.1895, 11.8953)" x="-0.0650" y="-7.8580" width="0.1300" height="11.7423" ry="0.0400" fill="currentColor"/>
<a style="color:inherit;" xlink:href="textedit:///Users/jyang/Documents/GitHub/wygioatynlib/notation/graceNoteFigures_cello.ly:41:62:63">
<path transform="translate(35.3262, 42.9604) scale(0.0028, -0.0028)" d="M211 141c61 0 117 -33 117 -100c0 -71 -52 -121 -99 -149c-34 -20 -73 -33 -112 -33c-61 0 -117 33 -117 100c0 71 52 121 99 149c34 20 73 33 112 33z" fill="currentColor"/>
</a>
<a style="color:inherit;" xlink:href="textedit:///Users/jyang/Documents/GitHub/wygioatynlib/notation/graceNoteFigures_cello.ly:23:29:30">
<path transform="translate(35.3262, 28.8438) scale(0.0028, -0.0028)" d="M211 141c61 0 117 -33 117 -100c0 -71 -52 -121 -99 -149c-34 -20 -73 -33 -112 -33c-61 0 -117 33 -117 100c0 71 52 121 99 149c34 20 73 33 112 33z" fill="currentColor"/>
</a>
<path transform="translate(33.6778, 10.8953) scale(0.0040, -0.0040)" d="M446 -100c0 23 18 41 41 41s41 -18 41 -41s-18 -41 -41 -41s-41 18 -41 41zM446 100c0 23 18 41 41 41s41 -18 41 -41s-18 -41 -41 -41s-41 18 -41 41zM179 213c140 0 241 -69 241 -201c0 -211 -210 -333 -411 -421c-3 -3 -6 -4 -9 -4c-7 0 -13 6 -13 13c0 3 1 6 4 9
c150 98 307 217 307 393c0 92 -38 185 -119 185c-52 0 -87 -38 -104 -90c5 1 10 2 15 2c44 0 80 -36 80 -80c0 -46 -35 -85 -80 -85c-48 0 -90 38 -90 85c0 104 77 194 179 194z" fill="currentColor"/>
<a style="color:inherit;" xlink:href="textedit:///Users/jyang/Documents/GitHub/wygioatynlib/notation/graceNoteFigures_cello.ly:14:19:20">
<path transform="translate(35.3262, 15.8953) scale(0.0028, -0.0028)" d="M211 141c61 0 117 -33 117 -100c0 -71 -52 -121 -99 -149c-34 -20 -73 -33 -112 -33c-61 0 -117 33 -117 100c0 71 52 121 99 149c34 20 73 33 112 33z" fill="currentColor"/>
</a>
<rect transform="translate(33.8370, 46.4604)" x="-0.0650" y="-6.1420" width="0.1300" height="2.5263" ry="0.0400" fill="currentColor"/>
<rect transform="translate(33.8370, 25.3438)" x="-0.0650" y="-7.8580" width="0.1300" height="5.7423" ry="0.0400" fill="currentColor"/>
<a style="color:inherit;" xlink:href="textedit:///Users/jyang/Documents/GitHub/wygioatynlib/notation/graceNoteFigures_cello.ly:41:59:60">
<path transform="translate(32.9737, 42.9604) scale(0.0028, -0.0028)" d="M211 141c61 0 117 -33 117 -100c0 -71 -52 -121 -99 -149c-34 -20 -73 -33 -112 -33c-61 0 -117 33 -117 100c0 71 52 121 99 149c34 20 73 33 112 33z" fill="currentColor"/>
</a>
<a style="color:inherit;" xlink:href="textedit:///Users/jyang/Documents/GitHub/wygioatynlib/notation/graceNoteFigures_cello.ly:23:25:26">
<path transform="translate(32.9737, 23.3438) scale(0.0028, -0.0028)" d="M211 141c61 0 117 -33 117 -100c0 -71 -52 -121 -99 -149c-34 -20 -73 -33 -112 -33c-61 0 -117 33 -117 100c0 71 52 121 99 149c34 20 73 33 112 33z" fill="currentColor"/>
</a>
<path transform="translate(41.5183, 7.3953) scale(0.0025, -0.0025)" d="M88 -337c-13 0 -24 11 -24 24v106l-15 -9c-5 -3 -11 -5 -17 -5c-17 0 -32 13 -32 32v46c0 11 6 21 15 27l49 31v141l-15 -10c-5 -3 -11 -5 -17 -5c-17 0 -32 13 -32 32v46c0 11 6 21 15 27l49 31v136c0 13 11 24 24 24s23 -11 23 -24v-106l15 9c5 3 11 5 17 5
c17 0 32 -13 32 -32v-46c0 -11 -6 -21 -15 -27l-49 -31v-141l15 10c5 3 11 5 17 5c17 0 32 -13 32 -32v-46c0 -11 -6 -21 -15 -27l-49 -31v-136c0 -13 -10 -24 -23 -24z" fill="currentColor"/>
<rect transform="translate(43.1726, 11.8953)" x="-0.0650" y="-7.8580" width="0.1300" height="3.2423" ry="0.0400" fill="currentColor"/>
<a style="color:inherit;" xlink:href="textedit:///Users/jyang/Documents/GitHub/wygioatynlib/notation/graceNoteFigures_cello.ly:41:71:72">
<path transform="translate(42.3092, 42.9604) scale(0.0028, -0.0028)" d="M211 141c61 0 117 -33 117 -100c0 -71 -52 -121 -99 -149c-34 -20 -73 -33 -112 -33c-61 0 -117 33 -117 100c0 71 52 121 99 149c34 20 73 33 112 33z" fill="currentColor"/>
</a>
<a style="color:inherit;" xlink:href="textedit:///Users/jyang/Documents/GitHub/wygioatynlib/notation/graceNoteFigures_cello.ly:32:24:25">
<path transform="translate(42.3092, 31.2278) scale(0.0028, -0.0028)" d="M211 141c61 0 117 -33 117 -100c0 -71 -52 -121 -99 -149c-34 -20 -73 -33 -112 -33c-61 0 -117 33 -117 100c0 71 52 121 99 149c34 20 73 33 112 33z" fill="currentColor"/>
</a>
<a style="color:inherit;" xlink:href="textedit:///Users/jyang/Documents/GitHub/wygioatynlib/notation/graceNoteFigures_cello.ly:23:40:41">
<path transform="translate(42.3092, 23.8438) scale(0.0028, -0.0028)" d="M211 141c61 0 117 -33 117 -100c0 -71 -52 -121 -99 -149c-34 -20 -73 -33 -112 -33c-61 0 -117 33 -117 100c0 71 52 121 99 149c34 20 73 33 112 33z" fill="currentColor"/>
</a>
<a style="color:inherit;" xlink:href="textedit:///Users/jyang/Documents/GitHub/wygioatynlib/notation/graceNoteFigures_cello.ly:14:32:33">
<path transform="translate(42.3092, 7.3953) scale(0.0028, -0.0028)" d="M211 141c61 0 117 -33 117 -100c0 -71 -52 -121 -99 -149c-34 -20 -73 -33 -112 -33c-61 0 -117 33 -117 100c0 71 52 121 99 149c34 20 73 33 112 33z" fill="currentColor"/>
</a>
<rect transform="translate(40.8938, 46.4604)" x="-0.0650" y="-6.1420" width="0.1300" height="2.5263" ry="0.0400" fill="currentColor"/>
<rect transform="translate(45.3919, 11.8953)" x="-0.0650" y="-7.8580" width="0.1300" height="6.7423" ry="0.0400" fill="currentColor"/>
<a style="color:inherit;" xlink:href="textedit:///Users/jyang/Documents/GitHub/wygioatynlib/notation/graceNoteFigures_cello.ly:41:74:75">
<path transform="translate(44.5286, 42.9604) scale(0.0028, -0.0028)" d="M211 141c61 0 117 -33 117 -100c0 -71 -52 -121 -99 -149c-34 -20 -73 -33 -112 -33c-61 0 -117 33 -117 100c0 71 52 121 99 149c34 20 73 33 112 33z" fill="currentColor"/>
</a>
<a style="color:inherit;" xlink:href="textedit:///Users/jyang/Documents/GitHub/wygioatynlib/notation/graceNoteFigures_cello.ly:32:27:28">
<path transform="translate(44.5286, 38.7278) scale(0.0028, -0.0028)" d="M211 141c61 0 117 -33 117 -100c0 -71 -52 -121 -99 -149c-34 -20 -73 -33 -112 -33c-61 0 -117 33 -117 100c0 71 52 121 99 149c34 20 73 33 112 33z" fill="currentColor"/>
</a>
<a style="color:inherit;" xlink:href="textedit:///Users/jyang/Documents/GitHub/wygioatynlib/notation/graceNoteFigures_cello.ly:23:44:45">
<path transform="translate(44.5286, 20.8438) scale(0.0028, -0.0028)" d="M211 141c61 0 117 -33 117 -100c0 -71 -52 -121 -99 -149c-34 -20 -73 -33 -112 -33c-61 0 -117 33 -117 100c0 71 52 121 99 149c34 20 73 33 112 33z" fill="currentColor"/>
</a>
<a style="color:inherit;" xlink:href="textedit:///Users/jyang/Documents/GitHub/wygioatynlib/notation/graceNoteFigures_cello.ly:14:37:38">
<path transform="translate(44.5286, 10.8953) scale(0.0028, -0.0028)" d="M211 141c61 0 117 -33 117 -100c0 -71 -52 -121 -99 -149c-34 -20 -73 -33 -112 -33c-61 0 -117 33 -117 100c0 71 52 121 99 149c34 20 73 33 112 33z" fill="currentColor"/>
</a>
<rect transform="translate(43.1726, 46.4604)" x="-0.0650" y="-6.1420" width="0.1300" height="2.5263" ry="0.0400" fill="currentColor"/>
<rect transform="translate(43.1726, 36.7278)" x="-0.0650" y="-8.1420" width="0.1300" height="2.5263" ry="0.0400" fill="currentColor"/>
<path transform="translate(41.4905, 23.8438) scale(0.0025, -0.0025)" d="M124 33c-1 34 -18 67 -49 67c-27 0 -39 -32 -39 -63c0 -56 44 -98 85 -136c3 21 5 43 5 64c0 3 -1 7 -1 10zM176 -142c0 -18 -12 -35 -29 -35c-28 0 -36 34 -55 52c-55 52 -134 93 -134 169c0 54 30 106 79 106c37 0 72 -15 97 -42l-8 333c10 6 21 9 32 9s23 -3 33 -9z
" fill="currentColor"/>
<rect transform="translate(43.1726, 25.3438)" x="-0.0650" y="-7.8580" width="0.1300" height="6.2423" ry="0.0400" fill="currentColor"/>
<rect transform="translate(11.1939, 46.4604)" x="-0.0650" y="-6.1420" width="0.1300" height="2.5263" ry="0.0400" fill="currentColor"/>
<path transform="translate(6.4906, 45.4604) scale(0.0040, -0.0040)" d="M557 -125c0 28 23 51 51 51s51 -23 51 -51s-23 -51 -51 -51s-51 23 -51 51zM557 125c0 28 23 51 51 51s51 -23 51 -51s-23 -51 -51 -51s-51 23 -51 51zM232 263c172 0 293 -88 293 -251c0 -263 -263 -414 -516 -521c-3 -3 -6 -4 -9 -4c-7 0 -13 6 -13 13c0 3 1 6 4 9
c202 118 412 265 412 493c0 120 -63 235 -171 235c-74 0 -129 -54 -154 -126c11 5 22 8 34 8c55 0 100 -45 100 -100c0 -58 -44 -106 -100 -106c-60 0 -112 47 -112 106c0 133 102 244 232 244z" fill="currentColor"/>
<a style="color:inherit;" xlink:href="textedit:///Users/jyang/Documents/GitHub/wygioatynlib/notation/graceNoteFigures_cello.ly:41:14:15">
<path transform="translate(10.3306, 42.9604) scale(0.0028, -0.0028)" d="M211 141c61 0 117 -33 117 -100c0 -71 -52 -121 -99 -149c-34 -20 -73 -33 -112 -33c-61 0 -117 33 -117 100c0 71 52 121 99 149c34 20 73 33 112 33z" fill="currentColor"/>
</a>
<path transform="translate(6.4906, 37.7278) scale(0.0040, -0.0040)" d="M376 262c4 0 9 1 13 1c155 0 256 -128 256 -261c0 -76 -33 -154 -107 -210c-22 -17 -47 -28 -73 -36c3 -35 5 -70 5 -105c0 -19 -1 -39 -2 -58c-7 -120 -90 -228 -208 -228c-108 0 -195 88 -195 197c0 58 53 103 112 103c54 0 95 -47 95 -103c0 -52 -43 -95 -95 -95
c-11 0 -21 2 -31 6c26 -39 68 -65 117 -65c96 0 157 92 163 191c1 18 2 37 2 55c0 31 -1 61 -4 92c-29 -5 -58 -8 -89 -8c-188 0 -333 172 -333 374c0 177 131 306 248 441c-19 62 -37 125 -45 190c-6 52 -7 104 -7 156c0 115 55 224 149 292c3 2 7 3 10 3c4 0 7 0 10 -3
c71 -84 133 -245 133 -358c0 -143 -86 -255 -180 -364c21 -68 39 -138 56 -207zM461 -203c68 24 113 95 113 164c0 90 -66 179 -173 190c24 -116 46 -231 60 -354zM74 28c0 -135 129 -247 264 -247c28 0 55 2 82 6c-14 127 -37 245 -63 364c-79 -8 -124 -61 -124 -119
c0 -44 25 -91 81 -123c5 -5 7 -10 7 -15c0 -11 -10 -22 -22 -22c-3 0 -6 1 -9 2c-80 43 -117 115 -117 185c0 88 58 174 160 197c-14 58 -29 117 -46 175c-107 -121 -213 -243 -213 -403zM408 1045c-99 -48 -162 -149 -162 -259c0 -74 18 -133 36 -194
c80 97 146 198 146 324c0 55 -4 79 -20 129z" fill="currentColor"/>
<path transform="translate(6.4906, 26.3438) scale(0.0040, -0.0040)" d="M376 262c4 0 9 1 13 1c155 0 256 -128 256 -261c0 -76 -33 -154 -107 -210c-22 -17 -47 -28 -73 -36c3 -35 5 -70 5 -105c0 -19 -1 -39 -2 -58c-7 -120 -90 -228 -208 -228c-108 0 -195 88 -195 197c0 58 53 103 112 103c54 0 95 -47 95 -103c0 -52 -43 -95 -95 -95
c-11 0 -21 2 -31 6c26 -39 68 -65 117 -65c96 0 157 92 163 191c1 18 2 37 2 55c0 31 -1 61 -4 92c-29 -5 -58 -8 -89 -8c-188 0 -333 172 -333 374c0 177 131 306 248 441c-19 62 -37 125 -45 190c-6 52 -7 104 -7 156c0 115 55 224 149 292c3 2 7 3 10 3c4 0 7 0 10 -3
c71 -84 133 -245 133 -358c0 -143 -86 -255 -180 -364c21 -68 39 -138 56 -207zM461 -203c68 24 113 95 113 164c0 90 -66 179 -173 190c24 -116 46 -231 60 -354zM74 28c0 -135 129 -247 264 -247c28 0 55 2 82 6c-14 127 -37 245 -63 364c-79 -8 -124 -61 -124 -119
c0 -44 25 -91 81 -123c5 -5 7 -10 7 -15c0 -11 -10 -22 -22 -22c-3 0 -6 1 -9 2c-80 43 -117 115 -117 185c0 88 58 174 160 197c-14 58 -29 117 -46 175c-107 -121 -213 -243 -213 -403zM408 1045c-99 -48 -162 -149 -162 -259c0 -74 18 -133 36 -194
c80 97 146 198 146 324c0 55 -4 79 -20 129z" fill="currentColor"/>
<path transform="translate(6.4906, 12.8953) scale(0.0040, -0.0040)" d="M376 262c4 0 9 1 13 1c155 0 256 -128 256 -261c0 -76 -33 -154 -107 -210c-22 -17 -47 -28 -73 -36c3 -35 5 -70 5 -105c0 -19 -1 -39 -2 -58c-7 -120 -90 -228 -208 -228c-108 0 -195 88 -195 197c0 58 53 103 112 103c54 0 95 -47 95 -103c0 -52 -43 -95 -95 -95
c-11 0 -21 2 -31 6c26 -39 68 -65 117 -65c96 0 157 92 163 191c1 18 2 37 2 55c0 31 -1 61 -4 92c-29 -5 -58 -8 -89 -8c-188 0 -333 172 -333 374c0 177 131 306 248 441c-19 62 -37 125 -45 190c-6 52 -7 104 -7 156c0 115 55 224 149 292c3 2 7 3 10 3c4 0 7 0 10 -3
c71 -84 133 -245 133 -358c0 -143 -86 -255 -180 -364c21 -68 39 -138 56 -207zM461 -203c68 24 113 95 113 164c0 90 -66 179 -173 190c24 -116 46 -231 60 -354zM74 28c0 -135 129 -247 264 -247c28 0 55 2 82 6c-14 127 -37 245 -63 364c-79 -8 -124 -61 -124 -119
c0 -44 25 -91 81 -123c5 -5 7 -10 7 -15c0 -11 -10 -22 -22 -22c-3 0 -6 1 -9 2c-80 43 -117 115 -117 185c0 88 58 174 160 197c-14 58 -29 117 -46 175c-107 -121 -213 -243 -213 -403zM408 1045c-99 -48 -162 -149 -162 -259c0 -74 18 -133 36 -194
c80 97 146 198 146 324c0 55 -4 79 -20 129z" fill="currentColor"/>
<rect transform="translate(5.6306, 29.1778)" x="0.0000" y="-19.3325" width="0.1600" height="38.6651" ry="0.0500" fill="currentColor"/>
<rect transform="translate(40.8938, 36.7278)" x="-0.0650" y="-8.1420" width="0.1300" height="10.0263" ry="0.0400" fill="currentColor"/>
<rect transform="translate(40.8938, 25.3438)" x="-0.0650" y="-7.8580" width="0.1300" height="2.7423" ry="0.0400" fill="currentColor"/>
<path transform="translate(39.2395, 10.3953) scale(0.0025, -0.0025)" d="M88 -337c-13 0 -24 11 -24 24v106l-15 -9c-5 -3 -11 -5 -17 -5c-17 0 -32 13 -32 32v46c0 11 6 21 15 27l49 31v141l-15 -10c-5 -3 -11 -5 -17 -5c-17 0 -32 13 -32 32v46c0 11 6 21 15 27l49 31v136c0 13 11 24 24 24s23 -11 23 -24v-106l15 9c5 3 11 5 17 5
c17 0 32 -13 32 -32v-46c0 -11 -6 -21 -15 -27l-49 -31v-141l15 10c5 3 11 5 17 5c17 0 32 -13 32 -32v-46c0 -11 -6 -21 -15 -27l-49 -31v-136c0 -13 -10 -24 -23 -24z" fill="currentColor"/>
<rect transform="translate(40.8938, 11.8953)" x="-0.0650" y="-7.8580" width="0.1300" height="6.2423" ry="0.0400" fill="currentColor"/>
<a style="color:inherit;" xlink:href="textedit:///Users/jyang/Documents/GitHub/wygioatynlib/notation/graceNoteFigures_cello.ly:41:68:69">
<path transform="translate(40.0305, 42.9604) scale(0.0028, -0.0028)" d="M211 141c61 0 117 -33 117 -100c0 -71 -52 -121 -99 -149c-34 -20 -73 -33 -112 -33c-61 0 -117 33 -117 100c0 71 52 121 99 149c34 20 73 33 112 33z" fill="currentColor"/>
</a>
<rect transform="translate(49.9681, 25.3438)" x="-0.0650" y="-7.8580" width="0.1300" height="3.2423" ry="0.0400" fill="currentColor"/>
<path transform="translate(48.0618, 13.3953) scale(0.0025, -0.0025)" d="M198 -327c-13 0 -24 11 -24 24v129l-73 -29v-148c0 -13 -11 -24 -24 -24s-23 11 -23 24v129l-10 -4c-4 -2 -8 -2 -12 -2c-17 0 -32 14 -32 32v46c0 13 8 24 20 29l34 14v148l-10 -4c-4 -2 -8 -3 -12 -3c-17 0 -32 14 -32 32v46c0 13 8 25 20 30l34 13v148
c0 13 10 24 23 24s24 -11 24 -24v-129l73 29v148c0 13 11 24 24 24s23 -11 23 -24v-129l10 4c4 2 8 2 12 2c17 0 32 -14 32 -32v-46c0 -13 -8 -24 -20 -29l-34 -14v-148l10 4c4 2 8 3 12 3c17 0 32 -14 32 -32v-46c0 -13 -8 -25 -20 -30l-34 -13v-148c0 -13 -10 -24 -23 -24
zM101 59v-148l73 30v148z" fill="currentColor"/>
<rect transform="translate(49.9681, 11.8953)" x="-0.0650" y="-7.8580" width="0.1300" height="9.2423" ry="0.0400" fill="currentColor"/>
<a style="color:inherit;" xlink:href="textedit:///Users/jyang/Documents/GitHub/wygioatynlib/notation/graceNoteFigures_cello.ly:41:80:81">
<path transform="translate(49.1048, 42.9604) scale(0.0028, -0.0028)" d="M211 141c61 0 117 -33 117 -100c0 -71 -52 -121 -99 -149c-34 -20 -73 -33 -112 -33c-61 0 -117 33 -117 100c0 71 52 121 99 149c34 20 73 33 112 33z" fill="currentColor"/>
</a>
<a style="color:inherit;" xlink:href="textedit:///Users/jyang/Documents/GitHub/wygioatynlib/notation/graceNoteFigures_cello.ly:32:32:33">
<path transform="translate(49.1048, 31.2278) scale(0.0028, -0.0028)" d="M211 141c61 0 117 -33 117 -100c0 -71 -52 -121 -99 -149c-34 -20 -73 -33 -112 -33c-61 0 -117 33 -117 100c0 71 52 121 99 149c34 20 73 33 112 33z" fill="currentColor"/>
</a>
<a style="color:inherit;" xlink:href="textedit:///Users/jyang/Documents/GitHub/wygioatynlib/notation/graceNoteFigures_cello.ly:23:54:55">
<path transform="translate(49.1048, 20.8438) scale(0.0028, -0.0028)" d="M211 141c61 0 117 -33 117 -100c0 -71 -52 -121 -99 -149c-34 -20 -73 -33 -112 -33c-61 0 -117 33 -117 100c0 71 52 121 99 149c34 20 73 33 112 33z" fill="currentColor"/>
</a>
<a style="color:inherit;" xlink:href="textedit:///Users/jyang/Documents/GitHub/wygioatynlib/notation/graceNoteFigures_cello.ly:14:44:45">
<path transform="translate(49.1048, 13.3953) scale(0.0028, -0.0028)" d="M211 141c61 0 117 -33 117 -100c0 -71 -52 -121 -99 -149c-34 -20 -73 -33 -112 -33c-61 0 -117 33 -117 100c0 71 52 121 99 149c34 20 73 33 112 33z" fill="currentColor"/>
</a>
<rect transform="translate(47.7438, 46.4604)" x="-0.0650" y="-6.1420" width="0.1300" height="2.5263" ry="0.0400" fill="currentColor"/>
<rect transform="translate(49.9681, 46.4604)" x="-0.0650" y="-6.1420" width="0.1300" height="2.5263" ry="0.0400" fill="currentColor"/>
<rect transform="translate(49.9681, 36.7278)" x="-0.0650" y="-8.1420" width="0.1300" height="2.5263" ry="0.0400" fill="currentColor"/>
<path transform="translate(48.3088, 20.8438) scale(0.0025, -0.0025)" d="M-10 375c9 5 20 8 30 8s21 -3 30 -8l-4 -204l96 26c2 0 3 1 5 1c11 0 20 -9 20 -20l10 -553c-9 -5 -20 -8 -30 -8s-21 3 -30 8l4 204l-96 -26c-2 0 -3 -1 -5 -1c-11 0 -20 9 -20 20zM126 108l-81 -22l-4 -194l81 22z" fill="currentColor"/>
<rect transform="translate(47.7438, 11.8953)" x="-0.0650" y="-7.8580" width="0.1300" height="3.7423" ry="0.0400" fill="currentColor"/>
<a style="color:inherit;" xlink:href="textedit:///Users/jyang/Documents/GitHub/wygioatynlib/notation/graceNoteFigures_cello.ly:41:77:78">
<path transform="translate(46.8804, 42.9604) scale(0.0028, -0.0028)" d="M211 141c61 0 117 -33 117 -100c0 -71 -52 -121 -99 -149c-34 -20 -73 -33 -112 -33c-61 0 -117 33 -117 100c0 71 52 121 99 149c34 20 73 33 112 33z" fill="currentColor"/>
</a>
<a style="color:inherit;" xlink:href="textedit:///Users/jyang/Documents/GitHub/wygioatynlib/notation/graceNoteFigures_cello.ly:32:30:31">
<path transform="translate(46.8804, 35.2278) scale(0.0028, -0.0028)" d="M211 141c61 0 117 -33 117 -100c0 -71 -52 -121 -99 -149c-34 -20 -73 -33 -112 -33c-61 0 -117 33 -117 100c0 71 52 121 99 149c34 20 73 33 112 33z" fill="currentColor"/>
</a>
<a style="color:inherit;" xlink:href="textedit:///Users/jyang/Documents/GitHub/wygioatynlib/notation/graceNoteFigures_cello.ly:23:49:50">
<path transform="translate(46.8804, 26.3438) scale(0.0028, -0.0028)" d="M211 141c61 0 117 -33 117 -100c0 -71 -52 -121 -99 -149c-34 -20 -73 -33 -112 -33c-61 0 -117 33 -117 100c0 71 52 121 99 149c34 20 73 33 112 33z" fill="currentColor"/>
</a>
<a style="color:inherit;" xlink:href="textedit:///Users/jyang/Documents/GitHub/wygioatynlib/notation/graceNoteFigures_cello.ly:14:39:40">
<path transform="translate(46.8804, 7.8953) scale(0.0028, -0.0028)" d="M211 141c61 0 117 -33 117 -100c0 -71 -52 -121 -99 -149c-34 -20 -73 -33 -112 -33c-61 0 -117 33 -117 100c0 71 52 121 99 149c34 20 73 33 112 33z" fill="currentColor"/>
</a>
<rect transform="translate(45.3919, 46.4604)" x="-0.0650" y="-6.1420" width="0.1300" height="2.5263" ry="0.0400" fill="currentColor"/>
<rect transform="translate(45.3919, 36.7278)" x="-0.0650" y="-8.1420" width="0.1300" height="10.0263" ry="0.0400" fill="currentColor"/>
<path transform="translate(43.7376, 20.8438) scale(0.0025, -0.0025)" d="M88 -337c-13 0 -24 11 -24 24v106l-15 -9c-5 -3 -11 -5 -17 -5c-17 0 -32 13 -32 32v46c0 11 6 21 15 27l49 31v141l-15 -10c-5 -3 -11 -5 -17 -5c-17 0 -32 13 -32 32v46c0 11 6 21 15 27l49 31v136c0 13 11 24 24 24s23 -11 23 -24v-106l15 9c5 3 11 5 17 5
c17 0 32 -13 32 -32v-46c0 -11 -6 -21 -15 -27l-49 -31v-141l15 10c5 3 11 5 17 5c17 0 32 -13 32 -32v-46c0 -11 -6 -21 -15 -27l-49 -31v-136c0 -13 -10 -24 -23 -24z" fill="currentColor"/>
<rect transform="translate(45.3919, 25.3438)" x="-0.0650" y="-7.8580" width="0.1300" height="3.2423" ry="0.0400" fill="currentColor"/>
<rect transform="translate(47.7438, 36.7278)" x="-0.0650" y="-8.1420" width="0.1300" height="6.5263" ry="0.0400" fill="currentColor"/>
<path transform="translate(46.0617, 26.3438) scale(0.0025, -0.0025)" d="M124 33c-1 34 -18 67 -49 67c-27 0 -39 -32 -39 -63c0 -56 44 -98 85 -136c3 21 5 43 5 64c0 3 -1 7 -1 10zM176 -142c0 -18 -12 -35 -29 -35c-28 0 -36 34 -55 52c-55 52 -134 93 -134 169c0 54 30 106 79 106c37 0 72 -15 97 -42l-8 333c10 6 21 9 32 9s23 -3 33 -9z
" fill="currentColor"/>
<rect transform="translate(47.7438, 25.3438)" x="-0.0650" y="-7.8580" width="0.1300" height="8.7423" ry="0.0400" fill="currentColor"/>
<path transform="translate(46.0617, 7.8953) scale(0.0025, -0.0025)" d="M124 33c-1 34 -18 67 -49 67c-27 0 -39 -32 -39 -63c0 -56 44 -98 85 -136c3 21 5 43 5 64c0 3 -1 7 -1 10zM176 -142c0 -18 -12 -35 -29 -35c-28 0 -36 34 -55 52c-55 52 -134 93 -134 169c0 54 30 106 79 106c37 0 72 -15 97 -42l-8 333c10 6 21 9 32 9s23 -3 33 -9z
" fill="currentColor"/>
<a transform="translate(113.9760, 165.1512)" xlink:href="http://lilypond.org/">
<rect x="0.0000" y="-0.4439" width="56.5755" height="2.0827" fill="none" stroke="none" stroke-width="0.0"/>
</a>
<text transform="translate(113.9760, 165.1512)" font-family="Century Schoolbook L" font-size="2.2001" text-anchor="start" fill="currentColor">
<tspan>
Music engraving by LilyPond 2.18.2—www.lilypond.org</tspan>
</text>
</svg>
