<svg xmlns="http://www.w3.org/2000/svg" xmlns:xlink="http://www.w3.org/1999/xlink" version="1.2" width="500.00mm" height="297.00mm" viewBox="0 0 284.5276 169.0094">
<!-- Page: 1/1 -->
<text transform="translate(5.6906, 2.8453)" font-family="Century Schoolbook L" font-size="2.2001" text-anchor="start" fill="currentColor">
<tspan>
 </tspan>
</text>
<rect transform="translate(53.7375, 28.6213)" x="0.0000" y="-2.0000" width="0.1900" height="4.0000" ry="0.0000" fill="currentColor"/>
<rect transform="translate(56.6875, 9.1793)" x="0.0000" y="-2.0000" width="0.1900" height="4.0000" ry="0.0000" fill="currentColor"/>
<rect transform="translate(53.7375, 19.2373)" x="0.0000" y="-2.0000" width="0.1900" height="4.0000" ry="0.0000" fill="currentColor"/>
<rect transform="translate(56.6875, 19.2373)" x="0.0000" y="-2.0000" width="0.1900" height="4.0000" ry="0.0000" fill="currentColor"/>
<rect transform="translate(53.7375, 37.6213)" x="0.0000" y="-2.0000" width="0.1900" height="4.0000" ry="0.0000" fill="currentColor"/>
<rect transform="translate(56.6875, 28.6213)" x="0.0000" y="-2.0000" width="0.1900" height="4.0000" ry="0.0000" fill="currentColor"/>
<rect transform="translate(53.7375, 9.1793)" x="0.0000" y="-2.0000" width="0.1900" height="4.0000" ry="0.0000" fill="currentColor"/>
<line transform="translate(5.6906, 39.6213)" stroke-linejoin="round" stroke-linecap="round" stroke-width="0.1000" stroke="currentColor" x1="0.0500" y1="-0.0000" x2="51.1369" y2="-0.0000"/>
<line transform="translate(5.6906, 38.6213)" stroke-linejoin="round" stroke-linecap="round" stroke-width="0.1000" stroke="currentColor" x1="0.0500" y1="-0.0000" x2="51.1369" y2="-0.0000"/>
<line transform="translate(5.6906, 37.6213)" stroke-linejoin="round" stroke-linecap="round" stroke-width="0.1000" stroke="currentColor" x1="0.0500" y1="-0.0000" x2="51.1369" y2="-0.0000"/>
<line transform="translate(5.6906, 36.6213)" stroke-linejoin="round" stroke-linecap="round" stroke-width="0.1000" stroke="currentColor" x1="0.0500" y1="-0.0000" x2="51.1369" y2="-0.0000"/>
<line transform="translate(5.6906, 35.6213)" stroke-linejoin="round" stroke-linecap="round" stroke-width="0.1000" stroke="currentColor" x1="0.0500" y1="-0.0000" x2="51.1369" y2="-0.0000"/>
<line transform="translate(5.6906, 30.6213)" stroke-linejoin="round" stroke-linecap="round" stroke-width="0.1000" stroke="currentColor" x1="0.0500" y1="-0.0000" x2="51.1369" y2="-0.0000"/>
<line transform="translate(5.6906, 29.6213)" stroke-linejoin="round" stroke-linecap="round" stroke-width="0.1000" stroke="currentColor" x1="0.0500" y1="-0.0000" x2="51.1369" y2="-0.0000"/>
<line transform="translate(5.6906, 28.6213)" stroke-linejoin="round" stroke-linecap="round" stroke-width="0.1000" stroke="currentColor" x1="0.0500" y1="-0.0000" x2="51.1369" y2="-0.0000"/>
<line transform="translate(5.6906, 27.6213)" stroke-linejoin="round" stroke-linecap="round" stroke-width="0.1000" stroke="currentColor" x1="0.0500" y1="-0.0000" x2="51.1369" y2="-0.0000"/>
<line transform="translate(5.6906, 26.6213)" stroke-linejoin="round" stroke-linecap="round" stroke-width="0.1000" stroke="currentColor" x1="0.0500" y1="-0.0000" x2="51.1369" y2="-0.0000"/>
<rect transform="translate(5.6906, 25.6213)" x="33.2661" y="-0.1000" width="1.3355" height="0.2000" ry="0.1000" fill="currentColor"/>
<rect transform="translate(56.6875, 37.6213)" x="0.0000" y="-2.0000" width="0.1900" height="4.0000" ry="0.0000" fill="currentColor"/>
<line transform="translate(5.6906, 21.2373)" stroke-linejoin="round" stroke-linecap="round" stroke-width="0.1000" stroke="currentColor" x1="0.0500" y1="-0.0000" x2="51.1369" y2="-0.0000"/>
<line transform="translate(5.6906, 20.2373)" stroke-linejoin="round" stroke-linecap="round" stroke-width="0.1000" stroke="currentColor" x1="0.0500" y1="-0.0000" x2="51.1369" y2="-0.0000"/>
<line transform="translate(5.6906, 19.2373)" stroke-linejoin="round" stroke-linecap="round" stroke-width="0.1000" stroke="currentColor" x1="0.0500" y1="-0.0000" x2="51.1369" y2="-0.0000"/>
<line transform="translate(5.6906, 18.2373)" stroke-linejoin="round" stroke-linecap="round" stroke-width="0.1000" stroke="currentColor" x1="0.0500" y1="-0.0000" x2="51.1369" y2="-0.0000"/>
<line transform="translate(5.6906, 17.2373)" stroke-linejoin="round" stroke-linecap="round" stroke-width="0.1000" stroke="currentColor" x1="0.0500" y1="-0.0000" x2="51.1369" y2="-0.0000"/>
<rect transform="translate(5.6906, 16.2373)" x="37.1658" y="-0.1000" width="1.3355" height="0.2000" ry="0.1000" fill="currentColor"/>
<line transform="translate(5.6906, 11.1793)" stroke-linejoin="round" stroke-linecap="round" stroke-width="0.1000" stroke="currentColor" x1="0.0500" y1="-0.0000" x2="51.1369" y2="-0.0000"/>
<line transform="translate(5.6906, 10.1793)" stroke-linejoin="round" stroke-linecap="round" stroke-width="0.1000" stroke="currentColor" x1="0.0500" y1="-0.0000" x2="51.1369" y2="-0.0000"/>
<line transform="translate(5.6906, 9.1793)" stroke-linejoin="round" stroke-linecap="round" stroke-width="0.1000" stroke="currentColor" x1="0.0500" y1="-0.0000" x2="51.1369" y2="-0.0000"/>
<line transform="translate(5.6906, 8.1793)" stroke-linejoin="round" stroke-linecap="round" stroke-width="0.1000" stroke="currentColor" x1="0.0500" y1="-0.0000" x2="51.1369" y2="-0.0000"/>
<line transform="translate(5.6906, 7.1793)" stroke-linejoin="round" stroke-linecap="round" stroke-width="0.1000" stroke="currentColor" x1="0.0500" y1="-0.0000" x2="51.1369" y2="-0.0000"/>
<a style="color:inherit;" xlink:href="textedit:///Users/jyang/Documents/GitHub/wygioatynlib/notation/graceNoteFigures_glock.ly:23:18:19">
<path transform="translate(27.6704, 20.2373) scale(0.0028, -0.0028)" d="M211 141c61 0 117 -33 117 -100c0 -71 -52 -121 -99 -149c-34 -20 -73 -33 -112 -33c-61 0 -117 33 -117 100c0 71 52 121 99 149c34 20 73 33 112 33z" fill="currentColor"/>
</a>
<path transform="translate(25.3184, 20.2373) scale(0.0040, -0.0040)" d="M518 1c0 -82 -56 -168 -141 -197c2 -27 3 -54 3 -81c0 -16 0 -33 -1 -49c-6 -99 -75 -186 -173 -186c-87 0 -159 72 -159 160c0 46 42 83 90 83c43 0 76 -38 76 -83c0 -42 -34 -76 -76 -76c-4 0 -6 0 -10 1c19 -26 47 -42 81 -42c75 0 124 72 129 149c1 15 1 30 1 45
c0 23 -1 46 -3 69c-22 -4 -44 -6 -67 -6c-151 0 -266 139 -266 302c0 144 101 254 191 367c-16 53 -31 105 -37 160c-5 42 -5 85 -5 128c0 93 42 181 115 239c3 2 6 3 9 3c4 0 8 -1 11 -4c57 -69 107 -202 107 -295c0 -115 -63 -207 -135 -297c17 -59 33 -119 47 -179h1
c2 0 4 1 6 1c126 0 206 -105 206 -212zM373 -155c50 20 81 75 81 125c0 68 -48 136 -127 147c19 -89 35 -178 46 -272zM63 19c0 -104 102 -188 208 -188c21 0 40 1 60 4c-11 98 -28 191 -48 283c-59 -7 -93 -48 -93 -92c0 -34 21 -70 64 -95c5 -5 6 -10 6 -15
c0 -11 -9 -22 -21 -22c-3 0 -6 1 -9 2c-65 35 -95 93 -95 150c0 71 46 141 128 161c-11 48 -24 95 -38 143c-82 -101 -162 -202 -162 -331zM319 860c-76 -44 -123 -124 -123 -211c0 -56 15 -104 29 -151c59 79 107 162 107 261c0 43 -2 61 -13 101z" fill="currentColor"/>
<a style="color:inherit;" xlink:href="textedit:///Users/jyang/Documents/GitHub/wygioatynlib/notation/graceNoteFigures_glock.ly:41:50:51">
<path transform="translate(27.6704, 40.1213) scale(0.0028, -0.0028)" d="M211 141c61 0 117 -33 117 -100c0 -71 -52 -121 -99 -149c-34 -20 -73 -33 -112 -33c-61 0 -117 33 -117 100c0 71 52 121 99 149c34 20 73 33 112 33z" fill="currentColor"/>
</a>
<rect transform="translate(25.4776, 37.6213)" x="-0.0650" y="-0.8580" width="0.1300" height="3.2423" ry="0.0400" fill="currentColor"/>
<a style="color:inherit;" xlink:href="textedit:///Users/jyang/Documents/GitHub/wygioatynlib/notation/graceNoteFigures_glock.ly:41:47:48">
<path transform="translate(24.6142, 40.1213) scale(0.0028, -0.0028)" d="M211 141c61 0 117 -33 117 -100c0 -71 -52 -121 -99 -149c-34 -20 -73 -33 -112 -33c-61 0 -117 33 -117 100c0 71 52 121 99 149c34 20 73 33 112 33z" fill="currentColor"/>
</a>
<rect transform="translate(24.0492, 37.6213)" x="-0.0650" y="-0.8580" width="0.1300" height="3.2423" ry="0.0400" fill="currentColor"/>
<a style="color:inherit;" xlink:href="textedit:///Users/jyang/Documents/GitHub/wygioatynlib/notation/graceNoteFigures_glock.ly:41:44:45">
<path transform="translate(23.1859, 40.1213) scale(0.0028, -0.0028)" d="M211 141c61 0 117 -33 117 -100c0 -71 -52 -121 -99 -149c-34 -20 -73 -33 -112 -33c-61 0 -117 33 -117 100c0 71 52 121 99 149c34 20 73 33 112 33z" fill="currentColor"/>
</a>
<rect transform="translate(22.6209, 37.6213)" x="-0.0650" y="-0.8580" width="0.1300" height="3.2423" ry="0.0400" fill="currentColor"/>
<rect transform="translate(30.0672, 19.2373)" x="-0.0650" y="-5.8580" width="0.1300" height="3.2423" ry="0.0400" fill="currentColor"/>
<a style="color:inherit;" xlink:href="textedit:///Users/jyang/Documents/GitHub/wygioatynlib/notation/graceNoteFigures_glock.ly:41:53:54">
<path transform="translate(29.2038, 40.1213) scale(0.0028, -0.0028)" d="M211 141c61 0 117 -33 117 -100c0 -71 -52 -121 -99 -149c-34 -20 -73 -33 -112 -33c-61 0 -117 33 -117 100c0 71 52 121 99 149c34 20 73 33 112 33z" fill="currentColor"/>
</a>
<a style="color:inherit;" xlink:href="textedit:///Users/jyang/Documents/GitHub/wygioatynlib/notation/graceNoteFigures_glock.ly:23:25:26">
<path transform="translate(29.2038, 16.7373) scale(0.0028, -0.0028)" d="M211 141c61 0 117 -33 117 -100c0 -71 -52 -121 -99 -149c-34 -20 -73 -33 -112 -33c-61 0 -117 33 -117 100c0 71 52 121 99 149c34 20 73 33 112 33z" fill="currentColor"/>
</a>
<rect transform="translate(28.5338, 37.6213)" x="-0.0650" y="-0.8580" width="0.1300" height="3.2423" ry="0.0400" fill="currentColor"/>
<rect transform="translate(28.5338, 19.2373)" x="-0.0650" y="-5.8580" width="0.1300" height="6.7423" ry="0.0400" fill="currentColor"/>
<rect transform="translate(15.4790, 37.6213)" x="-0.0650" y="-0.8580" width="0.1300" height="3.2423" ry="0.0400" fill="currentColor"/>
<a style="color:inherit;" xlink:href="textedit:///Users/jyang/Documents/GitHub/wygioatynlib/notation/graceNoteFigures_glock.ly:41:26:27">
<path transform="translate(14.6157, 40.1213) scale(0.0028, -0.0028)" d="M211 141c61 0 117 -33 117 -100c0 -71 -52 -121 -99 -149c-34 -20 -73 -33 -112 -33c-61 0 -117 33 -117 100c0 71 52 121 99 149c34 20 73 33 112 33z" fill="currentColor"/>
</a>
<rect transform="translate(14.0507, 37.6213)" x="-0.0650" y="-0.8580" width="0.1300" height="3.2423" ry="0.0400" fill="currentColor"/>
<a style="color:inherit;" xlink:href="textedit:///Users/jyang/Documents/GitHub/wygioatynlib/notation/graceNoteFigures_glock.ly:41:23:24">
<path transform="translate(13.1873, 40.1213) scale(0.0028, -0.0028)" d="M211 141c61 0 117 -33 117 -100c0 -71 -52 -121 -99 -149c-34 -20 -73 -33 -112 -33c-61 0 -117 33 -117 100c0 71 52 121 99 149c34 20 73 33 112 33z" fill="currentColor"/>
</a>
<rect transform="translate(12.6223, 37.6213)" x="-0.0650" y="-0.8580" width="0.1300" height="3.2423" ry="0.0400" fill="currentColor"/>
<a style="color:inherit;" xlink:href="textedit:///Users/jyang/Documents/GitHub/wygioatynlib/notation/graceNoteFigures_glock.ly:41:20:21">
<path transform="translate(11.7589, 40.1213) scale(0.0028, -0.0028)" d="M211 141c61 0 117 -33 117 -100c0 -71 -52 -121 -99 -149c-34 -20 -73 -33 -112 -33c-61 0 -117 33 -117 100c0 71 52 121 99 149c34 20 73 33 112 33z" fill="currentColor"/>
</a>
<a style="color:inherit;" xlink:href="textedit:///Users/jyang/Documents/GitHub/wygioatynlib/notation/graceNoteFigures_glock.ly:41:41:42">
<path transform="translate(21.7575, 40.1213) scale(0.0028, -0.0028)" d="M211 141c61 0 117 -33 117 -100c0 -71 -52 -121 -99 -149c-34 -20 -73 -33 -112 -33c-61 0 -117 33 -117 100c0 71 52 121 99 149c34 20 73 33 112 33z" fill="currentColor"/>
</a>
<rect transform="translate(21.1925, 37.6213)" x="-0.0650" y="-0.8580" width="0.1300" height="3.2423" ry="0.0400" fill="currentColor"/>
<a style="color:inherit;" xlink:href="textedit:///Users/jyang/Documents/GitHub/wygioatynlib/notation/graceNoteFigures_glock.ly:41:38:39">
<path transform="translate(20.3291, 40.1213) scale(0.0028, -0.0028)" d="M211 141c61 0 117 -33 117 -100c0 -71 -52 -121 -99 -149c-34 -20 -73 -33 -112 -33c-61 0 -117 33 -117 100c0 71 52 121 99 149c34 20 73 33 112 33z" fill="currentColor"/>
</a>
<rect transform="translate(19.7641, 37.6213)" x="-0.0650" y="-0.8580" width="0.1300" height="3.2423" ry="0.0400" fill="currentColor"/>
<a style="color:inherit;" xlink:href="textedit:///Users/jyang/Documents/GitHub/wygioatynlib/notation/graceNoteFigures_glock.ly:41:35:36">
<path transform="translate(18.9008, 40.1213) scale(0.0028, -0.0028)" d="M211 141c61 0 117 -33 117 -100c0 -71 -52 -121 -99 -149c-34 -20 -73 -33 -112 -33c-61 0 -117 33 -117 100c0 71 52 121 99 149c34 20 73 33 112 33z" fill="currentColor"/>
</a>
<rect transform="translate(18.3358, 37.6213)" x="-0.0650" y="-0.8580" width="0.1300" height="3.2423" ry="0.0400" fill="currentColor"/>
<a style="color:inherit;" xlink:href="textedit:///Users/jyang/Documents/GitHub/wygioatynlib/notation/graceNoteFigures_glock.ly:41:32:33">
<path transform="translate(17.4724, 40.1213) scale(0.0028, -0.0028)" d="M211 141c61 0 117 -33 117 -100c0 -71 -52 -121 -99 -149c-34 -20 -73 -33 -112 -33c-61 0 -117 33 -117 100c0 71 52 121 99 149c34 20 73 33 112 33z" fill="currentColor"/>
</a>
<rect transform="translate(16.9074, 37.6213)" x="-0.0650" y="-0.8580" width="0.1300" height="3.2423" ry="0.0400" fill="currentColor"/>
<a style="color:inherit;" xlink:href="textedit:///Users/jyang/Documents/GitHub/wygioatynlib/notation/graceNoteFigures_glock.ly:41:29:30">
<path transform="translate(16.0440, 40.1213) scale(0.0028, -0.0028)" d="M211 141c61 0 117 -33 117 -100c0 -71 -52 -121 -99 -149c-34 -20 -73 -33 -112 -33c-61 0 -117 33 -117 100c0 71 52 121 99 149c34 20 73 33 112 33z" fill="currentColor"/>
</a>
<rect transform="translate(37.6080, 37.6213)" x="-0.0650" y="-0.8580" width="0.1300" height="3.2423" ry="0.0400" fill="currentColor"/>
<rect transform="translate(37.6080, 28.6213)" x="-0.0650" y="-6.1420" width="0.1300" height="6.5263" ry="0.0400" fill="currentColor"/>
<rect transform="translate(37.6080, 19.2373)" x="-0.0650" y="-5.8580" width="0.1300" height="4.7423" ry="0.0400" fill="currentColor"/>
<rect transform="translate(37.6080, 9.1793)" x="-0.0650" y="-5.1420" width="0.1300" height="3.0263" ry="0.0400" fill="currentColor"/>
<a style="color:inherit;" xlink:href="textedit:///Users/jyang/Documents/GitHub/wygioatynlib/notation/graceNoteFigures_glock.ly:41:62:63">
<path transform="translate(36.7446, 40.1213) scale(0.0028, -0.0028)" d="M211 141c61 0 117 -33 117 -100c0 -71 -52 -121 -99 -149c-34 -20 -73 -33 -112 -33c-61 0 -117 33 -117 100c0 71 52 121 99 149c34 20 73 33 112 33z" fill="currentColor"/>
</a>
<path transform="translate(34.3926, 29.6213) scale(0.0040, -0.0040)" d="M518 1c0 -82 -56 -168 -141 -197c2 -27 3 -54 3 -81c0 -16 0 -33 -1 -49c-6 -99 -75 -186 -173 -186c-87 0 -159 72 -159 160c0 46 42 83 90 83c43 0 76 -38 76 -83c0 -42 -34 -76 -76 -76c-4 0 -6 0 -10 1c19 -26 47 -42 81 -42c75 0 124 72 129 149c1 15 1 30 1 45
c0 23 -1 46 -3 69c-22 -4 -44 -6 -67 -6c-151 0 -266 139 -266 302c0 144 101 254 191 367c-16 53 -31 105 -37 160c-5 42 -5 85 -5 128c0 93 42 181 115 239c3 2 6 3 9 3c4 0 8 -1 11 -4c57 -69 107 -202 107 -295c0 -115 -63 -207 -135 -297c17 -59 33 -119 47 -179h1
c2 0 4 1 6 1c126 0 206 -105 206 -212zM373 -155c50 20 81 75 81 125c0 68 -48 136 -127 147c19 -89 35 -178 46 -272zM63 19c0 -104 102 -188 208 -188c21 0 40 1 60 4c-11 98 -28 191 -48 283c-59 -7 -93 -48 -93 -92c0 -34 21 -70 64 -95c5 -5 6 -10 6 -15
c0 -11 -9 -22 -21 -22c-3 0 -6 1 -9 2c-65 35 -95 93 -95 150c0 71 46 141 128 161c-11 48 -24 95 -38 143c-82 -101 -162 -202 -162 -331zM319 860c-76 -44 -123 -124 -123 -211c0 -56 15 -104 29 -151c59 79 107 162 107 261c0 43 -2 61 -13 101z" fill="currentColor"/>
<a style="color:inherit;" xlink:href="textedit:///Users/jyang/Documents/GitHub/wygioatynlib/notation/graceNoteFigures_glock.ly:32:19:20">
<path transform="translate(36.7446, 29.1213) scale(0.0028, -0.0028)" d="M211 141c61 0 117 -33 117 -100c0 -71 -52 -121 -99 -149c-34 -20 -73 -33 -112 -33c-61 0 -117 33 -117 100c0 71 52 121 99 149c34 20 73 33 112 33z" fill="currentColor"/>
</a>
<a style="color:inherit;" xlink:href="textedit:///Users/jyang/Documents/GitHub/wygioatynlib/notation/graceNoteFigures_glock.ly:41:19:20">
<polygon transform="translate(11.1289, 36.7633)" stroke-linejoin="round" stroke-linecap="round" stroke-width="0.0800" fill="currentColor" stroke="currentColor" points="38.1189 -0.1520 38.1189 0.1520 0.0400 0.1520 0.0400 -0.1520"/>
<polygon transform="translate(11.1289, 37.4497)" stroke-linejoin="round" stroke-linecap="round" stroke-width="0.0800" fill="currentColor" stroke="currentColor" points="38.1189 -0.1520 38.1189 0.1520 0.0400 0.1520 0.0400 -0.1520"/>
<polygon transform="translate(11.1289, 38.1361)" stroke-linejoin="round" stroke-linecap="round" stroke-width="0.0800" fill="currentColor" stroke="currentColor" points="38.1189 -0.1520 38.1189 0.1520 0.0400 0.1520 0.0400 -0.1520"/>
</a>
<a style="color:inherit;" xlink:href="textedit:///Users/jyang/Documents/GitHub/wygioatynlib/notation/graceNoteFigures_glock.ly:23:23:24">
<polygon transform="translate(28.4688, 13.3793)" stroke-linejoin="round" stroke-linecap="round" stroke-width="0.0800" fill="currentColor" stroke="currentColor" points="20.7790 -0.1520 20.7790 0.1520 0.0400 0.1520 0.0400 -0.1520"/>
<polygon transform="translate(28.4688, 14.0657)" stroke-linejoin="round" stroke-linecap="round" stroke-width="0.0800" fill="currentColor" stroke="currentColor" points="20.7790 -0.1520 20.7790 0.1520 0.0400 0.1520 0.0400 -0.1520"/>
<polygon transform="translate(28.4688, 14.7521)" stroke-linejoin="round" stroke-linecap="round" stroke-width="0.0800" fill="currentColor" stroke="currentColor" points="20.7790 -0.1520 20.7790 0.1520 0.0400 0.1520 0.0400 -0.1520"/>
</a>
<a style="color:inherit;" xlink:href="textedit:///Users/jyang/Documents/GitHub/wygioatynlib/notation/graceNoteFigures_glock.ly:14:25:26">
<polygon transform="translate(34.4868, 4.0373)" stroke-linejoin="round" stroke-linecap="round" stroke-width="0.0800" fill="currentColor" stroke="currentColor" points="14.7611 -0.1520 14.7611 0.1520 0.0400 0.1520 0.0400 -0.1520"/>
<polygon transform="translate(34.4868, 4.7237)" stroke-linejoin="round" stroke-linecap="round" stroke-width="0.0800" fill="currentColor" stroke="currentColor" points="14.7611 -0.1520 14.7611 0.1520 0.0400 0.1520 0.0400 -0.1520"/>
<polygon transform="translate(34.4868, 5.4101)" stroke-linejoin="round" stroke-linecap="round" stroke-width="0.0800" fill="currentColor" stroke="currentColor" points="14.7611 -0.1520 14.7611 0.1520 0.0400 0.1520 0.0400 -0.1520"/>
</a>
<a style="color:inherit;" xlink:href="textedit:///Users/jyang/Documents/GitHub/wygioatynlib/notation/graceNoteFigures_glock.ly:32:23:24">
<polygon transform="translate(37.5430, 22.4793)" stroke-linejoin="round" stroke-linecap="round" stroke-width="0.0800" fill="currentColor" stroke="currentColor" points="11.7049 -0.1520 11.7049 0.1520 0.0400 0.1520 0.0400 -0.1520"/>
<polygon transform="translate(37.5430, 23.1657)" stroke-linejoin="round" stroke-linecap="round" stroke-width="0.0800" fill="currentColor" stroke="currentColor" points="11.7049 -0.1520 11.7049 0.1520 0.0400 0.1520 0.0400 -0.1520"/>
<polygon transform="translate(37.5430, 23.8521)" stroke-linejoin="round" stroke-linecap="round" stroke-width="0.0800" fill="currentColor" stroke="currentColor" points="11.7049 -0.1520 11.7049 0.1520 0.0400 0.1520 0.0400 -0.1520"/>
</a>
<rect transform="translate(39.9951, 19.2373)" x="-0.0650" y="-5.8580" width="0.1300" height="6.7423" ry="0.0400" fill="currentColor"/>
<rect transform="translate(39.9951, 9.1793)" x="-0.0650" y="-5.1420" width="0.1300" height="3.5263" ry="0.0400" fill="currentColor"/>
<a style="color:inherit;" xlink:href="textedit:///Users/jyang/Documents/GitHub/wygioatynlib/notation/graceNoteFigures_glock.ly:41:65:66">
<path transform="translate(39.1317, 40.1213) scale(0.0028, -0.0028)" d="M211 141c61 0 117 -33 117 -100c0 -71 -52 -121 -99 -149c-34 -20 -73 -33 -112 -33c-61 0 -117 33 -117 100c0 71 52 121 99 149c34 20 73 33 112 33z" fill="currentColor"/>
</a>
<a style="color:inherit;" xlink:href="textedit:///Users/jyang/Documents/GitHub/wygioatynlib/notation/graceNoteFigures_glock.ly:32:25:26">
<path transform="translate(39.1317, 25.6213) scale(0.0028, -0.0028)" d="M211 141c61 0 117 -33 117 -100c0 -71 -52 -121 -99 -149c-34 -20 -73 -33 -112 -33c-61 0 -117 33 -117 100c0 71 52 121 99 149c34 20 73 33 112 33z" fill="currentColor"/>
</a>
<a style="color:inherit;" xlink:href="textedit:///Users/jyang/Documents/GitHub/wygioatynlib/notation/graceNoteFigures_glock.ly:23:43:44">
<path transform="translate(39.1317, 20.2373) scale(0.0028, -0.0028)" d="M211 141c61 0 117 -33 117 -100c0 -71 -52 -121 -99 -149c-34 -20 -73 -33 -112 -33c-61 0 -117 33 -117 100c0 71 52 121 99 149c34 20 73 33 112 33z" fill="currentColor"/>
</a>
<a style="color:inherit;" xlink:href="textedit:///Users/jyang/Documents/GitHub/wygioatynlib/notation/graceNoteFigures_glock.ly:14:31:32">
<path transform="translate(39.1317, 7.6793) scale(0.0028, -0.0028)" d="M211 141c61 0 117 -33 117 -100c0 -71 -52 -121 -99 -149c-34 -20 -73 -33 -112 -33c-61 0 -117 33 -117 100c0 71 52 121 99 149c34 20 73 33 112 33z" fill="currentColor"/>
</a>
<rect transform="translate(34.5518, 9.1793)" x="-0.0650" y="-5.1420" width="0.1300" height="4.5263" ry="0.0400" fill="currentColor"/>
<a style="color:inherit;" xlink:href="textedit:///Users/jyang/Documents/GitHub/wygioatynlib/notation/graceNoteFigures_glock.ly:41:59:60">
<path transform="translate(33.6884, 40.1213) scale(0.0028, -0.0028)" d="M211 141c61 0 117 -33 117 -100c0 -71 -52 -121 -99 -149c-34 -20 -73 -33 -112 -33c-61 0 -117 33 -117 100c0 71 52 121 99 149c34 20 73 33 112 33z" fill="currentColor"/>
</a>
<a style="color:inherit;" xlink:href="textedit:///Users/jyang/Documents/GitHub/wygioatynlib/notation/graceNoteFigures_glock.ly:23:33:34">
<path transform="translate(33.6884, 18.7373) scale(0.0028, -0.0028)" d="M211 141c61 0 117 -33 117 -100c0 -71 -52 -121 -99 -149c-34 -20 -73 -33 -112 -33c-61 0 -117 33 -117 100c0 71 52 121 99 149c34 20 73 33 112 33z" fill="currentColor"/>
</a>
<path transform="translate(31.3364, 10.1793) scale(0.0040, -0.0040)" d="M518 1c0 -82 -56 -168 -141 -197c2 -27 3 -54 3 -81c0 -16 0 -33 -1 -49c-6 -99 -75 -186 -173 -186c-87 0 -159 72 -159 160c0 46 42 83 90 83c43 0 76 -38 76 -83c0 -42 -34 -76 -76 -76c-4 0 -6 0 -10 1c19 -26 47 -42 81 -42c75 0 124 72 129 149c1 15 1 30 1 45
c0 23 -1 46 -3 69c-22 -4 -44 -6 -67 -6c-151 0 -266 139 -266 302c0 144 101 254 191 367c-16 53 -31 105 -37 160c-5 42 -5 85 -5 128c0 93 42 181 115 239c3 2 6 3 9 3c4 0 8 -1 11 -4c57 -69 107 -202 107 -295c0 -115 -63 -207 -135 -297c17 -59 33 -119 47 -179h1
c2 0 4 1 6 1c126 0 206 -105 206 -212zM373 -155c50 20 81 75 81 125c0 68 -48 136 -127 147c19 -89 35 -178 46 -272zM63 19c0 -104 102 -188 208 -188c21 0 40 1 60 4c-11 98 -28 191 -48 283c-59 -7 -93 -48 -93 -92c0 -34 21 -70 64 -95c5 -5 6 -10 6 -15
c0 -11 -9 -22 -21 -22c-3 0 -6 1 -9 2c-65 35 -95 93 -95 150c0 71 46 141 128 161c-11 48 -24 95 -38 143c-82 -101 -162 -202 -162 -331zM319 860c-76 -44 -123 -124 -123 -211c0 -56 15 -104 29 -151c59 79 107 162 107 261c0 43 -2 61 -13 101z" fill="currentColor"/>
<a style="color:inherit;" xlink:href="textedit:///Users/jyang/Documents/GitHub/wygioatynlib/notation/graceNoteFigures_glock.ly:14:19:20">
<path transform="translate(33.6884, 8.6793) scale(0.0028, -0.0028)" d="M211 141c61 0 117 -33 117 -100c0 -71 -52 -121 -99 -149c-34 -20 -73 -33 -112 -33c-61 0 -117 33 -117 100c0 71 52 121 99 149c34 20 73 33 112 33z" fill="currentColor"/>
</a>
<rect transform="translate(31.4955, 37.6213)" x="-0.0650" y="-0.8580" width="0.1300" height="3.2423" ry="0.0400" fill="currentColor"/>
<rect transform="translate(31.4955, 19.2373)" x="-0.0650" y="-5.8580" width="0.1300" height="5.2423" ry="0.0400" fill="currentColor"/>
<a style="color:inherit;" xlink:href="textedit:///Users/jyang/Documents/GitHub/wygioatynlib/notation/graceNoteFigures_glock.ly:41:56:57">
<path transform="translate(30.6322, 40.1213) scale(0.0028, -0.0028)" d="M211 141c61 0 117 -33 117 -100c0 -71 -52 -121 -99 -149c-34 -20 -73 -33 -112 -33c-61 0 -117 33 -117 100c0 71 52 121 99 149c34 20 73 33 112 33z" fill="currentColor"/>
</a>
<a style="color:inherit;" xlink:href="textedit:///Users/jyang/Documents/GitHub/wygioatynlib/notation/graceNoteFigures_glock.ly:23:29:30">
<path transform="translate(30.6322, 18.7373) scale(0.0028, -0.0028)" d="M211 141c61 0 117 -33 117 -100c0 -71 -52 -121 -99 -149c-34 -20 -73 -33 -112 -33c-61 0 -117 33 -117 100c0 71 52 121 99 149c34 20 73 33 112 33z" fill="currentColor"/>
</a>
<rect transform="translate(30.0672, 37.6213)" x="-0.0650" y="-0.8580" width="0.1300" height="3.2423" ry="0.0400" fill="currentColor"/>
<a style="color:inherit;" xlink:href="textedit:///Users/jyang/Documents/GitHub/wygioatynlib/notation/graceNoteFigures_glock.ly:23:39:40">
<path transform="translate(36.7446, 18.2373) scale(0.0028, -0.0028)" d="M211 141c61 0 117 -33 117 -100c0 -71 -52 -121 -99 -149c-34 -20 -73 -33 -112 -33c-61 0 -117 33 -117 100c0 71 52 121 99 149c34 20 73 33 112 33z" fill="currentColor"/>
</a>
<a style="color:inherit;" xlink:href="textedit:///Users/jyang/Documents/GitHub/wygioatynlib/notation/graceNoteFigures_glock.ly:14:27:28">
<path transform="translate(36.7446, 7.1793) scale(0.0028, -0.0028)" d="M211 141c61 0 117 -33 117 -100c0 -71 -52 -121 -99 -149c-34 -20 -73 -33 -112 -33c-61 0 -117 33 -117 100c0 71 52 121 99 149c34 20 73 33 112 33z" fill="currentColor"/>
</a>
<rect transform="translate(34.5518, 37.6213)" x="-0.0650" y="-0.8580" width="0.1300" height="3.2423" ry="0.0400" fill="currentColor"/>
<path transform="translate(32.6454, 18.7373) scale(0.0025, -0.0025)" d="M198 -327c-13 0 -24 11 -24 24v129l-73 -29v-148c0 -13 -11 -24 -24 -24s-23 11 -23 24v129l-10 -4c-4 -2 -8 -2 -12 -2c-17 0 -32 14 -32 32v46c0 13 8 24 20 29l34 14v148l-10 -4c-4 -2 -8 -3 -12 -3c-17 0 -32 14 -32 32v46c0 13 8 25 20 30l34 13v148
c0 13 10 24 23 24s24 -11 24 -24v-129l73 29v148c0 13 11 24 24 24s23 -11 23 -24v-129l10 4c4 2 8 2 12 2c17 0 32 -14 32 -32v-46c0 -13 -8 -24 -20 -29l-34 -14v-148l10 4c4 2 8 3 12 3c17 0 32 -14 32 -32v-46c0 -13 -8 -25 -20 -30l-34 -13v-148c0 -13 -10 -24 -23 -24
zM101 59v-148l73 30v148z" fill="currentColor"/>
<rect transform="translate(34.5518, 19.2373)" x="-0.0650" y="-5.8580" width="0.1300" height="5.2423" ry="0.0400" fill="currentColor"/>
<rect transform="translate(43.8948, 19.2373)" x="-0.0650" y="-5.8580" width="0.1300" height="2.7423" ry="0.0400" fill="currentColor"/>
<rect transform="translate(43.8948, 9.1793)" x="-0.0650" y="-5.1420" width="0.1300" height="2.5263" ry="0.0400" fill="currentColor"/>
<a style="color:inherit;" xlink:href="textedit:///Users/jyang/Documents/GitHub/wygioatynlib/notation/graceNoteFigures_glock.ly:41:71:72">
<path transform="translate(43.0314, 40.1213) scale(0.0028, -0.0028)" d="M211 141c61 0 117 -33 117 -100c0 -71 -52 -121 -99 -149c-34 -20 -73 -33 -112 -33c-61 0 -117 33 -117 100c0 71 52 121 99 149c34 20 73 33 112 33z" fill="currentColor"/>
</a>
<a style="color:inherit;" xlink:href="textedit:///Users/jyang/Documents/GitHub/wygioatynlib/notation/graceNoteFigures_glock.ly:32:35:36">
<path transform="translate(43.0314, 29.1213) scale(0.0028, -0.0028)" d="M211 141c61 0 117 -33 117 -100c0 -71 -52 -121 -99 -149c-34 -20 -73 -33 -112 -33c-61 0 -117 33 -117 100c0 71 52 121 99 149c34 20 73 33 112 33z" fill="currentColor"/>
</a>
<a style="color:inherit;" xlink:href="textedit:///Users/jyang/Documents/GitHub/wygioatynlib/notation/graceNoteFigures_glock.ly:23:51:52">
<path transform="translate(43.0314, 16.2373) scale(0.0028, -0.0028)" d="M211 141c61 0 117 -33 117 -100c0 -71 -52 -121 -99 -149c-34 -20 -73 -33 -112 -33c-61 0 -117 33 -117 100c0 71 52 121 99 149c34 20 73 33 112 33z" fill="currentColor"/>
</a>
<a style="color:inherit;" xlink:href="textedit:///Users/jyang/Documents/GitHub/wygioatynlib/notation/graceNoteFigures_glock.ly:14:38:39">
<path transform="translate(43.0314, 6.6793) scale(0.0028, -0.0028)" d="M211 141c61 0 117 -33 117 -100c0 -71 -52 -121 -99 -149c-34 -20 -73 -33 -112 -33c-61 0 -117 33 -117 100c0 71 52 121 99 149c34 20 73 33 112 33z" fill="currentColor"/>
</a>
<rect transform="translate(41.4234, 37.6213)" x="-0.0650" y="-0.8580" width="0.1300" height="3.2423" ry="0.0400" fill="currentColor"/>
<rect transform="translate(41.4234, 28.6213)" x="-0.0650" y="-6.1420" width="0.1300" height="4.5263" ry="0.0400" fill="currentColor"/>
<rect transform="translate(41.4234, 19.2373)" x="-0.0650" y="-5.8580" width="0.1300" height="6.2423" ry="0.0400" fill="currentColor"/>
<rect transform="translate(45.3231, 19.2373)" x="-0.0650" y="-5.8580" width="0.1300" height="5.2423" ry="0.0400" fill="currentColor"/>
<rect transform="translate(45.3231, 9.1793)" x="-0.0650" y="-5.1420" width="0.1300" height="6.0263" ry="0.0400" fill="currentColor"/>
<a style="color:inherit;" xlink:href="textedit:///Users/jyang/Documents/GitHub/wygioatynlib/notation/graceNoteFigures_glock.ly:41:74:75">
<path transform="translate(44.4598, 40.1213) scale(0.0028, -0.0028)" d="M211 141c61 0 117 -33 117 -100c0 -71 -52 -121 -99 -149c-34 -20 -73 -33 -112 -33c-61 0 -117 33 -117 100c0 71 52 121 99 149c34 20 73 33 112 33z" fill="currentColor"/>
</a>
<a style="color:inherit;" xlink:href="textedit:///Users/jyang/Documents/GitHub/wygioatynlib/notation/graceNoteFigures_glock.ly:32:38:39">
<path transform="translate(44.4598, 27.6213) scale(0.0028, -0.0028)" d="M211 141c61 0 117 -33 117 -100c0 -71 -52 -121 -99 -149c-34 -20 -73 -33 -112 -33c-61 0 -117 33 -117 100c0 71 52 121 99 149c34 20 73 33 112 33z" fill="currentColor"/>
</a>
<a style="color:inherit;" xlink:href="textedit:///Users/jyang/Documents/GitHub/wygioatynlib/notation/graceNoteFigures_glock.ly:23:57:58">
<path transform="translate(44.4598, 18.7373) scale(0.0028, -0.0028)" d="M211 141c61 0 117 -33 117 -100c0 -71 -52 -121 -99 -149c-34 -20 -73 -33 -112 -33c-61 0 -117 33 -117 100c0 71 52 121 99 149c34 20 73 33 112 33z" fill="currentColor"/>
</a>
<a style="color:inherit;" xlink:href="textedit:///Users/jyang/Documents/GitHub/wygioatynlib/notation/graceNoteFigures_glock.ly:14:42:43">
<path transform="translate(44.4598, 10.1793) scale(0.0028, -0.0028)" d="M211 141c61 0 117 -33 117 -100c0 -71 -52 -121 -99 -149c-34 -20 -73 -33 -112 -33c-61 0 -117 33 -117 100c0 71 52 121 99 149c34 20 73 33 112 33z" fill="currentColor"/>
</a>
<rect transform="translate(43.8948, 37.6213)" x="-0.0650" y="-0.8580" width="0.1300" height="3.2423" ry="0.0400" fill="currentColor"/>
<rect transform="translate(43.8948, 28.6213)" x="-0.0650" y="-6.1420" width="0.1300" height="6.5263" ry="0.0400" fill="currentColor"/>
<path transform="translate(41.9884, 16.2373) scale(0.0025, -0.0025)" d="M198 -327c-13 0 -24 11 -24 24v129l-73 -29v-148c0 -13 -11 -24 -24 -24s-23 11 -23 24v129l-10 -4c-4 -2 -8 -2 -12 -2c-17 0 -32 14 -32 32v46c0 13 8 24 20 29l34 14v148l-10 -4c-4 -2 -8 -3 -12 -3c-17 0 -32 14 -32 32v46c0 13 8 25 20 30l34 13v148
c0 13 10 24 23 24s24 -11 24 -24v-129l73 29v148c0 13 11 24 24 24s23 -11 23 -24v-129l10 4c4 2 8 2 12 2c17 0 32 -14 32 -32v-46c0 -13 -8 -24 -20 -29l-34 -14v-148l10 4c4 2 8 3 12 3c17 0 32 -14 32 -32v-46c0 -13 -8 -25 -20 -30l-34 -13v-148c0 -13 -10 -24 -23 -24
zM101 59v-148l73 30v148z" fill="currentColor"/>
<rect transform="translate(11.1939, 37.6213)" x="-0.0650" y="-0.8580" width="0.1300" height="3.2423" ry="0.0400" fill="currentColor"/>
<path transform="translate(6.4906, 38.6213) scale(0.0040, -0.0040)" d="M376 262c4 0 9 1 13 1c155 0 256 -128 256 -261c0 -76 -33 -154 -107 -210c-22 -17 -47 -28 -73 -36c3 -35 5 -70 5 -105c0 -19 -1 -39 -2 -58c-7 -120 -90 -228 -208 -228c-108 0 -195 88 -195 197c0 58 53 103 112 103c54 0 95 -47 95 -103c0 -52 -43 -95 -95 -95
c-11 0 -21 2 -31 6c26 -39 68 -65 117 -65c96 0 157 92 163 191c1 18 2 37 2 55c0 31 -1 61 -4 92c-29 -5 -58 -8 -89 -8c-188 0 -333 172 -333 374c0 177 131 306 248 441c-19 62 -37 125 -45 190c-6 52 -7 104 -7 156c0 115 55 224 149 292c3 2 7 3 10 3c4 0 7 0 10 -3
c71 -84 133 -245 133 -358c0 -143 -86 -255 -180 -364c21 -68 39 -138 56 -207zM461 -203c68 24 113 95 113 164c0 90 -66 179 -173 190c24 -116 46 -231 60 -354zM74 28c0 -135 129 -247 264 -247c28 0 55 2 82 6c-14 127 -37 245 -63 364c-79 -8 -124 -61 -124 -119
c0 -44 25 -91 81 -123c5 -5 7 -10 7 -15c0 -11 -10 -22 -22 -22c-3 0 -6 1 -9 2c-80 43 -117 115 -117 185c0 88 58 174 160 197c-14 58 -29 117 -46 175c-107 -121 -213 -243 -213 -403zM408 1045c-99 -48 -162 -149 -162 -259c0 -74 18 -133 36 -194
c80 97 146 198 146 324c0 55 -4 79 -20 129z" fill="currentColor"/>
<a style="color:inherit;" xlink:href="textedit:///Users/jyang/Documents/GitHub/wygioatynlib/notation/graceNoteFigures_glock.ly:41:14:15">
<path transform="translate(10.3306, 40.1213) scale(0.0028, -0.0028)" d="M211 141c61 0 117 -33 117 -100c0 -71 -52 -121 -99 -149c-34 -20 -73 -33 -112 -33c-61 0 -117 33 -117 100c0 71 52 121 99 149c34 20 73 33 112 33z" fill="currentColor"/>
</a>
<path transform="translate(6.4906, 29.6213) scale(0.0040, -0.0040)" d="M376 262c4 0 9 1 13 1c155 0 256 -128 256 -261c0 -76 -33 -154 -107 -210c-22 -17 -47 -28 -73 -36c3 -35 5 -70 5 -105c0 -19 -1 -39 -2 -58c-7 -120 -90 -228 -208 -228c-108 0 -195 88 -195 197c0 58 53 103 112 103c54 0 95 -47 95 -103c0 -52 -43 -95 -95 -95
c-11 0 -21 2 -31 6c26 -39 68 -65 117 -65c96 0 157 92 163 191c1 18 2 37 2 55c0 31 -1 61 -4 92c-29 -5 -58 -8 -89 -8c-188 0 -333 172 -333 374c0 177 131 306 248 441c-19 62 -37 125 -45 190c-6 52 -7 104 -7 156c0 115 55 224 149 292c3 2 7 3 10 3c4 0 7 0 10 -3
c71 -84 133 -245 133 -358c0 -143 -86 -255 -180 -364c21 -68 39 -138 56 -207zM461 -203c68 24 113 95 113 164c0 90 -66 179 -173 190c24 -116 46 -231 60 -354zM74 28c0 -135 129 -247 264 -247c28 0 55 2 82 6c-14 127 -37 245 -63 364c-79 -8 -124 -61 -124 -119
c0 -44 25 -91 81 -123c5 -5 7 -10 7 -15c0 -11 -10 -22 -22 -22c-3 0 -6 1 -9 2c-80 43 -117 115 -117 185c0 88 58 174 160 197c-14 58 -29 117 -46 175c-107 -121 -213 -243 -213 -403zM408 1045c-99 -48 -162 -149 -162 -259c0 -74 18 -133 36 -194
c80 97 146 198 146 324c0 55 -4 79 -20 129z" fill="currentColor"/>
<path transform="translate(6.4906, 20.2373) scale(0.0040, -0.0040)" d="M376 262c4 0 9 1 13 1c155 0 256 -128 256 -261c0 -76 -33 -154 -107 -210c-22 -17 -47 -28 -73 -36c3 -35 5 -70 5 -105c0 -19 -1 -39 -2 -58c-7 -120 -90 -228 -208 -228c-108 0 -195 88 -195 197c0 58 53 103 112 103c54 0 95 -47 95 -103c0 -52 -43 -95 -95 -95
c-11 0 -21 2 -31 6c26 -39 68 -65 117 -65c96 0 157 92 163 191c1 18 2 37 2 55c0 31 -1 61 -4 92c-29 -5 -58 -8 -89 -8c-188 0 -333 172 -333 374c0 177 131 306 248 441c-19 62 -37 125 -45 190c-6 52 -7 104 -7 156c0 115 55 224 149 292c3 2 7 3 10 3c4 0 7 0 10 -3
c71 -84 133 -245 133 -358c0 -143 -86 -255 -180 -364c21 -68 39 -138 56 -207zM461 -203c68 24 113 95 113 164c0 90 -66 179 -173 190c24 -116 46 -231 60 -354zM74 28c0 -135 129 -247 264 -247c28 0 55 2 82 6c-14 127 -37 245 -63 364c-79 -8 -124 -61 -124 -119
c0 -44 25 -91 81 -123c5 -5 7 -10 7 -15c0 -11 -10 -22 -22 -22c-3 0 -6 1 -9 2c-80 43 -117 115 -117 185c0 88 58 174 160 197c-14 58 -29 117 -46 175c-107 -121 -213 -243 -213 -403zM408 1045c-99 -48 -162 -149 -162 -259c0 -74 18 -133 36 -194
c80 97 146 198 146 324c0 55 -4 79 -20 129z" fill="currentColor"/>
<path transform="translate(6.4906, 10.1793) scale(0.0040, -0.0040)" d="M376 262c4 0 9 1 13 1c155 0 256 -128 256 -261c0 -76 -33 -154 -107 -210c-22 -17 -47 -28 -73 -36c3 -35 5 -70 5 -105c0 -19 -1 -39 -2 -58c-7 -120 -90 -228 -208 -228c-108 0 -195 88 -195 197c0 58 53 103 112 103c54 0 95 -47 95 -103c0 -52 -43 -95 -95 -95
c-11 0 -21 2 -31 6c26 -39 68 -65 117 -65c96 0 157 92 163 191c1 18 2 37 2 55c0 31 -1 61 -4 92c-29 -5 -58 -8 -89 -8c-188 0 -333 172 -333 374c0 177 131 306 248 441c-19 62 -37 125 -45 190c-6 52 -7 104 -7 156c0 115 55 224 149 292c3 2 7 3 10 3c4 0 7 0 10 -3
c71 -84 133 -245 133 -358c0 -143 -86 -255 -180 -364c21 -68 39 -138 56 -207zM461 -203c68 24 113 95 113 164c0 90 -66 179 -173 190c24 -116 46 -231 60 -354zM74 28c0 -135 129 -247 264 -247c28 0 55 2 82 6c-14 127 -37 245 -63 364c-79 -8 -124 -61 -124 -119
c0 -44 25 -91 81 -123c5 -5 7 -10 7 -15c0 -11 -10 -22 -22 -22c-3 0 -6 1 -9 2c-80 43 -117 115 -117 185c0 88 58 174 160 197c-14 58 -29 117 -46 175c-107 -121 -213 -243 -213 -403zM408 1045c-99 -48 -162 -149 -162 -259c0 -74 18 -133 36 -194
c80 97 146 198 146 324c0 55 -4 79 -20 129z" fill="currentColor"/>
<rect transform="translate(5.6306, 23.4003)" x="0.0000" y="-16.2710" width="0.1600" height="32.5420" ry="0.0500" fill="currentColor"/>
<rect transform="translate(41.4234, 9.1793)" x="-0.0650" y="-5.1420" width="0.1300" height="6.5263" ry="0.0400" fill="currentColor"/>
<a style="color:inherit;" xlink:href="textedit:///Users/jyang/Documents/GitHub/wygioatynlib/notation/graceNoteFigures_glock.ly:41:68:69">
<path transform="translate(40.5601, 40.1213) scale(0.0028, -0.0028)" d="M211 141c61 0 117 -33 117 -100c0 -71 -52 -121 -99 -149c-34 -20 -73 -33 -112 -33c-61 0 -117 33 -117 100c0 71 52 121 99 149c34 20 73 33 112 33z" fill="currentColor"/>
</a>
<a style="color:inherit;" xlink:href="textedit:///Users/jyang/Documents/GitHub/wygioatynlib/notation/graceNoteFigures_glock.ly:32:31:32">
<path transform="translate(40.5601, 27.1213) scale(0.0028, -0.0028)" d="M211 141c61 0 117 -33 117 -100c0 -71 -52 -121 -99 -149c-34 -20 -73 -33 -112 -33c-61 0 -117 33 -117 100c0 71 52 121 99 149c34 20 73 33 112 33z" fill="currentColor"/>
</a>
<a style="color:inherit;" xlink:href="textedit:///Users/jyang/Documents/GitHub/wygioatynlib/notation/graceNoteFigures_glock.ly:23:48:49">
<path transform="translate(40.5601, 19.7373) scale(0.0028, -0.0028)" d="M211 141c61 0 117 -33 117 -100c0 -71 -52 -121 -99 -149c-34 -20 -73 -33 -112 -33c-61 0 -117 33 -117 100c0 71 52 121 99 149c34 20 73 33 112 33z" fill="currentColor"/>
</a>
<a style="color:inherit;" xlink:href="textedit:///Users/jyang/Documents/GitHub/wygioatynlib/notation/graceNoteFigures_glock.ly:14:35:36">
<path transform="translate(40.5601, 10.6793) scale(0.0028, -0.0028)" d="M211 141c61 0 117 -33 117 -100c0 -71 -52 -121 -99 -149c-34 -20 -73 -33 -112 -33c-61 0 -117 33 -117 100c0 71 52 121 99 149c34 20 73 33 112 33z" fill="currentColor"/>
</a>
<rect transform="translate(39.9951, 37.6213)" x="-0.0650" y="-0.8580" width="0.1300" height="3.2423" ry="0.0400" fill="currentColor"/>
<path transform="translate(38.2777, 25.6213) scale(0.0025, -0.0025)" d="M34 33l-1 -58v-10c0 -21 2 -43 5 -64c41 38 85 80 85 136c0 31 -13 63 -40 63c-31 0 -48 -33 -49 -67zM-18 -142l-14 583c10 6 21 9 32 9s22 -3 32 -9l-8 -333c25 27 60 42 97 42c49 0 79 -52 79 -106c0 -76 -78 -117 -133 -169c-19 -18 -27 -52 -55 -52
c-17 0 -30 17 -30 35z" fill="currentColor"/>
<rect transform="translate(39.9951, 28.6213)" x="-0.0650" y="-6.1420" width="0.1300" height="3.0263" ry="0.0400" fill="currentColor"/>
<path transform="translate(38.0887, 20.2373) scale(0.0025, -0.0025)" d="M198 -327c-13 0 -24 11 -24 24v129l-73 -29v-148c0 -13 -11 -24 -24 -24s-23 11 -23 24v129l-10 -4c-4 -2 -8 -2 -12 -2c-17 0 -32 14 -32 32v46c0 13 8 24 20 29l34 14v148l-10 -4c-4 -2 -8 -3 -12 -3c-17 0 -32 14 -32 32v46c0 13 8 25 20 30l34 13v148
c0 13 10 24 23 24s24 -11 24 -24v-129l73 29v148c0 13 11 24 24 24s23 -11 23 -24v-129l10 4c4 2 8 2 12 2c17 0 32 -14 32 -32v-46c0 -13 -8 -24 -20 -29l-34 -14v-148l10 4c4 2 8 3 12 3c17 0 32 -14 32 -32v-46c0 -13 -8 -25 -20 -30l-34 -13v-148c0 -13 -10 -24 -23 -24
zM101 59v-148l73 30v148z" fill="currentColor"/>
<rect transform="translate(49.2228, 37.6213)" x="-0.0650" y="-0.8580" width="0.1300" height="3.2423" ry="0.0400" fill="currentColor"/>
<path transform="translate(47.5055, 29.6213) scale(0.0025, -0.0025)" d="M34 33l-1 -58v-10c0 -21 2 -43 5 -64c41 38 85 80 85 136c0 31 -13 63 -40 63c-31 0 -48 -33 -49 -67zM-18 -142l-14 583c10 6 21 9 32 9s22 -3 32 -9l-8 -333c25 27 60 42 97 42c49 0 79 -52 79 -106c0 -76 -78 -117 -133 -169c-19 -18 -27 -52 -55 -52
c-17 0 -30 17 -30 35z" fill="currentColor"/>
<rect transform="translate(49.2228, 28.6213)" x="-0.0650" y="-6.1420" width="0.1300" height="7.0263" ry="0.0400" fill="currentColor"/>
<rect transform="translate(49.2228, 19.2373)" x="-0.0650" y="-5.8580" width="0.1300" height="3.2423" ry="0.0400" fill="currentColor"/>
<path transform="translate(47.3165, 9.6793) scale(0.0025, -0.0025)" d="M198 -327c-13 0 -24 11 -24 24v129l-73 -29v-148c0 -13 -11 -24 -24 -24s-23 11 -23 24v129l-10 -4c-4 -2 -8 -2 -12 -2c-17 0 -32 14 -32 32v46c0 13 8 24 20 29l34 14v148l-10 -4c-4 -2 -8 -3 -12 -3c-17 0 -32 14 -32 32v46c0 13 8 25 20 30l34 13v148
c0 13 10 24 23 24s24 -11 24 -24v-129l73 29v148c0 13 11 24 24 24s23 -11 23 -24v-129l10 4c4 2 8 2 12 2c17 0 32 -14 32 -32v-46c0 -13 -8 -24 -20 -29l-34 -14v-148l10 4c4 2 8 3 12 3c17 0 32 -14 32 -32v-46c0 -13 -8 -25 -20 -30l-34 -13v-148c0 -13 -10 -24 -23 -24
zM101 59v-148l73 30v148z" fill="currentColor"/>
<rect transform="translate(49.2228, 9.1793)" x="-0.0650" y="-5.1420" width="0.1300" height="5.5263" ry="0.0400" fill="currentColor"/>
<a style="color:inherit;" xlink:href="textedit:///Users/jyang/Documents/GitHub/wygioatynlib/notation/graceNoteFigures_glock.ly:41:80:81">
<path transform="translate(48.3594, 40.1213) scale(0.0028, -0.0028)" d="M211 141c61 0 117 -33 117 -100c0 -71 -52 -121 -99 -149c-34 -20 -73 -33 -112 -33c-61 0 -117 33 -117 100c0 71 52 121 99 149c34 20 73 33 112 33z" fill="currentColor"/>
</a>
<a style="color:inherit;" xlink:href="textedit:///Users/jyang/Documents/GitHub/wygioatynlib/notation/graceNoteFigures_glock.ly:32:46:47">
<path transform="translate(48.3594, 29.6213) scale(0.0028, -0.0028)" d="M211 141c61 0 117 -33 117 -100c0 -71 -52 -121 -99 -149c-34 -20 -73 -33 -112 -33c-61 0 -117 33 -117 100c0 71 52 121 99 149c34 20 73 33 112 33z" fill="currentColor"/>
</a>
<a style="color:inherit;" xlink:href="textedit:///Users/jyang/Documents/GitHub/wygioatynlib/notation/graceNoteFigures_glock.ly:23:66:67">
<path transform="translate(48.3594, 16.7373) scale(0.0028, -0.0028)" d="M211 141c61 0 117 -33 117 -100c0 -71 -52 -121 -99 -149c-34 -20 -73 -33 -112 -33c-61 0 -117 33 -117 100c0 71 52 121 99 149c34 20 73 33 112 33z" fill="currentColor"/>
</a>
<a style="color:inherit;" xlink:href="textedit:///Users/jyang/Documents/GitHub/wygioatynlib/notation/graceNoteFigures_glock.ly:14:48:49">
<path transform="translate(48.3594, 9.6793) scale(0.0028, -0.0028)" d="M211 141c61 0 117 -33 117 -100c0 -71 -52 -121 -99 -149c-34 -20 -73 -33 -112 -33c-61 0 -117 33 -117 100c0 71 52 121 99 149c34 20 73 33 112 33z" fill="currentColor"/>
</a>
<rect transform="translate(46.7515, 19.2373)" x="-0.0650" y="-5.8580" width="0.1300" height="6.7423" ry="0.0400" fill="currentColor"/>
<rect transform="translate(46.7515, 9.1793)" x="-0.0650" y="-5.1420" width="0.1300" height="6.0263" ry="0.0400" fill="currentColor"/>
<a style="color:inherit;" xlink:href="textedit:///Users/jyang/Documents/GitHub/wygioatynlib/notation/graceNoteFigures_glock.ly:41:77:78">
<path transform="translate(45.8881, 40.1213) scale(0.0028, -0.0028)" d="M211 141c61 0 117 -33 117 -100c0 -71 -52 -121 -99 -149c-34 -20 -73 -33 -112 -33c-61 0 -117 33 -117 100c0 71 52 121 99 149c34 20 73 33 112 33z" fill="currentColor"/>
</a>
<a style="color:inherit;" xlink:href="textedit:///Users/jyang/Documents/GitHub/wygioatynlib/notation/graceNoteFigures_glock.ly:32:42:43">
<path transform="translate(45.8881, 26.6213) scale(0.0028, -0.0028)" d="M211 141c61 0 117 -33 117 -100c0 -71 -52 -121 -99 -149c-34 -20 -73 -33 -112 -33c-61 0 -117 33 -117 100c0 71 52 121 99 149c34 20 73 33 112 33z" fill="currentColor"/>
</a>
<a style="color:inherit;" xlink:href="textedit:///Users/jyang/Documents/GitHub/wygioatynlib/notation/graceNoteFigures_glock.ly:23:61:62">
<path transform="translate(45.8881, 20.2373) scale(0.0028, -0.0028)" d="M211 141c61 0 117 -33 117 -100c0 -71 -52 -121 -99 -149c-34 -20 -73 -33 -112 -33c-61 0 -117 33 -117 100c0 71 52 121 99 149c34 20 73 33 112 33z" fill="currentColor"/>
</a>
<a style="color:inherit;" xlink:href="textedit:///Users/jyang/Documents/GitHub/wygioatynlib/notation/graceNoteFigures_glock.ly:14:45:46">
<path transform="translate(45.8881, 10.1793) scale(0.0028, -0.0028)" d="M211 141c61 0 117 -33 117 -100c0 -71 -52 -121 -99 -149c-34 -20 -73 -33 -112 -33c-61 0 -117 33 -117 100c0 71 52 121 99 149c34 20 73 33 112 33z" fill="currentColor"/>
</a>
<rect transform="translate(45.3231, 37.6213)" x="-0.0650" y="-0.8580" width="0.1300" height="3.2423" ry="0.0400" fill="currentColor"/>
<rect transform="translate(45.3231, 28.6213)" x="-0.0650" y="-6.1420" width="0.1300" height="5.0263" ry="0.0400" fill="currentColor"/>
<path transform="translate(43.6637, 18.7373) scale(0.0025, -0.0025)" d="M-10 375c9 5 20 8 30 8s21 -3 30 -8l-4 -204l96 26c2 0 3 1 5 1c11 0 20 -9 20 -20l10 -553c-9 -5 -20 -8 -30 -8s-21 3 -30 8l4 204l-96 -26c-2 0 -3 -1 -5 -1c-11 0 -20 9 -20 20zM126 108l-81 -22l-4 -194l81 22z" fill="currentColor"/>
<rect transform="translate(46.7515, 28.6213)" x="-0.0650" y="-6.1420" width="0.1300" height="4.0263" ry="0.0400" fill="currentColor"/>
<rect transform="translate(46.7515, 37.6213)" x="-0.0650" y="-0.8580" width="0.1300" height="3.2423" ry="0.0400" fill="currentColor"/>
<a transform="translate(113.9760, 165.1512)" xlink:href="http://lilypond.org/">
<rect x="0.0000" y="-0.4439" width="56.5755" height="2.0827" fill="none" stroke="none" stroke-width="0.0"/>
</a>
<text transform="translate(113.9760, 165.1512)" font-family="Century Schoolbook L" font-size="2.2001" text-anchor="start" fill="currentColor">
<tspan>
Music engraving by LilyPond 2.18.2—www.lilypond.org</tspan>
</text>
</svg>
