<svg xmlns="http://www.w3.org/2000/svg" xmlns:xlink="http://www.w3.org/1999/xlink" version="1.2" width="210.00mm" height="297.00mm" viewBox="0 0 119.5016 169.0094">
<!-- Page: 1/16 -->
<text transform="translate(5.6906, 2.8453)" font-family="Century Schoolbook L" font-size="2.2001" text-anchor="start" fill="currentColor">
<tspan>
 </tspan>
</text>
<rect transform="translate(113.6210, 135.0104)" x="0.0000" y="-2.0000" width="0.1900" height="4.0000" ry="0.0000" fill="currentColor"/>
<rect transform="translate(113.6210, 117.1350)" x="0.0000" y="-2.0000" width="0.1900" height="4.0000" ry="0.0000" fill="currentColor"/>
<rect transform="translate(113.6210, 99.2596)" x="0.0000" y="-2.0000" width="0.1900" height="4.0000" ry="0.0000" fill="currentColor"/>
<rect transform="translate(113.6210, 81.3842)" x="0.0000" y="-2.0000" width="0.1900" height="4.0000" ry="0.0000" fill="currentColor"/>
<rect transform="translate(113.6210, 63.5088)" x="0.0000" y="-2.0000" width="0.1900" height="4.0000" ry="0.0000" fill="currentColor"/>
<rect transform="translate(113.6210, 45.6334)" x="0.0000" y="-2.0000" width="0.1900" height="4.0000" ry="0.0000" fill="currentColor"/>
<line transform="translate(19.3479, 137.0104)" stroke-linejoin="round" stroke-linecap="round" stroke-width="0.1000" stroke="currentColor" x1="0.0500" y1="-0.0000" x2="94.4131" y2="-0.0000"/>
<line transform="translate(19.3479, 136.0104)" stroke-linejoin="round" stroke-linecap="round" stroke-width="0.1000" stroke="currentColor" x1="0.0500" y1="-0.0000" x2="94.4131" y2="-0.0000"/>
<line transform="translate(19.3479, 135.0104)" stroke-linejoin="round" stroke-linecap="round" stroke-width="0.1000" stroke="currentColor" x1="0.0500" y1="-0.0000" x2="94.4131" y2="-0.0000"/>
<line transform="translate(19.3479, 134.0104)" stroke-linejoin="round" stroke-linecap="round" stroke-width="0.1000" stroke="currentColor" x1="0.0500" y1="-0.0000" x2="94.4131" y2="-0.0000"/>
<line transform="translate(19.3479, 133.0104)" stroke-linejoin="round" stroke-linecap="round" stroke-width="0.1000" stroke="currentColor" x1="0.0500" y1="-0.0000" x2="94.4131" y2="-0.0000"/>
<rect transform="translate(113.6210, 27.7580)" x="0.0000" y="-2.0000" width="0.1900" height="4.0000" ry="0.0000" fill="currentColor"/>
<line transform="translate(19.3479, 119.1350)" stroke-linejoin="round" stroke-linecap="round" stroke-width="0.1000" stroke="currentColor" x1="0.0500" y1="-0.0000" x2="94.4131" y2="-0.0000"/>
<line transform="translate(19.3479, 118.1350)" stroke-linejoin="round" stroke-linecap="round" stroke-width="0.1000" stroke="currentColor" x1="0.0500" y1="-0.0000" x2="94.4131" y2="-0.0000"/>
<line transform="translate(19.3479, 117.1350)" stroke-linejoin="round" stroke-linecap="round" stroke-width="0.1000" stroke="currentColor" x1="0.0500" y1="-0.0000" x2="94.4131" y2="-0.0000"/>
<line transform="translate(19.3479, 116.1350)" stroke-linejoin="round" stroke-linecap="round" stroke-width="0.1000" stroke="currentColor" x1="0.0500" y1="-0.0000" x2="94.4131" y2="-0.0000"/>
<line transform="translate(19.3479, 115.1350)" stroke-linejoin="round" stroke-linecap="round" stroke-width="0.1000" stroke="currentColor" x1="0.0500" y1="-0.0000" x2="94.4131" y2="-0.0000"/>
<line transform="translate(19.3479, 101.2596)" stroke-linejoin="round" stroke-linecap="round" stroke-width="0.1000" stroke="currentColor" x1="0.0500" y1="-0.0000" x2="94.4131" y2="-0.0000"/>
<line transform="translate(19.3479, 100.2596)" stroke-linejoin="round" stroke-linecap="round" stroke-width="0.1000" stroke="currentColor" x1="0.0500" y1="-0.0000" x2="94.4131" y2="-0.0000"/>
<line transform="translate(19.3479, 99.2596)" stroke-linejoin="round" stroke-linecap="round" stroke-width="0.1000" stroke="currentColor" x1="0.0500" y1="-0.0000" x2="94.4131" y2="-0.0000"/>
<line transform="translate(19.3479, 98.2596)" stroke-linejoin="round" stroke-linecap="round" stroke-width="0.1000" stroke="currentColor" x1="0.0500" y1="-0.0000" x2="94.4131" y2="-0.0000"/>
<line transform="translate(19.3479, 97.2596)" stroke-linejoin="round" stroke-linecap="round" stroke-width="0.1000" stroke="currentColor" x1="0.0500" y1="-0.0000" x2="94.4131" y2="-0.0000"/>
<rect transform="translate(113.6210, 9.8826)" x="0.0000" y="-2.0000" width="0.1900" height="4.0000" ry="0.0000" fill="currentColor"/>
<line transform="translate(19.3479, 83.3842)" stroke-linejoin="round" stroke-linecap="round" stroke-width="0.1000" stroke="currentColor" x1="0.0500" y1="-0.0000" x2="94.4131" y2="-0.0000"/>
<line transform="translate(19.3479, 82.3842)" stroke-linejoin="round" stroke-linecap="round" stroke-width="0.1000" stroke="currentColor" x1="0.0500" y1="-0.0000" x2="94.4131" y2="-0.0000"/>
<line transform="translate(19.3479, 81.3842)" stroke-linejoin="round" stroke-linecap="round" stroke-width="0.1000" stroke="currentColor" x1="0.0500" y1="-0.0000" x2="94.4131" y2="-0.0000"/>
<line transform="translate(19.3479, 80.3842)" stroke-linejoin="round" stroke-linecap="round" stroke-width="0.1000" stroke="currentColor" x1="0.0500" y1="-0.0000" x2="94.4131" y2="-0.0000"/>
<line transform="translate(19.3479, 79.3842)" stroke-linejoin="round" stroke-linecap="round" stroke-width="0.1000" stroke="currentColor" x1="0.0500" y1="-0.0000" x2="94.4131" y2="-0.0000"/>
<line transform="translate(19.3479, 29.7580)" stroke-linejoin="round" stroke-linecap="round" stroke-width="0.1000" stroke="currentColor" x1="0.0500" y1="-0.0000" x2="94.4131" y2="-0.0000"/>
<line transform="translate(19.3479, 28.7580)" stroke-linejoin="round" stroke-linecap="round" stroke-width="0.1000" stroke="currentColor" x1="0.0500" y1="-0.0000" x2="94.4131" y2="-0.0000"/>
<line transform="translate(19.3479, 27.7580)" stroke-linejoin="round" stroke-linecap="round" stroke-width="0.1000" stroke="currentColor" x1="0.0500" y1="-0.0000" x2="94.4131" y2="-0.0000"/>
<line transform="translate(19.3479, 26.7580)" stroke-linejoin="round" stroke-linecap="round" stroke-width="0.1000" stroke="currentColor" x1="0.0500" y1="-0.0000" x2="94.4131" y2="-0.0000"/>
<line transform="translate(19.3479, 25.7580)" stroke-linejoin="round" stroke-linecap="round" stroke-width="0.1000" stroke="currentColor" x1="0.0500" y1="-0.0000" x2="94.4131" y2="-0.0000"/>
<rect transform="translate(5.6906, 48.6334)" x="22.6783" y="-0.1000" width="1.9743" height="0.2000" ry="0.1000" fill="currentColor"/>
<rect transform="translate(5.6906, 49.6334)" x="22.6783" y="-0.1000" width="1.9743" height="0.2000" ry="0.1000" fill="currentColor"/>
<line transform="translate(19.3479, 47.6334)" stroke-linejoin="round" stroke-linecap="round" stroke-width="0.1000" stroke="currentColor" x1="0.0500" y1="-0.0000" x2="94.4131" y2="-0.0000"/>
<line transform="translate(19.3479, 46.6334)" stroke-linejoin="round" stroke-linecap="round" stroke-width="0.1000" stroke="currentColor" x1="0.0500" y1="-0.0000" x2="94.4131" y2="-0.0000"/>
<line transform="translate(19.3479, 45.6334)" stroke-linejoin="round" stroke-linecap="round" stroke-width="0.1000" stroke="currentColor" x1="0.0500" y1="-0.0000" x2="94.4131" y2="-0.0000"/>
<line transform="translate(19.3479, 44.6334)" stroke-linejoin="round" stroke-linecap="round" stroke-width="0.1000" stroke="currentColor" x1="0.0500" y1="-0.0000" x2="94.4131" y2="-0.0000"/>
<line transform="translate(19.3479, 43.6334)" stroke-linejoin="round" stroke-linecap="round" stroke-width="0.1000" stroke="currentColor" x1="0.0500" y1="-0.0000" x2="94.4131" y2="-0.0000"/>
<rect transform="translate(5.6906, 60.5088)" x="22.6783" y="-0.1000" width="1.9743" height="0.2000" ry="0.1000" fill="currentColor"/>
<rect transform="translate(5.6906, 59.5088)" x="22.6783" y="-0.1000" width="1.9743" height="0.2000" ry="0.1000" fill="currentColor"/>
<rect transform="translate(5.6906, 58.5088)" x="22.8323" y="-0.1000" width="1.8202" height="0.2000" ry="0.1000" fill="currentColor"/>
<rect transform="translate(5.6906, 60.5088)" x="41.2845" y="-0.1000" width="1.9743" height="0.2000" ry="0.1000" fill="currentColor"/>
<rect transform="translate(5.6906, 59.5088)" x="41.2845" y="-0.1000" width="1.9743" height="0.2000" ry="0.1000" fill="currentColor"/>
<rect transform="translate(5.6906, 58.5088)" x="41.2845" y="-0.1000" width="1.9743" height="0.2000" ry="0.1000" fill="currentColor"/>
<rect transform="translate(5.6906, 60.5088)" x="59.8908" y="-0.1000" width="1.9743" height="0.2000" ry="0.1000" fill="currentColor"/>
<rect transform="translate(5.6906, 59.5088)" x="59.8908" y="-0.1000" width="1.9743" height="0.2000" ry="0.1000" fill="currentColor"/>
<rect transform="translate(5.6906, 58.5088)" x="59.8908" y="-0.1000" width="1.9743" height="0.2000" ry="0.1000" fill="currentColor"/>
<rect transform="translate(5.6906, 60.5088)" x="74.4430" y="-0.1000" width="1.9743" height="0.2000" ry="0.1000" fill="currentColor"/>
<rect transform="translate(5.6906, 59.5088)" x="74.4430" y="-0.1000" width="1.9743" height="0.2000" ry="0.1000" fill="currentColor"/>
<rect transform="translate(5.6906, 58.5088)" x="74.4430" y="-0.1000" width="1.9743" height="0.2000" ry="0.1000" fill="currentColor"/>
<rect transform="translate(5.6906, 60.5088)" x="88.9952" y="-0.1000" width="1.9743" height="0.2000" ry="0.1000" fill="currentColor"/>
<rect transform="translate(5.6906, 59.5088)" x="88.9952" y="-0.1000" width="1.9743" height="0.2000" ry="0.1000" fill="currentColor"/>
<rect transform="translate(5.6906, 58.5088)" x="88.9952" y="-0.1000" width="1.9743" height="0.2000" ry="0.1000" fill="currentColor"/>
<line transform="translate(19.3479, 65.5088)" stroke-linejoin="round" stroke-linecap="round" stroke-width="0.1000" stroke="currentColor" x1="0.0500" y1="-0.0000" x2="94.4131" y2="-0.0000"/>
<line transform="translate(19.3479, 64.5088)" stroke-linejoin="round" stroke-linecap="round" stroke-width="0.1000" stroke="currentColor" x1="0.0500" y1="-0.0000" x2="94.4131" y2="-0.0000"/>
<line transform="translate(19.3479, 63.5088)" stroke-linejoin="round" stroke-linecap="round" stroke-width="0.1000" stroke="currentColor" x1="0.0500" y1="-0.0000" x2="94.4131" y2="-0.0000"/>
<line transform="translate(19.3479, 62.5088)" stroke-linejoin="round" stroke-linecap="round" stroke-width="0.1000" stroke="currentColor" x1="0.0500" y1="-0.0000" x2="94.4131" y2="-0.0000"/>
<line transform="translate(19.3479, 61.5088)" stroke-linejoin="round" stroke-linecap="round" stroke-width="0.1000" stroke="currentColor" x1="0.0500" y1="-0.0000" x2="94.4131" y2="-0.0000"/>
<line transform="translate(19.3479, 11.8826)" stroke-linejoin="round" stroke-linecap="round" stroke-width="0.1000" stroke="currentColor" x1="0.0500" y1="-0.0000" x2="94.4131" y2="-0.0000"/>
<line transform="translate(19.3479, 10.8826)" stroke-linejoin="round" stroke-linecap="round" stroke-width="0.1000" stroke="currentColor" x1="0.0500" y1="-0.0000" x2="94.4131" y2="-0.0000"/>
<line transform="translate(19.3479, 9.8826)" stroke-linejoin="round" stroke-linecap="round" stroke-width="0.1000" stroke="currentColor" x1="0.0500" y1="-0.0000" x2="94.4131" y2="-0.0000"/>
<line transform="translate(19.3479, 8.8826)" stroke-linejoin="round" stroke-linecap="round" stroke-width="0.1000" stroke="currentColor" x1="0.0500" y1="-0.0000" x2="94.4131" y2="-0.0000"/>
<line transform="translate(19.3479, 7.8826)" stroke-linejoin="round" stroke-linecap="round" stroke-width="0.1000" stroke="currentColor" x1="0.0500" y1="-0.0000" x2="94.4131" y2="-0.0000"/>
<a style="color:inherit;" xlink:href="textedit:///Users/jyang/Documents/GitHub/wygioatynlib/notation/tutti_ps44_c.ly:78:32:33">
<path transform="translate(65.9104, 27.7580) scale(0.0040, -0.0040)" d="M220 138c56 0 109 -29 109 -91c0 -72 -56 -121 -103 -149c-36 -21 -76 -36 -117 -36c-56 0 -109 29 -109 91c0 72 56 121 103 149c36 21 76 36 117 36z" fill="currentColor"/>
</a>
<a style="color:inherit;" xlink:href="textedit:///Users/jyang/Documents/GitHub/wygioatynlib/notation/tutti_ps44_c.ly:16:42:43">
<path transform="translate(66.5685, 7.1326) scale(0.0040, -0.0040)" d="M-211 88c-8 2 -14 9 -14 18c0 10 9 19 19 19c2 0 3 -1 4 -1l408 -105c13 0 19 -6 19 -19s-6 -19 -19 -19l-408 -105c-1 0 -2 -1 -4 -1c-10 0 -19 9 -19 19c0 9 6 16 14 18l251 65l140 23l-140 23z" fill="currentColor"/>
</a>
<rect transform="translate(47.3691, 135.0104)" x="-0.0650" y="0.1878" width="0.1300" height="3.1455" ry="0.0400" fill="currentColor"/>
<path transform="translate(47.4341, 119.8450) scale(0.0040, -0.0040)" d="M0 205c90 50 208 128 208 228c0 23 -3 44 -8 66c-78 -88 -200 -157 -200 -279v-15zM227 864c0 26 -26 75 13 75c27 0 29 -51 29 -75c0 -38 -11 -70 -30 -100c16 -38 25 -79 25 -120c0 -38 -11 -70 -30 -100c11 -36 17 -73 17 -111c0 -179 -251 -254 -251 -433h-16v750h16
v-105c98 44 227 116 227 219zM0 425c96 45 222 117 222 219c0 27 -5 54 -14 79c-79 -90 -208 -158 -208 -283v-15z" fill="currentColor"/>
<a style="color:inherit;" xlink:href="textedit:///Users/jyang/Documents/GitHub/wygioatynlib/notation/tutti_ps44_c.ly:284:14:15">
<path transform="translate(51.3043, 117.1350) scale(0.0040, -0.0040)" d="M54 -500l86 327c-35 -13 -71 -23 -108 -23c-46 0 -87 33 -87 79c0 40 32 72 72 72c25 0 49 -15 57 -39c10 -28 5 -59 34 -59c17 0 54 54 59 71l39 149c-34 -12 -70 -23 -106 -23c-46 0 -87 33 -87 79c0 40 33 72 73 72c25 0 48 -15 56 -39c10 -28 5 -59 34 -59
c16 0 52 51 56 68l40 151c-33 -12 -68 -22 -103 -22c-46 0 -87 33 -87 79c0 40 32 72 72 72c25 0 49 -15 57 -39c10 -28 5 -59 34 -59c15 0 46 49 52 63c6 12 23 12 28 0l-216 -920c-8 -7 -18 -10 -28 -10s-19 3 -27 10z" fill="currentColor"/>
</a>
<a style="color:inherit;" xlink:href="textedit:///Users/jyang/Documents/GitHub/wygioatynlib/notation/tutti_ps44_c.ly:16:40:41">
<path transform="translate(66.5685, 8.3826) scale(0.0040, -0.0040)" d="M-50 0c0 28 22 50 50 50s50 -22 50 -50s-22 -50 -50 -50s-50 22 -50 50z" fill="currentColor"/>
</a>
<a style="color:inherit;" xlink:href="textedit:///Users/jyang/Documents/GitHub/wygioatynlib/notation/tutti_ps44_c.ly:16:34:35">
<path transform="translate(65.9104, 9.3826) scale(0.0040, -0.0040)" d="M220 138c56 0 109 -29 109 -91c0 -72 -56 -121 -103 -149c-36 -21 -76 -36 -117 -36c-56 0 -109 29 -109 91c0 72 56 121 103 149c36 21 76 36 117 36z" fill="currentColor"/>
</a>
<a style="color:inherit;" xlink:href="textedit:///Users/jyang/Documents/GitHub/wygioatynlib/notation/tutti_ps44_c.ly:284:18:19">
<path transform="translate(55.2883, 117.1350) scale(0.0040, -0.0040)" d="M72 -250l117 326c-34 -12 -69 -22 -105 -22c-46 0 -87 33 -87 79c0 40 33 72 73 72c25 0 48 -15 56 -39c10 -28 6 -59 35 -59c16 0 54 48 61 63c6 12 23 12 28 0l-123 -420c-8 -7 -17 -10 -27 -10s-20 3 -28 10z" fill="currentColor"/>
</a>
<path transform="translate(56.7383, 116.6350) scale(0.0040, -0.0040)" d="M0 0c0 31 25 56 56 56s56 -25 56 -56s-25 -56 -56 -56s-56 25 -56 56z" fill="currentColor"/>
<rect transform="translate(48.5553, 45.6334)" x="-0.0650" y="-3.0000" width="0.1300" height="3.3122" ry="0.0400" fill="currentColor"/>
<rect transform="translate(47.3691, 63.5088)" x="-0.0650" y="-5.3122" width="0.1300" height="5.3122" ry="0.0400" fill="currentColor"/>
<rect transform="translate(47.3691, 81.3842)" x="-0.0650" y="-0.3122" width="0.1300" height="3.3122" ry="0.0400" fill="currentColor"/>
<rect transform="translate(47.3691, 99.2596)" x="-0.0650" y="-1.8122" width="0.1300" height="3.3122" ry="0.0400" fill="currentColor"/>
<rect transform="translate(47.3691, 117.1350)" x="-0.0650" y="-1.3122" width="0.1300" height="4.0622" ry="0.0400" fill="currentColor"/>
<rect transform="translate(67.1615, 45.6334)" x="-0.0650" y="-2.8100" width="0.1300" height="3.1222" ry="0.0400" fill="currentColor"/>
<rect transform="translate(65.9754, 63.5088)" x="-0.0650" y="-5.3122" width="0.1300" height="5.3122" ry="0.0400" fill="currentColor"/>
<a style="color:inherit;" xlink:href="textedit:///Users/jyang/Documents/GitHub/wygioatynlib/notation/tutti_ps44_c.ly:284:45:46">
<path transform="translate(84.4628, 117.1350) scale(0.0040, -0.0040)" d="M54 -500l86 327c-35 -13 -71 -23 -108 -23c-46 0 -87 33 -87 79c0 40 32 72 72 72c25 0 49 -15 57 -39c10 -28 5 -59 34 -59c17 0 54 54 59 71l39 149c-34 -12 -70 -23 -106 -23c-46 0 -87 33 -87 79c0 40 33 72 73 72c25 0 48 -15 56 -39c10 -28 5 -59 34 -59
c16 0 52 51 56 68l40 151c-33 -12 -68 -22 -103 -22c-46 0 -87 33 -87 79c0 40 32 72 72 72c25 0 49 -15 57 -39c10 -28 5 -59 34 -59c15 0 46 49 52 63c6 12 23 12 28 0l-216 -920c-8 -7 -18 -10 -28 -10s-19 3 -27 10z" fill="currentColor"/>
</a>
<rect transform="translate(65.9754, 81.3842)" x="-0.0650" y="-0.3122" width="0.1300" height="3.1222" ry="0.0400" fill="currentColor"/>
<a style="color:inherit;" xlink:href="textedit:///Users/jyang/Documents/GitHub/wygioatynlib/notation/tutti_ps44_c.ly:78:37:38">
<path transform="translate(66.5685, 26.2580) scale(0.0040, -0.0040)" d="M-50 0c0 28 22 50 50 50s50 -22 50 -50s-22 -50 -50 -50s-50 22 -50 50z" fill="currentColor"/>
</a>
<a style="color:inherit;" xlink:href="textedit:///Users/jyang/Documents/GitHub/wygioatynlib/notation/tutti_ps44_c.ly:78:39:40">
<path transform="translate(66.5685, 25.0080) scale(0.0040, -0.0040)" d="M-211 88c-8 2 -14 9 -14 18c0 10 9 19 19 19c2 0 3 -1 4 -1l408 -105c13 0 19 -6 19 -19s-6 -19 -19 -19l-408 -105c-1 0 -2 -1 -4 -1c-10 0 -19 9 -19 19c0 9 6 16 14 18l251 65l140 23l-140 23z" fill="currentColor"/>
</a>
<a style="color:inherit;" xlink:href="textedit:///Users/jyang/Documents/GitHub/wygioatynlib/notation/tutti_ps44_c.ly:119:27:28">
<path transform="translate(65.9104, 46.1334) scale(0.0040, -0.0040)" d="M220 138c56 0 109 -29 109 -91c0 -72 -56 -121 -103 -149c-36 -21 -76 -36 -117 -36c-56 0 -109 29 -109 91c0 72 56 121 103 149c36 21 76 36 117 36z" fill="currentColor"/>
</a>
<a style="color:inherit;" xlink:href="textedit:///Users/jyang/Documents/GitHub/wygioatynlib/notation/tutti_ps44_c.ly:119:30:31">
<path transform="translate(66.5685, 47.1334) scale(0.0040, -0.0040)" d="M-50 0c0 28 22 50 50 50s50 -22 50 -50s-22 -50 -50 -50s-50 22 -50 50z" fill="currentColor"/>
</a>
<a style="color:inherit;" xlink:href="textedit:///Users/jyang/Documents/GitHub/wygioatynlib/notation/tutti_ps44_c.ly:119:32:33">
<path transform="translate(66.5685, 48.3834) scale(0.0040, -0.0040)" d="M-211 88c-8 2 -14 9 -14 18c0 10 9 19 19 19c2 0 3 -1 4 -1l408 -105c13 0 19 -6 19 -19s-6 -19 -19 -19l-408 -105c-1 0 -2 -1 -4 -1c-10 0 -19 9 -19 19c0 9 6 16 14 18l251 65l140 23l-140 23z" fill="currentColor"/>
</a>
<a style="color:inherit;" xlink:href="textedit:///Users/jyang/Documents/GitHub/wygioatynlib/notation/tutti_ps44_c.ly:160:36:37">
<path transform="translate(65.9104, 58.0088) scale(0.0040, -0.0040)" d="M220 138c56 0 109 -29 109 -91c0 -72 -56 -121 -103 -149c-36 -21 -76 -36 -117 -36c-56 0 -109 29 -109 91c0 72 56 121 103 149c36 21 76 36 117 36z" fill="currentColor"/>
</a>
<a style="color:inherit;" xlink:href="textedit:///Users/jyang/Documents/GitHub/wygioatynlib/notation/tutti_ps44_c.ly:160:43:44">
<path transform="translate(66.5685, 57.0588) scale(0.0040, -0.0040)" d="M-50 0c0 28 22 50 50 50s50 -22 50 -50s-22 -50 -50 -50s-50 22 -50 50z" fill="currentColor"/>
</a>
<a style="color:inherit;" xlink:href="textedit:///Users/jyang/Documents/GitHub/wygioatynlib/notation/tutti_ps44_c.ly:160:45:46">
<path transform="translate(66.5685, 56.1628) scale(0.0040, -0.0040)" d="M-211 88c-8 2 -14 9 -14 18c0 10 9 19 19 19c2 0 3 -1 4 -1l408 -105c13 0 19 -6 19 -19s-6 -19 -19 -19l-408 -105c-1 0 -2 -1 -4 -1c-10 0 -19 9 -19 19c0 9 6 16 14 18l251 65l140 23l-140 23z" fill="currentColor"/>
</a>
<a style="color:inherit;" xlink:href="textedit:///Users/jyang/Documents/GitHub/wygioatynlib/notation/tutti_ps44_c.ly:201:28:29">
<path transform="translate(65.9104, 80.8842) scale(0.0040, -0.0040)" d="M220 138c56 0 109 -29 109 -91c0 -72 -56 -121 -103 -149c-36 -21 -76 -36 -117 -36c-56 0 -109 29 -109 91c0 72 56 121 103 149c36 21 76 36 117 36z" fill="currentColor"/>
</a>
<a style="color:inherit;" xlink:href="textedit:///Users/jyang/Documents/GitHub/wygioatynlib/notation/tutti_ps44_c.ly:201:31:32">
<path transform="translate(66.5685, 79.8842) scale(0.0040, -0.0040)" d="M-50 0c0 28 22 50 50 50s50 -22 50 -50s-22 -50 -50 -50s-50 22 -50 50z" fill="currentColor"/>
</a>
<a style="color:inherit;" xlink:href="textedit:///Users/jyang/Documents/GitHub/wygioatynlib/notation/tutti_ps44_c.ly:201:33:34">
<path transform="translate(66.5685, 78.6342) scale(0.0040, -0.0040)" d="M-211 88c-8 2 -14 9 -14 18c0 10 9 19 19 19c2 0 3 -1 4 -1l408 -105c13 0 19 -6 19 -19s-6 -19 -19 -19l-408 -105c-1 0 -2 -1 -4 -1c-10 0 -19 9 -19 19c0 9 6 16 14 18l251 65l140 23l-140 23z" fill="currentColor"/>
</a>
<a style="color:inherit;" xlink:href="textedit:///Users/jyang/Documents/GitHub/wygioatynlib/notation/tutti_ps44_c.ly:242:26:27">
<path transform="translate(65.9104, 97.2596) scale(0.0040, -0.0040)" d="M220 138c56 0 109 -29 109 -91c0 -72 -56 -121 -103 -149c-36 -21 -76 -36 -117 -36c-56 0 -109 29 -109 91c0 72 56 121 103 149c36 21 76 36 117 36z" fill="currentColor"/>
</a>
<a style="color:inherit;" xlink:href="textedit:///Users/jyang/Documents/GitHub/wygioatynlib/notation/tutti_ps44_c.ly:242:28:29">
<path transform="translate(66.5685, 96.3096) scale(0.0040, -0.0040)" d="M-50 0c0 28 22 50 50 50s50 -22 50 -50s-22 -50 -50 -50s-50 22 -50 50z" fill="currentColor"/>
</a>
<a style="color:inherit;" xlink:href="textedit:///Users/jyang/Documents/GitHub/wygioatynlib/notation/tutti_ps44_c.ly:242:30:31">
<path transform="translate(66.5685, 95.4136) scale(0.0040, -0.0040)" d="M-211 88c-8 2 -14 9 -14 18c0 10 9 19 19 19c2 0 3 -1 4 -1l408 -105c13 0 19 -6 19 -19s-6 -19 -19 -19l-408 -105c-1 0 -2 -1 -4 -1c-10 0 -19 9 -19 19c0 9 6 16 14 18l251 65l140 23l-140 23z" fill="currentColor"/>
</a>
<a style="color:inherit;" xlink:href="textedit:///Users/jyang/Documents/GitHub/wygioatynlib/notation/tutti_ps44_c.ly:284:22:23">
<path transform="translate(65.9104, 115.6350) scale(0.0040, -0.0040)" d="M220 138c56 0 109 -29 109 -91c0 -72 -56 -121 -103 -149c-36 -21 -76 -36 -117 -36c-56 0 -109 29 -109 91c0 72 56 121 103 149c36 21 76 36 117 36z" fill="currentColor"/>
</a>
<a style="color:inherit;" xlink:href="textedit:///Users/jyang/Documents/GitHub/wygioatynlib/notation/tutti_ps44_c.ly:284:25:26">
<path transform="translate(66.5685, 114.6350) scale(0.0040, -0.0040)" d="M-50 0c0 28 22 50 50 50s50 -22 50 -50s-22 -50 -50 -50s-50 22 -50 50z" fill="currentColor"/>
</a>
<rect transform="translate(65.9754, 27.7580)" x="-0.0650" y="0.1878" width="0.1300" height="2.8122" ry="0.0400" fill="currentColor"/>
<rect transform="translate(65.9754, 9.8826)" x="-0.0650" y="-0.3122" width="0.1300" height="3.1222" ry="0.0400" fill="currentColor"/>
<a style="color:inherit;" xlink:href="textedit:///Users/jyang/Documents/GitHub/wygioatynlib/notation/tutti_ps44_c.ly:348:36:37">
<path transform="translate(66.5685, 132.2604) scale(0.0040, -0.0040)" d="M-211 88c-8 2 -14 9 -14 18c0 10 9 19 19 19c2 0 3 -1 4 -1l408 -105c13 0 19 -6 19 -19s-6 -19 -19 -19l-408 -105c-1 0 -2 -1 -4 -1c-10 0 -19 9 -19 19c0 9 6 16 14 18l251 65l140 23l-140 23z" fill="currentColor"/>
</a>
<a style="color:inherit;" xlink:href="textedit:///Users/jyang/Documents/GitHub/wygioatynlib/notation/tutti_ps44_c.ly:348:34:35">
<path transform="translate(66.5685, 133.5104) scale(0.0040, -0.0040)" d="M-50 0c0 28 22 50 50 50s50 -22 50 -50s-22 -50 -50 -50s-50 22 -50 50z" fill="currentColor"/>
</a>
<a style="color:inherit;" xlink:href="textedit:///Users/jyang/Documents/GitHub/wygioatynlib/notation/tutti_ps44_c.ly:348:30:31">
<path transform="translate(65.9104, 135.0104) scale(0.0040, -0.0040)" d="M220 138c56 0 109 -29 109 -91c0 -72 -56 -121 -103 -149c-36 -21 -76 -36 -117 -36c-56 0 -109 29 -109 91c0 72 56 121 103 149c36 21 76 36 117 36z" fill="currentColor"/>
</a>
<a style="color:inherit;" xlink:href="textedit:///Users/jyang/Documents/GitHub/wygioatynlib/notation/tutti_ps44_c.ly:284:27:28">
<path transform="translate(66.5685, 113.7390) scale(0.0040, -0.0040)" d="M-211 88c-8 2 -14 9 -14 18c0 10 9 19 19 19c2 0 3 -1 4 -1l408 -105c13 0 19 -6 19 -19s-6 -19 -19 -19l-408 -105c-1 0 -2 -1 -4 -1c-10 0 -19 9 -19 19c0 9 6 16 14 18l251 65l140 23l-140 23z" fill="currentColor"/>
</a>
<a style="color:inherit;" xlink:href="textedit:///Users/jyang/Documents/GitHub/wygioatynlib/notation/tutti_ps44_c.ly:348:10:11">
<g transform="translate(26.1977, 140.8557)" >
<path transform="scale(0.0040, -0.0040)" d="M253 245l-50 -163c-30 -99 -121 -255 -218 -255c-45 0 -87 27 -87 69c0 39 17 77 52 77c24 0 44 -20 44 -44c0 -30 -38 -24 -38 -54c0 -10 11 -11 23 -11h6c48 0 61 58 73 108l68 273h-49c-11 0 -19 8 -19 19s8 19 19 19h60c32 96 118 191 213 191c45 0 87 -27 87 -69
c0 -39 -17 -77 -52 -77c-24 0 -44 19 -44 43c0 30 38 25 38 55c0 10 -10 11 -22 11h-7c-62 0 -70 -88 -86 -154h55c11 0 19 -8 19 -19s-8 -19 -19 -19h-66z" fill="currentColor"/>

<path transform="translate(1.2633, 0.0000) scale(0.0040, -0.0040)" d="M253 245l-50 -163c-30 -99 -121 -255 -218 -255c-45 0 -87 27 -87 69c0 39 17 77 52 77c24 0 44 -20 44 -44c0 -30 -38 -24 -38 -54c0 -10 11 -11 23 -11h6c48 0 61 58 73 108l68 273h-49c-11 0 -19 8 -19 19s8 19 19 19h60c32 96 118 191 213 191c45 0 87 -27 87 -69
c0 -39 -17 -77 -52 -77c-24 0 -44 19 -44 43c0 30 38 25 38 55c0 10 -10 11 -22 11h-7c-62 0 -70 -88 -86 -154h55c11 0 19 -8 19 -19s-8 -19 -19 -19h-66z" fill="currentColor"/>

<path transform="translate(2.5266, 0.0000) scale(0.0040, -0.0040)" d="M253 245l-50 -163c-30 -99 -121 -255 -218 -255c-45 0 -87 27 -87 69c0 39 17 77 52 77c24 0 44 -20 44 -44c0 -30 -38 -24 -38 -54c0 -10 11 -11 23 -11h6c48 0 61 58 73 108l68 273h-49c-11 0 -19 8 -19 19s8 19 19 19h60c32 96 118 191 213 191c45 0 87 -27 87 -69
c0 -39 -17 -77 -52 -77c-24 0 -44 19 -44 43c0 30 38 25 38 55c0 10 -10 11 -22 11h-7c-62 0 -70 -88 -86 -154h55c11 0 19 -8 19 -19s-8 -19 -19 -19h-66z" fill="currentColor"/>

<path transform="translate(3.7899, 0.0000) scale(0.0040, -0.0040)" d="M253 245l-50 -163c-30 -99 -121 -255 -218 -255c-45 0 -87 27 -87 69c0 39 17 77 52 77c24 0 44 -20 44 -44c0 -30 -38 -24 -38 -54c0 -10 11 -11 23 -11h6c48 0 61 58 73 108l68 273h-49c-11 0 -19 8 -19 19s8 19 19 19h60c32 96 118 191 213 191c45 0 87 -27 87 -69
c0 -39 -17 -77 -52 -77c-24 0 -44 19 -44 43c0 30 38 25 38 55c0 10 -10 11 -22 11h-7c-62 0 -70 -88 -86 -154h55c11 0 19 -8 19 -19s-8 -19 -19 -19h-66z" fill="currentColor"/>

<path transform="translate(5.0532, 0.0000) scale(0.0040, -0.0040)" d="M253 245l-50 -163c-30 -99 -121 -255 -218 -255c-45 0 -87 27 -87 69c0 39 17 77 52 77c24 0 44 -20 44 -44c0 -30 -38 -24 -38 -54c0 -10 11 -11 23 -11h6c48 0 61 58 73 108l68 273h-49c-11 0 -19 8 -19 19s8 19 19 19h60c32 96 118 191 213 191c45 0 87 -27 87 -69
c0 -39 -17 -77 -52 -77c-24 0 -44 19 -44 43c0 30 38 25 38 55c0 10 -10 11 -22 11h-7c-62 0 -70 -88 -86 -154h55c11 0 19 -8 19 -19s-8 -19 -19 -19h-66z" fill="currentColor"/>
</g>
</a>
<path transform="translate(20.1479, 134.0104) scale(0.0040, -0.0040)" d="M557 -125c0 28 23 51 51 51s51 -23 51 -51s-23 -51 -51 -51s-51 23 -51 51zM557 125c0 28 23 51 51 51s51 -23 51 -51s-23 -51 -51 -51s-51 23 -51 51zM232 263c172 0 293 -88 293 -251c0 -263 -263 -414 -516 -521c-3 -3 -6 -4 -9 -4c-7 0 -13 6 -13 13c0 3 1 6 4 9
c202 118 412 265 412 493c0 120 -63 235 -171 235c-74 0 -129 -54 -154 -126c11 5 22 8 34 8c55 0 100 -45 100 -100c0 -58 -44 -106 -100 -106c-60 0 -112 47 -112 106c0 133 102 244 232 244z" fill="currentColor"/>
<path transform="translate(24.3479, 135.0104) scale(0.0040, -0.0040)" d="M359 27c-49 0 -75 42 -75 75c0 38 27 77 72 77c4 0 9 0 14 -1c-28 37 -72 59 -120 59c-106 0 -113 -73 -113 -186v-51v-51c0 -113 7 -187 113 -187c80 0 139 70 158 151c2 7 7 10 12 10c6 0 13 -4 13 -12c0 -94 -105 -174 -183 -174c-68 0 -137 21 -184 70
c-49 51 -66 122 -66 193s17 142 66 193c47 49 116 69 184 69c87 0 160 -64 175 -150c1 -5 1 -9 1 -13c0 -40 -30 -72 -67 -72z" fill="currentColor"/>
<rect transform="translate(28.7629, 9.8826)" x="-0.0650" y="-0.3122" width="0.1300" height="3.3122" ry="0.0400" fill="currentColor"/>
<path transform="translate(27.5791, 9.3826) scale(0.0040, -0.0040)" d="M143 41c-1 33 -22 63 -53 63c-29 0 -43 -34 -43 -67c0 -59 48 -101 93 -139c3 22 4 44 4 66v11zM185 -138c0 -14 -10 -25 -23 -25c-21 0 -30 25 -45 38c-61 52 -147 89 -147 169c0 54 37 102 89 102c33 0 66 -13 91 -34l-7 345c8 5 18 8 27 8s19 -3 27 -8z" fill="currentColor"/>
<rect transform="translate(28.7629, 27.7580)" x="-0.0650" y="0.1878" width="0.1300" height="3.1455" ry="0.0400" fill="currentColor"/>
<path transform="translate(27.5791, 27.7580) scale(0.0040, -0.0040)" d="M143 41c-1 33 -22 63 -53 63c-29 0 -43 -34 -43 -67c0 -59 48 -101 93 -139c3 22 4 44 4 66v11zM185 -138c0 -14 -10 -25 -23 -25c-21 0 -30 25 -45 38c-61 52 -147 89 -147 169c0 54 37 102 89 102c33 0 66 -13 91 -34l-7 345c8 5 18 8 27 8s19 -3 27 -8z" fill="currentColor"/>
<rect transform="translate(29.9490, 45.6334)" x="-0.0650" y="-0.0000" width="0.1300" height="4.3122" ry="0.0400" fill="currentColor"/>
<rect transform="translate(28.7629, 63.5088)" x="-0.0650" y="-5.3122" width="0.1300" height="5.3122" ry="0.0400" fill="currentColor"/>
<path transform="translate(27.2479, 58.0088) scale(0.0040, -0.0040)" d="M216 -312c0 -10 -8 -19 -18 -19s-19 9 -19 19v145l-83 -31v-158c0 -10 -9 -19 -19 -19s-18 9 -18 19v145l-32 -12c-2 -1 -5 -1 -7 -1c-11 0 -20 9 -20 20v60c0 8 5 16 13 19l46 16v160l-32 -11c-2 -1 -5 -1 -7 -1c-11 0 -20 9 -20 20v60c0 8 5 15 13 18l46 17v158
c0 10 8 19 18 19s19 -9 19 -19v-145l83 31v158c0 10 9 19 19 19s18 -9 18 -19v-145l32 12c2 1 5 1 7 1c11 0 20 -9 20 -20v-60c0 -8 -5 -16 -13 -19l-46 -16v-160l32 11c2 1 5 1 7 1c11 0 20 -9 20 -20v-60c0 -8 -5 -15 -13 -18l-46 -17v-158zM96 65v-160l83 30v160z" fill="currentColor"/>
<rect transform="translate(28.7629, 81.3842)" x="-0.0650" y="-0.3122" width="0.1300" height="3.3122" ry="0.0400" fill="currentColor"/>
<rect transform="translate(28.7629, 99.2596)" x="-0.0650" y="-1.8122" width="0.1300" height="3.3122" ry="0.0400" fill="currentColor"/>
<polygon transform="translate(65.9104, 12.6926)" stroke-linejoin="round" stroke-linecap="round" stroke-width="0.0800" fill="currentColor" stroke="currentColor" points="14.6422 -0.2000 14.6422 0.2000 0.0400 0.2000 0.0400 -0.2000"/>
<polygon transform="translate(65.9104, 30.7580)" stroke-linejoin="round" stroke-linecap="round" stroke-width="0.0800" fill="currentColor" stroke="currentColor" points="14.6422 -0.2000 14.6422 0.2000 0.0400 0.2000 0.0400 -0.2000"/>
<polygon transform="translate(67.0965, 42.8234)" stroke-linejoin="round" stroke-linecap="round" stroke-width="0.0800" fill="currentColor" stroke="currentColor" points="14.6422 -0.2000 14.6422 0.2000 0.0400 0.2000 0.0400 -0.2000"/>
<polygon transform="translate(65.9104, 63.5088)" stroke-linejoin="round" stroke-linecap="round" stroke-width="0.0800" fill="currentColor" stroke="currentColor" points="14.6422 -0.2000 14.6422 0.2000 0.0400 0.2000 0.0400 -0.2000"/>
<polygon transform="translate(65.9104, 84.1942)" stroke-linejoin="round" stroke-linecap="round" stroke-width="0.0800" fill="currentColor" stroke="currentColor" points="14.6422 -0.2000 14.6422 0.2000 0.0400 0.2000 0.0400 -0.2000"/>
<polygon transform="translate(65.9104, 100.2596)" stroke-linejoin="round" stroke-linecap="round" stroke-width="0.0800" fill="currentColor" stroke="currentColor" points="14.6422 -0.2000 14.6422 0.2000 0.0400 0.2000 0.0400 -0.2000"/>
<polygon transform="translate(65.9104, 138.0104)" stroke-linejoin="round" stroke-linecap="round" stroke-width="0.0800" fill="currentColor" stroke="currentColor" points="14.6422 -0.2000 14.6422 0.2000 0.0400 0.2000 0.0400 -0.2000"/>
<a style="color:inherit;" xlink:href="textedit:///Users/jyang/Documents/GitHub/wygioatynlib/notation/tutti_ps44_c.ly:16:6:7">
<path transform="translate(28.6979, 9.3826) scale(0.0040, -0.0040)" d="M220 138c56 0 109 -29 109 -91c0 -72 -56 -121 -103 -149c-36 -21 -76 -36 -117 -36c-56 0 -109 29 -109 91c0 72 56 121 103 149c36 21 76 36 117 36z" fill="currentColor"/>
</a>
<a style="color:inherit;" xlink:href="textedit:///Users/jyang/Documents/GitHub/wygioatynlib/notation/tutti_ps44_c.ly:16:12:13">
<g transform="translate(26.1977, 15.3946)" >
<path transform="scale(0.0040, -0.0040)" d="M253 245l-50 -163c-30 -99 -121 -255 -218 -255c-45 0 -87 27 -87 69c0 39 17 77 52 77c24 0 44 -20 44 -44c0 -30 -38 -24 -38 -54c0 -10 11 -11 23 -11h6c48 0 61 58 73 108l68 273h-49c-11 0 -19 8 -19 19s8 19 19 19h60c32 96 118 191 213 191c45 0 87 -27 87 -69
c0 -39 -17 -77 -52 -77c-24 0 -44 19 -44 43c0 30 38 25 38 55c0 10 -10 11 -22 11h-7c-62 0 -70 -88 -86 -154h55c11 0 19 -8 19 -19s-8 -19 -19 -19h-66z" fill="currentColor"/>

<path transform="translate(1.2633, 0.0000) scale(0.0040, -0.0040)" d="M253 245l-50 -163c-30 -99 -121 -255 -218 -255c-45 0 -87 27 -87 69c0 39 17 77 52 77c24 0 44 -20 44 -44c0 -30 -38 -24 -38 -54c0 -10 11 -11 23 -11h6c48 0 61 58 73 108l68 273h-49c-11 0 -19 8 -19 19s8 19 19 19h60c32 96 118 191 213 191c45 0 87 -27 87 -69
c0 -39 -17 -77 -52 -77c-24 0 -44 19 -44 43c0 30 38 25 38 55c0 10 -10 11 -22 11h-7c-62 0 -70 -88 -86 -154h55c11 0 19 -8 19 -19s-8 -19 -19 -19h-66z" fill="currentColor"/>

<path transform="translate(2.5266, 0.0000) scale(0.0040, -0.0040)" d="M253 245l-50 -163c-30 -99 -121 -255 -218 -255c-45 0 -87 27 -87 69c0 39 17 77 52 77c24 0 44 -20 44 -44c0 -30 -38 -24 -38 -54c0 -10 11 -11 23 -11h6c48 0 61 58 73 108l68 273h-49c-11 0 -19 8 -19 19s8 19 19 19h60c32 96 118 191 213 191c45 0 87 -27 87 -69
c0 -39 -17 -77 -52 -77c-24 0 -44 19 -44 43c0 30 38 25 38 55c0 10 -10 11 -22 11h-7c-62 0 -70 -88 -86 -154h55c11 0 19 -8 19 -19s-8 -19 -19 -19h-66z" fill="currentColor"/>

<path transform="translate(3.7899, 0.0000) scale(0.0040, -0.0040)" d="M253 245l-50 -163c-30 -99 -121 -255 -218 -255c-45 0 -87 27 -87 69c0 39 17 77 52 77c24 0 44 -20 44 -44c0 -30 -38 -24 -38 -54c0 -10 11 -11 23 -11h6c48 0 61 58 73 108l68 273h-49c-11 0 -19 8 -19 19s8 19 19 19h60c32 96 118 191 213 191c45 0 87 -27 87 -69
c0 -39 -17 -77 -52 -77c-24 0 -44 19 -44 43c0 30 38 25 38 55c0 10 -10 11 -22 11h-7c-62 0 -70 -88 -86 -154h55c11 0 19 -8 19 -19s-8 -19 -19 -19h-66z" fill="currentColor"/>

<path transform="translate(5.0532, 0.0000) scale(0.0040, -0.0040)" d="M253 245l-50 -163c-30 -99 -121 -255 -218 -255c-45 0 -87 27 -87 69c0 39 17 77 52 77c24 0 44 -20 44 -44c0 -30 -38 -24 -38 -54c0 -10 11 -11 23 -11h6c48 0 61 58 73 108l68 273h-49c-11 0 -19 8 -19 19s8 19 19 19h60c32 96 118 191 213 191c45 0 87 -27 87 -69
c0 -39 -17 -77 -52 -77c-24 0 -44 19 -44 43c0 30 38 25 38 55c0 10 -10 11 -22 11h-7c-62 0 -70 -88 -86 -154h55c11 0 19 -8 19 -19s-8 -19 -19 -19h-66z" fill="currentColor"/>
</g>
</a>
<a style="color:inherit;" xlink:href="textedit:///Users/jyang/Documents/GitHub/wygioatynlib/notation/tutti_ps44_c.ly:78:6:7">
<path transform="translate(28.6979, 27.7580) scale(0.0040, -0.0040)" d="M220 138c56 0 109 -29 109 -91c0 -72 -56 -121 -103 -149c-36 -21 -76 -36 -117 -36c-56 0 -109 29 -109 91c0 72 56 121 103 149c36 21 76 36 117 36z" fill="currentColor"/>
</a>
<a style="color:inherit;" xlink:href="textedit:///Users/jyang/Documents/GitHub/wygioatynlib/notation/tutti_ps44_c.ly:78:11:12">
<g transform="translate(26.1977, 33.6034)" >
<path transform="scale(0.0040, -0.0040)" d="M253 245l-50 -163c-30 -99 -121 -255 -218 -255c-45 0 -87 27 -87 69c0 39 17 77 52 77c24 0 44 -20 44 -44c0 -30 -38 -24 -38 -54c0 -10 11 -11 23 -11h6c48 0 61 58 73 108l68 273h-49c-11 0 -19 8 -19 19s8 19 19 19h60c32 96 118 191 213 191c45 0 87 -27 87 -69
c0 -39 -17 -77 -52 -77c-24 0 -44 19 -44 43c0 30 38 25 38 55c0 10 -10 11 -22 11h-7c-62 0 -70 -88 -86 -154h55c11 0 19 -8 19 -19s-8 -19 -19 -19h-66z" fill="currentColor"/>

<path transform="translate(1.2633, 0.0000) scale(0.0040, -0.0040)" d="M253 245l-50 -163c-30 -99 -121 -255 -218 -255c-45 0 -87 27 -87 69c0 39 17 77 52 77c24 0 44 -20 44 -44c0 -30 -38 -24 -38 -54c0 -10 11 -11 23 -11h6c48 0 61 58 73 108l68 273h-49c-11 0 -19 8 -19 19s8 19 19 19h60c32 96 118 191 213 191c45 0 87 -27 87 -69
c0 -39 -17 -77 -52 -77c-24 0 -44 19 -44 43c0 30 38 25 38 55c0 10 -10 11 -22 11h-7c-62 0 -70 -88 -86 -154h55c11 0 19 -8 19 -19s-8 -19 -19 -19h-66z" fill="currentColor"/>

<path transform="translate(2.5266, 0.0000) scale(0.0040, -0.0040)" d="M253 245l-50 -163c-30 -99 -121 -255 -218 -255c-45 0 -87 27 -87 69c0 39 17 77 52 77c24 0 44 -20 44 -44c0 -30 -38 -24 -38 -54c0 -10 11 -11 23 -11h6c48 0 61 58 73 108l68 273h-49c-11 0 -19 8 -19 19s8 19 19 19h60c32 96 118 191 213 191c45 0 87 -27 87 -69
c0 -39 -17 -77 -52 -77c-24 0 -44 19 -44 43c0 30 38 25 38 55c0 10 -10 11 -22 11h-7c-62 0 -70 -88 -86 -154h55c11 0 19 -8 19 -19s-8 -19 -19 -19h-66z" fill="currentColor"/>

<path transform="translate(3.7899, 0.0000) scale(0.0040, -0.0040)" d="M253 245l-50 -163c-30 -99 -121 -255 -218 -255c-45 0 -87 27 -87 69c0 39 17 77 52 77c24 0 44 -20 44 -44c0 -30 -38 -24 -38 -54c0 -10 11 -11 23 -11h6c48 0 61 58 73 108l68 273h-49c-11 0 -19 8 -19 19s8 19 19 19h60c32 96 118 191 213 191c45 0 87 -27 87 -69
c0 -39 -17 -77 -52 -77c-24 0 -44 19 -44 43c0 30 38 25 38 55c0 10 -10 11 -22 11h-7c-62 0 -70 -88 -86 -154h55c11 0 19 -8 19 -19s-8 -19 -19 -19h-66z" fill="currentColor"/>

<path transform="translate(5.0532, 0.0000) scale(0.0040, -0.0040)" d="M253 245l-50 -163c-30 -99 -121 -255 -218 -255c-45 0 -87 27 -87 69c0 39 17 77 52 77c24 0 44 -20 44 -44c0 -30 -38 -24 -38 -54c0 -10 11 -11 23 -11h6c48 0 61 58 73 108l68 273h-49c-11 0 -19 8 -19 19s8 19 19 19h60c32 96 118 191 213 191c45 0 87 -27 87 -69
c0 -39 -17 -77 -52 -77c-24 0 -44 19 -44 43c0 30 38 25 38 55c0 10 -10 11 -22 11h-7c-62 0 -70 -88 -86 -154h55c11 0 19 -8 19 -19s-8 -19 -19 -19h-66z" fill="currentColor"/>
</g>
</a>
<a style="color:inherit;" xlink:href="textedit:///Users/jyang/Documents/GitHub/wygioatynlib/notation/tutti_ps44_c.ly:119:6:7">
<path transform="translate(28.6979, 50.1334) scale(0.0040, -0.0040)" d="M220 138c56 0 109 -29 109 -91c0 -72 -56 -121 -103 -149c-36 -21 -76 -36 -117 -36c-56 0 -109 29 -109 91c0 72 56 121 103 149c36 21 76 36 117 36z" fill="currentColor"/>
</a>
<a style="color:inherit;" xlink:href="textedit:///Users/jyang/Documents/GitHub/wygioatynlib/notation/tutti_ps44_c.ly:119:8:9">
<g transform="translate(26.1977, 53.1954)" >
<path transform="scale(0.0040, -0.0040)" d="M253 245l-50 -163c-30 -99 -121 -255 -218 -255c-45 0 -87 27 -87 69c0 39 17 77 52 77c24 0 44 -20 44 -44c0 -30 -38 -24 -38 -54c0 -10 11 -11 23 -11h6c48 0 61 58 73 108l68 273h-49c-11 0 -19 8 -19 19s8 19 19 19h60c32 96 118 191 213 191c45 0 87 -27 87 -69
c0 -39 -17 -77 -52 -77c-24 0 -44 19 -44 43c0 30 38 25 38 55c0 10 -10 11 -22 11h-7c-62 0 -70 -88 -86 -154h55c11 0 19 -8 19 -19s-8 -19 -19 -19h-66z" fill="currentColor"/>

<path transform="translate(1.2633, 0.0000) scale(0.0040, -0.0040)" d="M253 245l-50 -163c-30 -99 -121 -255 -218 -255c-45 0 -87 27 -87 69c0 39 17 77 52 77c24 0 44 -20 44 -44c0 -30 -38 -24 -38 -54c0 -10 11 -11 23 -11h6c48 0 61 58 73 108l68 273h-49c-11 0 -19 8 -19 19s8 19 19 19h60c32 96 118 191 213 191c45 0 87 -27 87 -69
c0 -39 -17 -77 -52 -77c-24 0 -44 19 -44 43c0 30 38 25 38 55c0 10 -10 11 -22 11h-7c-62 0 -70 -88 -86 -154h55c11 0 19 -8 19 -19s-8 -19 -19 -19h-66z" fill="currentColor"/>

<path transform="translate(2.5266, 0.0000) scale(0.0040, -0.0040)" d="M253 245l-50 -163c-30 -99 -121 -255 -218 -255c-45 0 -87 27 -87 69c0 39 17 77 52 77c24 0 44 -20 44 -44c0 -30 -38 -24 -38 -54c0 -10 11 -11 23 -11h6c48 0 61 58 73 108l68 273h-49c-11 0 -19 8 -19 19s8 19 19 19h60c32 96 118 191 213 191c45 0 87 -27 87 -69
c0 -39 -17 -77 -52 -77c-24 0 -44 19 -44 43c0 30 38 25 38 55c0 10 -10 11 -22 11h-7c-62 0 -70 -88 -86 -154h55c11 0 19 -8 19 -19s-8 -19 -19 -19h-66z" fill="currentColor"/>

<path transform="translate(3.7899, 0.0000) scale(0.0040, -0.0040)" d="M253 245l-50 -163c-30 -99 -121 -255 -218 -255c-45 0 -87 27 -87 69c0 39 17 77 52 77c24 0 44 -20 44 -44c0 -30 -38 -24 -38 -54c0 -10 11 -11 23 -11h6c48 0 61 58 73 108l68 273h-49c-11 0 -19 8 -19 19s8 19 19 19h60c32 96 118 191 213 191c45 0 87 -27 87 -69
c0 -39 -17 -77 -52 -77c-24 0 -44 19 -44 43c0 30 38 25 38 55c0 10 -10 11 -22 11h-7c-62 0 -70 -88 -86 -154h55c11 0 19 -8 19 -19s-8 -19 -19 -19h-66z" fill="currentColor"/>

<path transform="translate(5.0532, 0.0000) scale(0.0040, -0.0040)" d="M253 245l-50 -163c-30 -99 -121 -255 -218 -255c-45 0 -87 27 -87 69c0 39 17 77 52 77c24 0 44 -20 44 -44c0 -30 -38 -24 -38 -54c0 -10 11 -11 23 -11h6c48 0 61 58 73 108l68 273h-49c-11 0 -19 8 -19 19s8 19 19 19h60c32 96 118 191 213 191c45 0 87 -27 87 -69
c0 -39 -17 -77 -52 -77c-24 0 -44 19 -44 43c0 30 38 25 38 55c0 10 -10 11 -22 11h-7c-62 0 -70 -88 -86 -154h55c11 0 19 -8 19 -19s-8 -19 -19 -19h-66z" fill="currentColor"/>
</g>
</a>
<a style="color:inherit;" xlink:href="textedit:///Users/jyang/Documents/GitHub/wygioatynlib/notation/tutti_ps44_c.ly:160:6:7">
<path transform="translate(28.6979, 58.0088) scale(0.0040, -0.0040)" d="M220 138c56 0 109 -29 109 -91c0 -72 -56 -121 -103 -149c-36 -21 -76 -36 -117 -36c-56 0 -109 29 -109 91c0 72 56 121 103 149c36 21 76 36 117 36z" fill="currentColor"/>
</a>
<a style="color:inherit;" xlink:href="textedit:///Users/jyang/Documents/GitHub/wygioatynlib/notation/tutti_ps44_c.ly:160:13:14">
<g transform="translate(26.1977, 68.0708)" >
<path transform="scale(0.0040, -0.0040)" d="M253 245l-50 -163c-30 -99 -121 -255 -218 -255c-45 0 -87 27 -87 69c0 39 17 77 52 77c24 0 44 -20 44 -44c0 -30 -38 -24 -38 -54c0 -10 11 -11 23 -11h6c48 0 61 58 73 108l68 273h-49c-11 0 -19 8 -19 19s8 19 19 19h60c32 96 118 191 213 191c45 0 87 -27 87 -69
c0 -39 -17 -77 -52 -77c-24 0 -44 19 -44 43c0 30 38 25 38 55c0 10 -10 11 -22 11h-7c-62 0 -70 -88 -86 -154h55c11 0 19 -8 19 -19s-8 -19 -19 -19h-66z" fill="currentColor"/>

<path transform="translate(1.2633, 0.0000) scale(0.0040, -0.0040)" d="M253 245l-50 -163c-30 -99 -121 -255 -218 -255c-45 0 -87 27 -87 69c0 39 17 77 52 77c24 0 44 -20 44 -44c0 -30 -38 -24 -38 -54c0 -10 11 -11 23 -11h6c48 0 61 58 73 108l68 273h-49c-11 0 -19 8 -19 19s8 19 19 19h60c32 96 118 191 213 191c45 0 87 -27 87 -69
c0 -39 -17 -77 -52 -77c-24 0 -44 19 -44 43c0 30 38 25 38 55c0 10 -10 11 -22 11h-7c-62 0 -70 -88 -86 -154h55c11 0 19 -8 19 -19s-8 -19 -19 -19h-66z" fill="currentColor"/>

<path transform="translate(2.5266, 0.0000) scale(0.0040, -0.0040)" d="M253 245l-50 -163c-30 -99 -121 -255 -218 -255c-45 0 -87 27 -87 69c0 39 17 77 52 77c24 0 44 -20 44 -44c0 -30 -38 -24 -38 -54c0 -10 11 -11 23 -11h6c48 0 61 58 73 108l68 273h-49c-11 0 -19 8 -19 19s8 19 19 19h60c32 96 118 191 213 191c45 0 87 -27 87 -69
c0 -39 -17 -77 -52 -77c-24 0 -44 19 -44 43c0 30 38 25 38 55c0 10 -10 11 -22 11h-7c-62 0 -70 -88 -86 -154h55c11 0 19 -8 19 -19s-8 -19 -19 -19h-66z" fill="currentColor"/>

<path transform="translate(3.7899, 0.0000) scale(0.0040, -0.0040)" d="M253 245l-50 -163c-30 -99 -121 -255 -218 -255c-45 0 -87 27 -87 69c0 39 17 77 52 77c24 0 44 -20 44 -44c0 -30 -38 -24 -38 -54c0 -10 11 -11 23 -11h6c48 0 61 58 73 108l68 273h-49c-11 0 -19 8 -19 19s8 19 19 19h60c32 96 118 191 213 191c45 0 87 -27 87 -69
c0 -39 -17 -77 -52 -77c-24 0 -44 19 -44 43c0 30 38 25 38 55c0 10 -10 11 -22 11h-7c-62 0 -70 -88 -86 -154h55c11 0 19 -8 19 -19s-8 -19 -19 -19h-66z" fill="currentColor"/>

<path transform="translate(5.0532, 0.0000) scale(0.0040, -0.0040)" d="M253 245l-50 -163c-30 -99 -121 -255 -218 -255c-45 0 -87 27 -87 69c0 39 17 77 52 77c24 0 44 -20 44 -44c0 -30 -38 -24 -38 -54c0 -10 11 -11 23 -11h6c48 0 61 58 73 108l68 273h-49c-11 0 -19 8 -19 19s8 19 19 19h60c32 96 118 191 213 191c45 0 87 -27 87 -69
c0 -39 -17 -77 -52 -77c-24 0 -44 19 -44 43c0 30 38 25 38 55c0 10 -10 11 -22 11h-7c-62 0 -70 -88 -86 -154h55c11 0 19 -8 19 -19s-8 -19 -19 -19h-66z" fill="currentColor"/>
</g>
</a>
<a style="color:inherit;" xlink:href="textedit:///Users/jyang/Documents/GitHub/wygioatynlib/notation/tutti_ps44_c.ly:201:6:7">
<path transform="translate(28.6979, 80.8842) scale(0.0040, -0.0040)" d="M220 138c56 0 109 -29 109 -91c0 -72 -56 -121 -103 -149c-36 -21 -76 -36 -117 -36c-56 0 -109 29 -109 91c0 72 56 121 103 149c36 21 76 36 117 36z" fill="currentColor"/>
</a>
<a style="color:inherit;" xlink:href="textedit:///Users/jyang/Documents/GitHub/wygioatynlib/notation/tutti_ps44_c.ly:201:9:10">
<g transform="translate(26.1977, 86.8962)" >
<path transform="scale(0.0040, -0.0040)" d="M253 245l-50 -163c-30 -99 -121 -255 -218 -255c-45 0 -87 27 -87 69c0 39 17 77 52 77c24 0 44 -20 44 -44c0 -30 -38 -24 -38 -54c0 -10 11 -11 23 -11h6c48 0 61 58 73 108l68 273h-49c-11 0 -19 8 -19 19s8 19 19 19h60c32 96 118 191 213 191c45 0 87 -27 87 -69
c0 -39 -17 -77 -52 -77c-24 0 -44 19 -44 43c0 30 38 25 38 55c0 10 -10 11 -22 11h-7c-62 0 -70 -88 -86 -154h55c11 0 19 -8 19 -19s-8 -19 -19 -19h-66z" fill="currentColor"/>

<path transform="translate(1.2633, 0.0000) scale(0.0040, -0.0040)" d="M253 245l-50 -163c-30 -99 -121 -255 -218 -255c-45 0 -87 27 -87 69c0 39 17 77 52 77c24 0 44 -20 44 -44c0 -30 -38 -24 -38 -54c0 -10 11 -11 23 -11h6c48 0 61 58 73 108l68 273h-49c-11 0 -19 8 -19 19s8 19 19 19h60c32 96 118 191 213 191c45 0 87 -27 87 -69
c0 -39 -17 -77 -52 -77c-24 0 -44 19 -44 43c0 30 38 25 38 55c0 10 -10 11 -22 11h-7c-62 0 -70 -88 -86 -154h55c11 0 19 -8 19 -19s-8 -19 -19 -19h-66z" fill="currentColor"/>

<path transform="translate(2.5266, 0.0000) scale(0.0040, -0.0040)" d="M253 245l-50 -163c-30 -99 -121 -255 -218 -255c-45 0 -87 27 -87 69c0 39 17 77 52 77c24 0 44 -20 44 -44c0 -30 -38 -24 -38 -54c0 -10 11 -11 23 -11h6c48 0 61 58 73 108l68 273h-49c-11 0 -19 8 -19 19s8 19 19 19h60c32 96 118 191 213 191c45 0 87 -27 87 -69
c0 -39 -17 -77 -52 -77c-24 0 -44 19 -44 43c0 30 38 25 38 55c0 10 -10 11 -22 11h-7c-62 0 -70 -88 -86 -154h55c11 0 19 -8 19 -19s-8 -19 -19 -19h-66z" fill="currentColor"/>

<path transform="translate(3.7899, 0.0000) scale(0.0040, -0.0040)" d="M253 245l-50 -163c-30 -99 -121 -255 -218 -255c-45 0 -87 27 -87 69c0 39 17 77 52 77c24 0 44 -20 44 -44c0 -30 -38 -24 -38 -54c0 -10 11 -11 23 -11h6c48 0 61 58 73 108l68 273h-49c-11 0 -19 8 -19 19s8 19 19 19h60c32 96 118 191 213 191c45 0 87 -27 87 -69
c0 -39 -17 -77 -52 -77c-24 0 -44 19 -44 43c0 30 38 25 38 55c0 10 -10 11 -22 11h-7c-62 0 -70 -88 -86 -154h55c11 0 19 -8 19 -19s-8 -19 -19 -19h-66z" fill="currentColor"/>

<path transform="translate(5.0532, 0.0000) scale(0.0040, -0.0040)" d="M253 245l-50 -163c-30 -99 -121 -255 -218 -255c-45 0 -87 27 -87 69c0 39 17 77 52 77c24 0 44 -20 44 -44c0 -30 -38 -24 -38 -54c0 -10 11 -11 23 -11h6c48 0 61 58 73 108l68 273h-49c-11 0 -19 8 -19 19s8 19 19 19h60c32 96 118 191 213 191c45 0 87 -27 87 -69
c0 -39 -17 -77 -52 -77c-24 0 -44 19 -44 43c0 30 38 25 38 55c0 10 -10 11 -22 11h-7c-62 0 -70 -88 -86 -154h55c11 0 19 -8 19 -19s-8 -19 -19 -19h-66z" fill="currentColor"/>
</g>
</a>
<a style="color:inherit;" xlink:href="textedit:///Users/jyang/Documents/GitHub/wygioatynlib/notation/tutti_ps44_c.ly:242:6:7">
<path transform="translate(28.6979, 97.2596) scale(0.0040, -0.0040)" d="M220 138c56 0 109 -29 109 -91c0 -72 -56 -121 -103 -149c-36 -21 -76 -36 -117 -36c-56 0 -109 29 -109 91c0 72 56 121 103 149c36 21 76 36 117 36z" fill="currentColor"/>
</a>
<a style="color:inherit;" xlink:href="textedit:///Users/jyang/Documents/GitHub/wygioatynlib/notation/tutti_ps44_c.ly:242:8:9">
<g transform="translate(26.1977, 103.8216)" >
<path transform="scale(0.0040, -0.0040)" d="M253 245l-50 -163c-30 -99 -121 -255 -218 -255c-45 0 -87 27 -87 69c0 39 17 77 52 77c24 0 44 -20 44 -44c0 -30 -38 -24 -38 -54c0 -10 11 -11 23 -11h6c48 0 61 58 73 108l68 273h-49c-11 0 -19 8 -19 19s8 19 19 19h60c32 96 118 191 213 191c45 0 87 -27 87 -69
c0 -39 -17 -77 -52 -77c-24 0 -44 19 -44 43c0 30 38 25 38 55c0 10 -10 11 -22 11h-7c-62 0 -70 -88 -86 -154h55c11 0 19 -8 19 -19s-8 -19 -19 -19h-66z" fill="currentColor"/>

<path transform="translate(1.2633, 0.0000) scale(0.0040, -0.0040)" d="M253 245l-50 -163c-30 -99 -121 -255 -218 -255c-45 0 -87 27 -87 69c0 39 17 77 52 77c24 0 44 -20 44 -44c0 -30 -38 -24 -38 -54c0 -10 11 -11 23 -11h6c48 0 61 58 73 108l68 273h-49c-11 0 -19 8 -19 19s8 19 19 19h60c32 96 118 191 213 191c45 0 87 -27 87 -69
c0 -39 -17 -77 -52 -77c-24 0 -44 19 -44 43c0 30 38 25 38 55c0 10 -10 11 -22 11h-7c-62 0 -70 -88 -86 -154h55c11 0 19 -8 19 -19s-8 -19 -19 -19h-66z" fill="currentColor"/>

<path transform="translate(2.5266, 0.0000) scale(0.0040, -0.0040)" d="M253 245l-50 -163c-30 -99 -121 -255 -218 -255c-45 0 -87 27 -87 69c0 39 17 77 52 77c24 0 44 -20 44 -44c0 -30 -38 -24 -38 -54c0 -10 11 -11 23 -11h6c48 0 61 58 73 108l68 273h-49c-11 0 -19 8 -19 19s8 19 19 19h60c32 96 118 191 213 191c45 0 87 -27 87 -69
c0 -39 -17 -77 -52 -77c-24 0 -44 19 -44 43c0 30 38 25 38 55c0 10 -10 11 -22 11h-7c-62 0 -70 -88 -86 -154h55c11 0 19 -8 19 -19s-8 -19 -19 -19h-66z" fill="currentColor"/>

<path transform="translate(3.7899, 0.0000) scale(0.0040, -0.0040)" d="M253 245l-50 -163c-30 -99 -121 -255 -218 -255c-45 0 -87 27 -87 69c0 39 17 77 52 77c24 0 44 -20 44 -44c0 -30 -38 -24 -38 -54c0 -10 11 -11 23 -11h6c48 0 61 58 73 108l68 273h-49c-11 0 -19 8 -19 19s8 19 19 19h60c32 96 118 191 213 191c45 0 87 -27 87 -69
c0 -39 -17 -77 -52 -77c-24 0 -44 19 -44 43c0 30 38 25 38 55c0 10 -10 11 -22 11h-7c-62 0 -70 -88 -86 -154h55c11 0 19 -8 19 -19s-8 -19 -19 -19h-66z" fill="currentColor"/>

<path transform="translate(5.0532, 0.0000) scale(0.0040, -0.0040)" d="M253 245l-50 -163c-30 -99 -121 -255 -218 -255c-45 0 -87 27 -87 69c0 39 17 77 52 77c24 0 44 -20 44 -44c0 -30 -38 -24 -38 -54c0 -10 11 -11 23 -11h6c48 0 61 58 73 108l68 273h-49c-11 0 -19 8 -19 19s8 19 19 19h60c32 96 118 191 213 191c45 0 87 -27 87 -69
c0 -39 -17 -77 -52 -77c-24 0 -44 19 -44 43c0 30 38 25 38 55c0 10 -10 11 -22 11h-7c-62 0 -70 -88 -86 -154h55c11 0 19 -8 19 -19s-8 -19 -19 -19h-66z" fill="currentColor"/>
</g>
</a>
<a style="color:inherit;" xlink:href="textedit:///Users/jyang/Documents/GitHub/wygioatynlib/notation/tutti_ps44_c.ly:283:5:6">
<path transform="translate(28.6979, 115.6350) scale(0.0040, -0.0040)" d="M220 138c56 0 109 -29 109 -91c0 -72 -56 -121 -103 -149c-36 -21 -76 -36 -117 -36c-56 0 -109 29 -109 91c0 72 56 121 103 149c36 21 76 36 117 36z" fill="currentColor"/>
</a>
<a style="color:inherit;" xlink:href="textedit:///Users/jyang/Documents/GitHub/wygioatynlib/notation/tutti_ps44_c.ly:283:8:9">
<g transform="translate(26.1977, 122.3970)" >
<path transform="scale(0.0040, -0.0040)" d="M253 245l-50 -163c-30 -99 -121 -255 -218 -255c-45 0 -87 27 -87 69c0 39 17 77 52 77c24 0 44 -20 44 -44c0 -30 -38 -24 -38 -54c0 -10 11 -11 23 -11h6c48 0 61 58 73 108l68 273h-49c-11 0 -19 8 -19 19s8 19 19 19h60c32 96 118 191 213 191c45 0 87 -27 87 -69
c0 -39 -17 -77 -52 -77c-24 0 -44 19 -44 43c0 30 38 25 38 55c0 10 -10 11 -22 11h-7c-62 0 -70 -88 -86 -154h55c11 0 19 -8 19 -19s-8 -19 -19 -19h-66z" fill="currentColor"/>

<path transform="translate(1.2633, 0.0000) scale(0.0040, -0.0040)" d="M253 245l-50 -163c-30 -99 -121 -255 -218 -255c-45 0 -87 27 -87 69c0 39 17 77 52 77c24 0 44 -20 44 -44c0 -30 -38 -24 -38 -54c0 -10 11 -11 23 -11h6c48 0 61 58 73 108l68 273h-49c-11 0 -19 8 -19 19s8 19 19 19h60c32 96 118 191 213 191c45 0 87 -27 87 -69
c0 -39 -17 -77 -52 -77c-24 0 -44 19 -44 43c0 30 38 25 38 55c0 10 -10 11 -22 11h-7c-62 0 -70 -88 -86 -154h55c11 0 19 -8 19 -19s-8 -19 -19 -19h-66z" fill="currentColor"/>

<path transform="translate(2.5266, 0.0000) scale(0.0040, -0.0040)" d="M253 245l-50 -163c-30 -99 -121 -255 -218 -255c-45 0 -87 27 -87 69c0 39 17 77 52 77c24 0 44 -20 44 -44c0 -30 -38 -24 -38 -54c0 -10 11 -11 23 -11h6c48 0 61 58 73 108l68 273h-49c-11 0 -19 8 -19 19s8 19 19 19h60c32 96 118 191 213 191c45 0 87 -27 87 -69
c0 -39 -17 -77 -52 -77c-24 0 -44 19 -44 43c0 30 38 25 38 55c0 10 -10 11 -22 11h-7c-62 0 -70 -88 -86 -154h55c11 0 19 -8 19 -19s-8 -19 -19 -19h-66z" fill="currentColor"/>

<path transform="translate(3.7899, 0.0000) scale(0.0040, -0.0040)" d="M253 245l-50 -163c-30 -99 -121 -255 -218 -255c-45 0 -87 27 -87 69c0 39 17 77 52 77c24 0 44 -20 44 -44c0 -30 -38 -24 -38 -54c0 -10 11 -11 23 -11h6c48 0 61 58 73 108l68 273h-49c-11 0 -19 8 -19 19s8 19 19 19h60c32 96 118 191 213 191c45 0 87 -27 87 -69
c0 -39 -17 -77 -52 -77c-24 0 -44 19 -44 43c0 30 38 25 38 55c0 10 -10 11 -22 11h-7c-62 0 -70 -88 -86 -154h55c11 0 19 -8 19 -19s-8 -19 -19 -19h-66z" fill="currentColor"/>

<path transform="translate(5.0532, 0.0000) scale(0.0040, -0.0040)" d="M253 245l-50 -163c-30 -99 -121 -255 -218 -255c-45 0 -87 27 -87 69c0 39 17 77 52 77c24 0 44 -20 44 -44c0 -30 -38 -24 -38 -54c0 -10 11 -11 23 -11h6c48 0 61 58 73 108l68 273h-49c-11 0 -19 8 -19 19s8 19 19 19h60c32 96 118 191 213 191c45 0 87 -27 87 -69
c0 -39 -17 -77 -52 -77c-24 0 -44 19 -44 43c0 30 38 25 38 55c0 10 -10 11 -22 11h-7c-62 0 -70 -88 -86 -154h55c11 0 19 -8 19 -19s-8 -19 -19 -19h-66z" fill="currentColor"/>
</g>
</a>
<a style="color:inherit;" xlink:href="textedit:///Users/jyang/Documents/GitHub/wygioatynlib/notation/tutti_ps44_c.ly:348:6:7">
<path transform="translate(28.6979, 135.0104) scale(0.0040, -0.0040)" d="M220 138c56 0 109 -29 109 -91c0 -72 -56 -121 -103 -149c-36 -21 -76 -36 -117 -36c-56 0 -109 29 -109 91c0 72 56 121 103 149c36 21 76 36 117 36z" fill="currentColor"/>
</a>
<a style="color:inherit;" xlink:href="textedit:///Users/jyang/Documents/GitHub/wygioatynlib/notation/tutti_ps44_c.ly:78:24:25">
<path transform="translate(47.9622, 26.2580) scale(0.0040, -0.0040)" d="M-50 0c0 28 22 50 50 50s50 -22 50 -50s-22 -50 -50 -50s-50 22 -50 50z" fill="currentColor"/>
</a>
<a style="color:inherit;" xlink:href="textedit:///Users/jyang/Documents/GitHub/wygioatynlib/notation/tutti_ps44_c.ly:78:26:27">
<path transform="translate(47.9622, 25.0080) scale(0.0040, -0.0040)" d="M-211 88c-8 2 -14 9 -14 18c0 10 9 19 19 19c2 0 3 -1 4 -1l408 -105c13 0 19 -6 19 -19s-6 -19 -19 -19l-408 -105c-1 0 -2 -1 -4 -1c-10 0 -19 9 -19 19c0 9 6 16 14 18l251 65l140 23l-140 23z" fill="currentColor"/>
</a>
<a style="color:inherit;" xlink:href="textedit:///Users/jyang/Documents/GitHub/wygioatynlib/notation/tutti_ps44_c.ly:15:6:7">
<rect transform="translate(24.3479, 6.5373)" x="1.0563" y="-2.6727" width="0.1158" height="2.5113" ry="0.0193" fill="currentColor"/>
<path transform="translate(24.3479, 6.5373) scale(0.0036, -0.0036)" d="M217 139c57 0 112 -31 112 -94c0 -72 -55 -121 -102 -149c-35 -21 -74 -35 -115 -35c-57 0 -112 31 -112 94c0 72 55 121 102 149c35 21 74 35 115 35z" fill="currentColor"/>
<text transform="translate(25.5200, 7.0309)" font-family="Century Schoolbook L" font-size="2.2001" text-anchor="start" fill="currentColor">
<tspan>
 = 55</tspan>
</text>
</a>
<a style="color:inherit;" xlink:href="textedit:///Users/jyang/Documents/GitHub/wygioatynlib/notation/tutti_ps44_c.ly:119:17:18">
<path transform="translate(47.3041, 46.1334) scale(0.0040, -0.0040)" d="M220 138c56 0 109 -29 109 -91c0 -72 -56 -121 -103 -149c-36 -21 -76 -36 -117 -36c-56 0 -109 29 -109 91c0 72 56 121 103 149c36 21 76 36 117 36z" fill="currentColor"/>
</a>
<a style="color:inherit;" xlink:href="textedit:///Users/jyang/Documents/GitHub/wygioatynlib/notation/tutti_ps44_c.ly:119:19:20">
<path transform="translate(47.9622, 47.1334) scale(0.0040, -0.0040)" d="M-50 0c0 28 22 50 50 50s50 -22 50 -50s-22 -50 -50 -50s-50 22 -50 50z" fill="currentColor"/>
</a>
<a style="color:inherit;" xlink:href="textedit:///Users/jyang/Documents/GitHub/wygioatynlib/notation/tutti_ps44_c.ly:119:21:22">
<path transform="translate(47.9622, 48.3834) scale(0.0040, -0.0040)" d="M-211 88c-8 2 -14 9 -14 18c0 10 9 19 19 19c2 0 3 -1 4 -1l408 -105c13 0 19 -6 19 -19s-6 -19 -19 -19l-408 -105c-1 0 -2 -1 -4 -1c-10 0 -19 9 -19 19c0 9 6 16 14 18l251 65l140 23l-140 23z" fill="currentColor"/>
</a>
<a style="color:inherit;" xlink:href="textedit:///Users/jyang/Documents/GitHub/wygioatynlib/notation/tutti_ps44_c.ly:160:22:23">
<path transform="translate(47.3041, 58.0088) scale(0.0040, -0.0040)" d="M220 138c56 0 109 -29 109 -91c0 -72 -56 -121 -103 -149c-36 -21 -76 -36 -117 -36c-56 0 -109 29 -109 91c0 72 56 121 103 149c36 21 76 36 117 36z" fill="currentColor"/>
</a>
<a style="color:inherit;" xlink:href="textedit:///Users/jyang/Documents/GitHub/wygioatynlib/notation/tutti_ps44_c.ly:160:28:29">
<path transform="translate(47.9622, 57.0588) scale(0.0040, -0.0040)" d="M-50 0c0 28 22 50 50 50s50 -22 50 -50s-22 -50 -50 -50s-50 22 -50 50z" fill="currentColor"/>
</a>
<a style="color:inherit;" xlink:href="textedit:///Users/jyang/Documents/GitHub/wygioatynlib/notation/tutti_ps44_c.ly:160:30:31">
<path transform="translate(47.9622, 56.1628) scale(0.0040, -0.0040)" d="M-211 88c-8 2 -14 9 -14 18c0 10 9 19 19 19c2 0 3 -1 4 -1l408 -105c13 0 19 -6 19 -19s-6 -19 -19 -19l-408 -105c-1 0 -2 -1 -4 -1c-10 0 -19 9 -19 19c0 9 6 16 14 18l251 65l140 23l-140 23z" fill="currentColor"/>
</a>
<a style="color:inherit;" xlink:href="textedit:///Users/jyang/Documents/GitHub/wygioatynlib/notation/tutti_ps44_c.ly:201:18:19">
<path transform="translate(47.3041, 80.8842) scale(0.0040, -0.0040)" d="M220 138c56 0 109 -29 109 -91c0 -72 -56 -121 -103 -149c-36 -21 -76 -36 -117 -36c-56 0 -109 29 -109 91c0 72 56 121 103 149c36 21 76 36 117 36z" fill="currentColor"/>
</a>
<a style="color:inherit;" xlink:href="textedit:///Users/jyang/Documents/GitHub/wygioatynlib/notation/tutti_ps44_c.ly:201:20:21">
<path transform="translate(47.9622, 79.8842) scale(0.0040, -0.0040)" d="M-50 0c0 28 22 50 50 50s50 -22 50 -50s-22 -50 -50 -50s-50 22 -50 50z" fill="currentColor"/>
</a>
<a style="color:inherit;" xlink:href="textedit:///Users/jyang/Documents/GitHub/wygioatynlib/notation/tutti_ps44_c.ly:201:22:23">
<path transform="translate(47.9622, 78.6342) scale(0.0040, -0.0040)" d="M-211 88c-8 2 -14 9 -14 18c0 10 9 19 19 19c2 0 3 -1 4 -1l408 -105c13 0 19 -6 19 -19s-6 -19 -19 -19l-408 -105c-1 0 -2 -1 -4 -1c-10 0 -19 9 -19 19c0 9 6 16 14 18l251 65l140 23l-140 23z" fill="currentColor"/>
</a>
<a style="color:inherit;" xlink:href="textedit:///Users/jyang/Documents/GitHub/wygioatynlib/notation/tutti_ps44_c.ly:242:17:18">
<path transform="translate(47.3041, 97.2596) scale(0.0040, -0.0040)" d="M220 138c56 0 109 -29 109 -91c0 -72 -56 -121 -103 -149c-36 -21 -76 -36 -117 -36c-56 0 -109 29 -109 91c0 72 56 121 103 149c36 21 76 36 117 36z" fill="currentColor"/>
</a>
<a style="color:inherit;" xlink:href="textedit:///Users/jyang/Documents/GitHub/wygioatynlib/notation/tutti_ps44_c.ly:242:18:19">
<path transform="translate(47.9622, 96.3096) scale(0.0040, -0.0040)" d="M-50 0c0 28 22 50 50 50s50 -22 50 -50s-22 -50 -50 -50s-50 22 -50 50z" fill="currentColor"/>
</a>
<a style="color:inherit;" xlink:href="textedit:///Users/jyang/Documents/GitHub/wygioatynlib/notation/tutti_ps44_c.ly:242:20:21">
<path transform="translate(47.9622, 95.4136) scale(0.0040, -0.0040)" d="M-211 88c-8 2 -14 9 -14 18c0 10 9 19 19 19c2 0 3 -1 4 -1l408 -105c13 0 19 -6 19 -19s-6 -19 -19 -19l-408 -105c-1 0 -2 -1 -4 -1c-10 0 -19 9 -19 19c0 9 6 16 14 18l251 65l140 23l-140 23z" fill="currentColor"/>
</a>
<a style="color:inherit;" xlink:href="textedit:///Users/jyang/Documents/GitHub/wygioatynlib/notation/tutti_ps44_c.ly:284:5:6">
<path transform="translate(47.3041, 115.6350) scale(0.0040, -0.0040)" d="M220 138c56 0 109 -29 109 -91c0 -72 -56 -121 -103 -149c-36 -21 -76 -36 -117 -36c-56 0 -109 29 -109 91c0 72 56 121 103 149c36 21 76 36 117 36z" fill="currentColor"/>
</a>
<a style="color:inherit;" xlink:href="textedit:///Users/jyang/Documents/GitHub/wygioatynlib/notation/tutti_ps44_c.ly:284:8:9">
<path transform="translate(47.9622, 114.6350) scale(0.0040, -0.0040)" d="M-50 0c0 28 22 50 50 50s50 -22 50 -50s-22 -50 -50 -50s-50 22 -50 50z" fill="currentColor"/>
</a>
<a style="color:inherit;" xlink:href="textedit:///Users/jyang/Documents/GitHub/wygioatynlib/notation/tutti_ps44_c.ly:284:10:11">
<path transform="translate(47.9622, 113.7390) scale(0.0040, -0.0040)" d="M-211 88c-8 2 -14 9 -14 18c0 10 9 19 19 19c2 0 3 -1 4 -1l408 -105c13 0 19 -6 19 -19s-6 -19 -19 -19l-408 -105c-1 0 -2 -1 -4 -1c-10 0 -19 9 -19 19c0 9 6 16 14 18l251 65l140 23l-140 23z" fill="currentColor"/>
</a>
<a style="color:inherit;" xlink:href="textedit:///Users/jyang/Documents/GitHub/wygioatynlib/notation/tutti_ps44_c.ly:348:19:20">
<path transform="translate(47.3041, 135.0104) scale(0.0040, -0.0040)" d="M220 138c56 0 109 -29 109 -91c0 -72 -56 -121 -103 -149c-36 -21 -76 -36 -117 -36c-56 0 -109 29 -109 91c0 72 56 121 103 149c36 21 76 36 117 36z" fill="currentColor"/>
</a>
<a style="color:inherit;" xlink:href="textedit:///Users/jyang/Documents/GitHub/wygioatynlib/notation/tutti_ps44_c.ly:348:22:23">
<path transform="translate(47.9622, 133.5104) scale(0.0040, -0.0040)" d="M-50 0c0 28 22 50 50 50s50 -22 50 -50s-22 -50 -50 -50s-50 22 -50 50z" fill="currentColor"/>
</a>
<a style="color:inherit;" xlink:href="textedit:///Users/jyang/Documents/GitHub/wygioatynlib/notation/tutti_ps44_c.ly:348:24:25">
<path transform="translate(47.9622, 132.2604) scale(0.0040, -0.0040)" d="M-211 88c-8 2 -14 9 -14 18c0 10 9 19 19 19c2 0 3 -1 4 -1l408 -105c13 0 19 -6 19 -19s-6 -19 -19 -19l-408 -105c-1 0 -2 -1 -4 -1c-10 0 -19 9 -19 19c0 9 6 16 14 18l251 65l140 23l-140 23z" fill="currentColor"/>
</a>
<rect transform="translate(47.3691, 9.8826)" x="-0.0650" y="-0.3122" width="0.1300" height="3.3122" ry="0.0400" fill="currentColor"/>
<rect transform="translate(47.3691, 27.7580)" x="-0.0650" y="0.1878" width="0.1300" height="3.1455" ry="0.0400" fill="currentColor"/>
<rect transform="translate(28.7629, 117.1350)" x="-0.0650" y="-1.3122" width="0.1300" height="4.0622" ry="0.0400" fill="currentColor"/>
<path transform="translate(28.8279, 119.8450) scale(0.0040, -0.0040)" d="M0 205c90 50 208 128 208 228c0 23 -3 44 -8 66c-78 -88 -200 -157 -200 -279v-15zM227 864c0 26 -26 75 13 75c27 0 29 -51 29 -75c0 -38 -11 -70 -30 -100c16 -38 25 -79 25 -120c0 -38 -11 -70 -30 -100c11 -36 17 -73 17 -111c0 -179 -251 -254 -251 -433h-16v750h16
v-105c98 44 227 116 227 219zM0 425c96 45 222 117 222 219c0 27 -5 54 -14 79c-79 -90 -208 -158 -208 -283v-15z" fill="currentColor"/>
<rect transform="translate(28.7629, 135.0104)" x="-0.0650" y="0.1878" width="0.1300" height="3.1455" ry="0.0400" fill="currentColor"/>
<path transform="translate(27.5791, 135.0104) scale(0.0040, -0.0040)" d="M143 41c-1 33 -22 63 -53 63c-29 0 -43 -34 -43 -67c0 -59 48 -101 93 -139c3 22 4 44 4 66v11zM185 -138c0 -14 -10 -25 -23 -25c-21 0 -30 25 -45 38c-61 52 -147 89 -147 169c0 54 37 102 89 102c33 0 66 -13 91 -34l-7 345c8 5 18 8 27 8s19 -3 27 -8z" fill="currentColor"/>
<a style="color:inherit;" xlink:href="textedit:///Users/jyang/Documents/GitHub/wygioatynlib/notation/tutti_ps44_c.ly:283:15:16">
<path transform="translate(32.6981, 117.1350) scale(0.0040, -0.0040)" d="M54 -500l86 327c-35 -13 -71 -23 -108 -23c-46 0 -87 33 -87 79c0 40 32 72 72 72c25 0 49 -15 57 -39c10 -28 5 -59 34 -59c17 0 54 54 59 71l39 149c-34 -12 -70 -23 -106 -23c-46 0 -87 33 -87 79c0 40 33 72 73 72c25 0 48 -15 56 -39c10 -28 5 -59 34 -59
c16 0 52 51 56 68l40 151c-33 -12 -68 -22 -103 -22c-46 0 -87 33 -87 79c0 40 32 72 72 72c25 0 49 -15 57 -39c10 -28 5 -59 34 -59c15 0 46 49 52 63c6 12 23 12 28 0l-216 -920c-8 -7 -18 -10 -28 -10s-19 3 -27 10z" fill="currentColor"/>
</a>
<a style="color:inherit;" xlink:href="textedit:///Users/jyang/Documents/GitHub/wygioatynlib/notation/tutti_ps44_c.ly:283:19:20">
<path transform="translate(36.6821, 117.1350) scale(0.0040, -0.0040)" d="M72 -250l117 326c-34 -12 -69 -22 -105 -22c-46 0 -87 33 -87 79c0 40 33 72 73 72c25 0 48 -15 56 -39c10 -28 6 -59 35 -59c16 0 54 48 61 63c6 12 23 12 28 0l-123 -420c-8 -7 -17 -10 -27 -10s-20 3 -28 10z" fill="currentColor"/>
</a>
<path transform="translate(38.1321, 116.6350) scale(0.0040, -0.0040)" d="M0 0c0 31 25 56 56 56s56 -25 56 -56s-25 -56 -56 -56s-56 25 -56 56z" fill="currentColor"/>
<a style="color:inherit;" xlink:href="textedit:///Users/jyang/Documents/GitHub/wygioatynlib/notation/tutti_ps44_c.ly:16:21:22">
<path transform="translate(47.3041, 9.3826) scale(0.0040, -0.0040)" d="M220 138c56 0 109 -29 109 -91c0 -72 -56 -121 -103 -149c-36 -21 -76 -36 -117 -36c-56 0 -109 29 -109 91c0 72 56 121 103 149c36 21 76 36 117 36z" fill="currentColor"/>
</a>
<a style="color:inherit;" xlink:href="textedit:///Users/jyang/Documents/GitHub/wygioatynlib/notation/tutti_ps44_c.ly:16:26:27">
<path transform="translate(47.9622, 8.3826) scale(0.0040, -0.0040)" d="M-50 0c0 28 22 50 50 50s50 -22 50 -50s-22 -50 -50 -50s-50 22 -50 50z" fill="currentColor"/>
</a>
<a style="color:inherit;" xlink:href="textedit:///Users/jyang/Documents/GitHub/wygioatynlib/notation/tutti_ps44_c.ly:16:28:29">
<path transform="translate(47.9622, 7.1326) scale(0.0040, -0.0040)" d="M-211 88c-8 2 -14 9 -14 18c0 10 9 19 19 19c2 0 3 -1 4 -1l408 -105c13 0 19 -6 19 -19s-6 -19 -19 -19l-408 -105c-1 0 -2 -1 -4 -1c-10 0 -19 9 -19 19c0 9 6 16 14 18l251 65l140 23l-140 23z" fill="currentColor"/>
</a>
<a style="color:inherit;" xlink:href="textedit:///Users/jyang/Documents/GitHub/wygioatynlib/notation/tutti_ps44_c.ly:78:20:21">
<path transform="translate(47.3041, 27.7580) scale(0.0040, -0.0040)" d="M220 138c56 0 109 -29 109 -91c0 -72 -56 -121 -103 -149c-36 -21 -76 -36 -117 -36c-56 0 -109 29 -109 91c0 72 56 121 103 149c36 21 76 36 117 36z" fill="currentColor"/>
</a>
<a style="color:inherit;" xlink:href="textedit:///Users/jyang/Documents/GitHub/wygioatynlib/notation/tutti_ps44_c.ly:119:46:47">
<path transform="translate(95.6729, 47.1334) scale(0.0040, -0.0040)" d="M-50 0c0 28 22 50 50 50s50 -22 50 -50s-22 -50 -50 -50s-50 22 -50 50z" fill="currentColor"/>
</a>
<a style="color:inherit;" xlink:href="textedit:///Users/jyang/Documents/GitHub/wygioatynlib/notation/tutti_ps44_c.ly:119:48:49">
<path transform="translate(95.6729, 48.3834) scale(0.0040, -0.0040)" d="M-211 88c-8 2 -14 9 -14 18c0 10 9 19 19 19c2 0 3 -1 4 -1l408 -105c13 0 19 -6 19 -19s-6 -19 -19 -19l-408 -105c-1 0 -2 -1 -4 -1c-10 0 -19 9 -19 19c0 9 6 16 14 18l251 65l140 23l-140 23z" fill="currentColor"/>
</a>
<a style="color:inherit;" xlink:href="textedit:///Users/jyang/Documents/GitHub/wygioatynlib/notation/tutti_ps44_c.ly:160:60:61">
<path transform="translate(95.0148, 58.0088) scale(0.0040, -0.0040)" d="M220 138c56 0 109 -29 109 -91c0 -72 -56 -121 -103 -149c-36 -21 -76 -36 -117 -36c-56 0 -109 29 -109 91c0 72 56 121 103 149c36 21 76 36 117 36z" fill="currentColor"/>
</a>
<a style="color:inherit;" xlink:href="textedit:///Users/jyang/Documents/GitHub/wygioatynlib/notation/tutti_ps44_c.ly:160:67:68">
<path transform="translate(95.6729, 57.0588) scale(0.0040, -0.0040)" d="M-50 0c0 28 22 50 50 50s50 -22 50 -50s-22 -50 -50 -50s-50 22 -50 50z" fill="currentColor"/>
</a>
<a style="color:inherit;" xlink:href="textedit:///Users/jyang/Documents/GitHub/wygioatynlib/notation/tutti_ps44_c.ly:160:69:70">
<path transform="translate(95.6729, 56.1628) scale(0.0040, -0.0040)" d="M-211 88c-8 2 -14 9 -14 18c0 10 9 19 19 19c2 0 3 -1 4 -1l408 -105c13 0 19 -6 19 -19s-6 -19 -19 -19l-408 -105c-1 0 -2 -1 -4 -1c-10 0 -19 9 -19 19c0 9 6 16 14 18l251 65l140 23l-140 23z" fill="currentColor"/>
</a>
<a style="color:inherit;" xlink:href="textedit:///Users/jyang/Documents/GitHub/wygioatynlib/notation/tutti_ps44_c.ly:201:44:45">
<path transform="translate(95.0148, 80.8842) scale(0.0040, -0.0040)" d="M220 138c56 0 109 -29 109 -91c0 -72 -56 -121 -103 -149c-36 -21 -76 -36 -117 -36c-56 0 -109 29 -109 91c0 72 56 121 103 149c36 21 76 36 117 36z" fill="currentColor"/>
</a>
<a style="color:inherit;" xlink:href="textedit:///Users/jyang/Documents/GitHub/wygioatynlib/notation/tutti_ps44_c.ly:201:47:48">
<path transform="translate(95.6729, 79.8842) scale(0.0040, -0.0040)" d="M-50 0c0 28 22 50 50 50s50 -22 50 -50s-22 -50 -50 -50s-50 22 -50 50z" fill="currentColor"/>
</a>
<a style="color:inherit;" xlink:href="textedit:///Users/jyang/Documents/GitHub/wygioatynlib/notation/tutti_ps44_c.ly:201:49:50">
<path transform="translate(95.6729, 78.6342) scale(0.0040, -0.0040)" d="M-211 88c-8 2 -14 9 -14 18c0 10 9 19 19 19c2 0 3 -1 4 -1l408 -105c13 0 19 -6 19 -19s-6 -19 -19 -19l-408 -105c-1 0 -2 -1 -4 -1c-10 0 -19 9 -19 19c0 9 6 16 14 18l251 65l140 23l-140 23z" fill="currentColor"/>
</a>
<a style="color:inherit;" xlink:href="textedit:///Users/jyang/Documents/GitHub/wygioatynlib/notation/tutti_ps44_c.ly:242:40:41">
<path transform="translate(95.0148, 97.2596) scale(0.0040, -0.0040)" d="M220 138c56 0 109 -29 109 -91c0 -72 -56 -121 -103 -149c-36 -21 -76 -36 -117 -36c-56 0 -109 29 -109 91c0 72 56 121 103 149c36 21 76 36 117 36z" fill="currentColor"/>
</a>
<a style="color:inherit;" xlink:href="textedit:///Users/jyang/Documents/GitHub/wygioatynlib/notation/tutti_ps44_c.ly:242:42:43">
<path transform="translate(95.6729, 96.3096) scale(0.0040, -0.0040)" d="M-50 0c0 28 22 50 50 50s50 -22 50 -50s-22 -50 -50 -50s-50 22 -50 50z" fill="currentColor"/>
</a>
<a style="color:inherit;" xlink:href="textedit:///Users/jyang/Documents/GitHub/wygioatynlib/notation/tutti_ps44_c.ly:242:44:45">
<path transform="translate(95.6729, 95.4136) scale(0.0040, -0.0040)" d="M-211 88c-8 2 -14 9 -14 18c0 10 9 19 19 19c2 0 3 -1 4 -1l408 -105c13 0 19 -6 19 -19s-6 -19 -19 -19l-408 -105c-1 0 -2 -1 -4 -1c-10 0 -19 9 -19 19c0 9 6 16 14 18l251 65l140 23l-140 23z" fill="currentColor"/>
</a>
<a style="color:inherit;" xlink:href="textedit:///Users/jyang/Documents/GitHub/wygioatynlib/notation/tutti_ps44_c.ly:284:53:54">
<path transform="translate(95.0148, 115.6350) scale(0.0040, -0.0040)" d="M220 138c56 0 109 -29 109 -91c0 -72 -56 -121 -103 -149c-36 -21 -76 -36 -117 -36c-56 0 -109 29 -109 91c0 72 56 121 103 149c36 21 76 36 117 36z" fill="currentColor"/>
</a>
<a style="color:inherit;" xlink:href="textedit:///Users/jyang/Documents/GitHub/wygioatynlib/notation/tutti_ps44_c.ly:284:56:57">
<path transform="translate(95.6729, 114.6350) scale(0.0040, -0.0040)" d="M-50 0c0 28 22 50 50 50s50 -22 50 -50s-22 -50 -50 -50s-50 22 -50 50z" fill="currentColor"/>
</a>
<a style="color:inherit;" xlink:href="textedit:///Users/jyang/Documents/GitHub/wygioatynlib/notation/tutti_ps44_c.ly:284:58:59">
<path transform="translate(95.6729, 113.7390) scale(0.0040, -0.0040)" d="M-211 88c-8 2 -14 9 -14 18c0 10 9 19 19 19c2 0 3 -1 4 -1l408 -105c13 0 19 -6 19 -19s-6 -19 -19 -19l-408 -105c-1 0 -2 -1 -4 -1c-10 0 -19 9 -19 19c0 9 6 16 14 18l251 65l140 23l-140 23z" fill="currentColor"/>
</a>
<a style="color:inherit;" xlink:href="textedit:///Users/jyang/Documents/GitHub/wygioatynlib/notation/tutti_ps44_c.ly:348:48:49">
<path transform="translate(95.0148, 135.0104) scale(0.0040, -0.0040)" d="M220 138c56 0 109 -29 109 -91c0 -72 -56 -121 -103 -149c-36 -21 -76 -36 -117 -36c-56 0 -109 29 -109 91c0 72 56 121 103 149c36 21 76 36 117 36z" fill="currentColor"/>
</a>
<a style="color:inherit;" xlink:href="textedit:///Users/jyang/Documents/GitHub/wygioatynlib/notation/tutti_ps44_c.ly:348:52:53">
<path transform="translate(95.6729, 133.5104) scale(0.0040, -0.0040)" d="M-50 0c0 28 22 50 50 50s50 -22 50 -50s-22 -50 -50 -50s-50 22 -50 50z" fill="currentColor"/>
</a>
<a style="color:inherit;" xlink:href="textedit:///Users/jyang/Documents/GitHub/wygioatynlib/notation/tutti_ps44_c.ly:348:54:55">
<path transform="translate(95.6729, 132.2604) scale(0.0040, -0.0040)" d="M-211 88c-8 2 -14 9 -14 18c0 10 9 19 19 19c2 0 3 -1 4 -1l408 -105c13 0 19 -6 19 -19s-6 -19 -19 -19l-408 -105c-1 0 -2 -1 -4 -1c-10 0 -19 9 -19 19c0 9 6 16 14 18l251 65l140 23l-140 23z" fill="currentColor"/>
</a>
<rect transform="translate(95.0798, 9.8826)" x="-0.0650" y="-0.3122" width="0.1300" height="3.3122" ry="0.0400" fill="currentColor"/>
<rect transform="translate(95.0798, 27.7580)" x="-0.0650" y="0.1878" width="0.1300" height="3.1455" ry="0.0400" fill="currentColor"/>
<a style="color:inherit;" xlink:href="textedit:///Users/jyang/Documents/GitHub/wygioatynlib/notation/tutti_ps44_c.ly:119:43:44">
<path transform="translate(95.0148, 46.1334) scale(0.0040, -0.0040)" d="M220 138c56 0 109 -29 109 -91c0 -72 -56 -121 -103 -149c-36 -21 -76 -36 -117 -36c-56 0 -109 29 -109 91c0 72 56 121 103 149c36 21 76 36 117 36z" fill="currentColor"/>
</a>
<a style="color:inherit;" xlink:href="textedit:///Users/jyang/Documents/GitHub/wygioatynlib/notation/tutti_ps44_c.ly:284:65:66">
<path transform="translate(102.9990, 117.1350) scale(0.0040, -0.0040)" d="M72 -250l117 326c-34 -12 -69 -22 -105 -22c-46 0 -87 33 -87 79c0 40 33 72 73 72c25 0 48 -15 56 -39c10 -28 6 -59 35 -59c16 0 54 48 61 63c6 12 23 12 28 0l-123 -420c-8 -7 -17 -10 -27 -10s-20 3 -28 10z" fill="currentColor"/>
</a>
<path transform="translate(104.4490, 116.6350) scale(0.0040, -0.0040)" d="M0 0c0 31 25 56 56 56s56 -25 56 -56s-25 -56 -56 -56s-56 25 -56 56z" fill="currentColor"/>
<path transform="translate(20.1479, 81.3842) scale(0.0040, -0.0040)" d="M318 0c0 -33 7 -73 45 -73c29 0 57 31 88 31c123 0 229 -89 229 -208c0 -169 -93 -250 -265 -250c-83 0 -152 61 -152 142c0 42 34 77 76 77s76 -35 76 -77c0 -39 -49 -37 -49 -76c0 -23 24 -38 49 -38c116 0 140 90 140 222c0 106 -12 180 -104 180
c-72 0 -119 -71 -119 -149c0 -9 -7 -14 -14 -14s-13 5 -13 14c0 76 -31 147 -84 200v-471c0 -6 -4 -10 -10 -10h-21c-6 0 -10 4 -10 10v980c0 6 4 10 10 10h21c6 0 10 -4 10 -10v-471c53 53 84 124 84 200c0 9 6 14 13 14s14 -5 14 -14c0 -78 47 -149 119 -149
c92 0 104 74 104 180c0 132 -24 222 -140 222c-25 0 -49 -15 -49 -38c0 -39 49 -37 49 -76c0 -42 -34 -77 -76 -77s-76 35 -76 77c0 81 69 142 152 142c172 0 265 -81 265 -250c0 -119 -106 -208 -229 -208c-31 0 -59 31 -88 31c-38 0 -45 -40 -45 -73zM129 -500h-119
c-6 0 -10 4 -10 10v980c0 6 4 10 10 10h119c6 0 10 -4 10 -10v-980c0 -6 -4 -10 -10 -10z" fill="currentColor"/>
<rect transform="translate(80.5276, 135.0104)" x="-0.0650" y="0.1878" width="0.1300" height="2.8122" ry="0.0400" fill="currentColor"/>
<path transform="translate(24.3479, 81.3842) scale(0.0040, -0.0040)" d="M359 27c-49 0 -75 42 -75 75c0 38 27 77 72 77c4 0 9 0 14 -1c-28 37 -72 59 -120 59c-106 0 -113 -73 -113 -186v-51v-51c0 -113 7 -187 113 -187c80 0 139 70 158 151c2 7 7 10 12 10c6 0 13 -4 13 -12c0 -94 -105 -174 -183 -174c-68 0 -137 21 -184 70
c-49 51 -66 122 -66 193s17 142 66 193c47 49 116 69 184 69c87 0 160 -64 175 -150c1 -5 1 -9 1 -13c0 -40 -30 -72 -67 -72z" fill="currentColor"/>
<path transform="translate(20.1479, 98.2596) scale(0.0040, -0.0040)" d="M557 -125c0 28 23 51 51 51s51 -23 51 -51s-23 -51 -51 -51s-51 23 -51 51zM557 125c0 28 23 51 51 51s51 -23 51 -51s-23 -51 -51 -51s-51 23 -51 51zM232 263c172 0 293 -88 293 -251c0 -263 -263 -414 -516 -521c-3 -3 -6 -4 -9 -4c-7 0 -13 6 -13 13c0 3 1 6 4 9
c202 118 412 265 412 493c0 120 -63 235 -171 235c-74 0 -129 -54 -154 -126c11 5 22 8 34 8c55 0 100 -45 100 -100c0 -58 -44 -106 -100 -106c-60 0 -112 47 -112 106c0 133 102 244 232 244z" fill="currentColor"/>
<path transform="translate(24.3479, 99.2596) scale(0.0040, -0.0040)" d="M359 27c-49 0 -75 42 -75 75c0 38 27 77 72 77c4 0 9 0 14 -1c-28 37 -72 59 -120 59c-106 0 -113 -73 -113 -186v-51v-51c0 -113 7 -187 113 -187c80 0 139 70 158 151c2 7 7 10 12 10c6 0 13 -4 13 -12c0 -94 -105 -174 -183 -174c-68 0 -137 21 -184 70
c-49 51 -66 122 -66 193s17 142 66 193c47 49 116 69 184 69c87 0 160 -64 175 -150c1 -5 1 -9 1 -13c0 -40 -30 -72 -67 -72z" fill="currentColor"/>
<path transform="translate(20.1479, 116.1350) scale(0.0040, -0.0040)" d="M557 -125c0 28 23 51 51 51s51 -23 51 -51s-23 -51 -51 -51s-51 23 -51 51zM557 125c0 28 23 51 51 51s51 -23 51 -51s-23 -51 -51 -51s-51 23 -51 51zM232 263c172 0 293 -88 293 -251c0 -263 -263 -414 -516 -521c-3 -3 -6 -4 -9 -4c-7 0 -13 6 -13 13c0 3 1 6 4 9
c202 118 412 265 412 493c0 120 -63 235 -171 235c-74 0 -129 -54 -154 -126c11 5 22 8 34 8c55 0 100 -45 100 -100c0 -58 -44 -106 -100 -106c-60 0 -112 47 -112 106c0 133 102 244 232 244z" fill="currentColor"/>
<path transform="translate(24.3479, 117.1350) scale(0.0040, -0.0040)" d="M359 27c-49 0 -75 42 -75 75c0 38 27 77 72 77c4 0 9 0 14 -1c-28 37 -72 59 -120 59c-106 0 -113 -73 -113 -186v-51v-51c0 -113 7 -187 113 -187c80 0 139 70 158 151c2 7 7 10 12 10c6 0 13 -4 13 -12c0 -94 -105 -174 -183 -174c-68 0 -137 21 -184 70
c-49 51 -66 122 -66 193s17 142 66 193c47 49 116 69 184 69c87 0 160 -64 175 -150c1 -5 1 -9 1 -13c0 -40 -30 -72 -67 -72z" fill="currentColor"/>
<rect transform="translate(95.0798, 99.2596)" x="-0.0650" y="-1.8122" width="0.1300" height="3.3122" ry="0.0400" fill="currentColor"/>
<rect transform="translate(19.2879, 72.4465)" x="0.0000" y="-64.6139" width="0.1600" height="129.2278" ry="0.0500" fill="currentColor"/>
<text transform="translate(9.4814, 135.8128)" font-family="Century Schoolbook L" font-size="2.2001" text-anchor="start" fill="currentColor">
<tspan>
Cello</tspan>
</text>
<text transform="translate(4.9233, 117.9374)" font-family="Century Schoolbook L" font-size="2.2001" text-anchor="start" fill="currentColor">
<tspan>
Bass Clarinet</tspan>
</text>
<text transform="translate(6.9377, 100.0620)" font-family="Century Schoolbook L" font-size="2.2001" text-anchor="start" fill="currentColor">
<tspan>
Trombone</tspan>
</text>
<text transform="translate(9.4131, 82.1866)" font-family="Century Schoolbook L" font-size="2.2001" text-anchor="start" fill="currentColor">
<tspan>
Viola</tspan>
</text>
<text transform="translate(9.8228, 64.3112)" font-family="Century Schoolbook L" font-size="2.2001" text-anchor="start" fill="currentColor">
<tspan>
Gloc</tspan>
</text>
<text transform="translate(9.1570, 46.4187)" font-family="Century Schoolbook L" font-size="2.2001" text-anchor="start" fill="currentColor">
<tspan>
Piano</tspan>
</text>
<text transform="translate(9.0205, 28.5604)" font-family="Century Schoolbook L" font-size="2.2001" text-anchor="start" fill="currentColor">
<tspan>
Violin</tspan>
</text>
<text transform="translate(9.4985, 10.6850)" font-family="Century Schoolbook L" font-size="2.2001" text-anchor="start" fill="currentColor">
<tspan>
Oboe</tspan>
</text>
<rect transform="translate(96.2659, 45.6334)" x="-0.0650" y="-3.0000" width="0.1300" height="3.3122" ry="0.0400" fill="currentColor"/>
<rect transform="translate(95.0798, 63.5088)" x="-0.0650" y="-5.3122" width="0.1300" height="5.3122" ry="0.0400" fill="currentColor"/>
<rect transform="translate(80.5276, 117.1350)" x="-0.0650" y="-1.3122" width="0.1300" height="4.0622" ry="0.0400" fill="currentColor"/>
<path transform="translate(20.1479, 10.8826) scale(0.0040, -0.0040)" d="M376 262c4 0 9 1 13 1c155 0 256 -128 256 -261c0 -76 -33 -154 -107 -210c-22 -17 -47 -28 -73 -36c3 -35 5 -70 5 -105c0 -19 -1 -39 -2 -58c-7 -120 -90 -228 -208 -228c-108 0 -195 88 -195 197c0 58 53 103 112 103c54 0 95 -47 95 -103c0 -52 -43 -95 -95 -95
c-11 0 -21 2 -31 6c26 -39 68 -65 117 -65c96 0 157 92 163 191c1 18 2 37 2 55c0 31 -1 61 -4 92c-29 -5 -58 -8 -89 -8c-188 0 -333 172 -333 374c0 177 131 306 248 441c-19 62 -37 125 -45 190c-6 52 -7 104 -7 156c0 115 55 224 149 292c3 2 7 3 10 3c4 0 7 0 10 -3
c71 -84 133 -245 133 -358c0 -143 -86 -255 -180 -364c21 -68 39 -138 56 -207zM461 -203c68 24 113 95 113 164c0 90 -66 179 -173 190c24 -116 46 -231 60 -354zM74 28c0 -135 129 -247 264 -247c28 0 55 2 82 6c-14 127 -37 245 -63 364c-79 -8 -124 -61 -124 -119
c0 -44 25 -91 81 -123c5 -5 7 -10 7 -15c0 -11 -10 -22 -22 -22c-3 0 -6 1 -9 2c-80 43 -117 115 -117 185c0 88 58 174 160 197c-14 58 -29 117 -46 175c-107 -121 -213 -243 -213 -403zM408 1045c-99 -48 -162 -149 -162 -259c0 -74 18 -133 36 -194
c80 97 146 198 146 324c0 55 -4 79 -20 129z" fill="currentColor"/>
<rect transform="translate(95.0798, 81.3842)" x="-0.0650" y="-0.3122" width="0.1300" height="3.3122" ry="0.0400" fill="currentColor"/>
<path transform="translate(24.3479, 11.8971) scale(0.0040, -0.0040)" d="M204 307c22 14 44 29 60 50c11 15 19 33 27 50c2 4 5 6 9 6c6 0 13 -5 13 -14v-245h72c10 0 15 -7 15 -14s-5 -15 -15 -15h-72v-8c0 -48 27 -94 72 -94c8 0 12 -5 12 -11s-4 -12 -12 -12c-44 0 -87 13 -131 13s-87 -13 -131 -13c-8 0 -12 6 -12 12s4 11 12 11
c45 0 73 46 73 94v8h-167c-23 0 -31 14 -31 23c0 3 1 5 2 6c80 93 138 207 138 330c0 9 6 16 13 16h3c23 -7 47 -13 71 -13s48 6 71 13c2 1 3 1 5 1c11 0 18 -10 12 -17l-284 -330h167v131c0 8 1 17 8 22z" fill="currentColor"/>
<path transform="translate(24.3479, 9.8826) scale(0.0040, -0.0040)" d="M204 307c22 14 44 29 60 50c11 15 19 33 27 50c2 4 5 6 9 6c6 0 13 -5 13 -14v-245h72c10 0 15 -7 15 -14s-5 -15 -15 -15h-72v-8c0 -48 27 -94 72 -94c8 0 12 -5 12 -11s-4 -12 -12 -12c-44 0 -87 13 -131 13s-87 -13 -131 -13c-8 0 -12 6 -12 12s4 11 12 11
c45 0 73 46 73 94v8h-167c-23 0 -31 14 -31 23c0 3 1 5 2 6c80 93 138 207 138 330c0 9 6 16 13 16h3c23 -7 47 -13 71 -13s48 6 71 13c2 1 3 1 5 1c11 0 18 -10 12 -17l-284 -330h167v131c0 8 1 17 8 22z" fill="currentColor"/>
<path transform="translate(20.1479, 28.7580) scale(0.0040, -0.0040)" d="M376 262c4 0 9 1 13 1c155 0 256 -128 256 -261c0 -76 -33 -154 -107 -210c-22 -17 -47 -28 -73 -36c3 -35 5 -70 5 -105c0 -19 -1 -39 -2 -58c-7 -120 -90 -228 -208 -228c-108 0 -195 88 -195 197c0 58 53 103 112 103c54 0 95 -47 95 -103c0 -52 -43 -95 -95 -95
c-11 0 -21 2 -31 6c26 -39 68 -65 117 -65c96 0 157 92 163 191c1 18 2 37 2 55c0 31 -1 61 -4 92c-29 -5 -58 -8 -89 -8c-188 0 -333 172 -333 374c0 177 131 306 248 441c-19 62 -37 125 -45 190c-6 52 -7 104 -7 156c0 115 55 224 149 292c3 2 7 3 10 3c4 0 7 0 10 -3
c71 -84 133 -245 133 -358c0 -143 -86 -255 -180 -364c21 -68 39 -138 56 -207zM461 -203c68 24 113 95 113 164c0 90 -66 179 -173 190c24 -116 46 -231 60 -354zM74 28c0 -135 129 -247 264 -247c28 0 55 2 82 6c-14 127 -37 245 -63 364c-79 -8 -124 -61 -124 -119
c0 -44 25 -91 81 -123c5 -5 7 -10 7 -15c0 -11 -10 -22 -22 -22c-3 0 -6 1 -9 2c-80 43 -117 115 -117 185c0 88 58 174 160 197c-14 58 -29 117 -46 175c-107 -121 -213 -243 -213 -403zM408 1045c-99 -48 -162 -149 -162 -259c0 -74 18 -133 36 -194
c80 97 146 198 146 324c0 55 -4 79 -20 129z" fill="currentColor"/>
<path transform="translate(80.5926, 119.8450) scale(0.0040, -0.0040)" d="M0 205c90 50 208 128 208 228c0 23 -3 44 -8 66c-78 -88 -200 -157 -200 -279v-15zM227 864c0 26 -26 75 13 75c27 0 29 -51 29 -75c0 -38 -11 -70 -30 -100c16 -38 25 -79 25 -120c0 -38 -11 -70 -30 -100c11 -36 17 -73 17 -111c0 -179 -251 -254 -251 -433h-16v750h16
v-105c98 44 227 116 227 219zM0 425c96 45 222 117 222 219c0 27 -5 54 -14 79c-79 -90 -208 -158 -208 -283v-15z" fill="currentColor"/>
<path transform="translate(24.3479, 27.7580) scale(0.0040, -0.0040)" d="M359 27c-49 0 -75 42 -75 75c0 38 27 77 72 77c4 0 9 0 14 -1c-28 37 -72 59 -120 59c-106 0 -113 -73 -113 -186v-51v-51c0 -113 7 -187 113 -187c80 0 139 70 158 151c2 7 7 10 12 10c6 0 13 -4 13 -12c0 -94 -105 -174 -183 -174c-68 0 -137 21 -184 70
c-49 51 -66 122 -66 193s17 142 66 193c47 49 116 69 184 69c87 0 160 -64 175 -150c1 -5 1 -9 1 -13c0 -40 -30 -72 -67 -72z" fill="currentColor"/>
<path transform="translate(20.1479, 46.6334) scale(0.0040, -0.0040)" d="M376 262c4 0 9 1 13 1c155 0 256 -128 256 -261c0 -76 -33 -154 -107 -210c-22 -17 -47 -28 -73 -36c3 -35 5 -70 5 -105c0 -19 -1 -39 -2 -58c-7 -120 -90 -228 -208 -228c-108 0 -195 88 -195 197c0 58 53 103 112 103c54 0 95 -47 95 -103c0 -52 -43 -95 -95 -95
c-11 0 -21 2 -31 6c26 -39 68 -65 117 -65c96 0 157 92 163 191c1 18 2 37 2 55c0 31 -1 61 -4 92c-29 -5 -58 -8 -89 -8c-188 0 -333 172 -333 374c0 177 131 306 248 441c-19 62 -37 125 -45 190c-6 52 -7 104 -7 156c0 115 55 224 149 292c3 2 7 3 10 3c4 0 7 0 10 -3
c71 -84 133 -245 133 -358c0 -143 -86 -255 -180 -364c21 -68 39 -138 56 -207zM461 -203c68 24 113 95 113 164c0 90 -66 179 -173 190c24 -116 46 -231 60 -354zM74 28c0 -135 129 -247 264 -247c28 0 55 2 82 6c-14 127 -37 245 -63 364c-79 -8 -124 -61 -124 -119
c0 -44 25 -91 81 -123c5 -5 7 -10 7 -15c0 -11 -10 -22 -22 -22c-3 0 -6 1 -9 2c-80 43 -117 115 -117 185c0 88 58 174 160 197c-14 58 -29 117 -46 175c-107 -121 -213 -243 -213 -403zM408 1045c-99 -48 -162 -149 -162 -259c0 -74 18 -133 36 -194
c80 97 146 198 146 324c0 55 -4 79 -20 129z" fill="currentColor"/>
<path transform="translate(24.3479, 45.6334) scale(0.0040, -0.0040)" d="M359 27c-49 0 -75 42 -75 75c0 38 27 77 72 77c4 0 9 0 14 -1c-28 37 -72 59 -120 59c-106 0 -113 -73 -113 -186v-51v-51c0 -113 7 -187 113 -187c80 0 139 70 158 151c2 7 7 10 12 10c6 0 13 -4 13 -12c0 -94 -105 -174 -183 -174c-68 0 -137 21 -184 70
c-49 51 -66 122 -66 193s17 142 66 193c47 49 116 69 184 69c87 0 160 -64 175 -150c1 -5 1 -9 1 -13c0 -40 -30 -72 -67 -72z" fill="currentColor"/>
<path transform="translate(20.1479, 64.5088) scale(0.0040, -0.0040)" d="M376 262c4 0 9 1 13 1c155 0 256 -128 256 -261c0 -76 -33 -154 -107 -210c-22 -17 -47 -28 -73 -36c3 -35 5 -70 5 -105c0 -19 -1 -39 -2 -58c-7 -120 -90 -228 -208 -228c-108 0 -195 88 -195 197c0 58 53 103 112 103c54 0 95 -47 95 -103c0 -52 -43 -95 -95 -95
c-11 0 -21 2 -31 6c26 -39 68 -65 117 -65c96 0 157 92 163 191c1 18 2 37 2 55c0 31 -1 61 -4 92c-29 -5 -58 -8 -89 -8c-188 0 -333 172 -333 374c0 177 131 306 248 441c-19 62 -37 125 -45 190c-6 52 -7 104 -7 156c0 115 55 224 149 292c3 2 7 3 10 3c4 0 7 0 10 -3
c71 -84 133 -245 133 -358c0 -143 -86 -255 -180 -364c21 -68 39 -138 56 -207zM461 -203c68 24 113 95 113 164c0 90 -66 179 -173 190c24 -116 46 -231 60 -354zM74 28c0 -135 129 -247 264 -247c28 0 55 2 82 6c-14 127 -37 245 -63 364c-79 -8 -124 -61 -124 -119
c0 -44 25 -91 81 -123c5 -5 7 -10 7 -15c0 -11 -10 -22 -22 -22c-3 0 -6 1 -9 2c-80 43 -117 115 -117 185c0 88 58 174 160 197c-14 58 -29 117 -46 175c-107 -121 -213 -243 -213 -403zM408 1045c-99 -48 -162 -149 -162 -259c0 -74 18 -133 36 -194
c80 97 146 198 146 324c0 55 -4 79 -20 129z" fill="currentColor"/>
<path transform="translate(24.3479, 63.5088) scale(0.0040, -0.0040)" d="M359 27c-49 0 -75 42 -75 75c0 38 27 77 72 77c4 0 9 0 14 -1c-28 37 -72 59 -120 59c-106 0 -113 -73 -113 -186v-51v-51c0 -113 7 -187 113 -187c80 0 139 70 158 151c2 7 7 10 12 10c6 0 13 -4 13 -12c0 -94 -105 -174 -183 -174c-68 0 -137 21 -184 70
c-49 51 -66 122 -66 193s17 142 66 193c47 49 116 69 184 69c87 0 160 -64 175 -150c1 -5 1 -9 1 -13c0 -40 -30 -72 -67 -72z" fill="currentColor"/>
<a style="color:inherit;" xlink:href="textedit:///Users/jyang/Documents/GitHub/wygioatynlib/notation/tutti_ps44_c.ly:284:34:35">
<path transform="translate(73.8946, 117.1350) scale(0.0040, -0.0040)" d="M66 -500l101 327c-34 -12 -70 -23 -106 -23c-46 0 -87 33 -87 79c0 40 32 72 72 72c25 0 49 -15 57 -39c10 -28 5 -59 34 -59c16 0 55 51 60 68l46 151c-34 -12 -68 -22 -104 -22c-46 0 -87 33 -87 79c0 40 33 72 73 72c25 0 48 -15 56 -39c10 -28 5 -59 34 -59
c15 0 50 49 57 63c6 12 23 12 28 0l-179 -670c-8 -7 -17 -10 -27 -10s-20 3 -28 10z" fill="currentColor"/>
</a>
<a style="color:inherit;" xlink:href="textedit:///Users/jyang/Documents/GitHub/wygioatynlib/notation/tutti_ps44_c.ly:16:45:46">
<path transform="translate(80.4626, 9.3826) scale(0.0040, -0.0040)" d="M220 138c56 0 109 -29 109 -91c0 -72 -56 -121 -103 -149c-36 -21 -76 -36 -117 -36c-56 0 -109 29 -109 91c0 72 56 121 103 149c36 21 76 36 117 36z" fill="currentColor"/>
</a>
<a style="color:inherit;" xlink:href="textedit:///Users/jyang/Documents/GitHub/wygioatynlib/notation/tutti_ps44_c.ly:16:50:51">
<path transform="translate(81.1207, 8.3826) scale(0.0040, -0.0040)" d="M-50 0c0 28 22 50 50 50s50 -22 50 -50s-22 -50 -50 -50s-50 22 -50 50z" fill="currentColor"/>
</a>
<a style="color:inherit;" xlink:href="textedit:///Users/jyang/Documents/GitHub/wygioatynlib/notation/tutti_ps44_c.ly:78:42:43">
<path transform="translate(80.4626, 27.7580) scale(0.0040, -0.0040)" d="M220 138c56 0 109 -29 109 -91c0 -72 -56 -121 -103 -149c-36 -21 -76 -36 -117 -36c-56 0 -109 29 -109 91c0 72 56 121 103 149c36 21 76 36 117 36z" fill="currentColor"/>
</a>
<a style="color:inherit;" xlink:href="textedit:///Users/jyang/Documents/GitHub/wygioatynlib/notation/tutti_ps44_c.ly:78:46:47">
<path transform="translate(81.1207, 26.2580) scale(0.0040, -0.0040)" d="M-50 0c0 28 22 50 50 50s50 -22 50 -50s-22 -50 -50 -50s-50 22 -50 50z" fill="currentColor"/>
</a>
<a style="color:inherit;" xlink:href="textedit:///Users/jyang/Documents/GitHub/wygioatynlib/notation/tutti_ps44_c.ly:119:35:36">
<path transform="translate(80.4626, 46.1334) scale(0.0040, -0.0040)" d="M220 138c56 0 109 -29 109 -91c0 -72 -56 -121 -103 -149c-36 -21 -76 -36 -117 -36c-56 0 -109 29 -109 91c0 72 56 121 103 149c36 21 76 36 117 36z" fill="currentColor"/>
</a>
<path transform="translate(95.1448, 119.8450) scale(0.0040, -0.0040)" d="M0 205c90 50 208 128 208 228c0 23 -3 44 -8 66c-78 -88 -200 -157 -200 -279v-15zM227 864c0 26 -26 75 13 75c27 0 29 -51 29 -75c0 -38 -11 -70 -30 -100c16 -38 25 -79 25 -120c0 -38 -11 -70 -30 -100c11 -36 17 -73 17 -111c0 -179 -251 -254 -251 -433h-16v750h16
v-105c98 44 227 116 227 219zM0 425c96 45 222 117 222 219c0 27 -5 54 -14 79c-79 -90 -208 -158 -208 -283v-15z" fill="currentColor"/>
<a style="color:inherit;" xlink:href="textedit:///Users/jyang/Documents/GitHub/wygioatynlib/notation/tutti_ps44_c.ly:284:49:50">
<path transform="translate(88.4468, 117.1350) scale(0.0040, -0.0040)" d="M66 -500l101 327c-34 -12 -70 -23 -106 -23c-46 0 -87 33 -87 79c0 40 32 72 72 72c25 0 49 -15 57 -39c10 -28 5 -59 34 -59c16 0 55 51 60 68l46 151c-34 -12 -68 -22 -104 -22c-46 0 -87 33 -87 79c0 40 33 72 73 72c25 0 48 -15 56 -39c10 -28 5 -59 34 -59
c15 0 50 49 57 63c6 12 23 12 28 0l-179 -670c-8 -7 -17 -10 -27 -10s-20 3 -28 10z" fill="currentColor"/>
</a>
<a style="color:inherit;" xlink:href="textedit:///Users/jyang/Documents/GitHub/wygioatynlib/notation/tutti_ps44_c.ly:119:37:38">
<path transform="translate(81.1207, 47.1334) scale(0.0040, -0.0040)" d="M-50 0c0 28 22 50 50 50s50 -22 50 -50s-22 -50 -50 -50s-50 22 -50 50z" fill="currentColor"/>
</a>
<a style="color:inherit;" xlink:href="textedit:///Users/jyang/Documents/GitHub/wygioatynlib/notation/tutti_ps44_c.ly:160:48:49">
<path transform="translate(80.4626, 58.0088) scale(0.0040, -0.0040)" d="M220 138c56 0 109 -29 109 -91c0 -72 -56 -121 -103 -149c-36 -21 -76 -36 -117 -36c-56 0 -109 29 -109 91c0 72 56 121 103 149c36 21 76 36 117 36z" fill="currentColor"/>
</a>
<a style="color:inherit;" xlink:href="textedit:///Users/jyang/Documents/GitHub/wygioatynlib/notation/tutti_ps44_c.ly:160:54:55">
<path transform="translate(81.1207, 57.0588) scale(0.0040, -0.0040)" d="M-50 0c0 28 22 50 50 50s50 -22 50 -50s-22 -50 -50 -50s-50 22 -50 50z" fill="currentColor"/>
</a>
<a style="color:inherit;" xlink:href="textedit:///Users/jyang/Documents/GitHub/wygioatynlib/notation/tutti_ps44_c.ly:201:36:37">
<path transform="translate(80.4626, 80.8842) scale(0.0040, -0.0040)" d="M220 138c56 0 109 -29 109 -91c0 -72 -56 -121 -103 -149c-36 -21 -76 -36 -117 -36c-56 0 -109 29 -109 91c0 72 56 121 103 149c36 21 76 36 117 36z" fill="currentColor"/>
</a>
<a style="color:inherit;" xlink:href="textedit:///Users/jyang/Documents/GitHub/wygioatynlib/notation/tutti_ps44_c.ly:201:38:39">
<path transform="translate(81.1207, 79.8842) scale(0.0040, -0.0040)" d="M-50 0c0 28 22 50 50 50s50 -22 50 -50s-22 -50 -50 -50s-50 22 -50 50z" fill="currentColor"/>
</a>
<a style="color:inherit;" xlink:href="textedit:///Users/jyang/Documents/GitHub/wygioatynlib/notation/tutti_ps44_c.ly:242:33:34">
<path transform="translate(80.4626, 97.2596) scale(0.0040, -0.0040)" d="M220 138c56 0 109 -29 109 -91c0 -72 -56 -121 -103 -149c-36 -21 -76 -36 -117 -36c-56 0 -109 29 -109 91c0 72 56 121 103 149c36 21 76 36 117 36z" fill="currentColor"/>
</a>
<a style="color:inherit;" xlink:href="textedit:///Users/jyang/Documents/GitHub/wygioatynlib/notation/tutti_ps44_c.ly:242:34:35">
<path transform="translate(81.1207, 96.3096) scale(0.0040, -0.0040)" d="M-50 0c0 28 22 50 50 50s50 -22 50 -50s-22 -50 -50 -50s-50 22 -50 50z" fill="currentColor"/>
</a>
<a style="color:inherit;" xlink:href="textedit:///Users/jyang/Documents/GitHub/wygioatynlib/notation/tutti_ps44_c.ly:284:38:39">
<path transform="translate(80.4626, 115.6350) scale(0.0040, -0.0040)" d="M220 138c56 0 109 -29 109 -91c0 -72 -56 -121 -103 -149c-36 -21 -76 -36 -117 -36c-56 0 -109 29 -109 91c0 72 56 121 103 149c36 21 76 36 117 36z" fill="currentColor"/>
</a>
<a style="color:inherit;" xlink:href="textedit:///Users/jyang/Documents/GitHub/wygioatynlib/notation/tutti_ps44_c.ly:284:41:42">
<path transform="translate(81.1207, 114.6350) scale(0.0040, -0.0040)" d="M-50 0c0 28 22 50 50 50s50 -22 50 -50s-22 -50 -50 -50s-50 22 -50 50z" fill="currentColor"/>
</a>
<rect transform="translate(65.9754, 99.2596)" x="-0.0650" y="-1.8122" width="0.1300" height="2.8122" ry="0.0400" fill="currentColor"/>
<rect transform="translate(95.0798, 117.1350)" x="-0.0650" y="-1.3122" width="0.1300" height="4.0622" ry="0.0400" fill="currentColor"/>
<rect transform="translate(65.9754, 117.1350)" x="-0.0650" y="-1.3122" width="0.1300" height="4.0622" ry="0.0400" fill="currentColor"/>
<path transform="translate(66.0404, 119.8450) scale(0.0040, -0.0040)" d="M0 205c90 50 208 128 208 228c0 23 -3 44 -8 66c-78 -88 -200 -157 -200 -279v-15zM227 864c0 26 -26 75 13 75c27 0 29 -51 29 -75c0 -38 -11 -70 -30 -100c16 -38 25 -79 25 -120c0 -38 -11 -70 -30 -100c11 -36 17 -73 17 -111c0 -179 -251 -254 -251 -433h-16v750h16
v-105c98 44 227 116 227 219zM0 425c96 45 222 117 222 219c0 27 -5 54 -14 79c-79 -90 -208 -158 -208 -283v-15z" fill="currentColor"/>
<rect transform="translate(65.9754, 135.0104)" x="-0.0650" y="0.1878" width="0.1300" height="2.8122" ry="0.0400" fill="currentColor"/>
<a style="color:inherit;" xlink:href="textedit:///Users/jyang/Documents/GitHub/wygioatynlib/notation/tutti_ps44_c.ly:284:30:31">
<path transform="translate(69.9106, 117.1350) scale(0.0040, -0.0040)" d="M54 -500l86 327c-35 -13 -71 -23 -108 -23c-46 0 -87 33 -87 79c0 40 32 72 72 72c25 0 49 -15 57 -39c10 -28 5 -59 34 -59c17 0 54 54 59 71l39 149c-34 -12 -70 -23 -106 -23c-46 0 -87 33 -87 79c0 40 33 72 73 72c25 0 48 -15 56 -39c10 -28 5 -59 34 -59
c16 0 52 51 56 68l40 151c-33 -12 -68 -22 -103 -22c-46 0 -87 33 -87 79c0 40 32 72 72 72c25 0 49 -15 57 -39c10 -28 5 -59 34 -59c15 0 46 49 52 63c6 12 23 12 28 0l-216 -920c-8 -7 -18 -10 -28 -10s-19 3 -27 10z" fill="currentColor"/>
</a>
<rect transform="translate(80.5276, 63.5088)" x="-0.0650" y="-5.3122" width="0.1300" height="5.3122" ry="0.0400" fill="currentColor"/>
<rect transform="translate(80.5276, 81.3842)" x="-0.0650" y="-0.3122" width="0.1300" height="3.1222" ry="0.0400" fill="currentColor"/>
<rect transform="translate(80.5276, 99.2596)" x="-0.0650" y="-1.8122" width="0.1300" height="2.8122" ry="0.0400" fill="currentColor"/>
<rect transform="translate(95.0798, 135.0104)" x="-0.0650" y="0.1878" width="0.1300" height="3.1455" ry="0.0400" fill="currentColor"/>
<a style="color:inherit;" xlink:href="textedit:///Users/jyang/Documents/GitHub/wygioatynlib/notation/tutti_ps44_c.ly:16:56:57">
<path transform="translate(95.0148, 9.3826) scale(0.0040, -0.0040)" d="M220 138c56 0 109 -29 109 -91c0 -72 -56 -121 -103 -149c-36 -21 -76 -36 -117 -36c-56 0 -109 29 -109 91c0 72 56 121 103 149c36 21 76 36 117 36z" fill="currentColor"/>
</a>
<a style="color:inherit;" xlink:href="textedit:///Users/jyang/Documents/GitHub/wygioatynlib/notation/tutti_ps44_c.ly:16:62:63">
<path transform="translate(95.6729, 8.3826) scale(0.0040, -0.0040)" d="M-50 0c0 28 22 50 50 50s50 -22 50 -50s-22 -50 -50 -50s-50 22 -50 50z" fill="currentColor"/>
</a>
<a style="color:inherit;" xlink:href="textedit:///Users/jyang/Documents/GitHub/wygioatynlib/notation/tutti_ps44_c.ly:16:64:65">
<path transform="translate(95.6729, 7.1326) scale(0.0040, -0.0040)" d="M-211 88c-8 2 -14 9 -14 18c0 10 9 19 19 19c2 0 3 -1 4 -1l408 -105c13 0 19 -6 19 -19s-6 -19 -19 -19l-408 -105c-1 0 -2 -1 -4 -1c-10 0 -19 9 -19 19c0 9 6 16 14 18l251 65l140 23l-140 23z" fill="currentColor"/>
</a>
<a style="color:inherit;" xlink:href="textedit:///Users/jyang/Documents/GitHub/wygioatynlib/notation/tutti_ps44_c.ly:78:52:53">
<path transform="translate(95.0148, 27.7580) scale(0.0040, -0.0040)" d="M220 138c56 0 109 -29 109 -91c0 -72 -56 -121 -103 -149c-36 -21 -76 -36 -117 -36c-56 0 -109 29 -109 91c0 72 56 121 103 149c36 21 76 36 117 36z" fill="currentColor"/>
</a>
<a style="color:inherit;" xlink:href="textedit:///Users/jyang/Documents/GitHub/wygioatynlib/notation/tutti_ps44_c.ly:78:57:58">
<path transform="translate(95.6729, 26.2580) scale(0.0040, -0.0040)" d="M-50 0c0 28 22 50 50 50s50 -22 50 -50s-22 -50 -50 -50s-50 22 -50 50z" fill="currentColor"/>
</a>
<a style="color:inherit;" xlink:href="textedit:///Users/jyang/Documents/GitHub/wygioatynlib/notation/tutti_ps44_c.ly:78:59:60">
<path transform="translate(95.6729, 25.0080) scale(0.0040, -0.0040)" d="M-211 88c-8 2 -14 9 -14 18c0 10 9 19 19 19c2 0 3 -1 4 -1l408 -105c13 0 19 -6 19 -19s-6 -19 -19 -19l-408 -105c-1 0 -2 -1 -4 -1c-10 0 -19 9 -19 19c0 9 6 16 14 18l251 65l140 23l-140 23z" fill="currentColor"/>
</a>
<a style="color:inherit;" xlink:href="textedit:///Users/jyang/Documents/GitHub/wygioatynlib/notation/tutti_ps44_c.ly:284:61:62">
<path transform="translate(99.0150, 117.1350) scale(0.0040, -0.0040)" d="M54 -500l86 327c-35 -13 -71 -23 -108 -23c-46 0 -87 33 -87 79c0 40 32 72 72 72c25 0 49 -15 57 -39c10 -28 5 -59 34 -59c17 0 54 54 59 71l39 149c-34 -12 -70 -23 -106 -23c-46 0 -87 33 -87 79c0 40 33 72 73 72c25 0 48 -15 56 -39c10 -28 5 -59 34 -59
c16 0 52 51 56 68l40 151c-33 -12 -68 -22 -103 -22c-46 0 -87 33 -87 79c0 40 32 72 72 72c25 0 49 -15 57 -39c10 -28 5 -59 34 -59c15 0 46 49 52 63c6 12 23 12 28 0l-216 -920c-8 -7 -18 -10 -28 -10s-19 3 -27 10z" fill="currentColor"/>
</a>
<a style="color:inherit;" xlink:href="textedit:///Users/jyang/Documents/GitHub/wygioatynlib/notation/tutti_ps44_c.ly:348:39:40">
<path transform="translate(80.4626, 135.0104) scale(0.0040, -0.0040)" d="M220 138c56 0 109 -29 109 -91c0 -72 -56 -121 -103 -149c-36 -21 -76 -36 -117 -36c-56 0 -109 29 -109 91c0 72 56 121 103 149c36 21 76 36 117 36z" fill="currentColor"/>
</a>
<a style="color:inherit;" xlink:href="textedit:///Users/jyang/Documents/GitHub/wygioatynlib/notation/tutti_ps44_c.ly:348:42:43">
<path transform="translate(81.1207, 133.5104) scale(0.0040, -0.0040)" d="M-50 0c0 28 22 50 50 50s50 -22 50 -50s-22 -50 -50 -50s-50 22 -50 50z" fill="currentColor"/>
</a>
<rect transform="translate(80.5276, 9.8826)" x="-0.0650" y="-0.3122" width="0.1300" height="3.1222" ry="0.0400" fill="currentColor"/>
<rect transform="translate(80.5276, 27.7580)" x="-0.0650" y="0.1878" width="0.1300" height="2.8122" ry="0.0400" fill="currentColor"/>
<rect transform="translate(81.7137, 45.6334)" x="-0.0650" y="-2.8100" width="0.1300" height="3.1222" ry="0.0400" fill="currentColor"/>
</svg>
