<svg xmlns="http://www.w3.org/2000/svg" xmlns:xlink="http://www.w3.org/1999/xlink" version="1.2" width="210.00mm" height="297.00mm" viewBox="0 0 119.5016 169.0094">
<!-- Page: 1/1 -->
<text transform="translate(5.6906, 2.8453)" font-family="Century Schoolbook L" font-size="2.2001" text-anchor="start" fill="currentColor">
<tspan>
 </tspan>
</text>
<line transform="translate(5.6906, 7.2753)" stroke-linejoin="round" stroke-linecap="round" stroke-width="0.1000" stroke="currentColor" x1="0.0500" y1="0.0000" x2="51.1650" y2="0.0000"/>
<rect transform="translate(56.7155, 7.2753)" x="0.0000" y="-1.0500" width="0.1900" height="2.1000" ry="0.0000" fill="currentColor"/>
<rect transform="translate(28.7777, 7.2753)" x="0.0000" y="-1.0500" width="0.1900" height="2.1000" ry="0.0000" fill="currentColor"/>
<a style="color:inherit;" xlink:href="textedit://C:/Users/jwloy/OneDrive/Documents/GitHub/wygioatynlib/notation/wygioatynlib_pulsetrack_2.ly:10:42:43">
<path transform="translate(37.9866, 9.1213) scale(0.0040, -0.0040)" d="M-211 88c-8 2 -14 9 -14 18c0 10 9 19 19 19c2 0 3 -1 4 -1l408 -105c13 0 19 -6 19 -19s-6 -19 -19 -19l-408 -105c-1 0 -2 -1 -4 -1c-10 0 -19 9 -19 19c0 9 6 16 14 18l251 65l140 23l-140 23z" fill="currentColor"/>
</a>
<rect transform="translate(38.5797, 7.2753)" x="-0.0650" y="-3.0000" width="0.1300" height="2.8122" ry="0.0400" fill="currentColor"/>
<a style="color:inherit;" xlink:href="textedit://C:/Users/jwloy/OneDrive/Documents/GitHub/wygioatynlib/notation/wygioatynlib_pulsetrack_2.ly:10:45:46">
<path transform="translate(40.4782, 7.2753) scale(0.0040, -0.0040)" d="M220 138c56 0 109 -29 109 -91c0 -72 -56 -121 -103 -149c-36 -21 -76 -36 -117 -36c-56 0 -109 29 -109 91c0 72 56 121 103 149c36 21 76 36 117 36z" fill="currentColor"/>
</a>
<a style="color:inherit;" xlink:href="textedit://C:/Users/jwloy/OneDrive/Documents/GitHub/wygioatynlib/notation/wygioatynlib_pulsetrack_2.ly:10:50:51">
<path transform="translate(41.1362, 8.2253) scale(0.0040, -0.0040)" d="M-50 0c0 28 22 50 50 50s50 -22 50 -50s-22 -50 -50 -50s-50 22 -50 50z" fill="currentColor"/>
</a>
<rect transform="translate(41.7293, 7.2753)" x="-0.0650" y="-3.0000" width="0.1300" height="2.8122" ry="0.0400" fill="currentColor"/>
<a style="color:inherit;" xlink:href="textedit://C:/Users/jwloy/OneDrive/Documents/GitHub/wygioatynlib/notation/wygioatynlib_pulsetrack_2.ly:10:55:56">
<path transform="translate(43.6277, 7.2753) scale(0.0040, -0.0040)" d="M220 138c56 0 109 -29 109 -91c0 -72 -56 -121 -103 -149c-36 -21 -76 -36 -117 -36c-56 0 -109 29 -109 91c0 72 56 121 103 149c36 21 76 36 117 36z" fill="currentColor"/>
</a>
<a style="color:inherit;" xlink:href="textedit://C:/Users/jwloy/OneDrive/Documents/GitHub/wygioatynlib/notation/wygioatynlib_pulsetrack_2.ly:10:62:63">
<path transform="translate(44.2858, 8.2253) scale(0.0040, -0.0040)" d="M-50 0c0 28 22 50 50 50s50 -22 50 -50s-22 -50 -50 -50s-50 22 -50 50z" fill="currentColor"/>
</a>
<a style="color:inherit;" xlink:href="textedit://C:/Users/jwloy/OneDrive/Documents/GitHub/wygioatynlib/notation/wygioatynlib_pulsetrack_2.ly:10:64:65">
<path transform="translate(44.2858, 9.1213) scale(0.0040, -0.0040)" d="M-211 88c-8 2 -14 9 -14 18c0 10 9 19 19 19c2 0 3 -1 4 -1l408 -105c13 0 19 -6 19 -19s-6 -19 -19 -19l-408 -105c-1 0 -2 -1 -4 -1c-10 0 -19 9 -19 19c0 9 6 16 14 18l251 65l140 23l-140 23z" fill="currentColor"/>
</a>
<rect transform="translate(44.8789, 7.2753)" x="-0.0650" y="-3.1900" width="0.1300" height="3.0022" ry="0.0400" fill="currentColor"/>
<a style="color:inherit;" xlink:href="textedit://C:/Users/jwloy/OneDrive/Documents/GitHub/wygioatynlib/notation/wygioatynlib_pulsetrack_2.ly:10:13:14">
<path transform="translate(32.8113, 7.2753) scale(0.0040, -0.0040)" d="M220 138c56 0 109 -29 109 -91c0 -72 -56 -121 -103 -149c-36 -21 -76 -36 -117 -36c-56 0 -109 29 -109 91c0 72 56 121 103 149c36 21 76 36 117 36z" fill="currentColor"/>
</a>
<a style="color:inherit;" xlink:href="textedit://C:/Users/jwloy/OneDrive/Documents/GitHub/wygioatynlib/notation/wygioatynlib_pulsetrack_2.ly:10:20:21">
<path transform="translate(33.4694, 8.2253) scale(0.0040, -0.0040)" d="M-50 0c0 28 22 50 50 50s50 -22 50 -50s-22 -50 -50 -50s-50 22 -50 50z" fill="currentColor"/>
</a>
<rect transform="translate(34.0625, 7.2753)" x="-0.0650" y="-3.1900" width="0.1300" height="3.0022" ry="0.0400" fill="currentColor"/>
<a style="color:inherit;" xlink:href="textedit://C:/Users/jwloy/OneDrive/Documents/GitHub/wygioatynlib/notation/wygioatynlib_pulsetrack_2.ly:10:23:24">
<path transform="translate(35.0699, 7.2753) scale(0.0040, -0.0040)" d="M220 138c56 0 109 -29 109 -91c0 -72 -56 -121 -103 -149c-36 -21 -76 -36 -117 -36c-56 0 -109 29 -109 91c0 72 56 121 103 149c36 21 76 36 117 36z" fill="currentColor"/>
</a>
<a style="color:inherit;" xlink:href="textedit://C:/Users/jwloy/OneDrive/Documents/GitHub/wygioatynlib/notation/wygioatynlib_pulsetrack_2.ly:10:28:29">
<path transform="translate(35.7280, 8.2253) scale(0.0040, -0.0040)" d="M-50 0c0 28 22 50 50 50s50 -22 50 -50s-22 -50 -50 -50s-50 22 -50 50z" fill="currentColor"/>
</a>
<rect transform="translate(36.3211, 7.2753)" x="-0.0650" y="-3.1900" width="0.1300" height="3.0022" ry="0.0400" fill="currentColor"/>
<a style="color:inherit;" xlink:href="textedit://C:/Users/jwloy/OneDrive/Documents/GitHub/wygioatynlib/notation/wygioatynlib_pulsetrack_2.ly:10:34:35">
<path transform="translate(37.3286, 7.2753) scale(0.0040, -0.0040)" d="M220 138c56 0 109 -29 109 -91c0 -72 -56 -121 -103 -149c-36 -21 -76 -36 -117 -36c-56 0 -109 29 -109 91c0 72 56 121 103 149c36 21 76 36 117 36z" fill="currentColor"/>
</a>
<a style="color:inherit;" xlink:href="textedit://C:/Users/jwloy/OneDrive/Documents/GitHub/wygioatynlib/notation/wygioatynlib_pulsetrack_2.ly:10:40:41">
<path transform="translate(37.9866, 8.2253) scale(0.0040, -0.0040)" d="M-50 0c0 28 22 50 50 50s50 -22 50 -50s-22 -50 -50 -50s-50 22 -50 50z" fill="currentColor"/>
</a>
<a style="color:inherit;" xlink:href="textedit://C:/Users/jwloy/OneDrive/Documents/GitHub/wygioatynlib/notation/wygioatynlib_pulsetrack_2.ly:10:89:90">
<path transform="translate(51.0618, 8.2253) scale(0.0040, -0.0040)" d="M-50 0c0 28 22 50 50 50s50 -22 50 -50s-22 -50 -50 -50s-50 22 -50 50z" fill="currentColor"/>
</a>
<rect transform="translate(51.6548, 7.2753)" x="-0.0650" y="-3.1900" width="0.1300" height="3.0022" ry="0.0400" fill="currentColor"/>
<a style="color:inherit;" xlink:href="textedit://C:/Users/jwloy/OneDrive/Documents/GitHub/wygioatynlib/notation/wygioatynlib_pulsetrack_2.ly:10:95:96">
<path transform="translate(52.6623, 7.2753) scale(0.0040, -0.0040)" d="M220 138c56 0 109 -29 109 -91c0 -72 -56 -121 -103 -149c-36 -21 -76 -36 -117 -36c-56 0 -109 29 -109 91c0 72 56 121 103 149c36 21 76 36 117 36z" fill="currentColor"/>
</a>
<a style="color:inherit;" xlink:href="textedit://C:/Users/jwloy/OneDrive/Documents/GitHub/wygioatynlib/notation/wygioatynlib_pulsetrack_2.ly:10:101:102">
<path transform="translate(53.3204, 8.2253) scale(0.0040, -0.0040)" d="M-50 0c0 28 22 50 50 50s50 -22 50 -50s-22 -50 -50 -50s-50 22 -50 50z" fill="currentColor"/>
</a>
<a style="color:inherit;" xlink:href="textedit://C:/Users/jwloy/OneDrive/Documents/GitHub/wygioatynlib/notation/wygioatynlib_pulsetrack_2.ly:10:103:104">
<path transform="translate(53.3204, 9.1213) scale(0.0040, -0.0040)" d="M-211 88c-8 2 -14 9 -14 18c0 10 9 19 19 19c2 0 3 -1 4 -1l408 -105c13 0 19 -6 19 -19s-6 -19 -19 -19l-408 -105c-1 0 -2 -1 -4 -1c-10 0 -19 9 -19 19c0 9 6 16 14 18l251 65l140 23l-140 23z" fill="currentColor"/>
</a>
<rect transform="translate(53.9135, 7.2753)" x="-0.0650" y="-3.3333" width="0.1300" height="3.1455" ry="0.0400" fill="currentColor"/>
<polygon transform="translate(44.8139, 4.0853)" stroke-linejoin="round" stroke-linecap="round" stroke-width="0.0800" fill="currentColor" stroke="currentColor" points="6.8659 -0.2000 6.8659 0.2000 0.0400 0.2000 0.0400 -0.2000"/>
<polygon transform="translate(44.8139, 4.8953)" stroke-linejoin="round" stroke-linecap="round" stroke-width="0.0800" fill="currentColor" stroke="currentColor" points="6.8659 -0.2000 6.8659 0.2000 0.0400 0.2000 0.0400 -0.2000"/>
<polygon transform="translate(38.5147, 4.2753)" stroke-linejoin="round" stroke-linecap="round" stroke-width="0.0800" fill="currentColor" stroke="currentColor" points="3.2396 -0.2000 3.2396 0.2000 0.0400 0.2000 0.0400 -0.2000"/>
<polygon transform="translate(30.8479, 4.0853)" stroke-linejoin="round" stroke-linecap="round" stroke-width="0.0800" fill="currentColor" stroke="currentColor" points="5.4982 -0.2000 5.4982 0.2000 0.0400 0.2000 0.0400 -0.2000"/>
<polygon transform="translate(33.9975, 4.8953)" stroke-linejoin="round" stroke-linecap="round" stroke-width="0.0800" fill="currentColor" stroke="currentColor" points="2.3486 -0.2000 2.3486 0.2000 0.0400 0.2000 0.0400 -0.2000"/>
<polygon transform="translate(19.5626, 4.2753)" stroke-linejoin="round" stroke-linecap="round" stroke-width="0.0800" fill="currentColor" stroke="currentColor" points="3.2396 -0.2000 3.2396 0.2000 0.0400 0.2000 0.0400 -0.2000"/>
<a style="color:inherit;" xlink:href="textedit://C:/Users/jwloy/OneDrive/Documents/GitHub/wygioatynlib/notation/wygioatynlib_pulsetrack_2.ly:10:67:68">
<path transform="translate(45.8864, 7.2753) scale(0.0040, -0.0040)" d="M220 138c56 0 109 -29 109 -91c0 -72 -56 -121 -103 -149c-36 -21 -76 -36 -117 -36c-56 0 -109 29 -109 91c0 72 56 121 103 149c36 21 76 36 117 36z" fill="currentColor"/>
</a>
<a style="color:inherit;" xlink:href="textedit://C:/Users/jwloy/OneDrive/Documents/GitHub/wygioatynlib/notation/wygioatynlib_pulsetrack_2.ly:10:72:73">
<path transform="translate(46.5445, 8.2253) scale(0.0040, -0.0040)" d="M-50 0c0 28 22 50 50 50s50 -22 50 -50s-22 -50 -50 -50s-50 22 -50 50z" fill="currentColor"/>
</a>
<rect transform="translate(47.1376, 7.2753)" x="-0.0650" y="-3.1900" width="0.1300" height="3.0022" ry="0.0400" fill="currentColor"/>
<a style="color:inherit;" xlink:href="textedit://C:/Users/jwloy/OneDrive/Documents/GitHub/wygioatynlib/notation/wygioatynlib_pulsetrack_2.ly:10:76:77">
<path transform="translate(48.1450, 7.2753) scale(0.0040, -0.0040)" d="M220 138c56 0 109 -29 109 -91c0 -72 -56 -121 -103 -149c-36 -21 -76 -36 -117 -36c-56 0 -109 29 -109 91c0 72 56 121 103 149c36 21 76 36 117 36z" fill="currentColor"/>
</a>
<a style="color:inherit;" xlink:href="textedit://C:/Users/jwloy/OneDrive/Documents/GitHub/wygioatynlib/notation/wygioatynlib_pulsetrack_2.ly:10:81:82">
<path transform="translate(48.8031, 8.2253) scale(0.0040, -0.0040)" d="M-50 0c0 28 22 50 50 50s50 -22 50 -50s-22 -50 -50 -50s-50 22 -50 50z" fill="currentColor"/>
</a>
<rect transform="translate(49.3962, 7.2753)" x="-0.0650" y="-3.1900" width="0.1300" height="3.0022" ry="0.0400" fill="currentColor"/>
<a style="color:inherit;" xlink:href="textedit://C:/Users/jwloy/OneDrive/Documents/GitHub/wygioatynlib/notation/wygioatynlib_pulsetrack_2.ly:10:84:85">
<path transform="translate(50.4037, 7.2753) scale(0.0040, -0.0040)" d="M220 138c56 0 109 -29 109 -91c0 -72 -56 -121 -103 -149c-36 -21 -76 -36 -117 -36c-56 0 -109 29 -109 91c0 72 56 121 103 149c36 21 76 36 117 36z" fill="currentColor"/>
</a>
<a style="color:inherit;" xlink:href="textedit://C:/Users/jwloy/OneDrive/Documents/GitHub/wygioatynlib/notation/wygioatynlib_pulsetrack_2.ly:9:15:16">
<path transform="translate(14.3358, 7.2753) scale(0.0040, -0.0040)" d="M220 138c56 0 109 -29 109 -91c0 -72 -56 -121 -103 -149c-36 -21 -76 -36 -117 -36c-56 0 -109 29 -109 91c0 72 56 121 103 149c36 21 76 36 117 36z" fill="currentColor"/>
</a>
<a style="color:inherit;" xlink:href="textedit://C:/Users/jwloy/OneDrive/Documents/GitHub/wygioatynlib/notation/wygioatynlib_pulsetrack_2.ly:9:20:21">
<path transform="translate(14.9939, 8.2253) scale(0.0040, -0.0040)" d="M-50 0c0 28 22 50 50 50s50 -22 50 -50s-22 -50 -50 -50s-50 22 -50 50z" fill="currentColor"/>
</a>
<a style="color:inherit;" xlink:href="textedit://C:/Users/jwloy/OneDrive/Documents/GitHub/wygioatynlib/notation/wygioatynlib_pulsetrack_2.ly:9:22:23">
<path transform="translate(14.9939, 9.1213) scale(0.0040, -0.0040)" d="M-211 88c-8 2 -14 9 -14 18c0 10 9 19 19 19c2 0 3 -1 4 -1l408 -105c13 0 19 -6 19 -19s-6 -19 -19 -19l-408 -105c-1 0 -2 -1 -4 -1c-10 0 -19 9 -19 19c0 9 6 16 14 18l251 65l140 23l-140 23z" fill="currentColor"/>
</a>
<rect transform="translate(15.5870, 7.2753)" x="-0.0650" y="-3.3333" width="0.1300" height="3.1455" ry="0.0400" fill="currentColor"/>
<a style="color:inherit;" xlink:href="textedit://C:/Users/jwloy/OneDrive/Documents/GitHub/wygioatynlib/notation/wygioatynlib_pulsetrack_2.ly:9:28:29">
<path transform="translate(18.3764, 7.2753) scale(0.0040, -0.0040)" d="M220 138c56 0 109 -29 109 -91c0 -72 -56 -121 -103 -149c-36 -21 -76 -36 -117 -36c-56 0 -109 29 -109 91c0 72 56 121 103 149c36 21 76 36 117 36z" fill="currentColor"/>
</a>
<a style="color:inherit;" xlink:href="textedit://C:/Users/jwloy/OneDrive/Documents/GitHub/wygioatynlib/notation/wygioatynlib_pulsetrack_2.ly:9:34:35">
<path transform="translate(19.0345, 8.2253) scale(0.0040, -0.0040)" d="M-50 0c0 28 22 50 50 50s50 -22 50 -50s-22 -50 -50 -50s-50 22 -50 50z" fill="currentColor"/>
</a>
<a style="color:inherit;" xlink:href="textedit://C:/Users/jwloy/OneDrive/Documents/GitHub/wygioatynlib/notation/wygioatynlib_pulsetrack_2.ly:9:36:37">
<path transform="translate(19.0345, 9.1213) scale(0.0040, -0.0040)" d="M-211 88c-8 2 -14 9 -14 18c0 10 9 19 19 19c2 0 3 -1 4 -1l408 -105c13 0 19 -6 19 -19s-6 -19 -19 -19l-408 -105c-1 0 -2 -1 -4 -1c-10 0 -19 9 -19 19c0 9 6 16 14 18l251 65l140 23l-140 23z" fill="currentColor"/>
</a>
<rect transform="translate(19.6276, 7.2753)" x="-0.0650" y="-3.0000" width="0.1300" height="2.8122" ry="0.0400" fill="currentColor"/>
<a style="color:inherit;" xlink:href="textedit://C:/Users/jwloy/OneDrive/Documents/GitHub/wygioatynlib/notation/wygioatynlib_pulsetrack_2.ly:9:2:3">
<path transform="translate(10.2953, 7.2753) scale(0.0040, -0.0040)" d="M220 138c56 0 109 -29 109 -91c0 -72 -56 -121 -103 -149c-36 -21 -76 -36 -117 -36c-56 0 -109 29 -109 91c0 72 56 121 103 149c36 21 76 36 117 36z" fill="currentColor"/>
</a>
<a style="color:inherit;" xlink:href="textedit://C:/Users/jwloy/OneDrive/Documents/GitHub/wygioatynlib/notation/wygioatynlib_pulsetrack_2.ly:9:8:9">
<path transform="translate(10.9534, 8.2253) scale(0.0040, -0.0040)" d="M-50 0c0 28 22 50 50 50s50 -22 50 -50s-22 -50 -50 -50s-50 22 -50 50z" fill="currentColor"/>
</a>
<a style="color:inherit;" xlink:href="textedit://C:/Users/jwloy/OneDrive/Documents/GitHub/wygioatynlib/notation/wygioatynlib_pulsetrack_2.ly:9:10:11">
<path transform="translate(10.9534, 9.1213) scale(0.0040, -0.0040)" d="M-211 88c-8 2 -14 9 -14 18c0 10 9 19 19 19c2 0 3 -1 4 -1l408 -105c13 0 19 -6 19 -19s-6 -19 -19 -19l-408 -105c-1 0 -2 -1 -4 -1c-10 0 -19 9 -19 19c0 9 6 16 14 18l251 65l140 23l-140 23z" fill="currentColor"/>
</a>
<path transform="translate(6.6906, 9.2897) scale(0.0040, -0.0040)" d="M204 307c22 14 44 29 60 50c11 15 19 33 27 50c2 4 5 6 9 6c6 0 13 -5 13 -14v-245h72c10 0 15 -7 15 -14s-5 -15 -15 -15h-72v-8c0 -48 27 -94 72 -94c8 0 12 -5 12 -11s-4 -12 -12 -12c-44 0 -87 13 -131 13s-87 -13 -131 -13c-8 0 -12 6 -12 12s4 11 12 11
c45 0 73 46 73 94v8h-167c-23 0 -31 14 -31 23c0 3 1 5 2 6c80 93 138 207 138 330c0 9 6 16 13 16h3c23 -7 47 -13 71 -13s48 6 71 13c2 1 3 1 5 1c11 0 18 -10 12 -17l-284 -330h167v131c0 8 1 17 8 22z" fill="currentColor"/>
<path transform="translate(6.6906, 7.2753) scale(0.0040, -0.0040)" d="M204 307c22 14 44 29 60 50c11 15 19 33 27 50c2 4 5 6 9 6c6 0 13 -5 13 -14v-245h72c10 0 15 -7 15 -14s-5 -15 -15 -15h-72v-8c0 -48 27 -94 72 -94c8 0 12 -5 12 -11s-4 -12 -12 -12c-44 0 -87 13 -131 13s-87 -13 -131 -13c-8 0 -12 6 -12 12s4 11 12 11
c45 0 73 46 73 94v8h-167c-23 0 -31 14 -31 23c0 3 1 5 2 6c80 93 138 207 138 330c0 9 6 16 13 16h3c23 -7 47 -13 71 -13s48 6 71 13c2 1 3 1 5 1c11 0 18 -10 12 -17l-284 -330h167v131c0 8 1 17 8 22z" fill="currentColor"/>
<rect transform="translate(11.5465, 7.2753)" x="-0.0650" y="-3.3333" width="0.1300" height="3.1455" ry="0.0400" fill="currentColor"/>
<a style="color:inherit;" xlink:href="textedit://C:/Users/jwloy/OneDrive/Documents/GitHub/wygioatynlib/notation/wygioatynlib_pulsetrack_2.ly:10:10:11">
<path transform="translate(30.3198, 9.1213) scale(0.0040, -0.0040)" d="M-211 88c-8 2 -14 9 -14 18c0 10 9 19 19 19c2 0 3 -1 4 -1l408 -105c13 0 19 -6 19 -19s-6 -19 -19 -19l-408 -105c-1 0 -2 -1 -4 -1c-10 0 -19 9 -19 19c0 9 6 16 14 18l251 65l140 23l-140 23z" fill="currentColor"/>
</a>
<a style="color:inherit;" xlink:href="textedit://C:/Users/jwloy/OneDrive/Documents/GitHub/wygioatynlib/notation/wygioatynlib_pulsetrack_2.ly:10:8:9">
<path transform="translate(30.3198, 8.2253) scale(0.0040, -0.0040)" d="M-50 0c0 28 22 50 50 50s50 -22 50 -50s-22 -50 -50 -50s-50 22 -50 50z" fill="currentColor"/>
</a>
<a style="color:inherit;" xlink:href="textedit://C:/Users/jwloy/OneDrive/Documents/GitHub/wygioatynlib/notation/wygioatynlib_pulsetrack_2.ly:10:2:3">
<path transform="translate(29.6617, 7.2753) scale(0.0040, -0.0040)" d="M220 138c56 0 109 -29 109 -91c0 -72 -56 -121 -103 -149c-36 -21 -76 -36 -117 -36c-56 0 -109 29 -109 91c0 72 56 121 103 149c36 21 76 36 117 36z" fill="currentColor"/>
</a>
<rect transform="translate(30.9129, 7.2753)" x="-0.0650" y="-3.1900" width="0.1300" height="3.0022" ry="0.0400" fill="currentColor"/>
<rect transform="translate(25.9268, 7.2753)" x="-0.0650" y="-3.3333" width="0.1300" height="3.1455" ry="0.0400" fill="currentColor"/>
<a style="color:inherit;" xlink:href="textedit://C:/Users/jwloy/OneDrive/Documents/GitHub/wygioatynlib/notation/wygioatynlib_pulsetrack_2.ly:9:39:40">
<path transform="translate(21.5260, 7.2753) scale(0.0040, -0.0040)" d="M220 138c56 0 109 -29 109 -91c0 -72 -56 -121 -103 -149c-36 -21 -76 -36 -117 -36c-56 0 -109 29 -109 91c0 72 56 121 103 149c36 21 76 36 117 36z" fill="currentColor"/>
</a>
<a style="color:inherit;" xlink:href="textedit://C:/Users/jwloy/OneDrive/Documents/GitHub/wygioatynlib/notation/wygioatynlib_pulsetrack_2.ly:9:44:45">
<path transform="translate(22.1841, 8.2253) scale(0.0040, -0.0040)" d="M-50 0c0 28 22 50 50 50s50 -22 50 -50s-22 -50 -50 -50s-50 22 -50 50z" fill="currentColor"/>
</a>
<rect transform="translate(22.7772, 7.2753)" x="-0.0650" y="-3.0000" width="0.1300" height="2.8122" ry="0.0400" fill="currentColor"/>
<a style="color:inherit;" xlink:href="textedit://C:/Users/jwloy/OneDrive/Documents/GitHub/wygioatynlib/notation/wygioatynlib_pulsetrack_2.ly:9:50:51">
<path transform="translate(24.6756, 7.2753) scale(0.0040, -0.0040)" d="M220 138c56 0 109 -29 109 -91c0 -72 -56 -121 -103 -149c-36 -21 -76 -36 -117 -36c-56 0 -109 29 -109 91c0 72 56 121 103 149c36 21 76 36 117 36z" fill="currentColor"/>
</a>
<a style="color:inherit;" xlink:href="textedit://C:/Users/jwloy/OneDrive/Documents/GitHub/wygioatynlib/notation/wygioatynlib_pulsetrack_2.ly:9:56:57">
<path transform="translate(25.3337, 8.2253) scale(0.0040, -0.0040)" d="M-50 0c0 28 22 50 50 50s50 -22 50 -50s-22 -50 -50 -50s-50 22 -50 50z" fill="currentColor"/>
</a>
<a style="color:inherit;" xlink:href="textedit://C:/Users/jwloy/OneDrive/Documents/GitHub/wygioatynlib/notation/wygioatynlib_pulsetrack_2.ly:9:58:59">
<path transform="translate(25.3337, 9.1213) scale(0.0040, -0.0040)" d="M-211 88c-8 2 -14 9 -14 18c0 10 9 19 19 19c2 0 3 -1 4 -1l408 -105c13 0 19 -6 19 -19s-6 -19 -19 -19l-408 -105c-1 0 -2 -1 -4 -1c-10 0 -19 9 -19 19c0 9 6 16 14 18l251 65l140 23l-140 23z" fill="currentColor"/>
</a>
<line transform="translate(5.6906, 19.2753)" stroke-linejoin="round" stroke-linecap="round" stroke-width="0.1000" stroke="currentColor" x1="0.0500" y1="0.0000" x2="51.1650" y2="0.0000"/>
<rect transform="translate(29.6188, 19.2753)" x="0.0000" y="-1.0500" width="0.1900" height="2.1000" ry="0.0000" fill="currentColor"/>
<rect transform="translate(56.7155, 19.2753)" x="0.0000" y="-1.0500" width="0.1900" height="2.1000" ry="0.0000" fill="currentColor"/>
<rect transform="translate(40.7075, 19.2753)" x="-0.0650" y="-3.1900" width="0.1300" height="3.0022" ry="0.0400" fill="currentColor"/>
<a style="color:inherit;" xlink:href="textedit://C:/Users/jwloy/OneDrive/Documents/GitHub/wygioatynlib/notation/wygioatynlib_pulsetrack_2.ly:12:45:46">
<path transform="translate(41.6789, 19.2753) scale(0.0040, -0.0040)" d="M220 138c56 0 109 -29 109 -91c0 -72 -56 -121 -103 -149c-36 -21 -76 -36 -117 -36c-56 0 -109 29 -109 91c0 72 56 121 103 149c36 21 76 36 117 36z" fill="currentColor"/>
</a>
<a style="color:inherit;" xlink:href="textedit://C:/Users/jwloy/OneDrive/Documents/GitHub/wygioatynlib/notation/wygioatynlib_pulsetrack_2.ly:12:52:53">
<path transform="translate(42.3370, 20.2253) scale(0.0040, -0.0040)" d="M-50 0c0 28 22 50 50 50s50 -22 50 -50s-22 -50 -50 -50s-50 22 -50 50z" fill="currentColor"/>
</a>
<a style="color:inherit;" xlink:href="textedit://C:/Users/jwloy/OneDrive/Documents/GitHub/wygioatynlib/notation/wygioatynlib_pulsetrack_2.ly:12:54:55">
<path transform="translate(42.3370, 21.1213) scale(0.0040, -0.0040)" d="M-211 88c-8 2 -14 9 -14 18c0 10 9 19 19 19c2 0 3 -1 4 -1l408 -105c13 0 19 -6 19 -19s-6 -19 -19 -19l-408 -105c-1 0 -2 -1 -4 -1c-10 0 -19 9 -19 19c0 9 6 16 14 18l251 65l140 23l-140 23z" fill="currentColor"/>
</a>
<rect transform="translate(42.9301, 19.2753)" x="-0.0650" y="-3.1900" width="0.1300" height="3.0022" ry="0.0400" fill="currentColor"/>
<a style="color:inherit;" xlink:href="textedit://C:/Users/jwloy/OneDrive/Documents/GitHub/wygioatynlib/notation/wygioatynlib_pulsetrack_2.ly:12:57:58">
<path transform="translate(43.9015, 19.2753) scale(0.0040, -0.0040)" d="M220 138c56 0 109 -29 109 -91c0 -72 -56 -121 -103 -149c-36 -21 -76 -36 -117 -36c-56 0 -109 29 -109 91c0 72 56 121 103 149c36 21 76 36 117 36z" fill="currentColor"/>
</a>
<a style="color:inherit;" xlink:href="textedit://C:/Users/jwloy/OneDrive/Documents/GitHub/wygioatynlib/notation/wygioatynlib_pulsetrack_2.ly:12:62:63">
<path transform="translate(44.5596, 20.2253) scale(0.0040, -0.0040)" d="M-50 0c0 28 22 50 50 50s50 -22 50 -50s-22 -50 -50 -50s-50 22 -50 50z" fill="currentColor"/>
</a>
<rect transform="translate(45.1527, 19.2753)" x="-0.0650" y="-3.1900" width="0.1300" height="3.0022" ry="0.0400" fill="currentColor"/>
<rect transform="translate(35.4147, 19.2753)" x="-0.0650" y="-3.1900" width="0.1300" height="3.0022" ry="0.0400" fill="currentColor"/>
<a style="color:inherit;" xlink:href="textedit://C:/Users/jwloy/OneDrive/Documents/GitHub/wygioatynlib/notation/wygioatynlib_pulsetrack_2.ly:12:24:25">
<path transform="translate(37.2338, 19.2753) scale(0.0040, -0.0040)" d="M220 138c56 0 109 -29 109 -91c0 -72 -56 -121 -103 -149c-36 -21 -76 -36 -117 -36c-56 0 -109 29 -109 91c0 72 56 121 103 149c36 21 76 36 117 36z" fill="currentColor"/>
</a>
<a style="color:inherit;" xlink:href="textedit://C:/Users/jwloy/OneDrive/Documents/GitHub/wygioatynlib/notation/wygioatynlib_pulsetrack_2.ly:12:31:32">
<path transform="translate(37.8919, 20.2253) scale(0.0040, -0.0040)" d="M-50 0c0 28 22 50 50 50s50 -22 50 -50s-22 -50 -50 -50s-50 22 -50 50z" fill="currentColor"/>
</a>
<rect transform="translate(38.4849, 19.2753)" x="-0.0650" y="-3.1900" width="0.1300" height="3.0022" ry="0.0400" fill="currentColor"/>
<a style="color:inherit;" xlink:href="textedit://C:/Users/jwloy/OneDrive/Documents/GitHub/wygioatynlib/notation/wygioatynlib_pulsetrack_2.ly:12:34:35">
<path transform="translate(39.4563, 19.2753) scale(0.0040, -0.0040)" d="M220 138c56 0 109 -29 109 -91c0 -72 -56 -121 -103 -149c-36 -21 -76 -36 -117 -36c-56 0 -109 29 -109 91c0 72 56 121 103 149c36 21 76 36 117 36z" fill="currentColor"/>
</a>
<a style="color:inherit;" xlink:href="textedit://C:/Users/jwloy/OneDrive/Documents/GitHub/wygioatynlib/notation/wygioatynlib_pulsetrack_2.ly:12:39:40">
<path transform="translate(40.1144, 20.2253) scale(0.0040, -0.0040)" d="M-50 0c0 28 22 50 50 50s50 -22 50 -50s-22 -50 -50 -50s-50 22 -50 50z" fill="currentColor"/>
</a>
<a style="color:inherit;" xlink:href="textedit://C:/Users/jwloy/OneDrive/Documents/GitHub/wygioatynlib/notation/wygioatynlib_pulsetrack_2.ly:12:96:97">
<path transform="translate(53.6395, 19.2753) scale(0.0040, -0.0040)" d="M220 138c56 0 109 -29 109 -91c0 -72 -56 -121 -103 -149c-36 -21 -76 -36 -117 -36c-56 0 -109 29 -109 91c0 72 56 121 103 149c36 21 76 36 117 36z" fill="currentColor"/>
</a>
<a style="color:inherit;" xlink:href="textedit://C:/Users/jwloy/OneDrive/Documents/GitHub/wygioatynlib/notation/wygioatynlib_pulsetrack_2.ly:12:101:102">
<path transform="translate(54.2976, 20.2253) scale(0.0040, -0.0040)" d="M-50 0c0 28 22 50 50 50s50 -22 50 -50s-22 -50 -50 -50s-50 22 -50 50z" fill="currentColor"/>
</a>
<rect transform="translate(54.8906, 19.2753)" x="-0.0650" y="-3.0000" width="0.1300" height="2.8122" ry="0.0400" fill="currentColor"/>
<a style="color:inherit;" xlink:href="textedit://C:/Users/jwloy/OneDrive/Documents/GitHub/wygioatynlib/notation/wygioatynlib_pulsetrack_2.ly:11:52:53">
<path transform="translate(17.0866, 20.2253) scale(0.0040, -0.0040)" d="M-50 0c0 28 22 50 50 50s50 -22 50 -50s-22 -50 -50 -50s-50 22 -50 50z" fill="currentColor"/>
</a>
<polygon transform="translate(51.7554, 16.2753)" stroke-linejoin="round" stroke-linecap="round" stroke-width="0.0800" fill="currentColor" stroke="currentColor" points="3.1602 -0.2000 3.1602 0.2000 0.0400 0.2000 0.0400 -0.2000"/>
<polygon transform="translate(42.8651, 16.0853)" stroke-linejoin="round" stroke-linecap="round" stroke-width="0.0800" fill="currentColor" stroke="currentColor" points="6.7577 -0.2000 6.7577 0.2000 0.0400 0.2000 0.0400 -0.2000"/>
<polygon transform="translate(42.8651, 16.8953)" stroke-linejoin="round" stroke-linecap="round" stroke-width="0.0800" fill="currentColor" stroke="currentColor" points="6.7577 -0.2000 6.7577 0.2000 0.0400 0.2000 0.0400 -0.2000"/>
<polygon transform="translate(35.3497, 16.0853)" stroke-linejoin="round" stroke-linecap="round" stroke-width="0.0800" fill="currentColor" stroke="currentColor" points="5.3828 -0.2000 5.3828 0.2000 0.0400 0.2000 0.0400 -0.2000"/>
<polygon transform="translate(38.4199, 16.8953)" stroke-linejoin="round" stroke-linecap="round" stroke-width="0.0800" fill="currentColor" stroke="currentColor" points="2.3126 -0.2000 2.3126 0.2000 0.0400 0.2000 0.0400 -0.2000"/>
<polygon transform="translate(15.3921, 16.0853)" stroke-linejoin="round" stroke-linecap="round" stroke-width="0.0800" fill="currentColor" stroke="currentColor" points="4.5351 -0.2000 4.5351 0.2000 0.0400 0.2000 0.0400 -0.2000"/>
<polygon transform="translate(15.3921, 16.8953)" stroke-linejoin="round" stroke-linecap="round" stroke-width="0.0800" fill="currentColor" stroke="currentColor" points="2.3126 -0.2000 2.3126 0.2000 0.0400 0.2000 0.0400 -0.2000"/>
<polygon transform="translate(7.8767, 16.0853)" stroke-linejoin="round" stroke-linecap="round" stroke-width="0.0800" fill="currentColor" stroke="currentColor" points="5.3828 -0.2000 5.3828 0.2000 0.0400 0.2000 0.0400 -0.2000"/>
<polygon transform="translate(10.9470, 16.8953)" stroke-linejoin="round" stroke-linecap="round" stroke-width="0.0800" fill="currentColor" stroke="currentColor" points="2.3126 -0.2000 2.3126 0.2000 0.0400 0.2000 0.0400 -0.2000"/>
<a style="color:inherit;" xlink:href="textedit://C:/Users/jwloy/OneDrive/Documents/GitHub/wygioatynlib/notation/wygioatynlib_pulsetrack_2.ly:12:66:67">
<path transform="translate(46.1241, 19.2753) scale(0.0040, -0.0040)" d="M220 138c56 0 109 -29 109 -91c0 -72 -56 -121 -103 -149c-36 -21 -76 -36 -117 -36c-56 0 -109 29 -109 91c0 72 56 121 103 149c36 21 76 36 117 36z" fill="currentColor"/>
</a>
<a style="color:inherit;" xlink:href="textedit://C:/Users/jwloy/OneDrive/Documents/GitHub/wygioatynlib/notation/wygioatynlib_pulsetrack_2.ly:12:71:72">
<path transform="translate(46.7822, 20.2253) scale(0.0040, -0.0040)" d="M-50 0c0 28 22 50 50 50s50 -22 50 -50s-22 -50 -50 -50s-50 22 -50 50z" fill="currentColor"/>
</a>
<rect transform="translate(47.3752, 19.2753)" x="-0.0650" y="-3.1900" width="0.1300" height="3.0022" ry="0.0400" fill="currentColor"/>
<a style="color:inherit;" xlink:href="textedit://C:/Users/jwloy/OneDrive/Documents/GitHub/wygioatynlib/notation/wygioatynlib_pulsetrack_2.ly:12:74:75">
<path transform="translate(48.3466, 19.2753) scale(0.0040, -0.0040)" d="M220 138c56 0 109 -29 109 -91c0 -72 -56 -121 -103 -149c-36 -21 -76 -36 -117 -36c-56 0 -109 29 -109 91c0 72 56 121 103 149c36 21 76 36 117 36z" fill="currentColor"/>
</a>
<a style="color:inherit;" xlink:href="textedit://C:/Users/jwloy/OneDrive/Documents/GitHub/wygioatynlib/notation/wygioatynlib_pulsetrack_2.ly:12:79:80">
<path transform="translate(49.0047, 20.2253) scale(0.0040, -0.0040)" d="M-50 0c0 28 22 50 50 50s50 -22 50 -50s-22 -50 -50 -50s-50 22 -50 50z" fill="currentColor"/>
</a>
<rect transform="translate(49.5978, 19.2753)" x="-0.0650" y="-3.1900" width="0.1300" height="3.0022" ry="0.0400" fill="currentColor"/>
<a style="color:inherit;" xlink:href="textedit://C:/Users/jwloy/OneDrive/Documents/GitHub/wygioatynlib/notation/wygioatynlib_pulsetrack_2.ly:12:85:86">
<path transform="translate(50.5692, 19.2753) scale(0.0040, -0.0040)" d="M220 138c56 0 109 -29 109 -91c0 -72 -56 -121 -103 -149c-36 -21 -76 -36 -117 -36c-56 0 -109 29 -109 91c0 72 56 121 103 149c36 21 76 36 117 36z" fill="currentColor"/>
</a>
<a style="color:inherit;" xlink:href="textedit://C:/Users/jwloy/OneDrive/Documents/GitHub/wygioatynlib/notation/wygioatynlib_pulsetrack_2.ly:12:91:92">
<path transform="translate(51.2273, 20.2253) scale(0.0040, -0.0040)" d="M-50 0c0 28 22 50 50 50s50 -22 50 -50s-22 -50 -50 -50s-50 22 -50 50z" fill="currentColor"/>
</a>
<a style="color:inherit;" xlink:href="textedit://C:/Users/jwloy/OneDrive/Documents/GitHub/wygioatynlib/notation/wygioatynlib_pulsetrack_2.ly:12:93:94">
<path transform="translate(51.2273, 21.1213) scale(0.0040, -0.0040)" d="M-211 88c-8 2 -14 9 -14 18c0 10 9 19 19 19c2 0 3 -1 4 -1l408 -105c13 0 19 -6 19 -19s-6 -19 -19 -19l-408 -105c-1 0 -2 -1 -4 -1c-10 0 -19 9 -19 19c0 9 6 16 14 18l251 65l140 23l-140 23z" fill="currentColor"/>
</a>
<rect transform="translate(51.8204, 19.2753)" x="-0.0650" y="-3.0000" width="0.1300" height="2.8122" ry="0.0400" fill="currentColor"/>
<a style="color:inherit;" xlink:href="textedit://C:/Users/jwloy/OneDrive/Documents/GitHub/wygioatynlib/notation/wygioatynlib_pulsetrack_2.ly:11:24:25">
<path transform="translate(11.9834, 19.2753) scale(0.0040, -0.0040)" d="M220 138c56 0 109 -29 109 -91c0 -72 -56 -121 -103 -149c-36 -21 -76 -36 -117 -36c-56 0 -109 29 -109 91c0 72 56 121 103 149c36 21 76 36 117 36z" fill="currentColor"/>
</a>
<a style="color:inherit;" xlink:href="textedit://C:/Users/jwloy/OneDrive/Documents/GitHub/wygioatynlib/notation/wygioatynlib_pulsetrack_2.ly:11:31:32">
<path transform="translate(12.6415, 20.2253) scale(0.0040, -0.0040)" d="M-50 0c0 28 22 50 50 50s50 -22 50 -50s-22 -50 -50 -50s-50 22 -50 50z" fill="currentColor"/>
</a>
<rect transform="translate(13.2346, 19.2753)" x="-0.0650" y="-3.1900" width="0.1300" height="3.0022" ry="0.0400" fill="currentColor"/>
<a style="color:inherit;" xlink:href="textedit://C:/Users/jwloy/OneDrive/Documents/GitHub/wygioatynlib/notation/wygioatynlib_pulsetrack_2.ly:11:37:38">
<path transform="translate(14.2059, 19.2753) scale(0.0040, -0.0040)" d="M220 138c56 0 109 -29 109 -91c0 -72 -56 -121 -103 -149c-36 -21 -76 -36 -117 -36c-56 0 -109 29 -109 91c0 72 56 121 103 149c36 21 76 36 117 36z" fill="currentColor"/>
</a>
<a style="color:inherit;" xlink:href="textedit://C:/Users/jwloy/OneDrive/Documents/GitHub/wygioatynlib/notation/wygioatynlib_pulsetrack_2.ly:11:42:43">
<path transform="translate(14.8640, 20.2253) scale(0.0040, -0.0040)" d="M-50 0c0 28 22 50 50 50s50 -22 50 -50s-22 -50 -50 -50s-50 22 -50 50z" fill="currentColor"/>
</a>
<a style="color:inherit;" xlink:href="textedit://C:/Users/jwloy/OneDrive/Documents/GitHub/wygioatynlib/notation/wygioatynlib_pulsetrack_2.ly:11:44:45">
<path transform="translate(14.8640, 21.1213) scale(0.0040, -0.0040)" d="M-211 88c-8 2 -14 9 -14 18c0 10 9 19 19 19c2 0 3 -1 4 -1l408 -105c13 0 19 -6 19 -19s-6 -19 -19 -19l-408 -105c-1 0 -2 -1 -4 -1c-10 0 -19 9 -19 19c0 9 6 16 14 18l251 65l140 23l-140 23z" fill="currentColor"/>
</a>
<rect transform="translate(15.4571, 19.2753)" x="-0.0650" y="-3.1900" width="0.1300" height="3.0022" ry="0.0400" fill="currentColor"/>
<a style="color:inherit;" xlink:href="textedit://C:/Users/jwloy/OneDrive/Documents/GitHub/wygioatynlib/notation/wygioatynlib_pulsetrack_2.ly:11:47:48">
<path transform="translate(16.4285, 19.2753) scale(0.0040, -0.0040)" d="M220 138c56 0 109 -29 109 -91c0 -72 -56 -121 -103 -149c-36 -21 -76 -36 -117 -36c-56 0 -109 29 -109 91c0 72 56 121 103 149c36 21 76 36 117 36z" fill="currentColor"/>
</a>
<text transform="translate(4.7345, 18.1911)" font-family="Century Schoolbook L" font-size="1.7461" text-anchor="start" fill="currentColor">
<tspan>
3</tspan>
</text>
<rect transform="translate(7.9417, 19.2753)" x="-0.0650" y="-3.1900" width="0.1300" height="3.0022" ry="0.0400" fill="currentColor"/>
<a style="color:inherit;" xlink:href="textedit://C:/Users/jwloy/OneDrive/Documents/GitHub/wygioatynlib/notation/wygioatynlib_pulsetrack_2.ly:11:10:11">
<path transform="translate(7.3486, 21.1213) scale(0.0040, -0.0040)" d="M-211 88c-8 2 -14 9 -14 18c0 10 9 19 19 19c2 0 3 -1 4 -1l408 -105c13 0 19 -6 19 -19s-6 -19 -19 -19l-408 -105c-1 0 -2 -1 -4 -1c-10 0 -19 9 -19 19c0 9 6 16 14 18l251 65l140 23l-140 23z" fill="currentColor"/>
</a>
<a style="color:inherit;" xlink:href="textedit://C:/Users/jwloy/OneDrive/Documents/GitHub/wygioatynlib/notation/wygioatynlib_pulsetrack_2.ly:11:8:9">
<path transform="translate(7.3486, 20.2253) scale(0.0040, -0.0040)" d="M-50 0c0 28 22 50 50 50s50 -22 50 -50s-22 -50 -50 -50s-50 22 -50 50z" fill="currentColor"/>
</a>
<a style="color:inherit;" xlink:href="textedit://C:/Users/jwloy/OneDrive/Documents/GitHub/wygioatynlib/notation/wygioatynlib_pulsetrack_2.ly:11:13:14">
<path transform="translate(9.7608, 19.2753) scale(0.0040, -0.0040)" d="M220 138c56 0 109 -29 109 -91c0 -72 -56 -121 -103 -149c-36 -21 -76 -36 -117 -36c-56 0 -109 29 -109 91c0 72 56 121 103 149c36 21 76 36 117 36z" fill="currentColor"/>
</a>
<a style="color:inherit;" xlink:href="textedit://C:/Users/jwloy/OneDrive/Documents/GitHub/wygioatynlib/notation/wygioatynlib_pulsetrack_2.ly:11:20:21">
<path transform="translate(10.4189, 20.2253) scale(0.0040, -0.0040)" d="M-50 0c0 28 22 50 50 50s50 -22 50 -50s-22 -50 -50 -50s-50 22 -50 50z" fill="currentColor"/>
</a>
<rect transform="translate(11.0120, 19.2753)" x="-0.0650" y="-3.1900" width="0.1300" height="3.0022" ry="0.0400" fill="currentColor"/>
<a style="color:inherit;" xlink:href="textedit://C:/Users/jwloy/OneDrive/Documents/GitHub/wygioatynlib/notation/wygioatynlib_pulsetrack_2.ly:11:68:69">
<path transform="translate(21.7213, 19.2753) scale(0.0040, -0.0040)" d="M220 138c56 0 109 -29 109 -91c0 -72 -56 -121 -103 -149c-36 -21 -76 -36 -117 -36c-56 0 -109 29 -109 91c0 72 56 121 103 149c36 21 76 36 117 36z" fill="currentColor"/>
</a>
<a style="color:inherit;" xlink:href="textedit://C:/Users/jwloy/OneDrive/Documents/GitHub/wygioatynlib/notation/wygioatynlib_pulsetrack_2.ly:11:74:75">
<path transform="translate(22.3794, 20.2253) scale(0.0040, -0.0040)" d="M-50 0c0 28 22 50 50 50s50 -22 50 -50s-22 -50 -50 -50s-50 22 -50 50z" fill="currentColor"/>
</a>
<a style="color:inherit;" xlink:href="textedit://C:/Users/jwloy/OneDrive/Documents/GitHub/wygioatynlib/notation/wygioatynlib_pulsetrack_2.ly:11:76:77">
<path transform="translate(22.3794, 21.1213) scale(0.0040, -0.0040)" d="M-211 88c-8 2 -14 9 -14 18c0 10 9 19 19 19c2 0 3 -1 4 -1l408 -105c13 0 19 -6 19 -19s-6 -19 -19 -19l-408 -105c-1 0 -2 -1 -4 -1c-10 0 -19 9 -19 19c0 9 6 16 14 18l251 65l140 23l-140 23z" fill="currentColor"/>
</a>
<rect transform="translate(22.9725, 19.2753)" x="-0.0650" y="-3.3333" width="0.1300" height="3.1455" ry="0.0400" fill="currentColor"/>
<a style="color:inherit;" xlink:href="textedit://C:/Users/jwloy/OneDrive/Documents/GitHub/wygioatynlib/notation/wygioatynlib_pulsetrack_2.ly:11:82:83">
<path transform="translate(25.6393, 19.2753) scale(0.0040, -0.0040)" d="M220 138c56 0 109 -29 109 -91c0 -72 -56 -121 -103 -149c-36 -21 -76 -36 -117 -36c-56 0 -109 29 -109 91c0 72 56 121 103 149c36 21 76 36 117 36z" fill="currentColor"/>
</a>
<a style="color:inherit;" xlink:href="textedit://C:/Users/jwloy/OneDrive/Documents/GitHub/wygioatynlib/notation/wygioatynlib_pulsetrack_2.ly:11:87:88">
<path transform="translate(26.2974, 20.2253) scale(0.0040, -0.0040)" d="M-50 0c0 28 22 50 50 50s50 -22 50 -50s-22 -50 -50 -50s-50 22 -50 50z" fill="currentColor"/>
</a>
<a style="color:inherit;" xlink:href="textedit://C:/Users/jwloy/OneDrive/Documents/GitHub/wygioatynlib/notation/wygioatynlib_pulsetrack_2.ly:11:89:90">
<path transform="translate(26.2974, 21.1213) scale(0.0040, -0.0040)" d="M-211 88c-8 2 -14 9 -14 18c0 10 9 19 19 19c2 0 3 -1 4 -1l408 -105c13 0 19 -6 19 -19s-6 -19 -19 -19l-408 -105c-1 0 -2 -1 -4 -1c-10 0 -19 9 -19 19c0 9 6 16 14 18l251 65l140 23l-140 23z" fill="currentColor"/>
</a>
<rect transform="translate(26.8905, 19.2753)" x="-0.0650" y="-3.3333" width="0.1300" height="3.1455" ry="0.0400" fill="currentColor"/>
<a style="color:inherit;" xlink:href="textedit://C:/Users/jwloy/OneDrive/Documents/GitHub/wygioatynlib/notation/wygioatynlib_pulsetrack_2.ly:12:13:14">
<path transform="translate(34.1635, 19.2753) scale(0.0040, -0.0040)" d="M220 138c56 0 109 -29 109 -91c0 -72 -56 -121 -103 -149c-36 -21 -76 -36 -117 -36c-56 0 -109 29 -109 91c0 72 56 121 103 149c36 21 76 36 117 36z" fill="currentColor"/>
</a>
<a style="color:inherit;" xlink:href="textedit://C:/Users/jwloy/OneDrive/Documents/GitHub/wygioatynlib/notation/wygioatynlib_pulsetrack_2.ly:12:19:20">
<path transform="translate(34.8216, 20.2253) scale(0.0040, -0.0040)" d="M-50 0c0 28 22 50 50 50s50 -22 50 -50s-22 -50 -50 -50s-50 22 -50 50z" fill="currentColor"/>
</a>
<a style="color:inherit;" xlink:href="textedit://C:/Users/jwloy/OneDrive/Documents/GitHub/wygioatynlib/notation/wygioatynlib_pulsetrack_2.ly:12:21:22">
<path transform="translate(34.8216, 21.1213) scale(0.0040, -0.0040)" d="M-211 88c-8 2 -14 9 -14 18c0 10 9 19 19 19c2 0 3 -1 4 -1l408 -105c13 0 19 -6 19 -19s-6 -19 -19 -19l-408 -105c-1 0 -2 -1 -4 -1c-10 0 -19 9 -19 19c0 9 6 16 14 18l251 65l140 23l-140 23z" fill="currentColor"/>
</a>
<path transform="translate(30.5588, 21.2897) scale(0.0040, -0.0040)" d="M204 307c22 14 44 29 60 50c11 15 19 33 27 50c2 4 5 6 9 6c6 0 13 -5 13 -14v-245h72c10 0 15 -7 15 -14s-5 -15 -15 -15h-72v-8c0 -48 27 -94 72 -94c8 0 12 -5 12 -11s-4 -12 -12 -12c-44 0 -87 13 -131 13s-87 -13 -131 -13c-8 0 -12 6 -12 12s4 11 12 11
c45 0 73 46 73 94v8h-167c-23 0 -31 14 -31 23c0 3 1 5 2 6c80 93 138 207 138 330c0 9 6 16 13 16h3c23 -7 47 -13 71 -13s48 6 71 13c2 1 3 1 5 1c11 0 18 -10 12 -17l-284 -330h167v131c0 8 1 17 8 22z" fill="currentColor"/>
<path transform="translate(30.6954, 19.2753) scale(0.0040, -0.0040)" d="M150 477c-29 0 -59 -8 -59 -33c0 -22 36 -25 36 -47c0 -32 -26 -58 -58 -58s-57 26 -57 58c0 65 67 103 138 103c91 0 169 -33 169 -114c0 -43 -4 -82 -42 -100c-9 -4 -14 -12 -14 -21s5 -18 14 -22c41 -19 56 -57 56 -103c0 -92 -79 -140 -179 -140
c-79 0 -154 42 -154 113c0 36 30 66 66 66s65 -30 65 -66c0 -25 -40 -28 -40 -53c0 -27 32 -37 63 -37c49 0 63 61 63 117v16c0 54 -2 94 -50 94h-80c-10 0 -14 8 -14 15s4 14 14 14h80c49 0 50 43 50 99v8c0 54 -18 91 -67 91z" fill="currentColor"/>
<a style="color:inherit;" xlink:href="textedit://C:/Users/jwloy/OneDrive/Documents/GitHub/wygioatynlib/notation/wygioatynlib_pulsetrack_2.ly:11:2:3">
<path transform="translate(6.6906, 19.2753) scale(0.0040, -0.0040)" d="M220 138c56 0 109 -29 109 -91c0 -72 -56 -121 -103 -149c-36 -21 -76 -36 -117 -36c-56 0 -109 29 -109 91c0 72 56 121 103 149c36 21 76 36 117 36z" fill="currentColor"/>
</a>
<rect transform="translate(17.6797, 19.2753)" x="-0.0650" y="-3.1900" width="0.1300" height="3.0022" ry="0.0400" fill="currentColor"/>
<a style="color:inherit;" xlink:href="textedit://C:/Users/jwloy/OneDrive/Documents/GitHub/wygioatynlib/notation/wygioatynlib_pulsetrack_2.ly:11:56:57">
<path transform="translate(18.6511, 19.2753) scale(0.0040, -0.0040)" d="M220 138c56 0 109 -29 109 -91c0 -72 -56 -121 -103 -149c-36 -21 -76 -36 -117 -36c-56 0 -109 29 -109 91c0 72 56 121 103 149c36 21 76 36 117 36z" fill="currentColor"/>
</a>
<a style="color:inherit;" xlink:href="textedit://C:/Users/jwloy/OneDrive/Documents/GitHub/wygioatynlib/notation/wygioatynlib_pulsetrack_2.ly:11:62:63">
<path transform="translate(19.3092, 20.2253) scale(0.0040, -0.0040)" d="M-50 0c0 28 22 50 50 50s50 -22 50 -50s-22 -50 -50 -50s-50 22 -50 50z" fill="currentColor"/>
</a>
<rect transform="translate(19.9023, 19.2753)" x="-0.0650" y="-3.1900" width="0.1300" height="3.0022" ry="0.0400" fill="currentColor"/>
<a transform="translate(31.4631, 165.1512)" xlink:href="http://lilypond.org/">
<rect x="0.0000" y="-0.4439" width="56.5755" height="2.0827" fill="none" stroke="none" stroke-width="0.0"/>
</a>
<text transform="translate(31.4631, 165.1512)" font-family="Century Schoolbook L" font-size="2.2001" text-anchor="start" fill="currentColor">
<tspan>
Music engraving by LilyPond 2.18.2—www.lilypond.org</tspan>
</text>
</svg>
